<svg width="581" height="575" viewBox="0 0 581 575" fill="none" xmlns="http://www.w3.org/2000/svg">
<path d="M297.777 473.854C193.691 473.854 109.011 389.174 109.011 285.088C109.011 181.002 193.691 96.322 297.777 96.322C401.863 96.322 486.544 181.002 486.544 285.088C486.544 389.174 401.862 473.854 297.777 473.854ZM297.777 107.108C199.639 107.108 119.798 186.95 119.798 285.088C119.798 383.227 199.639 463.068 297.777 463.068C395.916 463.068 475.757 383.227 475.757 285.088C475.757 186.949 395.915 107.108 297.777 107.108Z" fill="#D2B646"/>
<path d="M297.777 487.337C186.257 487.337 95.5281 396.609 95.5281 285.088C95.5281 173.567 186.257 82.839 297.777 82.839C409.298 82.839 500.027 173.568 500.027 285.088C500.027 396.608 409.298 487.337 297.777 487.337ZM297.777 88.231C189.23 88.231 100.921 176.541 100.921 285.087C100.921 393.634 189.231 481.943 297.777 481.943C406.323 481.943 494.633 393.633 494.633 285.087C494.633 176.541 406.323 88.231 297.777 88.231Z" fill="#D2B646"/>
<path d="M297.777 445.269C209.452 445.269 137.595 373.412 137.595 285.087C137.595 196.762 209.452 124.905 297.777 124.905C386.102 124.905 457.959 196.762 457.959 285.087C457.959 373.412 386.101 445.269 297.777 445.269ZM297.777 130.299C212.427 130.299 142.989 199.737 142.989 285.087C142.989 370.437 212.427 439.876 297.777 439.876C383.128 439.876 452.566 370.438 452.566 285.087C452.566 199.736 383.127 130.299 297.777 130.299Z" fill="#D2B646"/>
<path d="M243.564 124.776C243.128 123.437 243.728 122.202 244.994 121.79C246.261 121.378 247.435 122.037 247.871 123.376C248.294 124.679 247.78 125.927 246.441 126.362C245.174 126.774 243.988 126.079 243.564 124.776Z" fill="#D2B646"/>
<path d="M253.759 121.688C253.409 120.325 254.085 119.13 255.375 118.8C256.665 118.469 257.795 119.2 258.145 120.564C258.485 121.891 257.892 123.103 256.529 123.453C255.239 123.782 254.099 123.014 253.759 121.688Z" fill="#D2B646"/>
<path d="M264.121 119.252C263.858 117.869 264.608 116.72 265.917 116.472C267.225 116.224 268.307 117.026 268.569 118.408C268.824 119.754 268.156 120.926 266.774 121.189C265.465 121.437 264.377 120.597 264.121 119.252Z" fill="#D2B646"/>
<path d="M274.587 117.481C274.413 116.084 275.234 114.984 276.555 114.818C277.876 114.653 278.905 115.521 279.08 116.919C279.25 118.278 278.509 119.406 277.112 119.581C275.79 119.746 274.757 118.841 274.587 117.481Z" fill="#D2B646"/>
<path d="M285.16 116.368C285.073 114.963 285.961 113.917 287.29 113.834C288.619 113.751 289.591 114.682 289.679 116.087C289.764 117.454 288.954 118.533 287.549 118.62C286.22 118.703 285.245 117.735 285.16 116.368Z" fill="#D2B646"/>
<path d="M295.685 115.947C295.662 114.539 296.598 113.534 297.93 113.513C299.262 113.492 300.191 114.467 300.214 115.874C300.236 117.244 299.377 118.286 297.969 118.308C296.636 118.33 295.707 117.317 295.685 115.947Z" fill="#D2B646"/>
<path d="M306.447 116.123C306.534 114.718 307.545 113.79 308.874 113.872C310.203 113.954 311.053 114.998 310.966 116.403C310.881 117.77 309.945 118.741 308.54 118.654C307.21 118.572 306.362 117.49 306.447 116.123Z" fill="#D2B646"/>
<path d="M317.045 116.99C317.22 115.592 318.286 114.729 319.608 114.894C320.929 115.059 321.713 116.155 321.538 117.552C321.368 118.911 320.372 119.823 318.975 119.647C317.653 119.482 316.875 118.349 317.045 116.99Z" fill="#D2B646"/>
<path d="M327.581 118.521C327.843 117.138 328.962 116.344 330.27 116.592C331.579 116.84 332.291 117.983 332.029 119.365C331.774 120.711 330.722 121.557 329.339 121.294C328.031 121.046 327.326 119.867 327.581 118.521Z" fill="#D2B646"/>
<path d="M337.965 120.705C338.314 119.341 339.481 118.619 340.771 118.949C342.061 119.278 342.701 120.464 342.352 121.828C342.012 123.155 340.91 123.934 339.546 123.585C338.256 123.255 337.625 122.033 337.965 120.705Z" fill="#D2B646"/>
<path d="M348.231 123.555C348.666 122.216 349.876 121.568 351.143 121.98C352.41 122.391 352.973 123.614 352.538 124.954C352.115 126.257 350.965 126.964 349.626 126.529C348.359 126.118 347.807 124.858 348.231 123.555Z" fill="#D2B646"/>
<path d="M358.286 127.047C358.804 125.738 360.053 125.169 361.291 125.66C362.529 126.151 363.013 127.407 362.494 128.716C361.99 129.989 360.797 130.622 359.488 130.103C358.251 129.612 357.78 128.32 358.286 127.047Z" fill="#D2B646"/>
<path d="M368.073 131.155C368.674 129.882 369.956 129.393 371.161 129.961C372.365 130.529 372.769 131.814 372.169 133.087C371.585 134.326 370.355 134.882 369.082 134.281C367.877 133.714 367.489 132.395 368.073 131.155Z" fill="#D2B646"/>
<path d="M377.596 135.88C378.276 134.647 379.586 134.239 380.753 134.882C381.92 135.525 382.242 136.832 381.563 138.065C380.901 139.265 379.639 139.743 378.406 139.062C377.239 138.421 376.935 137.08 377.596 135.88Z" fill="#D2B646"/>
<path d="M386.822 141.207C387.578 140.019 388.911 139.696 390.035 140.411C391.159 141.125 391.397 142.45 390.641 143.638C389.906 144.793 388.616 145.19 387.428 144.434C386.306 143.72 386.087 142.363 386.822 141.207Z" fill="#D2B646"/>
<path d="M395.673 147.088C396.501 145.949 397.853 145.71 398.93 146.494C400.007 147.278 400.162 148.616 399.333 149.754C398.527 150.861 397.214 151.176 396.076 150.348C395 149.564 394.866 148.195 395.673 147.088Z" fill="#D2B646"/>
<path d="M404.145 153.519C405.043 152.435 406.407 152.28 407.433 153.13C408.458 153.98 408.53 155.324 407.632 156.408C406.757 157.462 405.428 157.695 404.344 156.797C403.319 155.947 403.272 154.574 404.145 153.519Z" fill="#D2B646"/>
<path d="M412.191 160.46C413.155 159.435 414.525 159.365 415.495 160.277C416.465 161.189 416.453 162.535 415.489 163.56C414.551 164.557 413.21 164.706 412.185 163.743C411.215 162.831 411.253 161.457 412.191 160.46Z" fill="#D2B646"/>
<path d="M419.808 167.907C420.835 166.944 422.208 166.961 423.119 167.932C424.03 168.903 423.934 170.246 422.907 171.21C421.908 172.148 420.56 172.212 419.596 171.185C418.685 170.214 418.809 168.845 419.808 167.907Z" fill="#D2B646"/>
<path d="M426.926 175.797C428.011 174.9 429.379 175.001 430.228 176.027C431.078 177.053 430.897 178.388 429.813 179.285C428.757 180.158 427.408 180.139 426.51 179.055C425.662 178.029 425.871 176.67 426.926 175.797Z" fill="#D2B646"/>
<path d="M433.544 184.124C434.683 183.297 436.042 183.485 436.825 184.562C437.608 185.639 437.345 186.959 436.206 187.787C435.098 188.592 433.752 188.488 432.925 187.349C432.142 186.272 432.436 184.93 433.544 184.124Z" fill="#D2B646"/>
<path d="M439.638 192.868C440.827 192.114 442.172 192.386 442.887 193.511C443.6 194.635 443.254 195.937 442.066 196.692C440.909 197.425 439.572 197.237 438.819 196.049C438.104 194.923 438.482 193.602 439.638 192.868Z" fill="#D2B646"/>
<path d="M445.155 201.947C446.389 201.269 447.715 201.626 448.356 202.793C448.997 203.96 448.571 205.237 447.337 205.915C446.137 206.575 444.815 206.303 444.136 205.07C443.494 203.902 443.954 202.607 445.155 201.947Z" fill="#D2B646"/>
<path d="M450.093 211.361C451.366 210.762 452.667 211.202 453.234 212.407C453.8 213.612 453.295 214.859 452.021 215.458C450.781 216.041 449.479 215.687 448.879 214.413C448.312 213.208 448.853 211.944 450.093 211.361Z" fill="#D2B646"/>
<path d="M454.433 221.084C455.742 220.566 457.012 221.087 457.502 222.325C457.991 223.564 457.407 224.777 456.098 225.295C454.824 225.799 453.546 225.362 453.029 224.053C452.539 222.814 453.158 221.587 454.433 221.084Z" fill="#D2B646"/>
<path d="M458.148 231.059C459.487 230.625 460.721 231.226 461.131 232.493C461.541 233.76 460.881 234.933 459.542 235.367C458.239 235.789 456.992 235.273 456.559 233.934C456.149 232.666 456.845 231.481 458.148 231.059Z" fill="#D2B646"/>
<path d="M461.218 241.229C462.582 240.88 463.776 241.557 464.106 242.848C464.436 244.138 463.703 245.268 462.339 245.617C461.012 245.955 459.8 245.362 459.451 243.998C459.121 242.707 459.891 241.568 461.218 241.229Z" fill="#D2B646"/>
<path d="M463.644 251.593C465.027 251.332 466.176 252.083 466.423 253.392C466.67 254.701 465.867 255.782 464.484 256.043C463.138 256.297 461.966 255.627 461.705 254.244C461.458 252.936 462.298 251.848 463.644 251.593Z" fill="#D2B646"/>
<path d="M465.405 262.062C466.801 261.888 467.901 262.71 468.065 264.032C468.229 265.354 467.36 266.382 465.963 266.555C464.604 266.724 463.477 265.983 463.303 264.585C463.139 263.264 464.046 262.231 465.405 262.062Z" fill="#D2B646"/>
<path d="M466.508 272.639C467.913 272.553 468.96 273.443 469.041 274.772C469.122 276.102 468.19 277.074 466.785 277.16C465.417 277.243 464.338 276.433 464.252 275.027C464.17 273.697 465.14 272.723 466.508 272.639Z" fill="#D2B646"/>
<path d="M466.98 283.228C468.388 283.251 469.362 284.218 469.341 285.55C469.32 286.882 468.316 287.779 466.907 287.757C465.537 287.735 464.524 286.843 464.547 285.435C464.568 284.103 465.61 283.206 466.98 283.228Z" fill="#D2B646"/>
<path d="M466.732 293.925C468.137 294.013 469.064 295.025 468.981 296.354C468.898 297.683 467.853 298.532 466.448 298.444C465.081 298.358 464.11 297.42 464.199 296.015C464.283 294.687 465.366 293.84 466.732 293.925Z" fill="#D2B646"/>
<path d="M465.855 304.522C467.252 304.698 468.115 305.766 467.949 307.087C467.782 308.408 466.686 309.191 465.289 309.015C463.93 308.844 463.02 307.846 463.196 306.45C463.362 305.128 464.496 304.35 465.855 304.522Z" fill="#D2B646"/>
<path d="M464.313 315.055C465.696 315.319 466.49 316.439 466.24 317.747C465.99 319.055 464.847 319.767 463.465 319.503C462.119 319.247 461.274 318.195 461.537 316.812C461.787 315.503 462.967 314.798 464.313 315.055Z" fill="#D2B646"/>
<path d="M462.11 325.466C463.473 325.817 464.195 326.985 463.862 328.275C463.531 329.565 462.345 330.203 460.981 329.852C459.655 329.511 458.877 328.407 459.228 327.043C459.561 325.754 460.783 325.125 462.11 325.466Z" fill="#D2B646"/>
<path d="M459.259 335.695C460.598 336.131 461.243 337.342 460.831 338.608C460.418 339.874 459.195 340.436 457.856 340C456.554 339.576 455.848 338.426 456.284 337.086C456.697 335.821 457.957 335.271 459.259 335.695Z" fill="#D2B646"/>
<path d="M455.758 345.747C457.066 346.268 457.634 347.517 457.141 348.754C456.649 349.991 455.393 350.475 454.085 349.954C452.812 349.448 452.181 348.256 452.701 346.947C453.194 345.71 454.486 345.241 455.758 345.747Z" fill="#D2B646"/>
<path d="M451.641 355.53C452.914 356.132 453.402 357.415 452.833 358.619C452.264 359.823 450.979 360.225 449.706 359.624C448.467 359.038 447.912 357.808 448.514 356.535C449.083 355.331 450.403 354.945 451.641 355.53Z" fill="#D2B646"/>
<path d="M446.893 365.075C448.125 365.756 448.53 367.067 447.886 368.232C447.242 369.397 445.935 369.718 444.703 369.038C443.504 368.375 443.029 367.113 443.709 365.881C444.354 364.715 445.695 364.412 446.893 365.075Z" fill="#D2B646"/>
<path d="M441.571 374.268C442.758 375.025 443.08 376.359 442.364 377.482C441.648 378.604 440.323 378.842 439.136 378.086C437.981 377.349 437.586 376.059 438.343 374.872C439.059 373.749 440.416 373.532 441.571 374.268Z" fill="#D2B646"/>
<path d="M435.683 383.114C436.82 383.944 437.059 385.296 436.274 386.372C435.488 387.448 434.151 387.602 433.013 386.772C431.906 385.965 431.592 384.652 432.422 383.514C433.208 382.439 434.576 382.306 435.683 383.114Z" fill="#D2B646"/>
<path d="M429.244 391.581C430.327 392.48 430.481 393.845 429.63 394.869C428.779 395.894 427.435 395.964 426.351 395.065C425.297 394.19 425.065 392.86 425.965 391.776C426.816 390.752 428.19 390.705 429.244 391.581Z" fill="#D2B646"/>
<path d="M422.276 399.642C423.301 400.607 423.369 401.978 422.456 402.948C421.543 403.917 420.196 403.904 419.171 402.939C418.174 402 418.026 400.658 418.991 399.633C419.904 398.663 421.278 398.703 422.276 399.642Z" fill="#D2B646"/>
<path d="M414.842 407.229C415.805 408.256 415.787 409.629 414.815 410.54C413.843 411.451 412.5 411.354 411.537 410.326C410.6 409.326 410.536 407.978 411.564 407.015C412.536 406.104 413.905 406.229 414.842 407.229Z" fill="#D2B646"/>
<path d="M406.922 414.36C407.819 415.446 407.715 416.815 406.688 417.663C405.66 418.511 404.326 418.33 403.43 417.244C402.558 416.187 402.579 414.838 403.664 413.941C404.69 413.093 406.049 413.303 406.922 414.36Z" fill="#D2B646"/>
<path d="M398.586 420.968C399.412 422.107 399.223 423.466 398.145 424.248C397.067 425.03 395.748 424.765 394.921 423.625C394.117 422.517 394.222 421.171 395.361 420.345C396.439 419.564 397.781 419.859 398.586 420.968Z" fill="#D2B646"/>
<path d="M389.861 427.036C390.615 428.225 390.34 429.57 389.215 430.282C388.09 430.994 386.789 430.648 386.036 429.458C385.303 428.301 385.493 426.965 386.682 426.211C387.807 425.5 389.129 425.879 389.861 427.036Z" fill="#D2B646"/>
<path d="M380.777 432.544C381.454 433.778 381.096 435.103 379.928 435.744C378.761 436.384 377.484 435.956 376.807 434.721C376.148 433.52 376.421 432.198 377.656 431.521C378.823 430.881 380.118 431.342 380.777 432.544Z" fill="#D2B646"/>
<path d="M371.329 437.487C371.927 438.762 371.486 440.062 370.28 440.627C369.074 441.192 367.827 440.685 367.229 439.41C366.648 438.17 367.003 436.868 368.277 436.27C369.484 435.705 370.747 436.247 371.329 437.487Z" fill="#D2B646"/>
<path d="M361.63 441.804C362.146 443.114 361.624 444.384 360.385 444.872C359.146 445.361 357.933 444.775 357.417 443.465C356.915 442.19 357.352 440.914 358.662 440.397C359.901 439.909 361.127 440.53 361.63 441.804Z" fill="#D2B646"/>
<path d="M351.651 445.511C352.083 446.851 351.482 448.085 350.215 448.493C348.947 448.902 347.775 448.241 347.342 446.901C346.921 445.597 347.439 444.351 348.779 443.919C350.045 443.51 351.23 444.208 351.651 445.511Z" fill="#D2B646"/>
<path d="M341.476 448.57C341.823 449.935 341.144 451.129 339.853 451.456C338.562 451.784 337.433 451.05 337.087 449.685C336.75 448.357 337.345 447.145 338.71 446.799C340.001 446.472 341.139 447.243 341.476 448.57Z" fill="#D2B646"/>
<path d="M331.109 450.987C331.369 452.371 330.617 453.518 329.308 453.765C327.999 454.011 326.919 453.207 326.659 451.824C326.406 450.478 327.076 449.306 328.46 449.046C329.768 448.8 330.855 449.641 331.109 450.987Z" fill="#D2B646"/>
<path d="M320.636 452.738C320.808 454.134 319.986 455.233 318.664 455.396C317.343 455.559 316.315 454.688 316.143 453.292C315.975 451.933 316.718 450.806 318.115 450.634C319.436 450.471 320.468 451.378 320.636 452.738Z" fill="#D2B646"/>
<path d="M310.055 453.831C310.14 455.237 309.25 456.282 307.92 456.362C306.591 456.442 305.619 455.509 305.535 454.104C305.453 452.736 306.264 451.658 307.67 451.574C308.999 451.493 309.973 452.464 310.055 453.831Z" fill="#D2B646"/>
<path d="M299.466 454.291C299.444 455.699 298.477 456.673 297.145 456.651C295.813 456.63 294.916 455.626 294.938 454.218C294.96 452.848 295.852 451.835 297.26 451.857C298.591 451.878 299.489 452.92 299.466 454.291Z" fill="#D2B646"/>
<path d="M288.768 454.033C288.678 455.438 287.665 456.365 286.336 456.28C285.007 456.195 284.159 455.149 284.249 453.744C284.337 452.377 285.276 451.408 286.681 451.498C288.009 451.583 288.855 452.667 288.768 454.033Z" fill="#D2B646"/>
<path d="M278.176 453.146C277.998 454.542 276.93 455.403 275.609 455.235C274.288 455.066 273.507 453.97 273.685 452.574C273.858 451.215 274.856 450.307 276.252 450.485C277.573 450.653 278.349 451.787 278.176 453.146Z" fill="#D2B646"/>
<path d="M267.646 451.594C267.381 452.976 266.261 453.769 264.954 453.518C263.646 453.268 262.935 452.124 263.201 450.742C263.459 449.397 264.512 448.553 265.893 448.818C267.201 449.068 267.904 450.249 267.646 451.594Z" fill="#D2B646"/>
<path d="M257.239 449.381C256.887 450.744 255.719 451.464 254.429 451.131C253.139 450.798 252.503 449.612 252.855 448.249C253.198 446.923 254.302 446.147 255.665 446.499C256.953 446.833 257.581 448.055 257.239 449.381Z" fill="#D2B646"/>
<path d="M247.012 446.521C246.574 447.859 245.363 448.503 244.097 448.089C242.831 447.675 242.271 446.451 242.708 445.113C243.134 443.811 244.286 443.107 245.624 443.545C246.889 443.958 247.438 445.219 247.012 446.521Z" fill="#D2B646"/>
<path d="M236.966 443.011C236.445 444.318 235.195 444.885 233.958 444.392C232.721 443.899 232.239 442.642 232.761 441.335C233.268 440.062 234.461 439.432 235.769 439.954C237.006 440.446 237.473 441.738 236.966 443.011Z" fill="#D2B646"/>
<path d="M227.187 438.884C226.584 440.156 225.301 440.643 224.098 440.072C222.894 439.502 222.493 438.217 223.095 436.944C223.682 435.706 224.913 435.152 226.184 435.756C227.388 436.327 227.773 437.647 227.187 438.884Z" fill="#D2B646"/>
<path d="M217.647 434.127C216.965 435.358 215.654 435.763 214.489 435.118C213.324 434.473 213.005 433.165 213.687 431.934C214.351 430.736 215.614 430.261 216.845 430.943C218.011 431.588 218.311 432.929 217.647 434.127Z" fill="#D2B646"/>
<path d="M208.458 428.797C207.7 429.984 206.365 430.305 205.244 429.588C204.121 428.871 203.885 427.545 204.643 426.359C205.381 425.205 206.671 424.81 207.858 425.568C208.98 426.286 209.196 427.644 208.458 428.797Z" fill="#D2B646"/>
<path d="M199.594 422.882C198.762 424.018 197.41 424.255 196.336 423.468C195.261 422.682 195.108 421.344 195.939 420.208C196.748 419.103 198.061 418.79 199.198 419.622C200.272 420.408 200.403 421.777 199.594 422.882Z" fill="#D2B646"/>
<path d="M191.136 416.435C190.235 417.517 188.871 417.669 187.847 416.817C186.824 415.964 186.755 414.62 187.656 413.538C188.532 412.485 189.862 412.255 190.944 413.156C191.967 414.008 192.012 415.382 191.136 416.435Z" fill="#D2B646"/>
<path d="M183.103 409.479C182.137 410.502 180.766 410.568 179.797 409.655C178.829 408.741 178.844 407.394 179.81 406.371C180.751 405.375 182.092 405.229 183.116 406.195C184.085 407.109 184.044 408.482 183.103 409.479Z" fill="#D2B646"/>
<path d="M175.502 402.014C174.473 402.976 173.101 402.956 172.191 401.983C171.281 401.01 171.38 399.667 172.409 398.706C173.409 397.77 174.758 397.708 175.719 398.737C176.629 399.71 176.503 401.079 175.502 402.014Z" fill="#D2B646"/>
<path d="M168.401 394.11C167.315 395.005 165.947 394.9 165.1 393.873C164.253 392.845 164.436 391.511 165.522 390.616C166.579 389.745 167.928 389.768 168.823 390.854C169.671 391.881 169.458 393.239 168.401 394.11Z" fill="#D2B646"/>
<path d="M161.799 385.769C160.658 386.595 159.299 386.404 158.518 385.326C157.737 384.247 158.003 382.927 159.143 382.101C160.253 381.297 161.599 381.404 162.424 382.544C163.205 383.623 162.908 384.965 161.799 385.769Z" fill="#D2B646"/>
<path d="M155.739 377.04C154.549 377.792 153.204 377.518 152.492 376.392C151.78 375.267 152.128 373.965 153.318 373.213C154.476 372.481 155.812 372.671 156.565 373.861C157.277 374.986 156.897 376.307 155.739 377.04Z" fill="#D2B646"/>
<path d="M150.224 367.921C148.989 368.597 147.665 368.237 147.025 367.069C146.385 365.901 146.815 364.625 148.05 363.949C149.251 363.291 150.573 363.565 151.249 364.801C151.889 365.969 151.426 367.263 150.224 367.921Z" fill="#D2B646"/>
<path d="M145.306 358.495C144.031 359.092 142.731 358.649 142.167 357.443C141.603 356.237 142.111 354.99 143.386 354.393C144.627 353.812 145.929 354.169 146.525 355.445C147.09 356.652 146.547 357.914 145.306 358.495Z" fill="#D2B646"/>
<path d="M140.997 348.792C139.687 349.308 138.418 348.784 137.931 347.545C137.444 346.305 138.03 345.094 139.34 344.578C140.614 344.077 141.891 344.515 142.406 345.825C142.893 347.065 142.272 348.291 140.997 348.792Z" fill="#D2B646"/>
<path d="M137.3 338.807C135.96 339.238 134.727 338.636 134.319 337.368C133.911 336.1 134.573 334.928 135.914 334.497C137.218 334.077 138.464 334.596 138.896 335.937C139.302 337.203 138.604 338.387 137.3 338.807Z" fill="#D2B646"/>
<path d="M134.25 328.629C132.886 328.974 131.693 328.295 131.367 327.004C131.04 325.713 131.775 324.585 133.139 324.24C134.468 323.904 135.678 324.5 136.023 325.865C136.35 327.156 135.578 328.293 134.25 328.629Z" fill="#D2B646"/>
<path d="M131.843 318.256C130.459 318.515 129.312 317.76 129.067 316.451C128.823 315.142 129.628 314.063 131.013 313.804C132.36 313.553 133.53 314.225 133.788 315.609C134.032 316.919 133.19 318.005 131.843 318.256Z" fill="#D2B646"/>
<path d="M130.102 307.78C128.704 307.951 127.606 307.127 127.445 305.805C127.283 304.483 128.154 303.457 129.552 303.285C130.912 303.118 132.038 303.862 132.209 305.26C132.371 306.583 131.462 307.614 130.102 307.78Z" fill="#D2B646"/>
<path d="M129.019 297.198C127.613 297.281 126.569 296.39 126.49 295.061C126.411 293.731 127.345 292.761 128.75 292.678C130.118 292.597 131.195 293.409 131.279 294.815C131.359 296.144 130.386 297.117 129.019 297.198Z" fill="#D2B646"/>
<path d="M128.572 286.608C127.164 286.586 126.19 285.618 126.212 284.286C126.233 282.954 127.237 282.057 128.645 282.079C130.015 282.101 131.028 282.993 131.006 284.401C130.985 285.733 129.943 286.629 128.572 286.608Z" fill="#D2B646"/>
<path d="M128.838 275.91C127.433 275.819 126.507 274.806 126.594 273.476C126.68 272.147 127.727 271.3 129.132 271.391C130.499 271.48 131.467 272.42 131.376 273.825C131.289 275.154 130.205 275.999 128.838 275.91Z" fill="#D2B646"/>
<path d="M129.736 265.321C128.34 265.142 127.479 264.072 127.649 262.752C127.818 261.431 128.916 260.651 130.312 260.83C131.671 261.004 132.579 262.003 132.399 263.399C132.23 264.72 131.094 265.496 129.736 265.321Z" fill="#D2B646"/>
<path d="M131.298 254.795C129.916 254.528 129.125 253.406 129.377 252.099C129.629 250.791 130.773 250.082 132.156 250.349C133.501 250.609 134.344 251.663 134.077 253.045C133.825 254.351 132.643 255.053 131.298 254.795Z" fill="#D2B646"/>
<path d="M133.52 244.39C132.157 244.036 131.438 242.867 131.772 241.578C132.107 240.288 133.293 239.653 134.656 240.006C135.982 240.35 136.757 241.455 136.403 242.817C136.07 244.107 134.845 244.733 133.52 244.39Z" fill="#D2B646"/>
<path d="M136.391 234.168C135.053 233.729 134.409 232.516 134.825 231.251C135.241 229.985 136.465 229.426 137.804 229.865C139.106 230.292 139.809 231.445 139.37 232.783C138.954 234.048 137.693 234.595 136.391 234.168Z" fill="#D2B646"/>
<path d="M139.908 224.125C138.6 223.603 138.035 222.352 138.529 221.115C139.023 219.879 140.281 219.398 141.589 219.92C142.86 220.428 143.49 221.622 142.967 222.93C142.474 224.167 141.181 224.633 139.908 224.125Z" fill="#D2B646"/>
<path d="M144.058 214.323C142.787 213.719 142.301 212.435 142.872 211.232C143.444 210.029 144.729 209.629 146.001 210.233C147.238 210.821 147.791 212.052 147.187 213.324C146.615 214.527 145.295 214.911 144.058 214.323Z" fill="#D2B646"/>
<path d="M148.811 204.818C147.58 204.134 147.177 202.823 147.824 201.658C148.47 200.494 149.779 200.176 151.01 200.859C152.207 201.524 152.68 202.788 151.997 204.018C151.35 205.183 150.009 205.482 148.811 204.818Z" fill="#D2B646"/>
<path d="M154.15 195.634C152.964 194.874 152.644 193.54 153.362 192.418C154.08 191.297 155.406 191.061 156.592 191.82C157.746 192.559 158.139 193.85 157.38 195.036C156.661 196.158 155.303 196.373 154.15 195.634Z" fill="#D2B646"/>
<path d="M160.071 186.777C158.935 185.944 158.699 184.592 159.487 183.518C160.274 182.444 161.611 182.292 162.747 183.123C163.852 183.933 164.164 185.245 163.332 186.381C162.545 187.456 161.176 187.586 160.071 186.777Z" fill="#D2B646"/>
<path d="M166.528 178.323C165.447 177.422 165.296 176.058 166.149 175.034C167.001 174.011 168.346 173.943 169.427 174.845C170.48 175.721 170.709 177.051 169.807 178.133C168.954 179.156 167.58 179.2 166.528 178.323Z" fill="#D2B646"/>
<path d="M173.491 170.298C172.469 169.331 172.403 167.96 173.317 166.992C174.232 166.024 175.578 166.04 176.602 167.007C177.598 167.948 177.743 169.29 176.776 170.313C175.861 171.281 174.487 171.239 173.491 170.298Z" fill="#D2B646"/>
<path d="M180.963 162.704C180.003 161.675 180.023 160.303 180.997 159.394C181.971 158.485 183.313 158.586 184.273 159.615C185.207 160.617 185.268 161.964 184.239 162.925C183.265 163.834 181.897 163.706 180.963 162.704Z" fill="#D2B646"/>
<path d="M188.873 155.61C187.978 154.522 188.084 153.153 189.114 152.307C190.142 151.461 191.477 151.645 192.371 152.733C193.241 153.791 193.218 155.141 192.13 156.035C191.102 156.88 189.744 156.668 188.873 155.61Z" fill="#D2B646"/>
<path d="M197.222 149.016C196.397 147.875 196.589 146.515 197.668 145.736C198.748 144.956 200.067 145.223 200.892 146.364C201.694 147.475 201.587 148.82 200.445 149.645C199.366 150.424 198.025 150.127 197.222 149.016Z" fill="#D2B646"/>
<path d="M205.957 142.964C205.206 141.773 205.482 140.429 206.608 139.718C207.734 139.008 209.034 139.356 209.786 140.547C210.517 141.705 210.326 143.042 209.135 143.793C208.009 144.503 206.689 144.122 205.957 142.964Z" fill="#D2B646"/>
<path d="M215.081 137.457C214.406 136.222 214.766 134.897 215.936 134.259C217.104 133.621 218.38 134.051 219.055 135.287C219.711 136.49 219.435 137.81 218.2 138.485C217.031 139.124 215.737 138.66 215.081 137.457Z" fill="#D2B646"/>
<path d="M224.512 132.547C223.916 131.272 224.36 129.973 225.567 129.409C226.774 128.845 228.02 129.356 228.615 130.632C229.195 131.873 228.837 133.175 227.56 133.771C226.354 134.333 225.091 133.789 224.512 132.547Z" fill="#D2B646"/>
<path d="M234.221 128.247C233.707 126.936 234.231 125.668 235.471 125.182C236.711 124.696 237.922 125.284 238.436 126.594C238.937 127.869 238.497 129.145 237.186 129.659C235.946 130.145 234.72 129.523 234.221 128.247Z" fill="#D2B646"/>
<path d="M296.442 129.468L296.849 148.488L292.816 148.574L292.411 129.554L296.442 129.468Z" fill="#D2B646"/>
<path d="M311.335 130.067L309.902 149.035L305.88 148.732L307.314 129.763L311.335 130.067Z" fill="#D2B646"/>
<path d="M326.058 132.076L322.816 150.828L318.842 150.141L322.084 131.389L326.058 132.076Z" fill="#D2B646"/>
<path d="M340.517 135.48L335.517 153.845L331.626 152.785L336.624 134.42L340.517 135.48Z" fill="#D2B646"/>
<path d="M354.565 140.226L347.862 158.029L344.088 156.61L350.791 138.807L354.565 140.226Z" fill="#D2B646"/>
<path d="M368.129 146.291L359.769 163.374L356.145 161.603L364.505 144.519L368.129 146.291Z" fill="#D2B646"/>
<path d="M381.077 153.635L371.107 169.841L367.67 167.727L377.642 151.521L381.077 153.635Z" fill="#D2B646"/>
<path d="M393.23 162.173L381.749 177.343L378.532 174.911L390.014 159.74L393.23 162.173Z" fill="#D2B646"/>
<path d="M404.513 171.846L391.632 185.841L388.663 183.111L401.545 169.118L404.513 171.846Z" fill="#D2B646"/>
<path d="M414.827 182.561L400.666 195.263L397.971 192.261L412.133 179.559L414.827 182.561Z" fill="#D2B646"/>
<path d="M424.061 194.199L408.758 205.492L406.361 202.247L421.664 190.953L424.061 194.199Z" fill="#D2B646"/>
<path d="M432.159 206.675L415.846 216.464L413.77 213.008L430.084 203.218L432.159 206.675Z" fill="#D2B646"/>
<path d="M439.026 219.844L421.861 228.057L420.122 224.417L437.287 216.205L439.026 219.844Z" fill="#D2B646"/>
<path d="M444.611 233.604L426.744 240.144L425.357 236.357L443.224 229.815L444.611 233.604Z" fill="#D2B646"/>
<path d="M448.866 247.848L430.455 252.646L429.435 248.745L447.846 243.947L448.866 247.848Z" fill="#D2B646"/>
<path d="M451.741 262.415L432.953 265.434L432.31 261.451L451.099 258.433L451.741 262.415Z" fill="#D2B646"/>
<path d="M453.202 277.228L434.217 278.435L433.962 274.411L452.946 273.204L453.202 277.228Z" fill="#D2B646"/>
<path d="M453.244 292.086L434.224 291.462L434.355 287.432L453.376 288.056L453.244 292.086Z" fill="#D2B646"/>
<path d="M451.848 306.915L432.978 304.463L433.497 300.462L452.366 302.915L451.848 306.915Z" fill="#D2B646"/>
<path d="M449.048 321.479L430.504 317.252L431.401 313.32L449.944 317.546L449.048 321.479Z" fill="#D2B646"/>
<path d="M444.88 335.744L426.819 329.789L428.082 325.957L446.143 331.913L444.88 335.744Z" fill="#D2B646"/>
<path d="M439.4 349.541L421.979 341.906L423.599 338.211L441.018 345.847L439.4 349.541Z" fill="#D2B646"/>
<path d="M432.605 362.779L415.998 353.514L417.965 349.992L434.572 359.257L432.605 362.779Z" fill="#D2B646"/>
<path d="M424.601 375.272L408.957 364.456L411.252 361.139L426.897 371.954L424.601 375.272Z" fill="#D2B646"/>
<path d="M415.406 386.976L400.868 374.704L403.47 371.623L418.01 383.895L415.406 386.976Z" fill="#D2B646"/>
<path d="M405.144 397.729L391.85 384.112L394.737 381.294L408.032 394.91L405.144 397.729Z" fill="#D2B646"/>
<path d="M393.907 407.446L381.971 392.62L385.112 390.092L397.048 404.917L393.907 407.446Z" fill="#D2B646"/>
<path d="M381.789 416.041L371.319 400.16L374.687 397.94L385.156 413.822L381.789 416.041Z" fill="#D2B646"/>
<path d="M368.912 423.462L359.992 406.653L363.555 404.764L372.475 421.573L368.912 423.462Z" fill="#D2B646"/>
<path d="M355.381 429.621L348.099 412.047L351.826 410.504L359.108 428.078L355.381 429.621Z" fill="#D2B646"/>
<path d="M341.322 434.476L335.755 416.283L339.61 415.1L345.177 433.293L341.322 434.476Z" fill="#D2B646"/>
<path d="M326.905 437.951L323.084 419.317L327.036 418.508L330.857 437.141L326.905 437.951Z" fill="#D2B646"/>
<path d="M312.184 440.044L310.166 421.125L314.176 420.7L316.194 439.619L312.184 440.044Z" fill="#D2B646"/>
<path d="M297.317 440.709L297.134 421.687L301.167 421.648L301.35 440.671L297.317 440.709Z" fill="#D2B646"/>
<path d="M282.465 439.946L284.117 420.993L288.136 421.342L286.484 440.295L282.465 439.946Z" fill="#D2B646"/>
<path d="M267.776 437.762L271.227 419.055L275.193 419.787L271.741 438.495L267.776 437.762Z" fill="#D2B646"/>
<path d="M253.387 434.214L258.543 415.896L262.427 416.992L257.27 435.309L253.387 434.214Z" fill="#D2B646"/>
<path d="M239.35 429.297L246.253 411.57L250.011 413.032L243.108 430.757L239.35 429.297Z" fill="#D2B646"/>
<path d="M225.853 423.082L234.409 406.091L238.011 407.905L229.456 424.895L225.853 423.082Z" fill="#D2B646"/>
<path d="M212.983 415.579L223.139 399.497L226.55 401.649L216.394 417.731L212.983 415.579Z" fill="#D2B646"/>
<path d="M200.926 406.898L212.572 391.862L215.761 394.332L204.115 409.367L200.926 406.898Z" fill="#D2B646"/>
<path d="M189.74 397.083L202.783 383.24L205.72 386.005L192.677 399.848L189.74 397.083Z" fill="#D2B646"/>
<path d="M179.56 386.264L193.861 373.725L196.522 376.757L182.22 389.296L179.56 386.264Z" fill="#D2B646"/>
<path d="M170.454 374.521L185.894 363.405L188.253 366.677L172.814 377.793L170.454 374.521Z" fill="#D2B646"/>
<path d="M162.526 361.982L178.939 352.377L180.976 355.856L164.563 365.462L162.526 361.982Z" fill="#D2B646"/>
<path d="M155.798 348.733L173.057 340.722L174.755 344.38L157.496 352.392L155.798 348.733Z" fill="#D2B646"/>
<path d="M150.362 334.881L168.303 328.551L169.645 332.355L151.704 338.685L150.362 334.881Z" fill="#D2B646"/>
<path d="M146.284 320.619L164.737 316.022L165.712 319.936L147.258 324.533L146.284 320.619Z" fill="#D2B646"/>
<path d="M143.571 305.981L162.381 303.174L162.975 307.164L144.165 309.971L143.571 305.981Z" fill="#D2B646"/>
<path d="M142.266 291.195L161.273 290.201L161.483 294.228L142.476 295.223L142.266 291.195Z" fill="#D2B646"/>
<path d="M142.406 276.313L161.412 277.156L161.234 281.185L142.227 280.341L142.406 276.313Z" fill="#D2B646"/>
<path d="M143.966 261.511L162.805 264.177L162.241 268.172L143.402 265.504L143.966 261.511Z" fill="#D2B646"/>
<path d="M146.928 246.979L165.426 251.416L164.485 255.338L145.987 250.902L146.928 246.979Z" fill="#D2B646"/>
<path d="M151.254 232.752L169.253 238.912L167.947 242.727L149.948 236.567L151.254 232.752Z" fill="#D2B646"/>
<path d="M156.888 219.018L174.231 226.855L172.57 230.53L155.227 222.693L156.888 219.018Z" fill="#D2B646"/>
<path d="M163.819 205.876L180.332 215.337L178.327 218.836L161.813 209.376L163.819 205.876Z" fill="#D2B646"/>
<path d="M171.995 193.446L187.515 204.447L185.183 207.737L169.662 196.736L171.995 193.446Z" fill="#D2B646"/>
<path d="M181.327 181.857L195.71 194.304L193.072 197.356L178.689 184.908L181.327 181.857Z" fill="#D2B646"/>
<path d="M191.717 171.229L204.848 184.987L201.93 187.77L188.799 174.013L191.717 171.229Z" fill="#D2B646"/>
<path d="M203.058 161.648L214.821 176.595L211.651 179.087L199.888 164.142L203.058 161.648Z" fill="#D2B646"/>
<path d="M215.264 153.181L225.56 169.182L222.167 171.362L211.872 155.361L215.264 153.181Z" fill="#D2B646"/>
<path d="M228.234 145.91L236.954 162.814L233.37 164.664L224.651 147.759L228.234 145.91Z" fill="#D2B646"/>
<path d="M241.827 139.896L248.91 157.563L245.166 159.064L238.084 141.396L241.827 139.896Z" fill="#D2B646"/>
<path d="M255.922 135.219L261.283 153.47L257.413 154.61L252.052 136.357L255.922 135.219Z" fill="#D2B646"/>
<path d="M270.39 131.895L273.988 150.582L270.028 151.346L266.429 132.659L270.39 131.895Z" fill="#D2B646"/>
<path d="M285.149 129.978L286.938 148.914L282.924 149.295L281.135 130.359L285.149 129.978Z" fill="#D2B646"/>
<path d="M297.777 422.617C221.943 422.617 160.247 360.921 160.247 285.087C160.247 209.253 221.943 147.557 297.777 147.557C373.612 147.557 435.307 209.253 435.307 285.087C435.307 360.921 373.611 422.617 297.777 422.617ZM297.777 152.951C224.917 152.951 165.641 212.227 165.641 285.087C165.641 357.947 224.917 417.223 297.777 417.223C370.637 417.223 429.914 357.947 429.914 285.087C429.913 212.227 370.637 152.951 297.777 152.951Z" fill="#D2B646"/>
<path d="M261.552 252.676L246.236 237.361L297.777 40.742L349.318 237.361L334.335 252.342L330.522 248.529L343.316 235.735L297.777 62.012L252.238 235.735L265.365 248.863L261.552 252.676Z" fill="#D2B646"/>
<path d="M300.474 51.377H295.08V236.547H300.474V51.377Z" fill="#D2B646"/>
<path d="M383.717 246.812L378.674 244.901L403.524 179.327L338.054 203.935L336.157 198.886L412.796 170.081L383.717 246.812Z" fill="#D2B646"/>
<path d="M406.263 172.832L344.289 234.544L348.095 238.366L410.069 176.654L406.263 172.832Z" fill="#D2B646"/>
<path d="M211.965 246.778L182.899 170.081L259.409 198.838L257.511 203.887L192.171 179.327L217.008 244.867L211.965 246.778Z" fill="#D2B646"/>
<path d="M189.434 172.77L185.628 176.591L245.91 236.618L249.716 232.796L189.434 172.77Z" fill="#D2B646"/>
<path d="M412.796 399.717L336.355 370.986L338.252 365.937L403.524 390.471L378.959 325.649L384.003 323.738L412.796 399.717Z" fill="#D2B646"/>
<path d="M348.505 331.899L344.699 335.72L406.25 397.029L410.057 393.207L348.505 331.899Z" fill="#D2B646"/>
<path d="M182.899 399.717L211.679 323.772L216.723 325.682L192.171 390.471L257.314 365.986L259.211 371.034L182.899 399.717Z" fill="#D2B646"/>
<path d="M246.594 332.469L185.626 393.178L189.432 396.999L250.399 336.29L246.594 332.469Z" fill="#D2B646"/>
<path d="M297.777 529.883L246.236 333.264L261.773 317.728L265.586 321.541L252.238 334.889L297.777 508.613L343.316 334.889L329.968 321.541L333.781 317.728L349.318 333.264L297.777 529.883Z" fill="#D2B646"/>
<path d="M300.474 333.628H295.08V519.248H300.474V333.628Z" fill="#D2B646"/>
<path d="M345.729 336.854L330.193 321.317L334.006 317.503L347.354 330.851L521.077 285.313L347.354 239.774L334.23 252.897L330.416 249.084L345.729 233.772L542.347 285.313L345.729 336.854Z" fill="#D2B646"/>
<path d="M531.712 282.616H346.317V288.009H531.712V282.616Z" fill="#D2B646"/>
<path d="M249.824 336.854L53.2061 285.313L249.824 233.772L265.14 249.087L261.327 252.9L248.199 239.774L74.4761 285.313L248.199 330.851L261.547 317.504L265.361 321.317L249.824 336.854Z" fill="#D2B646"/>
<path d="M249.236 282.616H63.8411V288.009H249.236V282.616Z" fill="#D2B646"/>
<path d="M297.777 336.324C269.526 336.324 246.541 313.339 246.541 285.087C246.541 256.835 269.526 233.851 297.777 233.851C326.029 233.851 349.014 256.835 349.014 285.087C349.013 313.34 326.028 336.324 297.777 336.324ZM297.777 239.244C272.499 239.244 251.934 259.809 251.934 285.087C251.934 310.365 272.499 330.93 297.777 330.93C323.055 330.93 343.62 310.365 343.62 285.087C343.62 259.81 323.055 239.244 297.777 239.244Z" fill="#D2B646"/>
<path d="M297.777 229.716V56.77L312.773 108.583L345.842 234.735L333.373 248.818C333.373 248.818 310.586 236.413 297.777 236.548V229.716Z" fill="#D2B646"/>
<path d="M353.113 285.087H526.059L474.246 300.083L348.094 333.152L334.011 320.683C334.011 320.683 346.416 297.896 346.281 285.087H353.113Z" fill="#D2B646"/>
<path d="M298.82 340.209V513.155L283.824 461.342L250.755 335.19L263.224 321.107C263.224 321.107 286.011 333.512 298.82 333.377V340.209Z" fill="#D2B646"/>
<path d="M243.484 284.837H70.5381L122.351 269.841L248.502 236.773L262.584 249.242C262.584 249.242 250.179 272.029 250.314 284.838L243.484 284.837Z" fill="#D2B646"/>
<path d="M249.236 236.547L188.831 174.704L259.256 201.688L249.236 236.547Z" fill="#D2B646"/>
<path d="M346.255 235.473L408.098 175.068L381.114 245.492L346.255 235.473Z" fill="#D2B646"/>
<path d="M348.048 333.444L408.453 395.288L338.029 368.304L348.048 333.444Z" fill="#D2B646"/>
<path d="M251.03 334.518L189.187 394.923L216.171 324.5L251.03 334.518Z" fill="#D2B646"/>
<path d="M277.291 40.66C276.667 40.579 276.063 40.443 275.48 40.254C274.897 40.064 274.334 39.793 273.791 39.44C272.95 38.925 272.271 38.267 271.757 37.466C271.241 36.666 270.861 35.805 270.617 34.881C270.373 33.959 270.243 33.003 270.23 32.012C270.215 31.022 270.277 30.093 270.413 29.224C270.902 26.456 271.926 23.865 273.486 21.451C275.045 19.036 276.965 17.014 279.245 15.386C280.086 14.789 280.989 14.247 281.952 13.758C282.915 13.27 283.912 12.971 284.943 12.863C285.731 12.781 286.483 12.761 287.202 12.801C287.921 12.842 288.593 13.12 289.217 13.635C289.896 14.178 290.439 14.795 290.845 15.487C291.252 16.179 291.523 16.911 291.659 17.685C291.794 18.458 291.794 19.246 291.659 20.046C291.522 20.846 291.278 21.627 290.926 22.386C290.736 22.766 290.519 23.159 290.275 23.567C290.031 23.974 289.759 24.354 289.461 24.706C289.352 24.842 289.162 25.046 288.891 25.317C288.62 25.588 288.322 25.839 287.996 26.07C287.67 26.3 287.351 26.457 287.04 26.538C286.728 26.62 286.476 26.538 286.287 26.294C286.151 26.159 286.137 25.976 286.246 25.744C286.353 25.514 286.517 25.331 286.734 25.195C287.249 24.87 287.656 24.442 287.955 23.913C288.253 23.384 288.463 22.814 288.585 22.204C288.707 21.594 288.748 20.977 288.707 20.352C288.666 19.729 288.551 19.159 288.361 18.643C288.116 17.911 287.757 17.321 287.282 16.873C286.807 16.425 286.265 16.1 285.654 15.896C285.044 15.693 284.392 15.611 283.7 15.652C283.009 15.693 282.337 15.821 281.685 16.038C280.844 16.31 280.071 16.71 279.366 17.239C278.66 17.768 278.016 18.372 277.432 19.05C276.848 19.729 276.333 20.461 275.886 21.248C275.438 22.036 275.065 22.809 274.767 23.568C274.495 24.246 274.271 24.959 274.096 25.704C273.918 26.451 273.797 27.204 273.729 27.963C273.662 28.723 273.682 29.476 273.79 30.222C273.899 30.968 274.103 31.681 274.401 32.359C274.889 33.472 275.554 34.292 276.395 34.821C277.236 35.35 278.146 35.67 279.122 35.778C280.099 35.887 281.103 35.798 282.134 35.514C283.165 35.229 284.129 34.829 285.024 34.313C286.57 33.391 287.981 32.326 289.257 31.119C290.532 29.912 291.74 28.616 292.879 27.232C293.965 25.903 295.008 24.54 296.013 23.142C297.016 21.744 297.953 20.3 298.821 18.807C299.229 18.074 299.696 17.369 300.226 16.69C300.755 16.012 301.223 15.306 301.629 14.574C302.009 13.923 302.429 13.279 302.891 12.64C303.353 12.003 303.787 11.358 304.193 10.707C304.654 10.002 305.122 9.29 305.598 8.57C306.072 7.851 306.58 7.152 307.123 6.474C307.666 5.796 308.229 5.137 308.812 4.5C309.395 3.863 310.013 3.272 310.664 2.729C310.772 2.647 310.929 2.525 311.132 2.363C311.335 2.2 311.559 2.044 311.803 1.895C312.048 1.746 312.292 1.645 312.535 1.59C312.78 1.536 312.97 1.576 313.105 1.712C313.268 1.848 313.309 2.011 313.227 2.2C313.146 2.39 313.023 2.58699 312.861 2.78999C312.698 2.99299 312.521 3.177 312.331 3.339C312.141 3.502 312.006 3.62399 311.924 3.70499C311.626 4.03099 311.402 4.363 311.253 4.702C311.103 5.042 310.96 5.414 310.826 5.821C310.445 7.07 310.222 8.31799 310.155 9.56599C310.086 10.814 310.026 12.09 309.971 13.392C309.916 14.613 309.869 15.813 309.828 16.994C309.788 18.174 309.74 19.375 309.686 20.596C309.658 21.111 309.645 21.648 309.645 22.203C309.645 22.76 309.591 23.295 309.483 23.811C309.401 24.354 309.299 24.896 309.177 25.439C309.055 25.982 308.926 26.524 308.791 27.067C308.764 27.203 308.716 27.372 308.648 27.576C308.58 27.779 308.512 27.983 308.445 28.186C308.376 28.389 308.329 28.593 308.302 28.796C308.274 29 308.287 29.156 308.342 29.264C308.939 28.45 309.462 27.589 309.909 26.679C310.356 25.77 310.851 24.882 311.394 24.013C311.882 23.226 312.343 22.426 312.777 21.612C313.211 20.798 313.672 19.998 314.161 19.21C315.301 17.366 316.42 15.534 317.518 13.716C318.617 11.899 319.777 10.108 320.998 8.34299C321.514 7.58399 322.057 6.81099 322.626 6.02399C323.195 5.23699 323.806 4.477 324.458 3.745C325.109 3.012 325.801 2.348 326.534 1.75C327.267 1.154 328.067 0.664996 328.935 0.284996C329.369 0.094996 329.851 0 330.38 0C330.909 0 331.362 0.135998 331.743 0.406998C332.286 0.786998 332.557 1.317 332.557 1.994C332.557 2.673 332.407 3.27 332.109 3.785C331.891 4.138 331.627 4.369 331.315 4.477C331.002 4.586 330.67 4.64 330.317 4.64C329.964 4.64 329.611 4.61899 329.259 4.57899C328.905 4.53799 328.567 4.546 328.241 4.6C327.698 4.709 327.216 4.946 326.796 5.312C326.375 5.678 325.988 6.038 325.636 6.391C325.229 6.771 324.835 7.164 324.456 7.571C324.076 7.978 323.709 8.399 323.357 8.833C322.625 9.674 321.925 10.536 321.261 11.418C320.596 12.3 319.952 13.202 319.327 14.124C318.377 15.454 317.488 16.831 316.662 18.255C315.833 19.679 315.013 21.11 314.2 22.548C313.249 24.258 312.273 25.961 311.269 27.656C310.265 29.352 309.261 31.054 308.257 32.764C307.985 33.226 307.708 33.679 307.423 34.127C307.137 34.575 306.833 35.002 306.507 35.409C306.208 35.789 305.917 36.182 305.632 36.59C305.346 36.996 305.082 37.39 304.838 37.77C304.756 37.906 304.6 38.136 304.37 38.461C304.139 38.787 303.888 39.099 303.617 39.398C303.345 39.697 303.067 39.907 302.782 40.029C302.497 40.151 302.26 40.063 302.07 39.764C301.935 39.574 301.901 39.357 301.968 39.113C302.036 38.869 302.131 38.625 302.253 38.381C302.375 38.137 302.51 37.899 302.66 37.669C302.809 37.439 302.925 37.228 303.006 37.038C303.439 36.007 303.745 34.942 303.921 33.843C304.097 32.744 304.212 31.632 304.267 30.506C304.321 29.38 304.328 28.255 304.288 27.128C304.247 26.002 304.227 24.883 304.227 23.77C304.199 23.092 304.193 22.427 304.206 21.776C304.219 21.125 304.253 20.46 304.308 19.781C304.335 19.157 304.376 18.547 304.43 17.95C304.484 17.353 304.552 16.743 304.634 16.119C304.768 15.251 304.932 14.416 305.122 13.616C305.312 12.816 305.556 12.008 305.855 11.194C305.909 11.059 305.963 10.923 306.017 10.787C306.072 10.651 306.112 10.516 306.14 10.38C305.082 11.764 304.125 13.209 303.271 14.715C302.416 16.221 301.568 17.733 300.727 19.253C299.831 20.855 298.889 22.407 297.898 23.913C296.907 25.419 295.897 26.932 294.866 28.451C293.835 29.997 292.75 31.476 291.61 32.887C290.47 34.298 289.168 35.574 287.703 36.713C286.97 37.282 286.197 37.832 285.383 38.361C284.569 38.89 283.721 39.338 282.839 39.704C281.957 40.07 281.049 40.342 280.112 40.518C279.184 40.695 278.24 40.742 277.291 40.66Z" fill="#D2B646"/>
<path d="M287.114 574.435C286.544 574.353 285.988 574.245 285.445 574.109C284.902 573.973 284.373 573.797 283.858 573.58C282.474 572.983 281.361 572.183 280.52 571.179C279.679 570.176 279.041 568.954 278.607 567.516C278.2 566.132 278.098 564.701 278.301 563.222C278.505 561.743 278.918 560.312 279.542 558.928C280.166 557.544 280.973 556.263 281.964 555.082C282.954 553.902 284.02 552.932 285.159 552.172C286.651 551.195 288.252 550.477 289.962 550.015C290.477 549.88 291.013 549.798 291.57 549.771C292.126 549.744 292.675 549.798 293.218 549.934C294.385 550.233 295.266 550.783 295.864 551.582C296.461 552.382 296.827 553.291 296.963 554.309C297.098 555.327 297.044 556.378 296.8 557.463C296.555 558.549 296.175 559.498 295.66 560.312C295.362 560.747 295.043 561.153 294.704 561.533C294.364 561.913 293.977 562.252 293.544 562.551C293.436 562.632 293.286 562.734 293.096 562.856C292.906 562.978 292.709 563.08 292.506 563.161C292.302 563.242 292.099 563.297 291.895 563.324C291.691 563.352 291.522 563.297 291.387 563.161C291.278 563.053 291.23 562.944 291.244 562.835C291.258 562.727 291.305 562.618 291.387 562.509C291.468 562.401 291.556 562.299 291.651 562.204C291.746 562.109 291.834 562.035 291.915 561.98C292.186 561.764 292.451 561.553 292.709 561.349C292.967 561.146 293.163 560.895 293.299 560.597C293.57 560.081 293.794 559.471 293.97 558.766C294.146 558.06 294.228 557.348 294.215 556.629C294.2 555.91 294.065 555.232 293.808 554.594C293.55 553.957 293.137 553.448 292.567 553.068C291.807 552.58 291.02 552.322 290.206 552.295C289.392 552.269 288.605 552.411 287.846 552.722C287.086 553.035 286.387 553.469 285.75 554.025C285.112 554.581 284.576 555.199 284.142 555.877C283.382 557.098 282.785 558.455 282.352 559.947C281.917 561.44 281.768 562.904 281.904 564.342C281.958 564.939 282.08 565.556 282.271 566.194C282.461 566.832 282.704 567.409 283.004 567.924C283.33 568.521 283.791 569.091 284.387 569.633C284.984 570.176 285.554 570.637 286.097 571.017C286.802 571.533 287.582 571.906 288.437 572.136C289.291 572.366 290.153 572.475 291.021 572.462C291.889 572.448 292.744 572.306 293.586 572.035C294.426 571.764 295.2 571.371 295.906 570.854C296.285 570.556 296.659 570.23 297.025 569.877C297.391 569.525 297.723 569.158 298.022 568.778C298.51 568.154 298.971 567.442 299.405 566.641C299.839 565.841 300.151 565.047 300.342 564.261C300.586 563.365 300.708 562.416 300.708 561.412C300.708 560.001 300.464 558.637 299.975 557.322C299.487 556.006 299.012 554.696 298.551 553.394C298.306 552.662 298.083 551.929 297.879 551.196C297.675 550.464 297.465 549.731 297.248 548.998C296.977 548.076 296.841 547.12 296.841 546.129C296.841 545.139 296.956 544.175 297.187 543.239C297.417 542.303 297.75 541.394 298.184 540.512C298.618 539.631 299.147 538.823 299.771 538.09C300.15 537.683 300.55 537.29 300.972 536.91C301.392 536.531 301.833 536.192 302.295 535.892C302.81 535.566 303.353 535.268 303.923 534.996C304.493 534.725 305.076 534.494 305.673 534.305C306.432 534.088 307.212 533.946 308.013 533.877C308.813 533.81 309.458 533.844 309.946 533.979C310.054 534.034 310.17 534.068 310.292 534.081C310.414 534.095 310.502 534.116 310.556 534.142C311.478 534.359 312.218 534.773 312.774 535.383C313.33 535.994 313.744 536.7 314.016 537.5C314.287 538.3 314.429 539.148 314.443 540.044C314.457 540.939 314.368 541.767 314.179 542.526C313.961 543.367 313.67 544.12 313.304 544.785C312.938 545.45 312.442 546.095 311.818 546.718C311.357 547.18 310.841 547.559 310.272 547.858C309.702 548.157 309.105 548.361 308.481 548.468C308.291 548.523 308.067 548.564 307.81 548.59C307.552 548.617 307.308 548.61 307.078 548.569C306.847 548.528 306.643 548.447 306.468 548.325C306.291 548.203 306.203 548.006 306.203 547.735C306.176 547.409 306.25 547.226 306.427 547.186C306.603 547.146 306.814 547.125 307.058 547.125C307.709 547.098 308.271 546.915 308.747 546.576C309.221 546.237 309.621 545.809 309.947 545.293C310.273 544.778 310.53 544.222 310.72 543.625C310.91 543.028 311.031 542.445 311.086 541.875C311.14 541.387 311.147 540.865 311.107 540.308C311.066 539.752 310.964 539.209 310.802 538.68C310.639 538.151 310.401 537.67 310.09 537.235C309.777 536.801 309.378 536.462 308.889 536.217C308.319 535.946 307.742 535.81 307.16 535.81C306.576 535.81 306.006 535.925 305.451 536.156C304.894 536.387 304.386 536.705 303.925 537.112C303.464 537.519 303.084 537.966 302.785 538.455C302.432 539.052 302.14 539.723 301.91 540.469C301.679 541.216 301.55 541.928 301.523 542.606C301.468 543.746 301.604 544.844 301.93 545.903C302.256 546.962 302.608 548.006 302.988 549.037C303.205 549.634 303.428 550.218 303.659 550.787C303.889 551.357 304.1 551.954 304.29 552.578C304.778 554.098 305.165 555.658 305.45 557.259C305.735 558.86 305.728 560.461 305.43 562.062C305.213 563.31 304.765 564.531 304.087 565.725C303.409 566.919 302.676 567.991 301.889 568.94C301.129 569.836 300.241 570.628 299.224 571.321C298.206 572.013 297.114 572.603 295.948 573.092C294.781 573.58 293.588 573.953 292.366 574.211C291.145 574.469 289.965 574.584 288.825 574.557C288.253 574.557 287.683 574.516 287.114 574.435Z" fill="#D2B646"/>
<path d="M8.40606 305.275C8.24306 305.167 8.13506 305.004 8.08006 304.787C8.02606 304.57 8.00506 304.339 8.01906 304.095C8.03306 303.851 8.06606 303.607 8.12106 303.363C8.17506 303.119 8.22906 302.915 8.28406 302.753C8.52806 301.722 8.89406 300.731 9.38306 299.782C9.87106 298.832 10.3461 297.896 10.8081 296.974C11.3231 296.024 11.8461 295.075 12.3751 294.125C12.9041 293.176 13.4541 292.24 14.0231 291.317C14.5651 290.449 15.0741 289.566 15.5491 288.671C16.0231 287.775 16.5061 286.867 16.9941 285.943C17.2921 285.428 17.5841 284.913 17.8691 284.397C18.1541 283.882 18.4321 283.353 18.7031 282.81C19.2451 281.589 19.7541 280.361 20.2291 279.127C20.7041 277.892 21.1581 276.638 21.5931 275.362C21.8101 274.657 22.0131 273.951 22.2031 273.246C22.3921 272.54 22.5151 271.821 22.5691 271.089C22.5961 270.628 22.5831 270.167 22.5291 269.705C22.4741 269.244 22.3661 268.81 22.2031 268.403C22.0401 267.996 21.8091 267.644 21.5111 267.345C21.2121 267.047 20.8191 266.816 20.3311 266.653C19.7881 266.464 19.2521 266.388 18.7231 266.429C18.1941 266.469 17.6651 266.572 17.1361 266.735C16.6071 266.898 16.0981 267.108 15.6101 267.365C15.1221 267.623 14.6601 267.888 14.2271 268.158C13.3051 268.701 12.4561 269.339 11.6831 270.071C10.9101 270.803 10.1841 271.577 9.50606 272.391C9.12606 272.853 8.76606 273.327 8.42706 273.816C8.08706 274.304 7.75606 274.807 7.43006 275.322C7.07706 275.865 6.74406 276.428 6.43306 277.011C6.12006 277.594 5.84306 278.199 5.59906 278.822C5.35506 279.392 5.13106 280.023 4.92806 280.715C4.72406 281.407 4.57506 282.113 4.48006 282.832C4.38406 283.551 4.35806 284.263 4.39906 284.969C4.44006 285.675 4.58206 286.326 4.82606 286.922C5.04306 287.492 5.47106 287.934 6.10806 288.245C6.74506 288.557 7.33606 288.74 7.87906 288.794C8.69306 288.849 9.46606 288.699 10.1991 288.346C10.9321 287.994 11.5961 287.559 12.1931 287.044C12.3011 286.962 12.5051 286.773 12.8031 286.474C13.1011 286.176 13.4131 285.884 13.7401 285.599C14.0661 285.314 14.3711 285.104 14.6551 284.968C14.9401 284.832 15.1371 284.886 15.2451 285.131C15.3271 285.349 15.2921 285.613 15.1431 285.925C14.9941 286.237 14.8641 286.474 14.7561 286.637C14.2401 287.425 13.5681 288.163 12.7411 288.855C11.9131 289.547 11.1061 290.151 10.3201 290.666C9.47906 291.182 8.61006 291.581 7.71606 291.867C6.82006 292.152 5.88406 292.268 4.90706 292.213C4.36406 292.159 3.85506 292.044 3.38106 291.867C2.90506 291.691 2.47806 291.413 2.09806 291.032C1.61006 290.598 1.21606 290.103 0.918056 289.547C0.619056 288.991 0.396058 288.407 0.247058 287.797C0.0980583 287.186 0.0170627 286.562 0.00306265 285.925C-0.0109373 285.288 0.02306 284.656 0.10506 284.032C0.32106 282.513 0.708056 281.081 1.26506 279.739C1.82106 278.396 2.49306 277.073 3.28006 275.771C3.85006 274.822 4.49406 273.959 5.21306 273.186C5.93206 272.413 6.67106 271.633 7.43106 270.846C8.62506 269.571 10.0011 268.438 11.5621 267.448C13.1221 266.458 14.7571 265.732 16.4661 265.271C17.5511 264.973 18.6711 264.776 19.8241 264.681C20.9771 264.586 22.0961 264.729 23.1821 265.109C24.2401 265.489 25.1421 266.079 25.8891 266.879C26.6351 267.68 27.1571 268.623 27.4561 269.708C27.5911 270.305 27.6861 270.909 27.7411 271.519C27.7951 272.129 27.8081 272.747 27.7811 273.371C27.7811 274.24 27.6661 275.128 27.4351 276.037C27.2051 276.947 26.9391 277.822 26.6421 278.662C26.0721 280.426 25.3121 282.108 24.3631 283.708C23.9021 284.441 23.4201 285.153 22.9181 285.845C22.4161 286.537 21.9071 287.236 21.3921 287.941C20.9301 288.538 20.4961 289.142 20.0901 289.753C19.6831 290.363 19.2491 290.967 18.7871 291.564C18.3801 292.107 17.9461 292.656 17.4851 293.212C17.0241 293.769 16.6441 294.359 16.3451 294.983C16.5341 294.875 16.7121 294.767 16.8741 294.658C17.0101 294.576 17.1381 294.495 17.2611 294.413C17.3831 294.332 17.4711 294.264 17.5251 294.21C18.9901 292.935 20.3671 291.578 21.6561 290.14C22.9451 288.702 24.2001 287.237 25.4211 285.744C26.4241 284.469 27.4081 283.194 28.3721 281.918C29.3351 280.643 30.2781 279.341 31.2011 278.011C31.6081 277.387 32.0281 276.79 32.4631 276.22C32.8971 275.65 33.3311 275.068 33.7651 274.47C34.1181 274.009 34.4631 273.528 34.8031 273.025C35.1421 272.524 35.4881 272.042 35.8411 271.581C36.1121 271.228 36.3701 270.896 36.6151 270.584C36.8591 270.272 37.0891 269.94 37.3061 269.587C37.3881 269.452 37.5031 269.269 37.6521 269.038C37.8011 268.808 37.9701 268.604 38.1601 268.428C38.3491 268.252 38.5471 268.13 38.7501 268.061C38.9541 267.994 39.1631 268.041 39.3811 268.204C39.5441 268.34 39.6321 268.496 39.6461 268.671C39.6591 268.848 39.6321 269.024 39.5641 269.2C39.4961 269.377 39.4011 269.553 39.2791 269.729C39.1571 269.906 39.0551 270.048 38.9741 270.156C38.3491 271.025 37.8951 271.913 37.6101 272.822C37.3251 273.731 37.0061 274.674 36.6541 275.65C36.4631 276.193 36.3411 276.75 36.2871 277.319C36.2331 277.889 36.1651 278.445 36.0831 278.987C35.8931 280.127 35.7441 281.266 35.6361 282.406C35.5271 283.546 35.2821 284.658 34.9031 285.743C34.6591 286.449 34.4151 287.147 34.1711 287.839C33.9271 288.531 33.6961 289.23 33.4791 289.935C33.2891 290.532 33.1051 291.163 32.9301 291.827C32.7531 292.492 32.4751 293.082 32.0961 293.598C32.0411 293.652 31.9801 293.781 31.9131 293.985C31.8451 294.188 31.7561 294.426 31.6481 294.697C31.6481 294.724 31.6411 294.752 31.6271 294.779C31.6131 294.806 31.6061 294.847 31.6061 294.9C32.2571 294.385 32.8411 293.761 33.3561 293.029C33.8711 292.296 34.4001 291.631 34.9431 291.034C35.2411 290.709 35.5341 290.37 35.8191 290.016C36.1041 289.664 36.3951 289.324 36.6941 288.998C36.9921 288.646 37.2771 288.272 37.5481 287.879C37.8191 287.486 38.1181 287.127 38.4441 286.8C39.0681 286.204 39.6381 285.573 40.1541 284.908C40.6691 284.244 41.1711 283.572 41.6601 282.893C42.0391 282.377 42.4061 281.849 42.7591 281.306C43.1111 280.763 43.4371 280.221 43.7361 279.678C44.1151 278.945 44.4951 278.213 44.8761 277.48C45.2551 276.748 45.5941 275.988 45.8931 275.201C46.1101 274.577 46.3131 273.872 46.5031 273.085C46.5571 272.84 46.6051 272.597 46.6451 272.352C46.6861 272.108 46.6791 271.851 46.6251 271.579C46.5431 271.308 46.4011 271.098 46.1971 270.948C45.9941 270.799 45.7971 270.642 45.6071 270.48C45.4171 270.29 45.2741 270.08 45.1801 269.849C45.0841 269.619 45.0111 269.381 44.9561 269.137C44.8751 268.649 44.9081 268.134 45.0581 267.59C45.2061 267.048 45.4451 266.587 45.7701 266.207C46.2311 265.664 46.7461 265.319 47.3161 265.169C47.8861 265.021 48.5101 265.013 49.1881 265.149C49.7031 265.258 50.1041 265.468 50.3891 265.78C50.6741 266.092 50.8841 266.451 51.0201 266.858C51.1551 267.265 51.2441 267.707 51.2851 268.181C51.3261 268.656 51.3461 269.11 51.3461 269.544C51.3731 270.684 51.2171 271.762 50.8781 272.779C50.5391 273.797 50.0981 274.794 49.5561 275.771C49.2021 276.395 48.8371 277.006 48.4571 277.603C48.0771 278.2 47.6841 278.797 47.2761 279.393C46.9511 279.909 46.6311 280.425 46.3201 280.939C46.0071 281.455 45.6621 281.943 45.2821 282.404C44.8201 282.947 44.3661 283.49 43.9181 284.032C43.4701 284.575 43.0161 285.118 42.5551 285.661C41.7411 286.611 40.8861 287.513 39.9911 288.367C39.0951 289.222 38.2541 290.124 37.4671 291.073C36.6261 292.05 35.7711 293.007 34.9031 293.942C34.0351 294.879 33.1801 295.822 32.3391 296.771C31.8771 297.287 31.4031 297.803 30.9151 298.318C30.4261 298.833 29.9521 299.356 29.4901 299.884C29.0291 300.414 28.5881 300.963 28.1671 301.533C27.7461 302.103 27.3871 302.686 27.0891 303.283C26.9521 303.582 26.8651 303.812 26.8241 303.974C26.7831 304.137 26.6271 304.327 26.3561 304.544C26.2201 304.653 26.0371 304.762 25.8061 304.87C25.5761 304.979 25.3791 305.006 25.2161 304.952C24.9181 304.87 24.7611 304.64 24.7481 304.26C24.7341 303.881 24.7821 303.466 24.8911 303.018C24.9991 302.571 25.1351 302.137 25.2981 301.716C25.4611 301.296 25.5691 301.004 25.6241 300.841C26.3831 298.806 26.9941 296.785 27.4551 294.777C27.6991 293.637 27.8821 292.504 28.0041 291.379C28.1261 290.253 28.3361 289.12 28.6351 287.98C28.8241 287.275 29.0351 286.583 29.2661 285.905C29.4961 285.227 29.6791 284.535 29.8151 283.829C29.8421 283.747 29.8821 283.612 29.9371 283.422C29.9911 283.232 30.0591 283.043 30.1401 282.852C30.2221 282.663 30.2891 282.486 30.3441 282.323C30.3981 282.16 30.4381 282.065 30.4661 282.038C30.5201 281.984 30.5471 281.903 30.5471 281.794C30.5471 281.713 30.5131 281.713 30.4451 281.794C30.3771 281.875 30.1941 282.147 29.8961 282.608C29.8141 282.717 29.7191 282.838 29.6111 282.974C29.5031 283.11 29.4071 283.205 29.3261 283.259C28.9461 283.639 28.6341 284.06 28.3901 284.521C28.1461 284.982 27.8341 285.375 27.4541 285.701C27.1551 285.972 26.8841 286.271 26.6401 286.596C26.3961 286.921 26.1371 287.234 25.8671 287.532C25.0801 288.346 24.3261 289.187 23.6081 290.055C22.8891 290.924 22.1361 291.764 21.3501 292.579C20.4811 293.501 19.5931 294.397 18.6841 295.265C17.7741 296.134 16.8321 296.961 15.8551 297.748C15.4481 298.101 15.0411 298.433 14.6341 298.745C14.2271 299.057 13.8331 299.403 13.4541 299.783C13.0471 300.163 12.6461 300.55 12.2531 300.943C11.8591 301.337 11.4731 301.764 11.0931 302.225C10.9841 302.361 10.8281 302.619 10.6251 302.998C10.4221 303.378 10.1981 303.758 9.95406 304.137C9.71006 304.517 9.45206 304.836 9.18106 305.094C8.90806 305.349 8.65106 305.41 8.40606 305.275Z" fill="#D2B646"/>
<path d="M552.034 311.145C550.487 310.982 549.035 310.603 547.679 310.005C546.757 309.599 545.956 309.069 545.278 308.418C544.546 307.713 543.962 306.926 543.528 306.058C543.094 305.19 542.782 304.274 542.592 303.311C542.402 302.348 542.334 301.365 542.388 300.36C542.443 299.357 542.577 298.38 542.795 297.43C543.039 296.48 543.392 295.578 543.853 294.724C544.314 293.869 544.851 293.062 545.461 292.302C546.071 291.543 546.749 290.837 547.496 290.186C548.242 289.535 549.008 288.938 549.795 288.395C550.229 288.097 550.676 287.825 551.138 287.581C551.599 287.336 552.06 287.106 552.522 286.889C553.363 286.537 554.163 286.265 554.924 286.075C555.222 285.994 555.581 285.927 556.002 285.871C556.422 285.817 556.714 285.668 556.877 285.424C556.985 285.261 557.033 285.051 557.019 284.793C557.005 284.536 556.944 284.278 556.836 284.02C556.727 283.762 556.598 283.525 556.449 283.308C556.299 283.091 556.157 282.928 556.021 282.819C555.641 282.548 555.221 282.371 554.76 282.29C554.298 282.208 553.85 282.086 553.416 281.923C552.684 281.625 551.998 281.272 551.361 280.865C550.723 280.458 550.133 279.943 549.591 279.318C549.075 278.722 548.729 278.044 548.553 277.284C548.376 276.524 548.349 275.771 548.472 275.025C548.594 274.279 548.872 273.587 549.306 272.949C549.74 272.312 550.324 271.83 551.056 271.505C552.792 270.746 554.597 270.433 556.469 270.569C556.659 270.569 556.984 270.596 557.446 270.65C557.907 270.705 558.355 270.799 558.789 270.935C559.223 271.071 559.562 271.254 559.807 271.484C560.051 271.715 560.064 272.034 559.848 272.441C559.685 272.713 559.461 272.862 559.176 272.889C558.891 272.916 558.579 272.889 558.24 272.807C557.901 272.725 557.569 272.631 557.243 272.522C556.917 272.414 556.659 272.346 556.47 272.318C555.657 272.236 554.903 272.379 554.211 272.745C553.52 273.112 552.97 273.607 552.563 274.231C552.156 274.855 551.938 275.547 551.912 276.307C551.885 277.067 552.129 277.786 552.644 278.464C552.726 278.6 552.97 278.85 553.377 279.216C553.784 279.583 554.225 279.929 554.7 280.254C555.174 280.58 555.622 280.797 556.043 280.905C556.464 281.014 556.728 280.865 556.837 280.457C557.352 278.585 558.288 276.978 559.645 275.634C561.001 274.291 562.576 273.253 564.366 272.521C565.804 271.897 567.317 271.388 568.904 270.995C570.491 270.602 572.072 270.472 573.646 270.608C574.514 270.663 575.382 270.785 576.251 270.975C577.119 271.165 577.92 271.531 578.652 272.074C579.547 272.753 580.002 273.505 580.015 274.333C580.029 275.161 579.804 275.975 579.344 276.775C578.883 277.575 578.279 278.301 577.533 278.952C576.786 279.603 576.088 280.092 575.437 280.417C574.867 280.716 574.283 280.966 573.687 281.17C573.09 281.374 572.493 281.557 571.896 281.72C570.892 281.991 569.902 282.222 568.925 282.411C567.948 282.601 566.944 282.764 565.914 282.9C565.263 282.981 564.604 283.036 563.94 283.063C563.275 283.09 562.603 283.118 561.925 283.144C561.626 283.144 561.362 283.151 561.131 283.165C560.9 283.179 560.812 283.375 560.866 283.755C560.893 283.999 560.981 284.169 561.131 284.264C561.28 284.359 561.45 284.413 561.64 284.427C561.829 284.441 562.04 284.427 562.271 284.386C562.501 284.346 562.712 284.325 562.902 284.325C563.553 284.299 564.211 284.299 564.876 284.325C565.541 284.352 566.185 284.447 566.809 284.61C567.243 284.719 567.725 284.861 568.254 285.038C568.783 285.215 569.17 285.492 569.414 285.872C569.577 286.144 569.638 286.415 569.598 286.686C569.558 286.958 569.462 287.215 569.313 287.459C569.164 287.703 568.98 287.92 568.764 288.11C568.546 288.3 568.316 288.449 568.072 288.557C567.529 288.802 566.939 288.951 566.301 289.005C565.663 289.06 565.019 289.06 564.368 289.005C563.717 288.951 563.072 288.85 562.435 288.7C561.797 288.551 561.22 288.367 560.705 288.151C560.461 288.043 560.217 287.914 559.973 287.764C559.728 287.616 559.471 287.479 559.2 287.357C558.929 287.235 558.664 287.153 558.406 287.113C558.148 287.073 557.884 287.092 557.612 287.174C557.015 287.364 556.432 287.649 555.862 288.028C555.292 288.409 554.736 288.761 554.193 289.086C553.65 289.466 553.128 289.859 552.626 290.267C552.124 290.674 551.655 291.136 551.222 291.65C550.543 292.438 550.001 293.333 549.594 294.337C549.187 295.341 548.875 296.358 548.658 297.389C548.495 298.177 548.434 298.983 548.474 299.81C548.515 300.638 548.658 301.438 548.902 302.212C549.146 302.985 549.512 303.704 550.001 304.369C550.489 305.033 551.1 305.583 551.833 306.017C552.673 306.506 553.576 306.818 554.539 306.954C555.501 307.09 556.472 307.096 557.449 306.974C558.426 306.852 559.395 306.642 560.359 306.343C561.322 306.045 562.224 305.706 563.066 305.326C563.608 305.109 564.137 304.851 564.653 304.552C565.168 304.254 565.671 303.942 566.159 303.616C566.81 303.155 567.427 302.66 568.011 302.131C568.594 301.602 569.157 301.039 569.7 300.442C570.216 299.872 570.657 299.269 571.023 298.63C571.389 297.993 571.803 297.362 572.265 296.738C572.4 296.575 572.563 296.358 572.753 296.087C572.943 295.816 573.146 295.653 573.363 295.599C573.661 295.518 573.844 295.599 573.913 295.843C573.98 296.087 574 296.318 573.973 296.535C573.865 297.322 573.539 298.055 572.996 298.733C572.453 299.411 571.951 300.049 571.49 300.646C571.056 301.27 570.601 301.867 570.127 302.437C569.651 303.007 569.143 303.563 568.601 304.105C568.085 304.648 567.522 305.15 566.912 305.611C566.301 306.073 565.724 306.575 565.182 307.117C564.883 307.416 564.524 307.666 564.103 307.87C563.682 308.074 563.282 308.271 562.902 308.461C562.468 308.678 562.047 308.916 561.64 309.173C561.233 309.431 560.799 309.628 560.338 309.763C558.981 310.224 557.624 310.604 556.268 310.903C554.909 311.2 553.499 311.28 552.034 311.145ZM562.86 281.678C563.619 281.733 564.379 281.672 565.139 281.495C565.899 281.319 566.631 281.123 567.337 280.905C568.096 280.661 568.842 280.39 569.575 280.091C570.307 279.793 571.026 279.454 571.732 279.073C572.112 278.884 572.539 278.653 573.014 278.381C573.489 278.11 573.951 277.798 574.398 277.445C574.845 277.092 575.232 276.712 575.558 276.305C575.883 275.898 576.087 275.464 576.168 275.002C576.222 274.704 576.195 274.432 576.087 274.188C575.978 273.944 575.842 273.713 575.68 273.496C575.409 273.116 575.014 272.845 574.5 272.682C573.984 272.519 573.496 272.438 573.035 272.438C572.655 272.465 572.295 272.519 571.956 272.601C571.617 272.682 571.27 272.777 570.918 272.886C569.48 273.293 568.049 273.904 566.624 274.718C565.2 275.532 564.04 276.549 563.145 277.77C562.9 278.123 562.663 278.482 562.433 278.849C562.202 279.215 561.992 279.588 561.802 279.968C561.72 280.131 561.646 280.294 561.578 280.456C561.51 280.619 561.476 280.775 561.476 280.924C561.476 281.073 561.516 281.203 561.598 281.311C561.68 281.42 561.842 281.501 562.086 281.555C562.331 281.638 562.589 281.678 562.86 281.678Z" fill="#D2B646"/>
</svg>
