<svg width="110" height="131" viewBox="0 0 110 131" fill="none" xmlns="http://www.w3.org/2000/svg">
<path d="M64.1982 71.9369C62.9552 73.8979 62.4172 76.2569 61.3052 78.3049C60.8922 79.0659 62.0622 79.7479 62.4652 78.9829C63.5672 76.8949 64.9982 74.5959 65.1152 72.1849C65.1402 71.6759 64.4462 71.5449 64.1982 71.9369Z" fill="#D2B646" stroke="#D2B646"/>
<path d="M16.1622 40.1949C24.8882 24.9769 47.2422 21.3709 58.9642 35.4219C59.5182 36.0859 60.4662 35.1309 59.9142 34.4719C47.8872 20.1019 23.4632 22.8809 15.3112 39.6979C15.0382 40.2619 15.8432 40.7519 16.1622 40.1949Z" fill="#D2B646" stroke="#D2B646"/>
<path d="M15.2312 125.772C13.8762 110.347 12.0562 95.0339 11.8662 79.5299C11.8552 78.6659 10.5102 78.6639 10.5222 79.5299C10.7392 95.0189 11.7222 110.611 14.2642 125.902C14.3552 126.445 15.2802 126.325 15.2312 125.772Z" fill="#D2B646" stroke="#D2B646"/>
<path d="M61.6862 79.6369C72.2912 75.8819 83.8322 77.4129 93.6742 82.7309C102.177 87.3259 111.01 96.4229 106.469 106.784C100.257 120.959 80.2432 126.471 66.3352 127.807C49.5412 129.42 32.5962 126.82 15.9902 124.547C14.9192 124.4 14.4542 126.04 15.5372 126.189C42.9642 129.973 76.4192 135.739 99.9452 116.954C106.351 111.839 111.256 104.21 108.305 95.8499C105.569 88.0999 97.9362 82.7809 90.6792 79.6969C81.7692 75.9109 70.2692 74.1789 61.2822 78.6789C60.7582 78.9429 61.1242 79.8359 61.6862 79.6369Z" fill="#D2B646" stroke="#D2B646"/>
<path d="M40.3762 50.6879C39.2312 49.7309 36.0082 49.3419 35.5362 51.2669C35.2342 52.4969 36.6372 54.1969 36.8952 55.2809C37.5042 57.8449 36.9962 60.5649 36.5342 63.1029C36.4942 63.3209 36.5602 63.5449 36.7622 63.6619C38.3562 64.5869 40.2132 64.2709 41.4162 62.8329C43.0562 60.8719 42.6702 58.0049 42.0062 55.7539C41.8822 55.3339 41.1522 55.3909 41.2082 55.8619C41.4322 57.7499 42.3982 62.7869 39.2752 63.1279C36.7472 63.4039 37.9842 60.5749 38.0812 59.1599C38.1752 57.7839 38.1402 56.3739 37.8112 55.0279C37.6812 54.4959 37.4082 53.9959 37.2812 53.4729C37.1702 53.2069 37.0412 52.9499 36.8932 52.7019C37.0712 50.6549 38.0842 50.1759 39.9322 51.2639C40.2642 51.5109 40.6952 50.9559 40.3762 50.6879Z" fill="#D2B646" stroke="#D2B646"/>
<path d="M39.9772 51.0148C41.9042 50.4478 43.0842 50.8388 43.5162 52.1878C43.7202 52.5708 43.8732 52.9738 43.9732 53.3958C44.2192 54.1728 44.3962 55.0038 44.5392 55.8048C44.7242 56.8438 44.8442 57.9158 44.8572 58.9718C44.8592 59.2468 44.8612 59.5218 44.8632 59.7968C45.0812 61.2288 44.3242 61.9868 42.5912 62.0708C42.2292 61.7538 41.7342 62.2418 42.0612 62.6008C42.8912 63.5128 44.1422 63.4148 44.9692 62.5118C46.3632 60.9888 45.7202 57.7568 45.4412 55.9818C45.1462 54.1028 44.7092 51.2508 42.9202 50.1118C41.7232 49.3498 40.3532 49.5368 39.5242 50.6638C39.3252 50.9338 39.7512 51.2408 39.9772 51.0148Z" fill="#D2B646" stroke="#D2B646"/>
<path d="M35.9222 51.0419C32.3912 47.6449 28.1452 45.4489 23.7832 43.2989C19.8372 41.3529 15.5922 38.6629 11.1092 38.2589C3.14917 37.5419 2.06618 46.1329 3.73318 52.0579C3.75418 52.1319 3.87718 52.1209 3.87118 52.0389C3.59818 48.5699 3.09818 44.0669 5.92818 41.3969C10.2612 37.3079 16.6652 41.3479 20.8372 43.4219C25.9152 45.9459 30.7552 48.4309 35.2982 51.8519C35.7702 52.2069 36.3372 51.4399 35.9222 51.0419Z" fill="#D2B646" stroke="#D2B646"/>
<path d="M3.95618 52.3707C1.31218 61.2447 -2.86582 74.6887 8.72318 79.1387C19.3402 83.2157 33.0752 71.3137 37.5552 62.5507C37.7282 62.2127 37.3002 61.8467 37.0152 62.1337C30.4762 68.7217 23.1032 79.2737 12.4922 78.6407C6.49918 78.2827 2.01018 73.3447 1.75918 67.4777C1.54818 62.5547 3.48918 57.3057 4.22718 52.4447C4.25418 52.2707 4.00918 52.1927 3.95618 52.3707Z" fill="#D2B646" stroke="#D2B646"/>
<path d="M43.4172 50.4657C43.7762 46.6267 48.7512 43.1598 51.4562 40.8478C54.6402 38.1248 58.7392 34.4217 63.2872 35.1437C68.5132 35.9717 67.5382 38.3108 68.1042 41.7657C68.3602 43.3277 69.0602 44.4377 69.8322 45.9187C73.4342 52.8368 79.3582 67.2367 67.6752 70.4327C59.4072 72.6947 51.0222 66.9787 45.8422 61.2117C45.5492 60.8847 44.9812 61.3147 45.2292 61.6847C49.8532 68.5917 61.0202 74.5788 69.3602 71.0248C78.5472 67.1098 75.7792 55.3547 72.4072 48.4827C71.2622 46.1487 69.6082 43.9297 69.1842 41.3797C69.0002 40.2687 69.3752 38.7797 68.9982 37.7087C68.0572 35.0387 64.7002 33.8328 62.0972 33.8978C57.9342 34.0028 54.3972 36.9438 51.3682 39.4858C48.2312 42.1188 42.5092 45.8357 42.6362 50.4657C42.6502 50.9757 43.3712 50.9597 43.4172 50.4657Z" fill="#D2B646" stroke="#D2B646"/>
<path d="M33.1102 68.1538C32.5232 87.8988 31.4372 107.737 31.5272 127.49C31.5302 128.087 32.4152 128.079 32.4492 127.49C33.5802 107.77 33.5442 87.9018 34.0012 68.1538C34.0142 67.5798 33.1272 67.5808 33.1102 68.1538Z" fill="#D2B646" stroke="#D2B646"/>
<path d="M52.4152 68.1538C52.5142 78.2288 52.8612 88.2738 52.5342 98.3508C52.2082 108.424 50.8162 118.42 50.4172 128.469C50.3932 129.075 51.3752 129.227 51.4912 128.614C53.2972 119.071 53.5212 109.006 53.8162 99.3168C54.1322 88.9518 54.1372 78.4828 53.1332 68.1538C53.0902 67.7028 52.4112 67.6818 52.4152 68.1538Z" fill="#D2B646" stroke="#D2B646"/>
<path d="M33.8212 49.1178C33.7152 42.3808 33.8482 34.7998 32.1192 28.2578C32.0202 27.8828 31.4762 27.9748 31.4592 28.3468C31.1442 35.1258 32.4912 42.3568 33.1492 49.1178C33.1902 49.5398 33.8282 49.5588 33.8212 49.1178Z" fill="#D2B646" stroke="#D2B646"/>
<path d="M50.8692 29.2479C50.0312 32.2689 50.3442 36.9429 51.5422 39.8529C51.7222 40.2899 52.4472 40.2879 52.4322 39.7329C52.3872 38.0039 51.9742 36.3049 51.8632 34.5739C51.7522 32.8449 51.9172 31.0739 51.7122 29.3619C51.6592 28.9089 51.0092 28.7449 50.8692 29.2479Z" fill="#D2B646" stroke="#D2B646"/>
<path d="M11.6612 92.73C13.4552 94.506 16.8292 94.029 19.1532 94.164C23.5312 94.419 28.0182 94.7689 32.3942 94.4219C33.1192 94.3639 33.1162 93.3589 32.3942 93.2969C29.0342 93.0069 25.6372 93.092 22.2672 92.954C19.1762 92.828 14.9482 93.198 12.0502 92.065C11.6642 91.914 11.3952 92.468 11.6612 92.73Z" fill="#D2B646" stroke="#D2B646"/>
<path d="M13.7062 112.856C19.5912 113.491 25.5342 113.194 31.4162 112.644C32.1612 112.574 32.1672 111.4 31.4162 111.472C25.5152 112.04 19.6232 112.084 13.7062 112.293C13.3372 112.306 13.3522 112.818 13.7062 112.856Z" fill="#D2B646" stroke="#D2B646"/>
<path d="M53.8382 93.3138C68.5872 91.4368 83.4372 88.1858 97.7982 84.3658C98.6062 84.1508 98.2652 82.9268 97.4532 83.1148C82.9082 86.4968 68.3252 89.2988 53.6922 92.2388C53.0972 92.3598 53.2222 93.3928 53.8382 93.3138Z" fill="#D2B646" stroke="#D2B646"/>
<path d="M52.3722 111.642C70.5322 114.471 90.8722 109.724 107.612 102.851C108.438 102.512 108.076 101.151 107.238 101.495C98.8392 104.94 90.1482 107.53 81.1952 109.065C71.5742 110.715 62.1922 110.448 52.4992 110.706C51.9872 110.719 51.8202 111.556 52.3722 111.642Z" fill="#D2B646" stroke="#D2B646"/>
<path d="M38.8152 50.0138C38.8262 49.5188 38.5552 49.0718 38.5862 48.5618C38.6302 47.8328 39.0712 47.2058 39.7802 46.9928C41.3452 46.5228 42.6522 47.9498 42.3352 49.4698C42.1862 50.1848 43.2782 50.4928 43.4352 49.7728C43.9382 47.4738 42.0042 45.1828 39.5812 45.8228C38.5462 46.0958 37.7682 46.9208 37.5382 47.9658C37.3612 48.7688 37.4782 50.0588 38.4102 50.3218C38.6142 50.3808 38.8112 50.2208 38.8152 50.0138Z" fill="#D2B646" stroke="#D2B646"/>
<path d="M41.2322 49.0449C38.2332 36.3909 49.6612 30.4079 60.2412 28.4379C66.4782 27.2769 74.0092 26.4159 77.2312 20.1319C77.4602 19.6859 76.8502 19.1299 76.4952 19.5639C69.2372 28.4429 56.6432 25.6919 47.4682 31.4049C41.6162 35.0489 37.0542 42.6019 40.4192 49.3879C40.6492 49.8549 41.3452 49.5209 41.2322 49.0449Z" fill="#D2B646" stroke="#D2B646"/>
<path d="M72.9362 23.5309C71.5822 20.9079 68.4342 17.3359 70.3432 14.2929C71.6062 12.2789 76.4012 10.3059 78.4272 9.00185C80.9822 7.35685 83.7762 5.01085 86.5882 3.83185C88.9672 2.83385 89.9522 2.80686 92.1022 5.29186C92.9782 6.30386 93.6872 7.77186 94.3732 8.89786C96.3022 12.0619 99.2732 14.7549 95.9042 18.1619C94.0572 20.0299 91.0462 21.3179 88.8002 22.6569C86.1582 24.2329 83.4672 25.9649 80.6602 27.2339C79.6722 27.8269 78.5972 28.2058 77.4352 28.3698C77.0942 27.9548 76.7532 27.5389 76.4112 27.1239C75.2352 26.3039 74.2332 24.4729 73.3402 23.3859C72.8882 22.8359 72.0982 23.6249 72.5552 24.1699C73.9672 25.8529 75.7872 29.5238 78.1422 29.5638C79.7702 29.5908 82.2202 27.5989 83.6592 26.8169C86.1212 25.4789 88.5492 24.0789 90.9462 22.6289C93.0382 21.3629 98.5332 19.2179 99.3482 16.6449C100.278 13.7119 95.5212 8.37485 94.0942 6.10085C92.9882 4.33885 91.8502 1.06586 89.4272 1.00086C88.1082 0.965861 86.9572 2.00586 85.8952 2.64886C83.1412 4.31386 80.4292 6.05786 77.7182 7.79186C75.2782 9.35186 72.8172 10.8909 70.4252 12.5249C69.5772 13.1039 68.2632 13.7719 67.8442 14.8429C66.6832 17.8049 70.5702 21.9319 72.0452 24.0529C72.4232 24.5929 73.2442 24.1269 72.9362 23.5309Z" fill="#D2B646" stroke="#D2B646"/>
<path d="M75.5542 21.3538C75.0012 20.8198 74.4512 20.0578 74.7712 19.2598C75.1492 18.3208 76.3782 18.0588 77.2052 18.5388C78.0072 19.0048 78.5272 19.9968 78.3132 20.9248C78.0672 21.9978 76.7392 22.4778 76.1692 21.3678C75.9672 20.9758 75.3212 21.2468 75.4552 21.6688C75.8872 23.0268 77.7382 23.1478 78.6292 22.1718C79.7802 20.9108 79.2802 18.8568 78.0262 17.8778C76.7762 16.9018 74.7882 17.2018 73.9962 18.6258C73.3622 19.7648 73.8742 21.7588 75.4052 21.7138C75.5832 21.7088 75.6892 21.4848 75.5542 21.3538Z" fill="#D2B646"/>
<path d="M75.0962 13.258C75.8872 12.728 76.6612 12.23 77.5322 11.837C78.0652 11.596 77.6872 10.717 77.1352 10.894C76.1142 11.221 75.1742 11.838 74.5622 12.723C74.3412 13.043 74.7782 13.471 75.0962 13.258Z" fill="#D2B646"/>
<path d="M75.6972 12.4219C76.1412 12.9899 76.5652 13.5719 76.9682 14.1689C77.3122 14.6779 77.5972 15.2839 78.0342 15.7169C78.3002 15.9799 78.8452 15.7169 78.7002 15.3289C78.4712 14.7189 77.9942 14.1969 77.5932 13.6869C77.1312 13.0989 76.6432 12.5319 76.1392 11.9799C75.8612 11.6759 75.4562 12.1139 75.6972 12.4219Z" fill="#D2B646"/>
<path d="M79.2452 10.4468C79.2132 11.5608 79.4772 12.7718 80.1602 13.6768C80.6922 14.3808 81.6882 14.6628 82.2432 13.8198C83.3842 12.0848 81.1872 9.94578 79.4402 10.1988C78.9482 10.2698 79.1192 10.9758 79.5502 11.0118C80.5162 11.0938 82.0552 11.8838 81.6492 13.1348C81.3312 14.1158 80.5392 12.9238 80.3262 12.4828C80.0172 11.8418 79.8822 11.1538 79.8702 10.4468C79.8632 10.0438 79.2572 10.0438 79.2452 10.4468Z" fill="#D2B646"/>
<path d="M82.5502 10.0467C83.1632 10.0467 83.1642 9.09375 82.5502 9.09375C81.9362 9.09375 81.9352 10.0467 82.5502 10.0467Z" fill="#D2B646"/>
<path d="M83.6752 12.0549C84.2982 12.0549 84.2992 11.0859 83.6752 11.0859C83.0512 11.0869 83.0502 12.0549 83.6752 12.0549Z" fill="#D2B646"/>
<path d="M81.9012 21.9939C86.5452 19.4409 91.1912 16.8659 95.7152 14.1049C96.1352 13.8479 95.7602 13.2019 95.3292 13.4439C90.7042 16.0329 86.1822 18.8199 81.6802 21.6169C81.4412 21.7649 81.6532 22.1299 81.9012 21.9939Z" fill="#D2B646"/>
</svg>
