<svg width="109" height="130" viewBox="0 0 109 130" fill="none" xmlns="http://www.w3.org/2000/svg">
<path d="M10.9352 78.9469C10.9152 79.9619 11.0532 80.9969 11.1952 82.0009C11.3182 82.8739 11.3862 83.8229 11.9572 84.5189C12.0942 84.6859 12.3582 84.5779 12.4142 84.3979C12.6602 83.6039 12.4052 82.7249 12.2872 81.9149C12.1382 80.8859 12.0532 79.8429 11.8712 78.8199C11.7752 78.2769 10.9452 78.4259 10.9352 78.9469Z" fill="#D2B646"/>
<path d="M12.9652 78.8259C13.0432 79.8669 13.1512 80.899 13.3222 81.929C13.4712 82.822 13.5162 83.7979 14.1202 84.5029C14.2492 84.6539 14.5032 84.566 14.5512 84.389C14.7802 83.557 14.4602 82.7099 14.3082 81.8789C14.1152 80.8279 13.9372 79.773 13.7782 78.716C13.7102 78.257 12.9302 78.3619 12.9652 78.8259Z" fill="#D2B646"/>
<path d="M15.4832 78.4479C15.5782 79.3719 15.6682 80.2959 15.7692 81.2189C15.8442 81.9029 15.8422 82.6209 16.3152 83.1499C16.4312 83.2799 16.6782 83.2499 16.7572 83.0929C17.0752 82.4569 16.8862 81.7639 16.7782 81.0829C16.6332 80.1659 16.4782 79.2499 16.3272 78.3339C16.2502 77.8599 15.4332 77.9649 15.4832 78.4479Z" fill="#D2B646"/>
<path d="M17.7302 77.4458C17.8272 78.2138 17.9412 78.9778 18.0872 79.7378C18.2112 80.3858 18.2632 81.2318 18.8032 81.6698C18.9892 81.8208 19.2272 81.7628 19.3122 81.5358C19.5422 80.9208 19.2232 80.2298 19.0742 79.6178C18.8902 78.8598 18.7372 78.0958 18.6052 77.3278C18.5202 76.8388 17.6672 76.9468 17.7302 77.4458Z" fill="#D2B646"/>
<path d="M20.3722 76.4459C20.4002 77.2929 20.4962 78.1629 20.7462 78.9759C20.9302 79.5739 21.1772 80.4559 21.8632 80.6039C22.0372 80.6419 22.1742 80.5519 22.2382 80.3909C22.4722 79.7999 21.9852 79.0979 21.7822 78.5499C21.5142 77.8259 21.3252 77.0959 21.2162 76.3319C21.1482 75.8499 20.3572 75.9679 20.3722 76.4459Z" fill="#D2B646"/>
<path d="M22.9792 74.9468C22.9832 75.8518 23.0452 76.7288 23.2292 77.6158C23.3882 78.3788 23.5162 79.3078 24.1292 79.8398C24.3152 80.0008 24.6772 79.9678 24.7302 79.6808C24.8712 78.9208 24.5312 78.2168 24.3542 77.4808C24.1442 76.6078 23.9672 75.7178 23.8382 74.8298C23.7662 74.3348 22.9772 74.4648 22.9792 74.9468Z" fill="#D2B646"/>
<path d="M25.6682 72.6957C25.7382 73.6227 25.8452 74.5447 26.0002 75.4607C26.1312 76.2327 26.2162 77.2338 26.8232 77.7778C26.9792 77.9178 27.2332 77.8647 27.2932 77.6537C27.5032 76.9127 27.1362 76.1107 26.9612 75.3797C26.7392 74.4577 26.5572 73.5318 26.4202 72.5938C26.3582 72.1698 25.6362 72.2667 25.6682 72.6957Z" fill="#D2B646"/>
<path d="M27.5082 71.4417C27.6082 72.3277 27.7102 73.2067 27.8632 74.0857C27.9932 74.8307 27.9982 75.7817 28.6302 76.2767C28.7812 76.3957 29.0002 76.4007 29.1092 76.2147C29.4852 75.5697 29.2222 74.8187 29.0742 74.1257C28.8732 73.1807 28.6282 72.2547 28.3682 71.3247C28.2392 70.8687 27.4512 70.9367 27.5082 71.4417Z" fill="#D2B646"/>
<path d="M29.7482 69.0667C29.8642 70.0417 30.0112 71.0107 30.2132 71.9717C30.3802 72.7697 30.4772 73.6458 31.1492 74.1618C31.3422 74.3098 31.6152 74.1437 31.6772 73.9467C31.9142 73.1907 31.4962 72.4077 31.2862 71.6757C31.0272 70.7757 30.8172 69.8647 30.6392 68.9457C30.5432 68.4517 29.6882 68.5567 29.7482 69.0667Z" fill="#D2B646"/>
<path d="M32.0032 67.446C31.9822 68.376 32.0682 69.299 32.2902 70.204C32.4632 70.91 32.6822 71.901 33.3702 72.255C33.6342 72.391 33.8752 72.216 33.9112 71.945C34.0042 71.249 33.4992 70.584 33.2812 69.931C33.0122 69.123 32.8652 68.296 32.8152 67.446C32.7852 66.927 32.0152 66.919 32.0032 67.446Z" fill="#D2B646"/>
<path d="M33.7572 65.6958C33.7822 66.4438 33.8602 67.1888 34.0082 67.9238C34.1282 68.5208 34.1832 69.2808 34.7442 69.6098C34.9402 69.7248 35.1532 69.6088 35.2262 69.4138C35.4262 68.8758 35.0842 68.3338 34.9462 67.8028C34.7662 67.1098 34.6572 66.4088 34.6012 65.6958C34.5592 65.1608 33.7392 65.1468 33.7572 65.6958Z" fill="#D2B646"/>
<path d="M35.3832 63.0267C35.5082 63.5847 35.6332 64.1427 35.7582 64.7007C35.8622 65.1657 35.8782 65.6797 36.2422 66.0147C36.4042 66.1637 36.6422 66.0937 36.7122 65.8907C36.8732 65.4237 36.6382 64.9517 36.5102 64.4937C36.3562 63.9437 36.2012 63.3937 36.0462 62.8437C35.9252 62.4167 35.2862 62.5967 35.3832 63.0267Z" fill="#D2B646"/>
<path d="M10.5722 84.1158C19.6262 87.7828 32.4342 76.2208 36.1292 68.7718C36.2572 68.5128 35.9062 68.1838 35.6992 68.4408C30.5012 74.8958 20.5062 86.9148 10.7832 83.3478C10.2962 83.1688 10.1062 83.9268 10.5722 84.1158Z" fill="#D2B646"/>
<path d="M44.1222 60.9458C44.0752 61.8368 44.0822 62.7308 44.1922 63.6168C44.2742 64.2738 44.3022 65.1128 44.8432 65.5488C45.0512 65.7168 45.3072 65.6488 45.4052 65.4008C45.6432 64.7938 45.3362 64.0998 45.2242 63.4768C45.0732 62.6348 44.9862 61.7998 44.9652 60.9448C44.9532 60.3998 44.1512 60.4048 44.1222 60.9458Z" fill="#D2B646"/>
<path d="M46.1832 62.9449C46.3112 64.0229 46.4172 65.1029 46.4922 66.1859C46.5512 67.0409 46.4652 67.9129 46.8072 68.7059C46.9052 68.9329 47.2282 68.8359 47.2932 68.6429C47.5942 67.7459 47.3492 66.6829 47.2622 65.7539C47.1712 64.7819 47.0532 63.8139 46.9212 62.8459C46.8632 62.4309 46.1332 62.5249 46.1832 62.9449Z" fill="#D2B646"/>
<path d="M48.7912 65.0719C48.6852 66.1509 48.6292 67.2249 48.7032 68.3079C48.7572 69.1039 48.7352 69.8829 49.2502 70.5159C49.3982 70.6979 49.6512 70.5659 49.7202 70.3919C50.0212 69.6289 49.7422 68.7089 49.6852 67.9039C49.6192 66.9599 49.5772 66.0179 49.5882 65.0719C49.5942 64.5499 48.8402 64.5709 48.7912 65.0719Z" fill="#D2B646"/>
<path d="M51.1032 66.4419C51.2402 68.3849 51.1642 71.4079 52.2982 73.0729C52.3962 73.2169 52.6772 73.2269 52.7122 73.0189C52.8622 72.1139 52.6162 71.239 52.4502 70.344C52.2102 69.047 51.9862 67.7519 51.8222 66.4419C51.7662 65.9959 51.0702 65.9719 51.1032 66.4419Z" fill="#D2B646"/>
<path d="M53.7982 68.5708C53.6992 70.3008 53.3492 72.7468 54.1682 74.3458C54.2852 74.5738 54.6502 74.5158 54.7112 74.2748C54.9292 73.4058 54.7482 72.4888 54.6782 71.6048C54.5992 70.5948 54.5662 69.5838 54.5642 68.5708C54.5622 68.0748 53.8262 68.0818 53.7982 68.5708Z" fill="#D2B646"/>
<path d="M55.9512 70.1949C55.9172 71.1429 55.8872 72.0989 55.9452 73.0459C55.9892 73.7559 55.9622 74.5029 56.4552 75.0459C56.5892 75.1939 56.8662 75.1588 56.9582 74.9808C57.3012 74.3198 57.0862 73.5859 57.0032 72.8679C56.9002 71.9769 56.7972 71.0899 56.7322 70.1949C56.6962 69.6979 55.9692 69.6879 55.9512 70.1949Z" fill="#D2B646"/>
<path d="M58.4792 70.6948C58.5432 71.5058 58.6272 72.3148 58.7362 73.1218C58.8412 73.8928 58.8462 74.8148 59.3322 75.4468C59.4522 75.6038 59.7342 75.6178 59.7892 75.3868C59.9442 74.7308 59.7152 74.0958 59.5852 73.4448C59.4032 72.5328 59.2552 71.6158 59.1352 70.6938C59.0822 70.2878 58.4452 70.2658 58.4792 70.6948Z" fill="#D2B646"/>
<path d="M61.0552 71.195C61.0802 71.887 61.1062 72.579 61.1312 73.272C61.1512 73.801 61.0412 74.412 61.4842 74.774C61.6012 74.869 61.7792 74.898 61.8932 74.774C62.2912 74.339 62.1142 73.819 62.0532 73.272C61.9752 72.58 61.8982 71.887 61.8202 71.195C61.7672 70.718 61.0372 70.692 61.0552 71.195Z" fill="#D2B646"/>
<path d="M42.3492 62.0449C44.4152 64.7619 45.8472 68.1619 48.5112 70.3819C51.2762 72.6849 55.4492 74.3259 58.9302 75.1229C59.2352 75.1929 59.4592 74.7469 59.1532 74.5949C55.8422 72.9439 52.0462 72.0279 49.1752 69.6169C46.5502 67.4129 45.2032 64.1239 42.8282 61.6759C42.5942 61.4349 42.1352 61.7639 42.3492 62.0449Z" fill="#D2B646"/>
<path d="M37.3032 62.8298C37.3812 63.6208 37.6052 64.6108 38.2162 65.1678C38.6382 65.5518 39.1712 65.1598 39.1032 64.6518C39.0142 63.9908 38.6542 63.3099 38.4392 62.6759C38.2422 62.0979 37.2352 62.1438 37.3032 62.8298Z" fill="#D2B646"/>
<path d="M39.2692 62.6818C39.3682 63.1848 39.4672 63.6888 39.5662 64.1918C39.6502 64.6198 39.6612 64.9318 40.0892 65.1078C40.1812 65.1458 40.3132 65.1018 40.3782 65.0318C40.6892 64.6948 40.5362 64.3588 40.4322 63.9528C40.3062 63.4568 40.1792 62.9608 40.0522 62.4648C39.9222 61.9548 39.1692 62.1738 39.2692 62.6818Z" fill="#D2B646"/>
<path d="M37.9452 66.3119C39.2392 66.1759 40.4702 65.621 41.6352 65.059C42.7532 64.52 44.0742 63.896 44.8042 62.857C44.9422 62.66 44.7132 62.388 44.4952 62.455C43.3812 62.8 42.4092 63.617 41.3792 64.16C40.2172 64.773 38.9542 65.1489 37.7952 65.7579C37.5452 65.8899 37.6482 66.3439 37.9452 66.3119Z" fill="#D2B646"/>
<path d="M16.3912 120.786C20.9842 121.913 26.6862 123.336 31.4302 122.563C31.7502 122.511 31.7362 121.993 31.4302 121.93C29.3242 121.497 27.1552 121.57 25.0172 121.352C22.1832 121.062 19.4022 120.564 16.6282 119.928C16.0712 119.799 15.8332 120.649 16.3912 120.786Z" fill="#D2B646"/>
<path d="M53.4222 124.48C58.4302 125.233 64.6062 125.686 69.3202 123.453C69.5722 123.333 69.4492 122.915 69.1782 122.929C66.5672 123.065 64.0142 123.767 61.3942 123.956C58.7572 124.146 56.1442 124.075 53.5162 123.79C53.1262 123.747 53.0302 124.421 53.4222 124.48Z" fill="#D2B646"/>
<path d="M63.1982 70.9369C61.9552 72.8979 61.4172 75.2569 60.3052 77.3049C59.8922 78.0659 61.0622 78.7479 61.4652 77.9829C62.5672 75.8949 63.9982 73.5959 64.1152 71.1849C64.1402 70.6759 63.4462 70.5449 63.1982 70.9369Z" fill="#D2B646"/>
<path d="M15.1622 39.1949C23.8882 23.9769 46.2422 20.3709 57.9642 34.4219C58.5182 35.0859 59.4662 34.1309 58.9142 33.4719C46.8872 19.1019 22.4632 21.8809 14.3112 38.6979C14.0382 39.2619 14.8432 39.7519 15.1622 39.1949Z" fill="#D2B646"/>
<path d="M14.2312 124.772C12.8762 109.347 11.0562 94.0339 10.8662 78.5299C10.8552 77.6659 9.51017 77.6639 9.52217 78.5299C9.73917 94.0189 10.7222 109.611 13.2642 124.902C13.3552 125.445 14.2802 125.325 14.2312 124.772Z" fill="#D2B646"/>
<path d="M60.6862 78.6369C71.2912 74.8819 82.8322 76.4129 92.6742 81.7309C101.177 86.3259 110.01 95.4229 105.469 105.784C99.2572 119.959 79.2432 125.471 65.3352 126.807C48.5412 128.42 31.5962 125.82 14.9902 123.547C13.9192 123.4 13.4542 125.04 14.5372 125.189C41.9642 128.973 75.4192 134.739 98.9452 115.954C105.351 110.839 110.256 103.21 107.305 94.8499C104.569 87.0999 96.9362 81.7809 89.6792 78.6969C80.7692 74.9109 69.2692 73.1789 60.2822 77.6789C59.7582 77.9429 60.1242 78.8359 60.6862 78.6369Z" fill="#D2B646"/>
<path d="M39.3762 49.6879C38.2312 48.7309 35.0082 48.3419 34.5362 50.2669C34.2342 51.4969 35.6372 53.1969 35.8952 54.2809C36.5042 56.8449 35.9962 59.5649 35.5342 62.1029C35.4942 62.3209 35.5602 62.5449 35.7622 62.6619C37.3562 63.5869 39.2132 63.2709 40.4162 61.8329C42.0562 59.8719 41.6702 57.0049 41.0062 54.7539C40.8822 54.3339 40.1522 54.3909 40.2082 54.8619C40.4322 56.7499 41.3982 61.7869 38.2752 62.1279C35.7472 62.4039 36.9842 59.5749 37.0812 58.1599C37.1752 56.7839 37.1402 55.3739 36.8112 54.0279C36.6812 53.4959 36.4082 52.9959 36.2812 52.4729C36.1702 52.2069 36.0412 51.9499 35.8932 51.7019C36.0712 49.6549 37.0842 49.1759 38.9322 50.2639C39.2642 50.5109 39.6952 49.9559 39.3762 49.6879Z" fill="#D2B646"/>
<path d="M38.9772 50.0148C40.9042 49.4478 42.0842 49.8388 42.5162 51.1878C42.7202 51.5708 42.8732 51.9738 42.9732 52.3958C43.2192 53.1728 43.3962 54.0038 43.5392 54.8048C43.7242 55.8438 43.8442 56.9158 43.8572 57.9718C43.8592 58.2468 43.8612 58.5218 43.8632 58.7968C44.0812 60.2288 43.3242 60.9868 41.5912 61.0708C41.2292 60.7538 40.7342 61.2418 41.0612 61.6008C41.8912 62.5128 43.1422 62.4148 43.9692 61.5118C45.3632 59.9888 44.7202 56.7568 44.4412 54.9818C44.1462 53.1028 43.7092 50.2508 41.9202 49.1118C40.7232 48.3498 39.3532 48.5368 38.5242 49.6638C38.3252 49.9338 38.7512 50.2408 38.9772 50.0148Z" fill="#D2B646"/>
<path d="M34.9222 50.0419C31.3912 46.6449 27.1452 44.4489 22.7832 42.2989C18.8372 40.3529 14.5922 37.6629 10.1092 37.2589C2.14917 36.5419 1.06618 45.1329 2.73318 51.0579C2.75418 51.1319 2.87718 51.1209 2.87118 51.0389C2.59818 47.5699 2.09818 43.0669 4.92818 40.3969C9.26118 36.3079 15.6652 40.3479 19.8372 42.4219C24.9152 44.9459 29.7552 47.4309 34.2982 50.8519C34.7702 51.2069 35.3372 50.4399 34.9222 50.0419Z" fill="#D2B646"/>
<path d="M2.95618 51.3707C0.31218 60.2447 -3.86582 73.6887 7.72318 78.1387C18.3402 82.2157 32.0752 70.3137 36.5552 61.5507C36.7282 61.2127 36.3002 60.8467 36.0152 61.1337C29.4762 67.7217 22.1032 78.2737 11.4922 77.6407C5.49918 77.2827 1.01018 72.3447 0.759182 66.4777C0.548182 61.5547 2.48918 56.3057 3.22718 51.4447C3.25418 51.2707 3.00918 51.1927 2.95618 51.3707Z" fill="#D2B646"/>
<path d="M42.4172 49.4657C42.7762 45.6267 47.7512 42.1598 50.4562 39.8478C53.6402 37.1248 57.7392 33.4217 62.2872 34.1437C67.5132 34.9717 66.5382 37.3108 67.1042 40.7657C67.3602 42.3277 68.0602 43.4377 68.8322 44.9187C72.4342 51.8368 78.3582 66.2367 66.6752 69.4327C58.4072 71.6947 50.0222 65.9787 44.8422 60.2117C44.5492 59.8847 43.9812 60.3147 44.2292 60.6847C48.8532 67.5917 60.0202 73.5788 68.3602 70.0248C77.5472 66.1098 74.7792 54.3547 71.4072 47.4827C70.2622 45.1487 68.6082 42.9297 68.1842 40.3797C68.0002 39.2687 68.3752 37.7797 67.9982 36.7087C67.0572 34.0387 63.7002 32.8328 61.0972 32.8978C56.9342 33.0028 53.3972 35.9438 50.3682 38.4858C47.2312 41.1188 41.5092 44.8357 41.6362 49.4657C41.6502 49.9757 42.3712 49.9597 42.4172 49.4657Z" fill="#D2B646"/>
<path d="M36.0102 53.2668C33.0172 51.2148 28.8822 50.7398 25.4812 49.5108C22.7062 48.5078 19.9672 47.3349 17.1702 48.7339C16.8782 48.8799 17.0032 49.4178 17.3442 49.3748C20.6992 48.9488 23.2762 50.0359 26.3542 51.0679C29.4282 52.0979 32.7022 52.5048 35.6402 53.9008C36.0662 54.1038 36.4022 53.5358 36.0102 53.2668Z" fill="#D2B646"/>
<path d="M17.2242 48.7178C15.6022 49.0638 15.7822 51.0238 16.9032 51.8678C17.7742 52.5228 18.8942 52.5278 19.9372 52.5728C21.5192 52.6408 23.1382 52.8398 24.7072 52.5618C24.8892 52.5298 24.8672 52.2608 24.7072 52.2158C23.5602 51.8868 22.3842 51.8628 21.1972 51.7948C20.5932 51.7608 19.9862 51.7418 19.3852 51.6848C19.0282 51.6658 18.6742 51.6188 18.3242 51.5418C17.0812 51.3068 16.7992 50.5658 17.4772 49.3188C17.7872 49.1098 17.5942 48.6388 17.2242 48.7178Z" fill="#D2B646"/>
<path d="M36.2752 56.3398C33.3062 56.2588 30.2042 58.0608 27.5132 59.2048C24.4872 60.4908 21.4972 61.9248 19.2442 64.3748C18.8312 64.8238 19.4382 65.3808 19.8962 65.0268C24.7762 61.2558 30.6032 59.1408 36.3832 57.1378C36.8092 56.9908 36.7472 56.3528 36.2752 56.3398Z" fill="#D2B646"/>
<path d="M19.3332 64.714C18.6662 65.846 19.9902 66.604 20.9962 66.525C22.1002 66.439 23.2442 65.88 24.2752 65.501C25.2882 65.128 26.3742 64.847 27.2012 64.139C27.3452 64.016 27.2332 63.735 27.0412 63.752C25.9932 63.844 25.0462 64.37 24.0632 64.732C23.5092 64.936 19.7662 66.6 19.8722 64.859C19.8892 64.566 19.4732 64.477 19.3332 64.714Z" fill="#D2B646"/>
<path d="M43.6502 52.1248C45.7392 50.6468 47.7552 49.0688 49.8672 47.6228C51.7182 46.3558 54.8462 43.4868 57.1912 43.8888C57.7092 43.9778 57.9382 43.1928 57.4112 43.0898C55.0572 42.6308 52.9642 44.4538 51.1002 45.6768C48.3632 47.4718 45.6492 49.3688 43.2232 51.5728C42.9342 51.8368 43.3212 52.3578 43.6502 52.1248Z" fill="#D2B646"/>
<path d="M57.3482 43.5059C57.5442 43.8179 57.7252 44.1699 57.7232 44.5459C57.7222 44.8229 57.5722 45.0939 57.7182 45.3469C57.7572 45.4149 57.8312 45.4339 57.9032 45.4219C58.3462 45.3499 58.3722 44.6929 58.3362 44.3419C58.2862 43.8459 58.0832 43.4579 57.6672 43.1849C57.4722 43.0559 57.2252 43.3109 57.3482 43.5059Z" fill="#D2B646"/>
<path d="M57.5682 45.3528C56.3812 45.7238 55.2362 46.2358 54.0872 46.7098C52.9982 47.1588 51.6562 47.5148 50.7802 48.3348C50.6512 48.4558 50.7512 48.6838 50.9242 48.6818C52.0112 48.6668 53.0442 48.0698 54.0272 47.6338C55.2912 47.0738 56.5702 46.4918 57.7312 45.7388C57.9232 45.6138 57.8052 45.2788 57.5682 45.3528Z" fill="#D2B646"/>
<path d="M44.0432 55.5239C46.2762 55.4979 48.5072 55.3149 50.7342 55.1559C51.8492 55.0769 52.9642 54.9979 54.0792 54.9179C54.8222 54.8649 55.5662 54.8119 56.3092 54.7589C57.8922 54.5669 58.1502 54.9819 57.0822 56.0029C56.1302 57.5369 54.9562 57.1829 53.3022 57.1929C52.2762 57.1999 51.2502 57.2089 50.2242 57.1999C48.3282 57.1849 46.4192 56.9979 44.5392 57.2599C44.3532 57.2859 44.3842 57.5599 44.5392 57.6059C47.9422 58.6229 51.8602 58.1779 55.3522 57.9309C57.0672 57.8099 58.4002 57.5989 58.5952 55.6419C58.7772 53.8089 57.8662 53.7919 56.3092 53.8909C52.2012 54.1519 48.0432 54.3869 43.9632 54.9389C43.6292 54.9859 43.7162 55.5279 44.0432 55.5239Z" fill="#D2B646"/>
<path d="M32.1102 67.1538C31.5232 86.8988 30.4372 106.737 30.5272 126.49C30.5302 127.087 31.4152 127.079 31.4492 126.49C32.5802 106.77 32.5442 86.9018 33.0012 67.1538C33.0142 66.5798 32.1272 66.5808 32.1102 67.1538Z" fill="#D2B646"/>
<path d="M51.4152 67.1538C51.5142 77.2288 51.8612 87.2738 51.5342 97.3508C51.2082 107.424 49.8162 117.42 49.4172 127.469C49.3932 128.075 50.3752 128.227 50.4912 127.614C52.2972 118.071 52.5212 108.006 52.8162 98.3168C53.1322 87.9518 53.1372 77.4828 52.1332 67.1538C52.0902 66.7028 51.4112 66.6818 51.4152 67.1538Z" fill="#D2B646"/>
<path d="M32.8212 48.1178C32.7152 41.3808 32.8482 33.7998 31.1192 27.2578C31.0202 26.8828 30.4762 26.9748 30.4592 27.3468C30.1442 34.1258 31.4912 41.3568 32.1492 48.1178C32.1902 48.5398 32.8282 48.5588 32.8212 48.1178Z" fill="#D2B646"/>
<path d="M49.8692 28.2479C49.0312 31.2689 49.3442 35.9429 50.5422 38.8529C50.7222 39.2899 51.4472 39.2879 51.4322 38.7329C51.3872 37.0039 50.9742 35.3049 50.8632 33.5739C50.7522 31.8449 50.9172 30.0739 50.7122 28.3619C50.6592 27.9089 50.0092 27.7449 49.8692 28.2479Z" fill="#D2B646"/>
<path d="M10.6612 91.73C12.4552 93.506 15.8292 93.029 18.1532 93.164C22.5312 93.419 27.0182 93.7689 31.3942 93.4219C32.1192 93.3639 32.1162 92.3589 31.3942 92.2969C28.0342 92.0069 24.6372 92.092 21.2672 91.954C18.1762 91.828 13.9482 92.198 11.0502 91.065C10.6642 90.914 10.3952 91.468 10.6612 91.73Z" fill="#D2B646"/>
<path d="M12.7062 111.856C18.5912 112.491 24.5342 112.194 30.4162 111.644C31.1612 111.574 31.1672 110.4 30.4162 110.472C24.5152 111.04 18.6232 111.084 12.7062 111.293C12.3372 111.306 12.3522 111.818 12.7062 111.856Z" fill="#D2B646"/>
<path d="M52.8382 92.3138C67.5872 90.4368 82.4372 87.1858 96.7982 83.3658C97.6062 83.1508 97.2652 81.9268 96.4532 82.1148C81.9082 85.4968 67.3252 88.2988 52.6922 91.2388C52.0972 91.3598 52.2222 92.3928 52.8382 92.3138Z" fill="#D2B646"/>
<path d="M51.3722 110.642C69.5322 113.471 89.8722 108.724 106.612 101.851C107.438 101.512 107.076 100.151 106.238 100.495C97.8392 103.94 89.1482 106.53 80.1952 108.065C70.5742 109.715 61.1922 109.448 51.4992 109.706C50.9872 109.719 50.8202 110.556 51.3722 110.642Z" fill="#D2B646"/>
<path d="M37.8152 49.0138C37.8262 48.5188 37.5552 48.0718 37.5862 47.5618C37.6302 46.8328 38.0712 46.2058 38.7802 45.9928C40.3452 45.5228 41.6522 46.9498 41.3352 48.4698C41.1862 49.1848 42.2782 49.4928 42.4352 48.7728C42.9382 46.4738 41.0042 44.1828 38.5812 44.8228C37.5462 45.0958 36.7682 45.9208 36.5382 46.9658C36.3612 47.7688 36.4782 49.0588 37.4102 49.3218C37.6142 49.3808 37.8112 49.2208 37.8152 49.0138Z" fill="#D2B646"/>
<path d="M40.2322 48.0449C37.2332 35.3909 48.6612 29.4079 59.2412 27.4379C65.4782 26.2769 73.0092 25.4159 76.2312 19.1319C76.4602 18.6859 75.8502 18.1299 75.4952 18.5639C68.2372 27.4429 55.6432 24.6919 46.4682 30.4049C40.6162 34.0489 36.0542 41.6019 39.4192 48.3879C39.6492 48.8549 40.3452 48.5209 40.2322 48.0449Z" fill="#D2B646"/>
<path d="M71.9362 22.5309C70.5822 19.9079 67.4342 16.3359 69.3432 13.2929C70.6062 11.2789 75.4012 9.30585 77.4272 8.00185C79.9822 6.35685 82.7762 4.01085 85.5882 2.83185C87.9672 1.83385 88.9522 1.80686 91.1022 4.29186C91.9782 5.30386 92.6872 6.77186 93.3732 7.89786C95.3022 11.0619 98.2732 13.7549 94.9042 17.1619C93.0572 19.0299 90.0462 20.3179 87.8002 21.6569C85.1582 23.2329 82.4672 24.9649 79.6602 26.2339C78.6722 26.8269 77.5972 27.2058 76.4352 27.3698C76.0942 26.9548 75.7532 26.5389 75.4112 26.1239C74.2352 25.3039 73.2332 23.4729 72.3402 22.3859C71.8882 21.8359 71.0982 22.6249 71.5552 23.1699C72.9672 24.8529 74.7872 28.5238 77.1422 28.5638C78.7702 28.5908 81.2202 26.5989 82.6592 25.8169C85.1212 24.4789 87.5492 23.0789 89.9462 21.6289C92.0382 20.3629 97.5332 18.2179 98.3482 15.6449C99.2782 12.7119 94.5212 7.37485 93.0942 5.10085C91.9882 3.33885 90.8502 0.0658611 88.4272 0.000861114C87.1082 -0.0341389 85.9572 1.00586 84.8952 1.64886C82.1412 3.31386 79.4292 5.05786 76.7182 6.79186C74.2782 8.35186 71.8172 9.89086 69.4252 11.5249C68.5772 12.1039 67.2632 12.7719 66.8442 13.8429C65.6832 16.8049 69.5702 20.9319 71.0452 23.0529C71.4232 23.5929 72.2442 23.1269 71.9362 22.5309Z" fill="#D2B646"/>
<path d="M74.5542 20.3538C74.0012 19.8198 73.4512 19.0578 73.7712 18.2598C74.1492 17.3208 75.3782 17.0588 76.2052 17.5388C77.0072 18.0048 77.5272 18.9968 77.3132 19.9248C77.0672 20.9978 75.7392 21.4778 75.1692 20.3678C74.9672 19.9758 74.3212 20.2468 74.4552 20.6688C74.8872 22.0268 76.7382 22.1478 77.6292 21.1718C78.7802 19.9108 78.2802 17.8568 77.0262 16.8778C75.7762 15.9018 73.7882 16.2018 72.9962 17.6258C72.3622 18.7648 72.8742 20.7588 74.4052 20.7138C74.5832 20.7088 74.6892 20.4848 74.5542 20.3538Z" fill="#D2B646"/>
<path d="M74.0962 12.258C74.8872 11.728 75.6612 11.23 76.5322 10.837C77.0652 10.596 76.6872 9.71697 76.1352 9.89397C75.1142 10.221 74.1742 10.838 73.5622 11.723C73.3412 12.043 73.7782 12.471 74.0962 12.258Z" fill="#D2B646"/>
<path d="M74.6972 11.4219C75.1412 11.9899 75.5652 12.5719 75.9682 13.1689C76.3122 13.6779 76.5972 14.2839 77.0342 14.7169C77.3002 14.9799 77.8452 14.7169 77.7002 14.3289C77.4712 13.7189 76.9942 13.1969 76.5932 12.6869C76.1312 12.0989 75.6432 11.5319 75.1392 10.9799C74.8612 10.6759 74.4562 11.1139 74.6972 11.4219Z" fill="#D2B646"/>
<path d="M78.2452 9.44678C78.2132 10.5608 78.4772 11.7718 79.1602 12.6768C79.6922 13.3808 80.6882 13.6628 81.2432 12.8198C82.3842 11.0848 80.1872 8.94578 78.4402 9.19878C77.9482 9.26978 78.1192 9.97578 78.5502 10.0118C79.5162 10.0938 81.0552 10.8838 80.6492 12.1348C80.3312 13.1158 79.5392 11.9238 79.3262 11.4828C79.0172 10.8418 78.8822 10.1538 78.8702 9.44678C78.8632 9.04378 78.2572 9.04378 78.2452 9.44678Z" fill="#D2B646"/>
<path d="M81.5502 9.04674C82.1632 9.04674 82.1642 8.09375 81.5502 8.09375C80.9362 8.09375 80.9352 9.04674 81.5502 9.04674Z" fill="#D2B646"/>
<path d="M82.6752 11.0549C83.2982 11.0549 83.2992 10.0859 82.6752 10.0859C82.0512 10.0869 82.0502 11.0549 82.6752 11.0549Z" fill="#D2B646"/>
<path d="M80.9012 20.9939C85.5452 18.4409 90.1912 15.8659 94.7152 13.1049C95.1352 12.8479 94.7602 12.2019 94.3292 12.4439C89.7042 15.0329 85.1822 17.8199 80.6802 20.6169C80.4412 20.7649 80.6532 21.1299 80.9012 20.9939Z" fill="#D2B646"/>
</svg>
