<svg width="210" height="83" viewBox="0 0 210 83" fill="none" xmlns="http://www.w3.org/2000/svg">
<path d="M112.107 11.7764C111.736 11.5464 110.633 11.6374 109.643 11.6434C103.695 11.7724 97.7471 11.9644 91.8031 12.2004C89.9921 12.2984 88.1811 12.3884 86.3701 12.4814C86.2561 12.3504 86.0941 12.2604 85.8991 12.2664C82.7551 12.1194 79.8091 10.7174 76.7641 8.94844C76.6171 8.85644 76.4621 8.83344 76.3171 8.86044C69.0511 3.52844 60.2241 0.513441 51.1341 1.06444C47.8691 1.14044 45.5541 1.45844 42.2231 2.30444C41.5151 2.56444 40.9561 2.70844 40.4051 2.92544C32.7411 5.19744 24.8421 10.5774 20.1591 17.7234C19.3611 18.9294 18.6151 20.1874 17.9221 21.4834C14.6601 21.8144 11.3681 21.6714 8.1021 21.8564C7.5191 21.9974 7.25911 22.6464 7.37911 23.1974C7.40711 23.3874 7.3721 23.1354 7.3671 23.1714C7.3361 23.5444 7.29111 23.9154 7.26611 24.2884C7.12511 26.1924 7.08811 27.1054 7.03411 29.0084C6.80811 30.3674 7.36211 30.8214 8.49511 30.9824C11.2761 31.6024 12.4331 32.5004 12.7941 35.0044C12.8331 35.2234 12.9181 36.0604 12.9521 36.7064C12.1531 42.9644 12.8841 49.3324 15.7501 55.0784C16.4561 56.5684 17.2611 58.0054 18.1291 59.4054C14.5671 62.6734 11.3061 66.2564 8.02511 69.8014C5.74111 72.4384 3.14711 74.8884 1.28111 77.8474C-0.333894 81.1394 5.4261 81.2604 7.9681 81.6014C9.4691 81.6734 11.0691 81.7854 12.4771 81.1694C15.3701 79.6414 17.5941 77.1194 19.8891 74.8394C21.3321 73.3444 23.7521 70.7484 24.4981 69.6434C24.7471 69.4494 25.0321 69.1594 25.1771 68.8464C29.3441 72.7324 34.4361 75.5834 39.9811 76.9794C46.1501 78.7214 52.2021 79.4044 58.2581 78.7504C58.5511 78.7664 58.8461 78.7114 59.1411 78.6494C60.6531 78.4534 62.1651 78.1754 63.6801 77.8064C65.8851 77.1574 67.4471 76.4924 68.9241 75.8144C69.0201 75.7464 69.0741 75.6584 69.1081 75.5644C81.4481 70.1564 90.7591 58.3974 92.7771 45.0114C93.0081 43.4584 93.1541 41.8874 93.1831 40.3154C93.2201 39.8514 93.2281 39.5334 93.2471 39.2694C93.2531 39.0414 93.2621 38.8124 93.2601 38.5834C93.3491 38.1374 93.2431 35.9374 93.1601 36.5024C93.2471 35.4214 93.2131 35.6074 93.1221 34.9194C93.0021 34.1914 92.8551 33.4684 92.6961 32.7474C95.5701 31.4184 99.1101 30.6134 102.284 30.4874C103.684 30.3224 105.555 30.7234 106.287 30.5274C106.799 30.2494 106.694 29.4154 106.124 29.2774C102.005 28.5394 97.7561 29.3064 93.7981 30.5114C93.2871 30.6884 92.7801 30.8794 92.2821 31.0904C91.7671 29.1484 91.1251 27.2384 90.3221 25.3964C90.5751 25.2594 90.8221 25.1034 91.0771 24.9884C94.2471 23.5164 99.3081 22.2474 102.939 22.0354C104.367 21.9564 104.775 22.0334 105.292 22.1044C105.274 22.1034 105.323 22.1114 105.571 22.1444C105.899 22.2384 106.277 22.0844 106.446 21.7884C106.752 21.2984 106.358 20.6024 105.777 20.6224C101.438 20.2924 94.3471 21.7564 90.5451 23.5934C90.2801 23.7254 89.9531 23.8134 89.6461 23.9284C89.0571 22.7194 88.4071 21.5404 87.6891 20.4034C86.1911 18.0794 84.3981 15.9784 82.4321 14.0474C91.7251 13.3354 101.052 13.4064 110.366 13.3724C111.352 13.3134 111.733 13.4824 112.276 13.0704C112.653 12.7084 112.563 12.0344 112.107 11.7764ZM11.4751 30.5034C10.5431 29.9224 9.4551 29.8044 8.4101 29.5634C8.4491 28.7134 8.5041 28.4174 8.5371 27.3264C8.5691 26.0034 8.4271 24.0894 8.6581 23.3334C8.7021 23.3324 8.74411 23.3314 8.77311 23.3344C11.5661 23.2254 14.3651 23.1474 17.1551 22.9654C15.6001 26.1334 14.3861 29.5084 13.6101 32.9644C13.1751 31.8434 12.6041 31.2164 11.4751 30.5034ZM23.2651 68.8124C22.5141 69.7784 21.3371 71.2214 20.2891 72.4274C17.6811 75.2004 14.3991 78.7844 11.8061 79.9944C9.8101 80.5884 6.84411 80.2474 4.68311 79.8944C2.65111 79.4834 2.4331 79.1434 2.4381 78.7944C2.9031 77.0074 6.1761 73.9074 8.2631 71.4584C10.9161 68.5454 13.6031 65.6584 16.4651 62.9484C17.1431 62.3074 17.8321 61.6774 18.5371 61.0644C18.6591 60.9364 18.8141 60.8224 18.9621 60.7024C19.0781 60.8784 19.1891 61.0564 19.3071 61.2304C19.7211 62.9244 22.5651 66.0824 22.8901 66.5294C23.2821 66.9704 23.6991 67.3874 24.1121 67.8074C23.6321 68.0584 23.3821 68.7724 23.2651 68.8124ZM89.0401 27.5034C89.6391 29.1874 90.0381 30.7754 90.3971 32.3564C90.3401 32.6134 90.4061 32.8444 90.5471 33.0224C90.8181 34.2414 91.0791 35.4644 91.4021 36.7334C91.2191 36.1244 91.2971 36.2824 91.3181 36.7794C91.3941 37.7324 91.3731 38.1534 91.5201 38.6864C91.4601 38.6524 91.5581 39.6254 91.5421 39.9604C91.6331 40.6484 91.3021 41.4804 91.6881 42.0844C91.5181 44.1754 91.1511 46.2684 90.6451 48.3024C88.2591 57.9804 82.0551 66.2774 73.7001 71.3904C69.8451 73.7574 66.5451 75.0804 62.1631 76.2934C61.6091 76.4384 61.0501 76.5634 60.4891 76.6804C54.9871 77.4754 49.6241 77.1964 44.6701 76.0374C41.5741 75.3974 37.2421 74.0104 35.2231 73.1244C33.0281 72.1704 29.7431 69.9194 28.6611 69.0424C26.3071 67.1944 23.2511 64.0104 21.9951 62.3104C21.9751 62.2834 21.9551 62.2554 21.9351 62.2274C19.6561 58.9744 17.3701 55.0324 16.2311 52.1684C12.6941 42.8254 14.3221 31.7554 19.1181 22.6594C19.1931 22.5774 19.2441 22.4784 19.2751 22.3704C22.0741 17.1594 25.9121 12.6124 30.4191 9.44244C33.7971 7.11544 36.8421 5.68044 40.4971 4.55944C42.3531 3.95844 44.9281 3.44044 46.2131 3.20644C46.2761 3.18444 46.3241 3.14844 46.3731 3.11344C52.6791 2.15944 59.2051 2.57244 65.2481 4.66944C75.2631 8.56944 85.7581 17.1874 89.0401 27.5034Z" fill="#D2B646" stroke="#D2B646"/>
<path d="M87.4651 38.8335C87.5421 38.4585 87.4511 36.6105 87.3791 37.0845C87.4531 36.1765 87.4241 36.3325 87.3461 35.7545C86.6221 31.4505 85.0701 27.2505 82.6921 23.5555C80.6211 20.4045 77.8961 17.7385 74.9441 15.3815C68.3801 9.95249 60.0131 6.78749 51.3761 7.30049C48.5791 7.36449 46.5961 7.63149 43.7421 8.34249C43.1351 8.56149 42.6571 8.68249 42.1841 8.86449C35.6181 10.7735 28.8511 15.2955 24.8391 21.3015C18.7501 30.3345 15.9521 42.6455 21.0621 52.6965C21.9321 54.4985 22.9711 56.2145 24.1091 57.8675C24.4631 59.2915 26.9001 61.9445 27.1781 62.3205C31.0461 66.5945 36.1651 69.7055 41.8201 71.1025C47.1051 72.5665 52.2901 73.1405 57.4781 72.5915C57.7291 72.6055 57.9821 72.5585 58.2341 72.5065C59.5291 72.3415 60.8251 72.1085 62.1231 71.7975C64.0121 71.2525 65.3501 70.6925 66.6161 70.1235C66.6981 70.0665 66.7441 69.9925 66.7731 69.9135C77.3451 65.3685 85.3221 55.4865 87.0501 44.2365C87.2481 42.9315 87.3731 41.6105 87.3981 40.2895C87.4301 39.8995 87.4371 39.6315 87.4531 39.4105C87.4591 39.2175 87.4661 39.0255 87.4651 38.8335ZM70.7101 66.4025C67.4071 68.3925 64.5811 69.5035 60.8271 70.5235C60.3521 70.6455 59.8731 70.7505 59.3931 70.8495C54.6801 71.5175 50.0851 71.2835 45.8411 70.3095C43.1891 69.7715 39.4781 68.6065 37.7471 67.8615C35.8671 67.0595 33.0531 65.1685 32.1251 64.4305C30.1081 62.8775 27.4901 60.2015 26.4151 58.7725C26.3981 58.7495 26.3811 58.7265 26.3641 58.7025C24.4121 55.9685 22.4531 52.6555 21.4781 50.2485C16.6711 37.7925 22.9921 21.6825 33.6331 14.3415C36.5271 12.3855 39.1361 11.1805 42.2671 10.2375C43.8571 9.7325 46.0631 9.29649 47.1641 9.10049C47.2181 9.08249 47.2591 9.05149 47.3011 9.02249C52.7031 8.22049 58.2941 8.56749 63.4711 10.3305C72.0501 13.6085 81.0411 20.8515 83.8531 29.5205C84.8341 32.2265 85.1901 34.6345 85.8761 37.2775C85.7201 36.7655 85.7861 36.8985 85.8041 37.3165C85.8691 38.1175 85.8521 38.4715 85.9771 38.9185C85.9261 38.8895 86.0091 39.7075 85.9961 39.9895C86.0741 40.5675 85.7911 41.2675 86.1211 41.7745C85.9751 43.5315 85.6611 45.2905 85.2271 47.0005C83.1831 55.1335 77.8671 62.1065 70.7101 66.4025Z" fill="#D2B646" stroke="#D2B646"/>
<path d="M208.274 77.8483C206.407 74.8893 203.814 72.4393 201.53 69.8023C198.249 66.2563 194.988 62.6733 191.426 59.4063C192.294 58.0063 193.1 56.5683 193.805 55.0793C196.671 49.3323 197.402 42.9643 196.603 36.7073C196.638 36.0613 196.722 35.2233 196.761 35.0053C197.122 32.5013 198.279 31.6033 201.06 30.9833C202.193 30.8223 202.747 30.3683 202.52 29.0093C202.466 27.1053 202.428 26.1933 202.288 24.2893C202.263 23.9163 202.218 23.5453 202.187 23.1723C202.182 23.1363 202.147 23.3873 202.175 23.1983C202.296 22.6473 202.035 21.9983 201.452 21.8573C198.186 21.6723 194.895 21.8143 191.632 21.4843C190.939 20.1893 190.192 18.9313 189.395 17.7243C184.712 10.5773 176.813 5.19732 169.149 2.92632C168.597 2.70932 168.039 2.56532 167.331 2.30532C164 1.45932 161.685 1.14132 158.42 1.06532C150.532 0.587319 142.843 2.79732 136.198 6.87132C135.875 6.89732 135.593 7.12532 135.305 7.27632C132.567 8.89832 129.194 11.0913 126.823 11.9783C125.919 12.3003 125.18 12.4403 124.486 12.5533C122.241 12.4363 119.995 12.3233 117.751 12.2023C115.974 12.1313 114.196 12.0743 112.419 12.0123C112.488 11.3323 112.338 10.6233 111.73 10.2683C110.269 9.76232 108.634 10.0163 107.107 9.84832C104.793 9.73532 102.477 9.68232 100.16 9.63832C99.4551 9.67632 98.4871 9.44132 97.8841 9.83132C97.3641 9.78632 96.7891 10.1403 96.8131 10.7583C96.8181 10.9523 96.8161 11.0843 96.8151 11.1643C96.7941 11.2903 96.7931 11.3693 96.8091 11.2743C96.8101 11.2953 96.8161 11.3033 96.8271 11.2923C96.7171 11.6903 96.7091 12.1503 96.7741 11.6183C96.6221 12.7313 96.7901 13.6713 97.4161 14.2463C97.4681 14.5473 97.7121 14.8183 98.0551 14.8073C98.4941 14.8283 98.9591 14.8533 99.4371 14.8813C99.8851 14.9243 100.361 14.9513 100.858 14.9673C104.366 15.1843 108.35 15.4453 110.669 15.1383C110.904 15.1023 111.227 15.1923 111.841 14.6273C112.125 14.3163 112.305 13.9273 112.41 13.5223C112.411 13.4953 112.414 13.4753 112.416 13.4533C117.323 13.5233 122.228 13.6763 127.123 14.0513C125.157 15.9823 123.364 18.0833 121.866 20.4073C121.148 21.5443 120.498 22.7223 119.909 23.9323C119.602 23.8173 119.275 23.7293 119.01 23.5973C115.208 21.7613 108.117 20.2963 103.778 20.6263C103.197 20.6073 102.803 21.3033 103.109 21.7923C103.279 22.0883 103.656 22.2423 103.984 22.1483C104.232 22.1153 104.281 22.1073 104.263 22.1083C104.78 22.0373 105.188 21.9603 106.616 22.0393C110.247 22.2513 115.308 23.5193 118.478 24.9923C118.733 25.1073 118.98 25.2633 119.233 25.4003C118.431 27.2423 117.789 29.1523 117.273 31.0943C116.774 30.8833 116.268 30.6923 115.757 30.5153C111.799 29.3103 107.55 28.5433 103.431 29.2813C102.861 29.4193 102.755 30.2533 103.268 30.5313C103.999 30.7273 105.87 30.3273 107.27 30.4913C110.445 30.6173 113.984 31.4223 116.858 32.7513C116.699 33.4723 116.552 34.1963 116.432 34.9233C116.341 35.6113 116.307 35.4253 116.394 36.5063C116.311 35.9413 116.204 38.1413 116.294 38.5873C116.293 38.8163 116.301 39.0443 116.307 39.2733C116.326 39.5373 116.334 39.8553 116.371 40.3193C116.4 41.8913 116.546 43.4623 116.777 45.0153C118.795 58.4013 128.106 70.1613 140.446 75.5683C140.48 75.6623 140.534 75.7503 140.63 75.8183C142.107 76.4963 143.669 77.1613 145.874 77.8103C147.389 78.1793 148.901 78.4583 150.413 78.6533C150.707 78.7153 151.003 78.7703 151.296 78.7543C157.352 79.4073 163.405 78.7243 169.573 76.9833C175.118 75.5873 180.209 72.7373 184.377 68.8503C184.522 69.1633 184.807 69.4533 185.056 69.6473C185.802 70.7513 188.221 73.3473 189.665 74.8433C191.96 77.1233 194.184 79.6453 197.077 81.1733C198.485 81.7893 200.085 81.6783 201.586 81.6053C204.129 81.2613 209.889 81.1403 208.274 77.8483ZM200.781 23.3343C200.811 23.3313 200.852 23.3323 200.896 23.3333C201.127 24.0883 200.985 26.0033 201.017 27.3263C201.05 28.4173 201.106 28.7133 201.144 29.5633C200.099 29.8043 199.011 29.9223 198.079 30.5033C196.95 31.2163 196.379 31.8433 195.943 32.9643C195.167 29.5083 193.953 26.1333 192.398 22.9653C195.189 23.1483 197.988 23.2253 200.781 23.3343ZM180.893 69.0423C179.81 69.9193 176.525 72.1703 174.331 73.1243C172.312 74.0103 167.98 75.3973 164.884 76.0373C159.93 77.1963 154.566 77.4753 149.065 76.6803C148.504 76.5633 147.945 76.4383 147.391 76.2933C143.009 75.0803 139.71 73.7573 135.855 71.3903C127.5 66.2783 121.296 57.9803 118.91 48.3023C118.404 46.2673 118.037 44.1753 117.867 42.0843C118.252 41.4803 117.922 40.6483 118.013 39.9603C117.998 39.6253 118.095 38.6523 118.035 38.6863C118.182 38.1543 118.162 37.7333 118.238 36.7793C118.26 36.2823 118.337 36.1243 118.154 36.7333C118.477 35.4643 118.739 34.2413 119.009 33.0223C119.149 32.8443 119.215 32.6133 119.159 32.3563C119.518 30.7753 119.917 29.1873 120.516 27.5033C123.798 17.1883 134.293 8.57032 144.307 4.66932C150.35 2.57232 156.876 2.15932 163.182 3.11332C163.231 3.14832 163.278 3.18532 163.342 3.20632C164.627 3.44032 167.202 3.95832 169.058 4.55932C172.713 5.68032 175.758 7.11532 179.136 9.44232C183.643 12.6123 187.481 17.1593 190.28 22.3703C190.311 22.4783 190.361 22.5773 190.437 22.6593C195.233 31.7553 196.862 42.8253 193.324 52.1683C192.185 55.0323 189.899 58.9753 187.62 62.2273C187.6 62.2543 187.58 62.2823 187.56 62.3103C186.303 64.0103 183.247 67.1943 180.893 69.0423ZM204.872 79.8943C202.71 80.2473 199.745 80.5883 197.749 79.9943C195.156 78.7843 191.874 75.2003 189.266 72.4273C188.218 71.2213 187.041 69.7783 186.29 68.8123C186.173 68.7723 185.923 68.0593 185.444 67.8093C185.857 67.3893 186.274 66.9723 186.666 66.5313C186.99 66.0843 189.835 62.9263 190.249 61.2323C190.367 61.0583 190.478 60.8793 190.594 60.7043C190.742 60.8243 190.896 60.9373 191.019 61.0663C191.723 61.6783 192.412 62.3093 193.09 62.9503C195.952 65.6603 198.639 68.5473 201.292 71.4603C203.379 73.9093 206.652 77.0093 207.117 78.7963C207.122 79.1433 206.904 79.4833 204.872 79.8943Z" fill="#D2B646" stroke="#D2B646"/>
<path d="M122.09 38.8333C122.013 38.4583 122.104 36.6103 122.176 37.0843C122.102 36.1763 122.131 36.3322 122.209 35.7542C122.933 31.4502 124.485 27.2502 126.863 23.5552C128.934 20.4042 131.659 17.7382 134.611 15.3812C141.175 9.95225 149.542 6.78725 158.179 7.30025C160.976 7.36425 162.959 7.63125 165.813 8.34225C166.42 8.56125 166.898 8.68225 167.371 8.86425C173.937 10.7733 180.704 15.2952 184.716 21.3012C190.805 30.3342 193.603 42.6453 188.493 52.6963C187.623 54.4983 186.584 56.2142 185.446 57.8672C185.092 59.2912 182.655 61.9442 182.377 62.3202C178.509 66.5942 173.39 69.7052 167.735 71.1022C162.45 72.5662 157.265 73.1403 152.077 72.5913C151.826 72.6053 151.573 72.5582 151.321 72.5062C150.026 72.3412 148.73 72.1082 147.432 71.7972C145.543 71.2522 144.205 70.6923 142.939 70.1233C142.857 70.0663 142.811 69.9922 142.782 69.9132C132.21 65.3682 124.234 55.4863 122.505 44.2363C122.307 42.9313 122.182 41.6102 122.157 40.2892C122.125 39.8992 122.118 39.6312 122.102 39.4102C122.096 39.2172 122.089 39.0253 122.09 38.8333ZM138.845 66.4022C142.148 68.3922 144.974 69.5032 148.728 70.5232C149.203 70.6452 149.682 70.7503 150.162 70.8493C154.875 71.5173 159.47 71.2832 163.714 70.3092C166.366 69.7712 170.077 68.6062 171.807 67.8612C173.687 67.0592 176.501 65.1682 177.429 64.4302C179.446 62.8772 182.064 60.2013 183.139 58.7723C183.156 58.7493 183.173 58.7262 183.19 58.7022C185.142 55.9682 187.101 52.6553 188.077 50.2483C192.884 37.7923 186.563 21.6822 175.922 14.3412C173.028 12.3852 170.419 11.1803 167.288 10.2373C165.698 9.73225 163.492 9.29625 162.391 9.10025C162.337 9.08225 162.296 9.05125 162.254 9.02225C156.852 8.22025 151.26 8.56725 146.084 10.3302C137.505 13.6082 128.514 20.8512 125.702 29.5202C124.721 32.2262 124.365 34.6342 123.679 37.2772C123.835 36.7652 123.769 36.8982 123.751 37.3162C123.686 38.1172 123.703 38.4713 123.578 38.9183C123.629 38.8893 123.546 39.7073 123.559 39.9893C123.481 40.5673 123.764 41.2672 123.434 41.7742C123.58 43.5312 123.894 45.2903 124.328 47.0003C126.372 55.1333 131.687 62.1062 138.845 66.4022Z" fill="#D2B646" stroke="#D2B646"/>
</svg>
