<svg width="209" height="81" viewBox="0 0 209 81" fill="none" xmlns="http://www.w3.org/2000/svg">
<path d="M111.832 10.7979C111.461 10.5679 110.358 10.6589 109.368 10.6649C103.42 10.7939 97.4718 10.9859 91.5278 11.2219C89.7168 11.3199 87.9058 11.4099 86.0948 11.5029C85.9808 11.3719 85.8188 11.2819 85.6238 11.2879C82.4798 11.1409 79.5338 9.73893 76.4888 7.96993C76.3418 7.87793 76.1868 7.85492 76.0418 7.88192C68.7758 2.54992 59.9488 -0.465074 50.8588 0.0859256C47.5938 0.161926 45.2788 0.479924 41.9478 1.32592C41.2398 1.58592 40.6808 1.72993 40.1298 1.94693C32.4658 4.21893 24.5668 9.59893 19.8838 16.7449C19.0858 17.9509 18.3398 19.2089 17.6468 20.5049C14.3848 20.8359 11.0928 20.6929 7.82684 20.8779C7.24384 21.0189 6.98384 21.6679 7.10384 22.2189C7.13184 22.4089 7.09684 22.1569 7.09184 22.1929C7.06084 22.5659 7.01584 22.9369 6.99084 23.3099C6.84984 25.2139 6.81284 26.1269 6.75884 28.0299C6.53284 29.3889 7.08684 29.8429 8.21984 30.0039C11.0008 30.6239 12.1578 31.5219 12.5188 34.0259C12.5578 34.2449 12.6428 35.0819 12.6768 35.7279C11.8778 41.9859 12.6088 48.3539 15.4748 54.0999C16.1808 55.5899 16.9858 57.0269 17.8538 58.4269C14.2918 61.6949 11.0308 65.2779 7.74984 68.8229C5.46584 71.4599 2.87184 73.9099 1.00584 76.8689C-0.609163 80.1609 5.15083 80.2819 7.69283 80.6229C9.19383 80.6949 10.7938 80.8069 12.2018 80.1909C15.0948 78.6629 17.3188 76.1409 19.6138 73.8609C21.0568 72.3659 23.4768 69.7699 24.2228 68.6649C24.4718 68.4709 24.7568 68.1809 24.9018 67.8679C29.0688 71.7539 34.1608 74.6049 39.7058 76.0009C45.8748 77.7429 51.9268 78.4259 57.9828 77.7719C58.2758 77.7879 58.5708 77.7329 58.8658 77.6709C60.3778 77.4749 61.8898 77.1969 63.4048 76.8279C65.6098 76.1789 67.1718 75.5139 68.6488 74.8359C68.7448 74.7679 68.7988 74.6799 68.8328 74.5859C81.1728 69.1779 90.4838 57.4189 92.5018 44.0329C92.7328 42.4799 92.8788 40.9089 92.9078 39.3369C92.9448 38.8729 92.9528 38.5549 92.9718 38.2909C92.9778 38.0629 92.9868 37.8339 92.9848 37.6049C93.0738 37.1589 92.9678 34.9589 92.8848 35.5239C92.9718 34.4429 92.9378 34.6289 92.8468 33.9409C92.7268 33.2129 92.5798 32.4899 92.4208 31.7689C95.2948 30.4399 98.8348 29.6349 102.009 29.5089C103.409 29.3439 105.28 29.7449 106.012 29.5489C106.524 29.2709 106.419 28.4369 105.849 28.2989C101.73 27.5609 97.4808 28.3279 93.5228 29.5329C93.0118 29.7099 92.5048 29.9009 92.0068 30.1119C91.4918 28.1699 90.8499 26.2599 90.0469 24.4179C90.2999 24.2809 90.5468 24.1249 90.8018 24.0099C93.9718 22.5379 99.0328 21.2689 102.664 21.0569C104.092 20.9779 104.5 21.0549 105.017 21.1259C104.999 21.1249 105.048 21.1329 105.296 21.1659C105.624 21.2599 106.002 21.1059 106.171 20.8099C106.477 20.3199 106.083 19.6239 105.502 19.6439C101.163 19.3139 94.0718 20.7779 90.2698 22.6149C90.0048 22.7469 89.6778 22.8349 89.3708 22.9499C88.7818 21.7409 88.1318 20.5619 87.4138 19.4249C85.9158 17.1009 84.1228 14.9999 82.1568 13.0689C91.4498 12.3569 100.777 12.4279 110.091 12.3939C111.077 12.3349 111.458 12.5039 112.001 12.0919C112.378 11.7299 112.288 11.0559 111.832 10.7979ZM11.1998 29.5249C10.2678 28.9439 9.17983 28.8259 8.13483 28.5849C8.17383 27.7349 8.22883 27.4389 8.26183 26.3479C8.29383 25.0249 8.15184 23.1109 8.38284 22.3549C8.42684 22.3539 8.46884 22.3529 8.49784 22.3559C11.2908 22.2469 14.0898 22.1689 16.8798 21.9869C15.3248 25.1549 14.1108 28.5299 13.3348 31.9859C12.8998 30.8649 12.3288 30.2379 11.1998 29.5249ZM22.9898 67.8339C22.2388 68.7999 21.0618 70.2429 20.0138 71.4489C17.4058 74.2219 14.1238 77.8059 11.5308 79.0159C9.53483 79.6099 6.56885 79.2689 4.40785 78.9159C2.37584 78.5049 2.15783 78.1649 2.16283 77.8159C2.62783 76.0289 5.90083 72.9289 7.98783 70.4799C10.6408 67.5669 13.3278 64.6799 16.1898 61.9699C16.8678 61.3289 17.5568 60.6989 18.2618 60.0859C18.3838 59.9579 18.5388 59.8439 18.6868 59.7239C18.8028 59.8999 18.9138 60.0779 19.0318 60.2519C19.4458 61.9459 22.2898 65.1039 22.6148 65.5509C23.0068 65.9919 23.4238 66.4089 23.8368 66.8289C23.3568 67.0799 23.1068 67.7939 22.9898 67.8339ZM88.7648 26.5249C89.3638 28.2089 89.7628 29.7969 90.1218 31.3779C90.0648 31.6349 90.1308 31.8659 90.2718 32.0439C90.5428 33.2629 90.8038 34.4859 91.1268 35.7549C90.9438 35.1459 91.0218 35.3039 91.0428 35.8009C91.1188 36.7539 91.0979 37.1749 91.2449 37.7079C91.1849 37.6739 91.2828 38.6469 91.2668 38.9819C91.3578 39.6699 91.0268 40.5019 91.4128 41.1059C91.2428 43.1969 90.8759 45.2899 90.3699 47.3239C87.9839 57.0019 81.7798 65.2989 73.4248 70.4119C69.5698 72.7789 66.2698 74.1019 61.8878 75.3149C61.3338 75.4599 60.7748 75.5849 60.2138 75.7019C54.7118 76.4969 49.3488 76.2179 44.3948 75.0589C41.2988 74.4189 36.9668 73.0319 34.9478 72.1459C32.7528 71.1919 29.4678 68.9409 28.3858 68.0639C26.0318 66.2159 22.9758 63.0319 21.7198 61.3319C21.6998 61.3049 21.6798 61.2769 21.6598 61.2489C19.3808 57.9959 17.0948 54.0539 15.9558 51.1899C12.4188 41.8469 14.0468 30.7769 18.8428 21.6809C18.9178 21.5989 18.9688 21.4999 18.9998 21.3919C21.7988 16.1809 25.6368 11.6339 30.1438 8.46392C33.5218 6.13692 36.5668 4.70193 40.2218 3.58093C42.0778 2.97993 44.6528 2.46192 45.9378 2.22792C46.0008 2.20592 46.0488 2.16993 46.0978 2.13493C52.4038 1.18093 58.9298 1.59393 64.9728 3.69093C74.9878 7.59093 85.4828 16.2089 88.7648 26.5249Z" fill="#D2B646"/>
<path d="M87.1898 37.855C87.2668 37.48 87.1758 35.632 87.1038 36.106C87.1778 35.198 87.1488 35.354 87.0708 34.776C86.3468 30.472 84.7948 26.272 82.4168 22.577C80.3458 19.426 77.6208 16.76 74.6688 14.403C68.1048 8.97398 59.7378 5.80898 51.1008 6.32198C48.3038 6.38598 46.3208 6.65298 43.4668 7.36398C42.8598 7.58298 42.3818 7.70398 41.9088 7.88598C35.3428 9.79498 28.5758 14.317 24.5638 20.323C18.4748 29.356 15.6768 41.667 20.7868 51.718C21.6568 53.52 22.6958 55.236 23.8338 56.889C24.1878 58.313 26.6248 60.966 26.9028 61.342C30.7708 65.616 35.8898 68.727 41.5448 70.124C46.8298 71.588 52.0148 72.162 57.2028 71.613C57.4538 71.627 57.7068 71.58 57.9588 71.528C59.2538 71.363 60.5498 71.13 61.8478 70.819C63.7368 70.274 65.0748 69.714 66.3408 69.145C66.4228 69.088 66.4688 69.014 66.4978 68.935C77.0698 64.39 85.0468 54.508 86.7748 43.258C86.9728 41.953 87.0978 40.632 87.1228 39.311C87.1548 38.921 87.1618 38.653 87.1778 38.432C87.1838 38.239 87.1908 38.047 87.1898 37.855ZM70.4348 65.424C67.1318 67.414 64.3058 68.525 60.5518 69.545C60.0768 69.667 59.5978 69.772 59.1178 69.871C54.4048 70.539 49.8098 70.305 45.5658 69.331C42.9138 68.793 39.2028 67.628 37.4718 66.883C35.5918 66.081 32.7778 64.19 31.8498 63.452C29.8328 61.899 27.2148 59.223 26.1398 57.794C26.1228 57.771 26.1058 57.748 26.0888 57.724C24.1368 54.99 22.1778 51.677 21.2028 49.27C16.3958 36.814 22.7168 20.704 33.3578 13.363C36.2518 11.407 38.8608 10.202 41.9918 9.25898C43.5818 8.75398 45.7878 8.31798 46.8888 8.12198C46.9428 8.10398 46.9838 8.07298 47.0258 8.04398C52.4278 7.24198 58.0188 7.58897 63.1958 9.35197C71.7748 12.63 80.7658 19.873 83.5778 28.542C84.5588 31.248 84.9148 33.656 85.6008 36.299C85.4448 35.787 85.5108 35.92 85.5288 36.338C85.5938 37.139 85.5768 37.493 85.7018 37.94C85.6508 37.911 85.7338 38.729 85.7208 39.011C85.7988 39.589 85.5158 40.289 85.8458 40.796C85.6998 42.553 85.3858 44.312 84.9518 46.022C82.9078 54.155 77.5918 61.128 70.4348 65.424Z" fill="#D2B646"/>
<path d="M207.999 76.8698C206.132 73.9108 203.539 71.4608 201.255 68.8238C197.974 65.2778 194.713 61.6948 191.151 58.4278C192.019 57.0278 192.825 55.5898 193.53 54.1008C196.396 48.3538 197.127 41.9858 196.328 35.7288C196.363 35.0828 196.447 34.2448 196.486 34.0268C196.847 31.5228 198.004 30.6248 200.785 30.0048C201.918 29.8438 202.472 29.3898 202.245 28.0308C202.191 26.1268 202.153 25.2148 202.013 23.3108C201.988 22.9378 201.943 22.5668 201.912 22.1938C201.907 22.1578 201.872 22.4088 201.9 22.2198C202.021 21.6688 201.76 21.0198 201.177 20.8788C197.911 20.6938 194.62 20.8358 191.357 20.5058C190.664 19.2108 189.917 17.9528 189.12 16.7458C184.437 9.59881 176.538 4.2188 168.874 1.9478C168.322 1.7308 167.764 1.5868 167.056 1.3268C163.725 0.480801 161.41 0.162803 158.145 0.0868034C150.257 -0.391197 142.568 1.8188 135.923 5.8928C135.6 5.9188 135.318 6.1468 135.03 6.2978C132.292 7.9198 128.919 10.1128 126.548 10.9998C125.644 11.3218 124.905 11.4618 124.211 11.5748C121.966 11.4578 119.72 11.3448 117.476 11.2238C115.699 11.1528 113.921 11.0958 112.144 11.0338C112.213 10.3538 112.063 9.64481 111.455 9.28981C109.994 8.78381 108.359 9.03781 106.832 8.86981C104.518 8.75681 102.202 8.7038 99.8848 8.6598C99.1798 8.6978 98.2118 8.4628 97.6088 8.8528C97.0888 8.8078 96.5138 9.1618 96.5378 9.7798C96.5428 9.9738 96.5408 10.1058 96.5398 10.1858C96.5188 10.3118 96.5178 10.3908 96.5338 10.2958C96.5348 10.3168 96.5408 10.3248 96.5518 10.3138C96.4418 10.7118 96.4338 11.1718 96.4988 10.6398C96.3468 11.7528 96.5148 12.6928 97.1408 13.2678C97.1928 13.5688 97.4368 13.8398 97.7798 13.8288C98.2188 13.8498 98.6838 13.8748 99.1618 13.9028C99.6098 13.9458 100.086 13.9728 100.583 13.9888C104.091 14.2058 108.075 14.4668 110.394 14.1598C110.629 14.1238 110.952 14.2138 111.566 13.6488C111.85 13.3378 112.03 12.9488 112.135 12.5438C112.136 12.5168 112.139 12.4968 112.141 12.4748C117.048 12.5448 121.953 12.6978 126.848 13.0728C124.882 15.0038 123.089 17.1048 121.591 19.4288C120.873 20.5658 120.223 21.7438 119.634 22.9538C119.327 22.8388 119 22.7508 118.735 22.6188C114.933 20.7828 107.842 19.3178 103.503 19.6478C102.922 19.6288 102.528 20.3248 102.834 20.8138C103.004 21.1098 103.381 21.2638 103.709 21.1698C103.957 21.1368 104.006 21.1288 103.988 21.1298C104.505 21.0588 104.913 20.9818 106.341 21.0608C109.972 21.2728 115.033 22.5408 118.203 24.0138C118.458 24.1288 118.705 24.2848 118.958 24.4218C118.156 26.2638 117.514 28.1738 116.998 30.1158C116.499 29.9048 115.993 29.7138 115.482 29.5368C111.524 28.3318 107.275 27.5648 103.156 28.3028C102.586 28.4408 102.48 29.2748 102.993 29.5528C103.724 29.7488 105.595 29.3488 106.995 29.5128C110.17 29.6388 113.709 30.4438 116.583 31.7728C116.424 32.4938 116.277 33.2178 116.157 33.9448C116.066 34.6328 116.032 34.4468 116.119 35.5278C116.036 34.9628 115.929 37.1628 116.019 37.6088C116.018 37.8378 116.026 38.0658 116.032 38.2948C116.051 38.5588 116.059 38.8768 116.096 39.3408C116.125 40.9128 116.271 42.4838 116.502 44.0368C118.52 57.4228 127.831 69.1828 140.171 74.5898C140.205 74.6838 140.259 74.7718 140.355 74.8398C141.832 75.5178 143.394 76.1828 145.599 76.8318C147.114 77.2008 148.626 77.4798 150.138 77.6748C150.432 77.7368 150.728 77.7918 151.021 77.7758C157.077 78.4288 163.13 77.7458 169.298 76.0048C174.843 74.6088 179.934 71.7588 184.102 67.8718C184.247 68.1848 184.532 68.4748 184.781 68.6688C185.527 69.7728 187.946 72.3688 189.39 73.8648C191.685 76.1448 193.909 78.6668 196.802 80.1948C198.21 80.8108 199.81 80.6998 201.311 80.6268C203.854 80.2828 209.614 80.1618 207.999 76.8698ZM200.506 22.3558C200.536 22.3528 200.577 22.3538 200.621 22.3548C200.852 23.1098 200.71 25.0248 200.742 26.3478C200.775 27.4388 200.831 27.7348 200.869 28.5848C199.824 28.8258 198.736 28.9438 197.804 29.5248C196.675 30.2378 196.104 30.8648 195.668 31.9858C194.892 28.5298 193.678 25.1548 192.123 21.9868C194.914 22.1698 197.713 22.2468 200.506 22.3558ZM180.618 68.0638C179.535 68.9408 176.25 71.1918 174.056 72.1458C172.037 73.0318 167.705 74.4188 164.609 75.0588C159.655 76.2178 154.291 76.4968 148.79 75.7018C148.229 75.5848 147.67 75.4598 147.116 75.3148C142.734 74.1018 139.435 72.7788 135.58 70.4118C127.225 65.2998 121.021 57.0018 118.635 47.3238C118.129 45.2888 117.762 43.1968 117.592 41.1058C117.977 40.5018 117.647 39.6698 117.738 38.9818C117.723 38.6468 117.82 37.6738 117.76 37.7078C117.907 37.1758 117.887 36.7548 117.963 35.8008C117.985 35.3038 118.062 35.1458 117.879 35.7548C118.202 34.4858 118.464 33.2628 118.734 32.0438C118.874 31.8658 118.94 31.6348 118.884 31.3778C119.243 29.7968 119.642 28.2088 120.241 26.5248C123.523 16.2098 134.018 7.59181 144.032 3.69081C150.075 1.59381 156.601 1.18081 162.907 2.13481C162.956 2.16981 163.003 2.2068 163.067 2.2278C164.352 2.4618 166.927 2.97981 168.783 3.58081C172.438 4.70181 175.483 6.1368 178.861 8.4638C183.368 11.6338 187.206 16.1808 190.005 21.3918C190.036 21.4998 190.086 21.5988 190.162 21.6808C194.958 30.7768 196.587 41.8468 193.049 51.1898C191.91 54.0538 189.624 57.9968 187.345 61.2488C187.325 61.2758 187.305 61.3038 187.285 61.3318C186.028 63.0318 182.972 66.2158 180.618 68.0638ZM204.597 78.9158C202.435 79.2688 199.47 79.6098 197.474 79.0158C194.881 77.8058 191.599 74.2218 188.991 71.4488C187.943 70.2428 186.766 68.7998 186.015 67.8338C185.898 67.7938 185.648 67.0808 185.169 66.8308C185.582 66.4108 185.999 65.9938 186.391 65.5528C186.715 65.1058 189.56 61.9478 189.974 60.2538C190.092 60.0798 190.203 59.9008 190.319 59.7258C190.467 59.8458 190.621 59.9588 190.744 60.0878C191.448 60.6998 192.137 61.3308 192.815 61.9718C195.677 64.6818 198.364 67.5688 201.017 70.4818C203.104 72.9308 206.377 76.0308 206.842 77.8178C206.847 78.1648 206.629 78.5048 204.597 78.9158Z" fill="#D2B646"/>
<path d="M121.815 37.8547C121.738 37.4797 121.829 35.6317 121.901 36.1057C121.827 35.1977 121.856 35.3537 121.934 34.7757C122.658 30.4717 124.21 26.2717 126.588 22.5767C128.659 19.4257 131.384 16.7597 134.336 14.4027C140.9 8.97373 149.267 5.80873 157.904 6.32173C160.701 6.38573 162.684 6.65273 165.538 7.36373C166.145 7.58273 166.623 7.70373 167.096 7.88573C173.662 9.79473 180.429 14.3167 184.441 20.3227C190.53 29.3557 193.328 41.6667 188.218 51.7177C187.348 53.5197 186.309 55.2357 185.171 56.8887C184.817 58.3127 182.38 60.9657 182.102 61.3417C178.234 65.6157 173.115 68.7267 167.46 70.1237C162.175 71.5877 156.99 72.1617 151.802 71.6127C151.551 71.6267 151.298 71.5797 151.046 71.5277C149.751 71.3627 148.455 71.1297 147.157 70.8187C145.268 70.2737 143.93 69.7137 142.664 69.1447C142.582 69.0877 142.536 69.0137 142.507 68.9347C131.935 64.3897 123.959 54.5077 122.23 43.2577C122.032 41.9527 121.907 40.6317 121.882 39.3107C121.85 38.9207 121.843 38.6527 121.827 38.4317C121.821 38.2387 121.814 38.0467 121.815 37.8547ZM138.57 65.4237C141.873 67.4137 144.699 68.5247 148.453 69.5447C148.928 69.6667 149.407 69.7717 149.887 69.8707C154.6 70.5387 159.195 70.3047 163.439 69.3307C166.091 68.7927 169.802 67.6277 171.532 66.8827C173.412 66.0807 176.226 64.1897 177.154 63.4517C179.171 61.8987 181.789 59.2227 182.864 57.7937C182.881 57.7707 182.898 57.7477 182.915 57.7237C184.867 54.9897 186.826 51.6767 187.802 49.2697C192.609 36.8137 186.288 20.7037 175.647 13.3627C172.753 11.4067 170.144 10.2017 167.013 9.25874C165.423 8.75374 163.217 8.31773 162.116 8.12173C162.062 8.10373 162.021 8.07273 161.979 8.04373C156.577 7.24173 150.985 7.58873 145.809 9.35173C137.23 12.6297 128.239 19.8727 125.427 28.5417C124.446 31.2477 124.09 33.6557 123.404 36.2987C123.56 35.7867 123.494 35.9197 123.476 36.3377C123.411 37.1387 123.428 37.4927 123.303 37.9397C123.354 37.9107 123.271 38.7287 123.284 39.0107C123.206 39.5887 123.489 40.2887 123.159 40.7957C123.305 42.5527 123.619 44.3117 124.053 46.0217C126.097 54.1547 131.412 61.1277 138.57 65.4237Z" fill="#D2B646"/>
<path d="M75.6658 16.5011C71.1198 23.2641 66.2958 29.9101 62.1348 36.8991C62.0048 37.5761 63.0118 37.9261 63.3398 37.3161C66.3188 32.6461 69.3738 28.0261 72.5408 23.4811C73.9678 21.2931 75.6358 19.1971 76.8908 16.9241C77.0228 16.2361 75.9998 15.8801 75.6658 16.5011Z" fill="#D2B646"/>
<path d="M75.8828 21.9091C69.9778 29.8871 64.3748 38.0901 58.6268 46.1831C58.0368 46.7581 58.3698 47.7961 59.2688 47.6031C59.5238 47.5311 59.6818 47.3351 59.8178 47.1201C61.1738 45.1851 62.4938 43.2241 63.8258 41.2721C67.1508 36.3951 70.5308 31.5551 73.8908 26.7011C74.8298 25.2381 76.0428 23.9001 76.9048 22.4171C77.0108 21.8711 76.2638 21.4971 75.8828 21.9091Z" fill="#D2B646"/>
<path d="M74.3078 29.8992C74.0468 29.4222 73.2988 29.4192 73.0378 29.8992C70.0578 34.0292 67.1108 38.1902 64.2968 42.4352C63.8178 43.4192 65.2258 43.9882 65.6718 43.0042C68.5438 39.0322 71.1438 34.8662 74.0788 30.9382C74.3398 30.6592 74.5348 30.2622 74.3078 29.8992Z" fill="#D2B646"/>
<path d="M72.8078 35.338C72.3018 36.013 71.8158 36.704 71.3198 37.386C71.0838 37.768 71.3068 38.298 71.7368 38.412C72.2778 38.573 72.5728 38.047 72.8048 37.655C73.1588 37.003 73.7188 36.427 73.9788 35.743C74.1088 35.08 73.1248 34.747 72.8078 35.338Z" fill="#D2B646"/>
<path d="M56.3308 49.6062C53.0078 53.7372 46.8718 62.2482 42.4578 68.1262C41.6588 68.8762 42.1458 70.0552 43.2228 69.6192C47.2048 64.5152 51.0948 59.2812 54.9158 54.0382C55.8318 52.6492 57.0828 51.2322 57.5108 50.1912C57.6348 49.5592 56.7688 49.1322 56.3308 49.6062Z" fill="#D2B646"/>
<path d="M57.5397 54.0721C57.4027 53.5111 56.5797 53.4001 56.3027 53.9101C53.6807 57.8471 50.5767 61.4411 47.8507 65.3041C47.4427 66.0031 47.1917 66.0301 47.2727 66.6471C47.4167 67.2381 48.2747 67.3571 48.5777 66.8321C48.5557 66.8611 48.5097 66.9221 48.4877 66.9511C48.5197 66.9161 48.5547 66.8831 48.5837 66.8461C51.0517 63.6961 54.1517 59.3821 56.8407 55.5921C57.0867 55.1081 57.6507 54.6551 57.5397 54.0721Z" fill="#D2B646"/>
<path d="M57.7218 59.8362C57.5818 59.2882 56.8398 59.0892 56.4488 59.5002C56.2678 59.6772 55.4888 60.7292 55.7588 60.3712C55.5468 60.5812 55.4608 60.9372 55.5998 61.2092C55.7248 61.5672 56.1478 61.7482 56.5048 61.6532C56.8918 61.5482 57.0588 61.1372 57.3138 60.8632C57.5468 60.5682 57.8518 60.2402 57.7218 59.8362Z" fill="#D2B646"/>
<path d="M56.0458 44.5661C52.5498 49.0261 49.4588 53.7921 45.9868 58.2741C43.9608 61.1331 40.5058 64.9621 38.3398 68.4891C38.1708 69.3691 39.4808 69.8241 39.9078 69.0311C44.1918 63.2061 49.9588 55.4061 54.4538 48.7151C55.3488 47.3911 56.2688 46.2041 57.0008 45.2101C57.2748 44.6501 56.4738 44.1051 56.0458 44.5661Z" fill="#D2B646"/>
<path d="M53.3548 63.9151C51.6618 65.8671 50.0068 67.8531 48.4168 69.8891C48.2958 70.0621 48.4308 69.8771 48.4708 69.8271C48.2678 70.0281 48.1838 70.3661 48.3178 70.6251C48.4818 71.0961 49.1598 71.2181 49.4968 70.8591C49.6978 70.6431 49.8658 70.4011 50.0488 70.1691C50.3458 69.7831 51.9638 67.7561 52.7158 66.8191C52.8068 66.6951 53.7538 65.5051 54.1718 64.9741C54.3158 64.7981 54.4818 64.6181 54.4698 64.3751C54.4878 63.8161 53.7398 63.5041 53.3548 63.9151Z" fill="#D2B646"/>
<path d="M56.8758 7.07615C50.6148 14.2372 44.2468 21.8412 38.8638 29.2112C37.9588 30.2242 39.4008 30.7592 39.6898 30.0782C43.3568 25.3882 47.0998 20.3322 51.3128 15.4462C53.4598 12.9532 55.5888 10.4412 57.8518 8.05216C58.4878 7.43716 57.5038 6.43215 56.8758 7.07615Z" fill="#D2B646"/>
<path d="M35.6468 32.8461C31.2788 38.2611 25.4978 44.2971 21.2408 50.3641C21.0998 51.2441 22.3798 51.5541 22.7308 50.7521C25.9298 46.4691 30.0008 41.6011 33.8018 37.0541C34.7368 35.8611 35.8418 34.7841 36.7818 33.6121C37.1098 32.9431 36.1548 32.3001 35.6468 32.8461Z" fill="#D2B646"/>
<path d="M48.9668 11.8232C46.8208 14.5982 44.0558 18.1262 41.4358 21.6442C41.1988 22.0882 40.4908 22.5782 40.2968 23.2842C40.2808 23.7832 40.9458 24.0622 41.2898 23.6952C43.4738 20.9672 45.2088 18.4662 47.2578 15.9732C48.1898 14.8182 49.1398 13.6772 50.0848 12.5332C50.2088 12.4102 50.2798 12.2382 50.2788 12.0642C50.2748 11.3272 49.2698 11.1812 48.9668 11.8232Z" fill="#D2B646"/>
<path d="M49.5817 7.19612C48.4157 8.72012 44.4397 13.5491 42.1057 16.6041C41.4017 17.2961 42.4397 18.2761 43.0237 17.4561C45.1197 14.6941 48.0737 11.0991 50.7927 8.18412C50.9897 7.99812 51.1687 7.76212 51.1597 7.47812C51.1407 6.57712 49.9597 6.42712 49.5817 7.19612Z" fill="#D2B646"/>
<path d="M58.9008 9.25112C55.1048 13.5161 50.4978 18.5451 47.4938 22.7101C47.2578 23.1821 47.7638 23.7411 48.2608 23.5881C48.6358 23.4701 48.7958 23.0521 49.0538 22.7841C50.8588 20.4781 53.2108 17.4381 55.4988 14.8331C56.9078 13.1541 58.4598 11.5751 59.8378 9.88313C60.1078 9.33213 59.3208 8.79912 58.9008 9.25112Z" fill="#D2B646"/>
<path d="M58.6948 13.5241C58.3578 13.9061 57.7108 14.4181 58.2088 14.9321C58.5348 15.2611 59.0328 15.0931 59.2488 14.7271C59.4288 14.4841 59.7288 14.2801 59.7228 13.9501C59.7408 13.4311 59.0498 13.1451 58.6948 13.5241Z" fill="#D2B646"/>
<path d="M34.8378 28.6012C31.7248 31.7892 28.7948 35.1432 25.8638 38.4972C25.0448 39.4372 24.2318 40.3842 23.4328 41.3422C23.3048 41.4692 23.2318 41.6462 23.2318 41.8262C23.2288 42.5412 24.2048 42.7462 24.5498 42.1402C27.3528 38.8672 30.0898 35.5362 32.9888 32.3462C33.8738 31.3672 34.8088 30.4352 35.6968 29.4602C35.8098 29.3472 35.8758 29.1902 35.8748 29.0302C35.8918 28.5092 35.1968 28.2182 34.8378 28.6012Z" fill="#D2B646"/>
<path d="M29.8538 29.5382C29.2888 30.0622 28.7538 30.6182 28.2298 31.1832C28.1018 31.3112 28.0268 31.4902 28.0278 31.6712C28.0318 32.4192 29.0118 32.5752 29.3818 31.9822C29.8808 31.3942 30.5568 30.9292 30.9948 30.3072C31.3248 29.6332 30.3618 28.9922 29.8538 29.5382Z" fill="#D2B646"/>
<path d="M27.0768 26.3972C26.4438 26.9992 27.3548 27.9522 27.9808 27.3452C28.6138 26.7432 27.7028 25.7902 27.0768 26.3972Z" fill="#D2B646"/>
<path d="M35.3518 39.478C36.1418 38.67 34.7818 37.5741 34.1718 38.5391C31.1708 42.7131 25.9928 48.5731 22.4528 53.8371C22.3768 54.1991 22.6438 54.5601 22.9888 54.6581C23.1868 54.7171 23.3858 54.674 23.5658 54.583C23.6258 54.552 23.6868 54.495 23.7338 54.445C23.7308 54.449 23.7298 54.4511 23.7258 54.4551C23.7288 54.4511 23.7328 54.4461 23.7358 54.4421C23.7818 54.3921 23.8118 54.3521 23.8118 54.3481C27.7268 49.4431 31.6198 44.522 35.3518 39.478Z" fill="#D2B646"/>
<path d="M30.8638 49.4381C29.5958 50.6991 28.5008 52.1101 27.4418 53.5481C27.0898 54.1061 27.6688 54.858 28.2988 54.663C28.8928 54.405 29.1358 53.6881 29.5718 53.2331C30.0578 52.6131 30.9368 51.4651 31.6738 50.4681C32.3778 49.8781 31.5768 48.8101 30.8638 49.4381Z" fill="#D2B646"/>
<path d="M77.8097 51.309C73.8467 56.952 68.8907 62.981 64.8507 68.106C64.1697 68.764 65.2238 69.83 65.8908 69.146C68.6048 65.656 71.8158 61.342 75.0798 57.083C76.3638 55.301 77.8427 53.584 78.9317 51.696C79.0527 51.066 78.1157 50.74 77.8097 51.309Z" fill="#D2B646"/>
<path d="M77.8478 55.5422C75.1698 58.6582 72.5518 61.8292 70.0898 65.1192C69.8498 65.3742 69.7058 65.7862 69.9668 66.0782C70.6238 66.7002 71.0108 66.0762 71.3208 65.6582C73.4018 62.9862 75.1068 60.7042 77.3778 58.0322C77.8208 57.3632 78.7018 56.7312 78.9038 55.9792C78.9208 55.4482 78.2138 55.1522 77.8478 55.5422Z" fill="#D2B646"/>
<path d="M86.9288 39.8291C86.5958 38.9701 85.7338 39.3531 85.4358 40.0291C84.6528 41.1731 83.8548 42.3071 83.0518 43.4371C82.1708 44.7021 81.2528 45.9421 80.4018 47.2281C80.2608 47.4191 80.1458 47.6501 80.2218 47.8911C80.3478 48.4091 81.1068 48.5101 81.3618 48.0401C83.0218 45.6311 84.7758 43.2871 86.4708 40.9021C86.6808 40.5751 87.0558 40.2551 86.9288 39.8291Z" fill="#D2B646"/>
<path d="M179.336 16.5011C174.79 23.2641 169.966 29.9101 165.805 36.8991C165.675 37.5761 166.682 37.9261 167.01 37.3161C169.989 32.6461 173.044 28.0261 176.211 23.4811C177.638 21.2931 179.306 19.1971 180.561 16.9241C180.693 16.2361 179.67 15.8801 179.336 16.5011Z" fill="#D2B646"/>
<path d="M179.553 21.9091C173.648 29.8871 168.045 38.0901 162.297 46.1831C161.707 46.7581 162.04 47.7961 162.939 47.6031C163.194 47.5311 163.352 47.3351 163.488 47.1201C164.844 45.1851 166.164 43.2241 167.496 41.2721C170.821 36.3951 174.201 31.5551 177.561 26.7011C178.5 25.2381 179.713 23.9001 180.575 22.4171C180.681 21.8711 179.934 21.4971 179.553 21.9091Z" fill="#D2B646"/>
<path d="M177.978 29.8992C177.717 29.4222 176.969 29.4192 176.708 29.8992C173.728 34.0292 170.781 38.1902 167.967 42.4352C167.488 43.4192 168.896 43.9882 169.342 43.0042C172.214 39.0322 174.814 34.8662 177.748 30.9382C178.01 30.6592 178.205 30.2622 177.978 29.8992Z" fill="#D2B646"/>
<path d="M176.478 35.338C175.972 36.013 175.486 36.704 174.99 37.386C174.754 37.768 174.977 38.298 175.407 38.412C175.948 38.573 176.243 38.047 176.475 37.655C176.829 37.003 177.389 36.427 177.649 35.743C177.779 35.08 176.795 34.747 176.478 35.338Z" fill="#D2B646"/>
<path d="M160.001 49.6062C156.678 53.7372 150.542 62.2482 146.128 68.1262C145.329 68.8762 145.816 70.0552 146.893 69.6192C150.875 64.5152 154.765 59.2812 158.586 54.0382C159.502 52.6492 160.753 51.2322 161.181 50.1912C161.305 49.5592 160.439 49.1322 160.001 49.6062Z" fill="#D2B646"/>
<path d="M161.21 54.0721C161.073 53.5111 160.25 53.4001 159.973 53.9101C157.351 57.8471 154.247 61.4411 151.521 65.3041C151.113 66.0031 150.863 66.0301 150.943 66.6471C151.087 67.2381 151.945 67.3571 152.248 66.8321C152.226 66.8611 152.18 66.9221 152.158 66.9511C152.19 66.9161 152.225 66.8831 152.255 66.8461C154.723 63.6961 157.823 59.3821 160.512 55.5921C160.757 55.1081 161.321 54.6551 161.21 54.0721Z" fill="#D2B646"/>
<path d="M161.392 59.8362C161.252 59.2882 160.51 59.0892 160.119 59.5002C159.938 59.6772 159.159 60.7292 159.43 60.3712C159.218 60.5812 159.132 60.9372 159.271 61.2092C159.396 61.5672 159.819 61.7482 160.176 61.6532C160.563 61.5482 160.73 61.1372 160.985 60.8632C161.217 60.5682 161.522 60.2402 161.392 59.8362Z" fill="#D2B646"/>
<path d="M159.716 44.5661C156.22 49.0261 153.129 53.7921 149.657 58.2741C147.631 61.1331 144.176 64.9621 142.01 68.4891C142 68.5391 142.011 68.5821 142.011 68.6291C140.809 68.1231 139.642 67.5891 138.532 67.0411C136.967 66.2491 135.418 65.4211 133.924 64.5011C133.459 64.2941 132.762 63.6011 132.327 63.6191C132.055 63.6871 131.996 64.0891 132.248 64.2261C135.019 66.1031 137.819 67.9791 140.855 69.4061C146.284 71.8101 151.786 72.8531 157.574 72.9091C157.877 72.9731 158.121 72.5861 157.883 72.3581C157.483 72.1431 156.948 72.2851 156.501 72.2121C152.196 72.0741 147.631 70.8491 143.435 69.2071C143.487 69.1551 143.54 69.1031 143.579 69.0311C147.863 63.2061 153.63 55.4061 158.126 48.7151C159.021 47.3911 159.941 46.2041 160.673 45.2101C160.945 44.6501 160.144 44.1051 159.716 44.5661Z" fill="#D2B646"/>
<path d="M157.025 63.9151C155.332 65.8671 153.677 67.8531 152.087 69.8891C151.966 70.0621 152.101 69.8771 152.142 69.8271C151.939 70.0281 151.855 70.3661 151.989 70.6251C152.153 71.0961 152.831 71.2181 153.168 70.8591C153.369 70.6431 153.537 70.4011 153.719 70.1691C154.016 69.7831 155.634 67.7561 156.385 66.8191C156.476 66.6951 157.423 65.5051 157.841 64.9741C157.985 64.7981 158.151 64.6181 158.14 64.3751C158.158 63.8161 157.41 63.5041 157.025 63.9151Z" fill="#D2B646"/>
<path d="M160.546 7.07615C154.285 14.2372 147.917 21.8412 142.534 29.2112C141.629 30.2242 143.071 30.7592 143.36 30.0782C147.027 25.3882 150.769 20.3322 154.983 15.4462C157.13 12.9532 159.259 10.4412 161.522 8.05216C162.158 7.43716 161.174 6.43215 160.546 7.07615Z" fill="#D2B646"/>
<path d="M139.317 32.8461C134.949 38.2611 129.168 44.2971 124.911 50.3641C124.77 51.2441 126.05 51.5541 126.401 50.7521C129.6 46.4691 133.671 41.6011 137.472 37.0541C138.407 35.8611 139.512 34.7841 140.452 33.6121C140.78 32.9431 139.825 32.3001 139.317 32.8461Z" fill="#D2B646"/>
<path d="M152.637 11.8232C150.491 14.5982 147.726 18.1262 145.106 21.6442C144.869 22.0882 144.161 22.5782 143.967 23.2842C143.951 23.7832 144.616 24.0622 144.96 23.6952C147.144 20.9672 148.879 18.4662 150.928 15.9732C151.86 14.8182 152.809 13.6772 153.755 12.5332C153.879 12.4102 153.95 12.2382 153.949 12.0642C153.945 11.3272 152.94 11.1812 152.637 11.8232Z" fill="#D2B646"/>
<path d="M153.252 7.19612C152.086 8.72012 148.11 13.5491 145.776 16.6041C145.072 17.2961 146.11 18.2761 146.694 17.4561C148.79 14.6941 151.744 11.0991 154.463 8.18412C154.661 7.99812 154.839 7.76212 154.83 7.47812C154.811 6.57712 153.63 6.42712 153.252 7.19612Z" fill="#D2B646"/>
<path d="M162.571 9.25112C158.775 13.5161 154.168 18.5451 151.164 22.7101C150.928 23.1821 151.434 23.7411 151.931 23.5881C152.306 23.4701 152.466 23.0521 152.725 22.7841C154.53 20.4781 156.882 17.4381 159.17 14.8331C160.579 13.1541 162.131 11.5751 163.509 9.88313C163.778 9.33213 162.991 8.79912 162.571 9.25112Z" fill="#D2B646"/>
<path d="M162.365 13.5241C162.028 13.9061 161.381 14.4181 161.879 14.9321C162.205 15.2611 162.703 15.0931 162.919 14.7271C163.099 14.4841 163.399 14.2801 163.393 13.9501C163.411 13.4311 162.72 13.1451 162.365 13.5241Z" fill="#D2B646"/>
<path d="M138.508 28.6012C135.395 31.7892 132.465 35.1432 129.534 38.4972C128.714 39.4372 127.902 40.3842 127.103 41.3422C126.975 41.4692 126.902 41.6462 126.902 41.8262C126.899 42.5412 127.875 42.7462 128.22 42.1402C131.023 38.8672 133.76 35.5362 136.659 32.3462C137.544 31.3672 138.479 30.4352 139.367 29.4602C139.48 29.3472 139.546 29.1902 139.545 29.0302C139.562 28.5092 138.867 28.2182 138.508 28.6012Z" fill="#D2B646"/>
<path d="M133.524 29.5382C132.959 30.0622 132.425 30.6182 131.9 31.1832C131.772 31.3112 131.697 31.4902 131.698 31.6712C131.702 32.4192 132.682 32.5752 133.051 31.9822C133.55 31.3942 134.226 30.9292 134.664 30.3072C134.995 29.6332 134.032 28.9922 133.524 29.5382Z" fill="#D2B646"/>
<path d="M130.747 26.3972C130.114 26.9992 131.025 27.9522 131.651 27.3452C132.284 26.7432 131.373 25.7902 130.747 26.3972Z" fill="#D2B646"/>
<path d="M139.022 39.478C139.812 38.67 138.452 37.5741 137.842 38.5391C134.841 42.7131 129.663 48.5731 126.123 53.8371C126.047 54.1991 126.314 54.5601 126.659 54.6581C126.857 54.7171 127.056 54.674 127.236 54.583C127.296 54.552 127.357 54.495 127.404 54.445C127.401 54.449 127.4 54.4511 127.396 54.4551C127.4 54.4511 127.403 54.4461 127.406 54.4421C127.452 54.3921 127.482 54.3521 127.482 54.3481C131.397 49.4431 135.29 44.522 139.022 39.478Z" fill="#D2B646"/>
<path d="M134.534 49.4381C133.266 50.6991 132.171 52.1101 131.112 53.5481C130.76 54.1061 131.339 54.858 131.969 54.663C132.563 54.405 132.806 53.6881 133.242 53.2331C133.728 52.6131 134.608 51.4651 135.344 50.4681C136.048 49.8781 135.247 48.8101 134.534 49.4381Z" fill="#D2B646"/>
<path d="M181.48 51.309C177.517 56.952 172.562 62.981 168.521 68.106C167.84 68.764 168.894 69.83 169.561 69.146C172.275 65.656 175.486 61.342 178.75 57.083C180.034 55.301 181.513 53.584 182.602 51.696C182.723 51.066 181.786 50.74 181.48 51.309Z" fill="#D2B646"/>
<path d="M181.518 55.5422C178.84 58.6582 176.222 61.8292 173.76 65.1192C173.52 65.3742 173.376 65.7862 173.637 66.0782C174.294 66.7002 174.681 66.0762 174.991 65.6582C177.072 62.9862 178.777 60.7042 181.048 58.0322C181.491 57.3632 182.372 56.7312 182.573 55.9792C182.591 55.4482 181.884 55.1522 181.518 55.5422Z" fill="#D2B646"/>
<path d="M190.599 39.8291C190.266 38.9701 189.404 39.3531 189.106 40.0291C188.323 41.1731 187.525 42.3071 186.722 43.4371C185.841 44.7021 184.923 45.9421 184.072 47.2281C183.931 47.4191 183.816 47.6501 183.891 47.8911C184.017 48.4091 184.776 48.5101 185.031 48.0401C186.691 45.6311 188.445 43.2871 190.14 40.9021C190.351 40.5751 190.726 40.2551 190.599 39.8291Z" fill="#D2B646"/>
<path d="M5.4568 74.41C4.9068 74.401 4.9078 75.267 5.4568 75.259C6.0068 75.268 6.0058 74.403 5.4568 74.41Z" fill="#D2B646"/>
<path d="M18.9188 60.5341C15.1768 63.9261 11.8348 67.7461 8.53977 71.5651C8.10577 72.1161 7.40077 72.9571 6.97277 73.5741C6.76177 73.9251 7.31778 74.2601 7.52578 73.8971C8.79178 72.1621 10.7538 70.1321 12.4118 68.3721C14.8208 65.8881 17.4878 63.6181 19.8868 61.1491C20.1388 60.2481 19.0968 60.2291 18.9188 60.5341Z" fill="#D2B646"/>
<path d="M20.3558 62.2001C18.3828 63.8001 16.5088 65.9492 14.4088 67.9602C14.2298 68.1552 13.9798 68.4081 14.1498 68.6861C14.2938 68.9501 14.7088 68.9521 14.8538 68.6861C16.6328 66.4291 19.4148 64.7971 21.3248 62.8081C21.5788 61.8931 20.5158 61.9061 20.3558 62.2001Z" fill="#D2B646"/>
<path d="M16.6808 22.939C15.0038 22.961 13.3348 23.165 11.6578 23.197C11.1158 23.28 10.4778 23.095 9.9868 23.324C9.7808 23.517 9.9358 23.895 10.2198 23.886C12.2008 23.907 14.1788 24.022 16.1588 24.077C16.4688 24.053 16.8398 24.148 17.0798 23.903C17.4338 23.571 17.1668 22.923 16.6808 22.939Z" fill="#D2B646"/>
<path d="M16.2057 24.9341C15.9427 24.7071 15.5507 24.7961 15.2277 24.7571C14.6247 24.7601 14.0238 24.8011 13.4228 24.8281C13.0128 24.8781 12.5208 24.7291 12.1578 24.9301C11.9668 25.1091 12.1108 25.4581 12.3728 25.4491C13.3148 25.4471 14.2037 25.5951 14.7267 25.6511C15.2137 25.6781 15.3977 25.8061 16.0527 25.7041C16.3617 25.5991 16.4397 25.1541 16.2057 24.9341Z" fill="#D2B646"/>
<path d="M45.5798 5.28694C42.4968 6.07394 39.4328 7.05194 36.5498 8.40494C32.6148 10.4389 28.9938 13.1099 25.9638 16.3469C24.8128 17.6069 23.6988 18.9579 22.8118 20.4049C22.7498 20.7419 23.2478 20.9199 23.4148 20.6129C28.2258 13.5019 35.7438 8.57594 44.1508 6.50594C44.6988 6.35694 45.2488 6.21994 45.8028 6.09594C45.9088 6.06694 45.9978 5.99694 46.0538 5.90294C46.2438 5.59694 45.9298 5.17794 45.5798 5.28694Z" fill="#D2B646"/>
<path d="M42.2587 4.70201C36.7587 6.42301 31.2698 9.17201 27.2238 13.269C27.3718 13.973 27.9788 13.327 28.2708 13.085C31.2788 10.556 34.6517 8.21701 38.5217 6.67401C39.4467 6.27701 41.1768 5.63601 42.4158 5.27001C42.7798 5.17701 42.6287 4.59401 42.2587 4.70201Z" fill="#D2B646"/>
<path d="M38.4578 4.60193C38.0968 4.79093 36.7398 5.05093 37.2028 5.63293C37.3788 5.81793 37.6148 5.68393 37.8028 5.59393C38.1108 5.45793 38.2088 5.40093 38.6398 5.25993C39.0668 5.14893 38.8818 4.47893 38.4578 4.60193Z" fill="#D2B646"/>
<path d="M81.3729 58.2239C76.4919 65.0779 68.4829 70.0509 60.0079 71.8569C59.2079 72.0309 58.4039 72.1909 57.5959 72.3249C57.4639 72.3609 57.3529 72.4479 57.2839 72.5649C57.0399 72.9619 57.4589 73.4829 57.9039 73.3279C65.8529 71.9509 73.3889 68.0599 78.9629 62.2059C80.0959 60.9499 81.0939 59.8509 81.9359 58.4179C81.9929 58.1039 81.5289 57.9369 81.3729 58.2239Z" fill="#D2B646"/>
<path d="M81.1158 60.9891C76.7118 66.3291 70.4448 70.0951 64.5378 72.2891C64.2018 72.4601 64.2618 72.3141 64.0258 72.5891C63.8348 72.8951 64.1498 73.3141 64.4998 73.2051C70.1558 71.0691 76.3838 67.3931 80.6388 62.4941C80.9488 62.0601 81.4268 61.6851 81.6248 61.1991C81.6298 60.9451 81.2928 60.8011 81.1158 60.9891Z" fill="#D2B646"/>
<path d="M113.241 22.954C105.34 21.004 97.1108 21.247 90.0718 25.307C89.3348 25.787 90.1118 26.734 90.7828 26.168C96.1158 23.267 101.296 22.435 107.226 22.62C108.886 22.729 110.181 22.902 111.852 23.286C112.338 23.34 112.844 23.673 113.32 23.563C113.568 23.427 113.521 23.021 113.241 22.954Z" fill="#D2B646"/>
<path d="M107.173 23.398C102.849 23.16 98.3618 23.61 94.3098 25.201C92.8468 25.812 91.7568 26.076 90.4848 27.098C90.2398 27.378 90.4798 27.851 90.8478 27.84C91.2128 27.792 91.4708 27.446 91.8028 27.298C95.4318 25.176 99.6698 24.147 103.936 23.991C105.014 23.953 106.1 23.899 107.173 24.037C107.582 24.045 107.591 23.392 107.173 23.398Z" fill="#D2B646"/>
<path d="M100.891 24.9281C97.6018 25.4171 94.4188 26.5521 91.5538 28.2381C91.1578 28.5131 90.9778 28.5251 90.8418 28.8391C90.7278 29.2151 91.2078 29.5251 91.5068 29.2701C93.9878 27.6501 96.3638 26.5401 99.1578 25.8451C99.7978 25.6261 100.624 25.6461 101.184 25.3091C101.301 25.1191 101.106 24.8621 100.891 24.9281Z" fill="#D2B646"/>
<path d="M98.1337 27.2551C95.4257 27.8201 93.1187 28.3111 90.9347 29.8471C90.7057 29.9881 90.3888 30.1611 90.4558 30.4791C90.5168 30.9561 91.0898 30.9641 91.3738 30.6661C92.8338 29.6391 94.0718 29.0321 95.6398 28.5611C96.5458 28.2611 97.5007 28.0701 98.4047 27.7981C98.6757 27.6111 98.4487 27.1561 98.1337 27.2551Z" fill="#D2B646"/>
<path d="M119.489 25.5921C119.263 25.2491 118.311 24.8371 117.637 24.5581C117.535 24.5281 116.254 23.9401 115.409 23.6351C114.95 23.5011 114.748 24.2271 115.212 24.3491C116.406 24.6411 118.103 25.7111 118.895 26.1851C119.264 26.4161 119.717 25.9601 119.489 25.5921Z" fill="#D2B646"/>
<path d="M116.858 28.616C114.672 27.947 112.451 27.362 110.183 27.056C109.759 26.973 102.507 26.11 104.335 27.287C108.169 27.088 111.654 27.753 115.352 28.921C116.217 29.193 117.074 29.493 117.92 29.82C118.167 29.894 118.431 29.691 118.427 29.434C118.369 28.869 117.297 28.843 116.858 28.616Z" fill="#D2B646"/>
<path d="M117.966 27.553C116.933 27.091 115.851 26.755 114.766 26.439C114.021 26.281 113.238 25.908 112.49 25.935C112.276 26.051 112.32 26.399 112.558 26.457C114.304 26.862 115.942 27.386 117.343 28.096C117.831 28.274 118.108 28.709 118.487 28.27C118.696 27.885 118.26 27.676 117.966 27.553Z" fill="#D2B646"/>
<path d="M118.938 26.8471C118.059 26.3031 117.157 25.7921 116.211 25.3731C116.016 25.3121 115.81 25.1311 115.606 25.2451C115.387 25.3641 115.433 25.7201 115.676 25.7791C116.155 25.9521 116.913 26.3941 117.524 26.7921C117.993 26.9781 118.898 28.1591 119.245 27.3671C119.316 27.1301 119.132 26.9471 118.938 26.8471Z" fill="#D2B646"/>
<path d="M151.878 4.01105C151.69 4.06705 151.469 4.06005 151.303 4.16805C151.127 4.28505 151.152 4.57605 151.334 4.67605C151.584 4.75405 151.924 4.68005 152.16 4.57805C152.445 4.38205 152.205 3.90805 151.878 4.01105Z" fill="#D2B646"/>
<path d="M145.847 5.42211C138.59 8.69011 131.269 13.5341 126.664 19.8191C126.288 20.3511 127.024 20.6761 127.329 20.0751C131.1 15.1251 135.761 11.5321 141.112 8.49412C142.591 7.67512 144.54 6.65512 145.844 6.08112C146.326 6.01112 146.397 5.37811 145.847 5.42211Z" fill="#D2B646"/>
<path d="M139.746 6.65413C136.669 8.08013 133.961 10.2801 131.42 12.5151C129.824 13.9951 128.252 15.5891 127.039 17.3891C126.984 17.6811 127.418 17.8341 127.561 17.5691C130.745 13.4851 135.086 9.88213 139.882 7.43213C140.29 7.29013 140.186 6.64613 139.746 6.65413Z" fill="#D2B646"/>
<path d="M153.122 73.5821C152.955 73.4261 152.698 73.4681 152.489 73.4161C147.808 72.8591 142.871 71.6691 138.826 69.7651C137.714 69.2501 136.651 68.6051 135.583 68.0271C135.226 67.9581 135.04 68.4911 135.363 68.6641C140.704 71.6091 147.347 73.7791 153.046 74.1701C153.253 74.0531 153.293 73.7481 153.122 73.5821Z" fill="#D2B646"/>
<path d="M189.768 27.1939C189.515 26.7739 189.428 26.1529 189.023 25.8719C188.77 25.7959 188.535 26.0949 188.677 26.3219C191.818 32.2289 192.093 40.0819 191.203 46.6639C191.231 46.8079 190.961 47.6269 191.081 48.0569C191.264 48.3789 191.781 48.2239 191.762 47.8519C192.642 40.9839 192.552 33.6379 189.768 27.1939Z" fill="#D2B646"/>
<path d="M193.238 35.6571C193.043 33.8721 192.795 32.0901 192.389 30.3401C192.36 30.2021 192.326 30.0511 192.191 29.9801C191.645 29.7691 191.603 30.3551 191.763 30.7321C192.815 34.9561 193.07 39.0951 192.757 43.5431C192.696 44.4441 192.59 44.9081 192.478 45.7581C192.503 46.0881 193.017 46.1251 193.093 45.8001C193.64 42.4571 193.56 39.0201 193.238 35.6571Z" fill="#D2B646"/>
<path d="M199.201 23.082C197.172 23.042 194.413 22.883 192.845 22.654C192.481 22.632 192.655 22.542 192.282 22.675C191.799 22.995 192.149 23.61 192.672 23.564C194.838 23.861 197.027 23.676 199.202 23.804C199.667 23.812 199.669 23.076 199.201 23.082Z" fill="#D2B646"/>
<path d="M198.735 24.7939C196.939 24.8979 195.136 25.0009 193.338 24.8769C193.026 24.8019 192.717 25.0879 192.808 25.4059C192.856 25.5849 193.032 25.7199 193.217 25.7179C195.009 25.8519 196.809 25.7539 198.6 25.6509C199.222 25.7489 199.387 24.8389 198.735 24.7939Z" fill="#D2B646"/>
<path d="M197.391 26.3481C196.274 26.5831 194.698 26.6121 193.286 26.5211C192.596 26.5231 192.787 27.4581 193.442 27.2881C194.82 27.1581 196.216 27.2421 197.586 27.0571C198.046 26.9371 197.849 26.2161 197.391 26.3481Z" fill="#D2B646"/>
<path d="M196.181 76.626C192.668 73.235 188.326 68.625 185.872 65.418C185.81 65.336 185.69 65.203 185.811 65.354C185.766 65.284 185.707 65.225 185.65 65.164C185.624 65.136 185.657 65.179 185.68 65.208C185.592 65.075 185.426 64.988 185.268 65.022C184.691 65.209 184.901 65.642 185.122 65.93C186.705 67.952 188.554 69.749 190.297 71.632C192.048 73.507 193.911 75.271 195.706 77.102C196.005 77.409 196.495 76.932 196.181 76.626Z" fill="#D2B646"/>
<path d="M195.242 73.591C192.186 70.256 189.44 66.819 187.221 63.79C186.817 63.441 186.198 63.986 186.484 64.437C188.503 66.919 190.669 69.278 192.736 71.72C193.426 72.389 194.245 73.739 195.011 74.15C195.291 74.159 195.449 73.785 195.242 73.591Z" fill="#D2B646"/>
<path d="M194.946 69.087C192.894 67.374 190.806 64.844 189.337 63.087C188.699 62.42 188.753 62.104 188.125 61.655C187.762 61.543 187.425 61.977 187.629 62.3C189.501 64.647 191.613 66.81 193.784 68.882C194.114 69.103 194.402 69.579 194.818 69.575C195.026 69.521 195.105 69.238 194.946 69.087Z" fill="#D2B646"/>
<path d="M194.358 65.1931C192.815 63.7401 191.374 62.1812 190.029 60.5442C189.849 60.3672 189.956 60.2822 189.564 60.2112C189.197 60.1992 188.993 60.6882 189.262 60.9412C190.806 62.5132 192.352 64.0842 193.925 65.6272C194.2 65.9112 194.643 65.4711 194.358 65.1931Z" fill="#D2B646"/>
</svg>
