<svg width="161" height="161" viewBox="0 0 161 161" fill="none" xmlns="http://www.w3.org/2000/svg">
<path d="M79.6505 59H32.3389C31.8786 59 31.8919 60 32.35 60H79.6623C80.1204 60 80.1086 59 79.6505 59Z" fill="#D2B646"/>
<path d="M65.1301 60.1624C65.3361 60.1694 65.5411 60.1814 65.7471 60.1914C66.8891 60.0364 68.0391 59.9084 69.2001 59.8134C67.2461 59.5244 65.2991 59.0854 63.3821 58.6254C61.2511 58.1144 59.3871 56.9404 57.8151 55.4474C56.8681 54.5484 56.0911 53.4714 55.6301 52.2474C55.0241 50.7324 55.8101 49.3424 57.7811 49.7854C58.2561 50.0704 58.6851 50.4124 59.0661 50.8124C60.1581 51.8494 60.9441 53.3664 62.1801 54.2394C63.6021 55.2434 65.1621 56.1514 66.6571 57.0494C68.2121 57.9834 69.7021 58.9084 71.3241 59.6744C74.1631 59.5204 77.0151 59.5004 79.8101 59.5404C79.8041 59.3704 79.7251 59.2134 79.5571 59.1694C79.4941 59.0204 79.3591 58.9104 79.1451 58.9284C76.1571 59.1854 73.7801 56.5564 72.7101 53.8044C74.6191 55.0244 77.0291 53.3164 77.6921 51.1964C78.4211 48.8714 76.4511 46.8244 74.2211 46.9894C74.4981 46.7434 74.7561 46.4724 74.9791 46.1474C75.6021 45.2364 76.0701 43.4664 75.8201 42.3714C75.1391 39.3894 72.1691 38.5244 69.8821 39.1664C65.1151 41.3564 63.2111 48.5914 65.2911 53.1844C65.8761 54.4794 66.6231 55.5784 67.4861 56.5064C65.4351 55.2974 63.1851 54.0754 61.6481 52.3464C60.6451 51.2154 56.0711 45.9004 54.7771 49.7974C53.4601 53.7634 57.9861 57.3404 61.0991 58.8014C62.3901 59.4084 63.7431 59.8454 65.1301 60.1624ZM75.3821 48.0464C78.9841 48.7644 75.4721 55.5234 72.7601 52.6544C72.6211 52.5074 72.1651 51.8484 72.1301 51.5144C71.9031 49.3524 72.9221 47.5564 75.3821 48.0464ZM69.9481 40.2644C70.0161 40.2764 74.1541 38.9254 74.9401 42.9104C75.3501 44.9864 73.5691 46.9854 71.4881 47.2214C67.5151 47.6734 66.6301 41.7314 69.9481 40.2644ZM66.6491 53.8564C64.7991 50.8344 65.0631 46.2444 67.0371 43.0354C66.7791 45.7764 68.6721 48.7824 71.9941 48.0874C72.0021 48.0864 72.0091 48.0824 72.0171 48.0814C70.8751 49.5004 71.1281 51.9634 71.6131 53.6994C72.2361 55.9294 74.2061 58.3384 76.5211 59.3614C72.4871 59.3014 68.9771 57.6584 66.6491 53.8564Z" fill="#D2B646"/>
<path d="M60.9751 38.0723C59.0221 38.6423 58.8981 41.0294 58.8491 42.6834C58.7701 45.2834 59.8331 47.8834 61.3941 49.9094C61.3971 49.9164 61.4041 49.9184 61.4091 49.9234C61.4531 50.0234 61.4911 50.1233 61.5491 50.2193C61.8531 50.7333 62.6451 50.2553 62.3401 49.7403C61.6681 48.6063 62.3011 45.5314 62.5381 44.4244C62.7851 43.2674 63.1371 42.1644 63.2761 40.9834C63.4251 39.7134 62.6391 37.5863 60.9751 38.0723ZM62.1541 42.1984C61.8671 43.6374 61.4461 44.9644 61.3471 46.4364C61.3151 46.9064 61.2411 47.3973 61.1961 47.8873C60.6351 46.8613 60.2231 45.7763 59.9591 44.5943C59.7171 43.5173 59.7541 42.4144 59.8621 41.3284C59.7741 39.9664 60.7871 38.8084 62.2721 39.8464C62.4131 40.6384 62.3751 41.4214 62.1541 42.1984Z" fill="#D2B646"/>
<path d="M56.1541 57.2333C53.7771 55.0703 52.2271 52.2453 49.8521 50.1103C48.9781 49.3233 46.7161 47.2873 45.5771 48.8803C44.3681 50.5713 46.7101 53.0553 47.7561 54.1383C49.9291 56.3853 52.5931 56.8743 55.3921 57.9363C55.4641 57.9643 55.5311 57.9733 55.5941 57.9683C55.6011 57.9743 55.6091 57.9813 55.6151 57.9883C56.0561 58.3873 56.5901 57.6303 56.1541 57.2333ZM50.2841 54.9973C49.2811 54.3863 48.4301 53.5503 47.6641 52.6713C47.4721 52.4393 47.2861 52.2003 47.1081 51.9563C46.9421 51.6973 46.7781 51.4383 46.6141 51.1793C46.1381 50.5253 46.3721 49.9293 47.3121 49.3913C49.2571 50.0383 50.8561 52.4743 52.0171 54.0573C52.6751 54.9523 53.3761 55.7583 54.1211 56.5333C52.8051 56.1203 51.4981 55.7353 50.2841 54.9973Z" fill="#D2B646"/>
<path d="M72.7781 41.2803C72.0421 39.9853 70.7811 39.6043 69.4071 40.1133C68.4751 40.4583 67.0451 41.3603 67.0681 42.4843C67.0791 43.1073 68.0451 43.0913 68.0341 42.4693C68.0231 41.9173 68.9051 41.4843 69.3051 41.2333C70.0111 40.7923 70.8871 40.6453 71.5541 41.2223C72.2131 41.7903 72.3391 42.9243 72.0201 43.6893C71.7861 44.2483 70.8191 44.4423 70.5601 43.8573C70.3071 43.2893 69.4831 43.7943 69.7341 44.3573C70.2191 45.4503 71.4751 45.3313 72.3251 44.7403C73.3661 44.0173 73.3521 42.2943 72.7781 41.2803Z" fill="#D2B646"/>
<path d="M55.2361 42.6903C55.0211 41.9913 54.5001 41.4003 53.7591 41.2393C50.9421 40.6223 50.4171 45.0303 53.1311 45.3703C53.2571 45.3863 53.3531 45.3493 53.4291 45.2943C54.1291 45.3993 54.8611 45.2213 55.2181 44.6243C55.5451 44.0683 55.4171 43.2813 55.2361 42.6903ZM54.4451 44.0263C54.2041 44.6073 53.0111 44.3643 52.7531 43.9253C52.6541 43.7573 52.5041 43.6963 52.3531 43.6973C52.1231 43.0063 52.4401 42.0693 53.3151 42.1383C53.8471 42.1813 54.2231 42.5523 54.3321 43.0553C54.3821 43.2983 54.5451 43.7843 54.4451 44.0263Z" fill="#D2B646"/>
<path d="M79.3779 59H130.633C131.131 59 131.118 60 130.62 60H79.366C78.8697 60 78.8825 59 79.3779 59Z" fill="#D2B646"/>
<path d="M133.616 63H80.1463H79.8534H26.3847C25.8629 63 25.8767 64 26.397 64H79.8404H80.1593H133.602C134.123 64 134.138 63 133.616 63Z" fill="#D2B646"/>
<path d="M97.4301 58.8014C100.54 57.3404 105.067 53.7634 103.75 49.7974C102.456 45.9004 97.8821 51.2154 96.8791 52.3464C95.3421 54.0764 93.0921 55.2974 91.0411 56.5064C91.9041 55.5774 92.6511 54.4794 93.2371 53.1844C95.3171 48.5914 93.4121 41.3564 88.6451 39.1664C86.3591 38.5244 83.3891 39.3894 82.7071 42.3714C82.4571 43.4674 82.9271 45.2364 83.5491 46.1474C83.7721 46.4724 84.0301 46.7434 84.3071 46.9894C82.0761 46.8244 80.1081 48.8714 80.8361 51.1964C81.4991 53.3164 83.9091 55.0244 85.8191 53.8044C84.7491 56.5564 82.3721 59.1854 79.3841 58.9284C79.1701 58.9104 79.0341 59.0204 78.9711 59.1694C78.8031 59.2134 78.7251 59.3704 78.7181 59.5404C81.5121 59.5004 84.3651 59.5194 87.2041 59.6744C88.8261 58.9084 90.3151 57.9834 91.8711 57.0494C93.3651 56.1514 94.9251 55.2424 96.3481 54.2394C97.5841 53.3664 98.3681 51.8494 99.4611 50.8124C99.8411 50.4124 100.27 50.0704 100.746 49.7854C102.717 49.3424 103.503 50.7324 102.897 52.2474C102.437 53.4724 101.659 54.5484 100.712 55.4474C99.1401 56.9394 97.2761 58.1144 95.1461 58.6254C93.2301 59.0844 91.2821 59.5244 89.3271 59.8134C90.4871 59.9084 91.6391 60.0364 92.7801 60.1914C92.9861 60.1804 93.1911 60.1694 93.3981 60.1624C94.7841 59.8454 96.1371 59.4084 97.4301 58.8014ZM86.3971 51.5154C86.3621 51.8494 85.9061 52.5084 85.7671 52.6554C83.0541 55.5234 79.5431 48.7644 83.1451 48.0474C85.6051 47.5564 86.6231 49.3524 86.3971 51.5154ZM87.0391 47.2214C84.9581 46.9854 83.1761 44.9864 83.5861 42.9104C84.3721 38.9264 88.5111 40.2764 88.5781 40.2644C91.8981 41.7314 91.0121 47.6734 87.0391 47.2214ZM82.0071 59.3614C84.3211 58.3384 86.2921 55.9284 86.9151 53.6994C87.4001 51.9634 87.6521 49.5004 86.5111 48.0814C86.5191 48.0824 86.5261 48.0864 86.5341 48.0874C89.8561 48.7824 91.7481 45.7764 91.4911 43.0354C93.4661 46.2444 93.7301 50.8354 91.8801 53.8564C89.5501 57.6584 86.0391 59.3014 82.0071 59.3614Z" fill="#D2B646"/>
<path d="M95.2521 40.9814C95.3901 42.1634 95.7431 43.2653 95.9901 44.4223C96.2261 45.5293 96.8601 48.6053 96.1881 49.7383C95.8831 50.2543 96.6741 50.7313 96.9781 50.2173C97.0361 50.1213 97.0741 50.0213 97.1181 49.9213C97.1231 49.9163 97.1291 49.9143 97.1321 49.9073C98.6931 47.8823 99.7571 45.2813 99.6781 42.6813C99.6291 41.0273 99.5041 38.6403 97.5521 38.0703C95.8881 37.5863 95.1031 39.7134 95.2521 40.9814ZM96.2561 39.8463C97.7401 38.8093 98.7541 39.9663 98.6681 41.3283C98.7751 42.4143 98.8121 43.5163 98.5701 44.5943C98.3061 45.7763 97.8951 46.8613 97.3321 47.8873C97.2871 47.3973 97.2141 46.9063 97.1811 46.4363C97.0831 44.9633 96.6611 43.6373 96.3741 42.1983C96.1521 41.4213 96.1141 40.6383 96.2561 39.8463Z" fill="#D2B646"/>
<path d="M102.912 57.9883C102.918 57.9803 102.926 57.9733 102.933 57.9683C102.996 57.9733 103.064 57.9643 103.135 57.9363C105.932 56.8753 108.597 56.3853 110.77 54.1383C111.818 53.0553 114.159 50.5723 112.95 48.8803C111.81 47.2873 109.548 49.3233 108.675 50.1103C106.302 52.2453 104.75 55.0703 102.373 57.2333C101.937 57.6303 102.47 58.3873 102.912 57.9883ZM104.404 56.5323C105.15 55.7583 105.851 54.9523 106.51 54.0563C107.67 52.4733 109.268 50.0373 111.214 49.3903C112.155 49.9283 112.387 50.5243 111.912 51.1783C111.748 51.4383 111.583 51.6963 111.419 51.9553C111.24 52.1993 111.055 52.4373 110.862 52.6703C110.097 53.5493 109.245 54.3853 108.242 54.9963C107.029 55.7353 105.722 56.1203 104.404 56.5323Z" fill="#D2B646"/>
<path d="M85.7491 41.2803C86.4851 39.9853 87.7471 39.6043 89.1211 40.1133C90.0521 40.4583 91.4831 41.3603 91.4601 42.4843C91.4481 43.1073 90.4821 43.0913 90.4941 42.4693C90.5051 41.9173 89.6241 41.4843 89.2221 41.2333C88.5161 40.7923 87.6411 40.6453 86.9731 41.2223C86.3151 41.7903 86.1871 42.9243 86.5071 43.6893C86.7401 44.2483 87.7071 44.4423 87.9671 43.8573C88.2201 43.2893 89.0451 43.7943 88.7931 44.3573C88.3081 45.4503 87.0531 45.3313 86.2021 44.7403C85.1601 44.0173 85.1751 42.2943 85.7491 41.2803Z" fill="#D2B646"/>
<path d="M103.31 44.6243C103.667 45.2213 104.399 45.3993 105.098 45.2943C105.174 45.3503 105.27 45.3863 105.396 45.3703C108.109 45.0303 107.585 40.6223 104.768 41.2393C104.026 41.4003 103.506 41.9913 103.29 42.6903C103.111 43.2813 102.982 44.0683 103.31 44.6243ZM104.194 43.0553C104.304 42.5523 104.679 42.1813 105.212 42.1383C106.087 42.0693 106.404 43.0053 106.173 43.6973C106.022 43.6963 105.872 43.7583 105.774 43.9253C105.515 44.3643 104.323 44.6073 104.082 44.0263C103.982 43.7843 104.144 43.2983 104.194 43.0553Z" fill="#D2B646"/>
<path d="M114.989 56.1564C115.345 56.7554 116.077 56.9323 116.777 56.8273C116.852 56.8833 116.948 56.9184 117.075 56.9024C119.789 56.5634 119.264 52.1553 116.447 52.7713C115.706 52.9323 115.185 53.5243 114.97 54.2233C114.79 54.8143 114.661 55.6004 114.989 56.1564ZM115.875 54.5874C115.984 54.0843 116.36 53.7134 116.892 53.6704C117.768 53.6024 118.084 54.5374 117.854 55.2304C117.704 55.2304 117.553 55.2903 117.454 55.4573C117.195 55.8963 116.003 56.1394 115.762 55.5584C115.661 55.3174 115.823 54.8324 115.875 54.5874Z" fill="#D2B646"/>
<path d="M79.3779 104H130.633C131.131 104 131.118 103 130.62 103H79.366C78.8697 103 78.8825 104 79.3779 104Z" fill="#D2B646"/>
<path d="M93.3981 102.747C93.1911 102.74 92.9861 102.727 92.7801 102.718C91.6381 102.872 90.4871 103.001 89.3271 103.096C91.2811 103.384 93.2281 103.824 95.1451 104.284C97.2761 104.794 99.1401 105.969 100.712 107.462C101.659 108.359 102.437 109.438 102.897 110.662C103.503 112.176 102.716 113.566 100.746 113.123C100.27 112.839 99.8411 112.495 99.4611 112.097C98.3681 111.059 97.5841 109.542 96.3471 108.669C94.9251 107.666 93.3651 106.757 91.8711 105.859C90.3151 104.924 88.8261 104 87.2041 103.233C84.3651 103.388 81.5121 103.407 78.7181 103.368C78.7251 103.537 78.8031 103.693 78.9711 103.739C79.0341 103.887 79.1691 103.998 79.3841 103.979C82.3721 103.723 84.7491 106.351 85.8191 109.104C83.9091 107.884 81.4991 109.591 80.8361 111.712C80.1081 114.036 82.0761 116.084 84.3071 115.918C84.0301 116.163 83.7711 116.435 83.5491 116.761C82.9271 117.672 82.4581 119.442 82.7071 120.537C83.3891 123.52 86.3591 124.382 88.6451 123.742C93.4121 121.552 95.3171 114.316 93.2371 109.724C92.6511 108.428 91.9041 107.331 91.0411 106.401C93.0921 107.61 95.3421 108.833 96.8791 110.562C97.8821 111.691 102.455 117.008 103.75 113.111C105.067 109.144 100.541 105.567 97.4281 104.106C96.1371 103.499 94.7841 103.062 93.3981 102.747ZM83.1451 114.861C79.5431 114.144 83.0541 107.385 85.7671 110.254C85.9061 110.4 86.3631 111.059 86.3971 111.394C86.6231 113.555 85.6051 115.352 83.1451 114.861ZM88.5781 122.643C88.5111 122.632 84.3731 123.982 83.5861 119.998C83.1761 117.921 84.9581 115.922 87.0391 115.685C91.0121 115.235 91.8981 121.176 88.5781 122.643ZM91.8781 109.052C93.7281 112.073 93.4641 116.664 91.4901 119.872C91.7481 117.13 89.8551 114.126 86.5331 114.82C86.5251 114.822 86.5181 114.826 86.5101 114.827C87.6521 113.407 87.3991 110.944 86.9141 109.208C86.2911 106.979 84.3211 104.569 82.0061 103.546C86.0391 103.607 89.5501 105.25 91.8781 109.052Z" fill="#D2B646"/>
<path d="M97.5521 124.837C99.5041 124.265 99.6291 121.88 99.6781 120.225C99.7561 117.626 98.6931 115.025 97.1321 112.998C97.1291 112.993 97.1221 112.991 97.1181 112.985C97.0741 112.886 97.0351 112.785 96.9781 112.69C96.6741 112.175 95.8821 112.654 96.1871 113.169C96.8591 114.302 96.2261 117.377 95.9891 118.485C95.7431 119.642 95.3901 120.746 95.2511 121.926C95.1021 123.195 95.8881 125.323 97.5521 124.837ZM96.3731 120.71C96.6601 119.271 97.0811 117.944 97.1801 116.472C97.2131 116.003 97.2861 115.511 97.3311 115.022C97.8931 116.046 98.3051 117.131 98.5691 118.315C98.8111 119.392 98.7731 120.494 98.6661 121.579C98.7531 122.943 97.7401 124.1 96.2551 123.062C96.1141 122.27 96.1521 121.486 96.3731 120.71Z" fill="#D2B646"/>
<path d="M102.372 105.674C104.749 107.838 106.3 110.663 108.674 112.798C109.548 113.585 111.809 115.62 112.949 114.028C114.158 112.336 111.816 109.852 110.769 108.769C108.596 106.521 105.931 106.033 103.134 104.97C103.063 104.943 102.994 104.935 102.932 104.94C102.925 104.933 102.917 104.926 102.91 104.919C102.47 104.52 101.937 105.278 102.372 105.674ZM108.242 107.912C109.245 108.523 110.096 109.359 110.862 110.238C111.055 110.47 111.24 110.708 111.418 110.953C111.583 111.211 111.748 111.471 111.912 111.729C112.387 112.384 112.154 112.98 111.214 113.518C109.268 112.87 107.67 110.434 106.509 108.852C105.851 107.955 105.15 107.15 104.404 106.375C105.722 106.788 107.029 107.172 108.242 107.912Z" fill="#D2B646"/>
<path d="M85.7491 121.627C86.4851 122.922 87.7471 123.304 89.1211 122.795C90.0521 122.449 91.4831 121.548 91.4601 120.424C91.4481 119.801 90.4821 119.816 90.4941 120.438C90.5051 120.991 89.6231 121.424 89.2221 121.674C88.5161 122.116 87.6411 122.262 86.9731 121.686C86.3151 121.117 86.1871 119.983 86.5071 119.219C86.7401 118.66 87.7071 118.466 87.9671 119.051C88.2201 119.618 89.0451 119.112 88.7931 118.551C88.3081 117.458 87.0531 117.577 86.2021 118.167C85.1601 118.89 85.1751 120.614 85.7491 121.627Z" fill="#D2B646"/>
<path d="M103.291 120.218C103.506 120.916 104.026 121.507 104.769 121.669C107.586 122.285 108.11 117.878 105.397 117.538C105.271 117.521 105.175 117.558 105.099 117.613C104.399 117.508 103.667 117.685 103.311 118.284C102.982 118.84 103.111 119.626 103.291 120.218ZM104.082 118.882C104.323 118.301 105.516 118.544 105.774 118.982C105.872 119.15 106.023 119.21 106.173 119.21C106.403 119.902 106.087 120.838 105.212 120.769C104.679 120.726 104.304 120.355 104.194 119.852C104.144 119.61 103.982 119.124 104.082 118.882Z" fill="#D2B646"/>
<path d="M79.6505 104H32.3389C31.8786 104 31.8919 103 32.35 103H79.6623C80.1204 103 80.1086 104 79.6505 104Z" fill="#D2B646"/>
<path d="M133.602 99H80.1598H79.8408H26.3974C25.8771 99 25.8625 100 26.3843 100H79.8539H80.1467H133.615C134.137 100 134.123 99 133.602 99Z" fill="#D2B646"/>
<path d="M61.0981 104.106C57.9871 105.567 53.4601 109.144 54.7771 113.111C56.0711 117.008 60.6451 111.691 61.6481 110.562C63.1841 108.832 65.4351 107.61 67.4861 106.401C66.6231 107.331 65.8761 108.428 65.2901 109.724C63.2111 114.316 65.1141 121.551 69.8821 123.742C72.1691 124.382 75.1381 123.519 75.8201 120.537C76.0701 119.441 75.6011 117.672 74.9791 116.761C74.7561 116.435 74.4981 116.163 74.2211 115.918C76.4511 116.084 78.4201 114.036 77.6921 111.712C77.0291 109.591 74.6191 107.884 72.7101 109.104C73.7791 106.351 76.1571 103.723 79.1451 103.979C79.3591 103.998 79.4951 103.886 79.5571 103.739C79.7251 103.693 79.8041 103.537 79.8101 103.368C77.0161 103.407 74.1631 103.389 71.3241 103.233C69.7021 104 68.2121 104.924 66.6571 105.859C65.1631 106.756 63.6021 107.666 62.1791 108.669C60.9441 109.542 60.1581 111.059 59.0661 112.097C58.6851 112.495 58.2561 112.839 57.7811 113.123C55.8091 113.566 55.0241 112.176 55.6301 110.662C56.0901 109.437 56.8671 108.359 57.8151 107.462C59.3871 105.969 61.2511 104.794 63.3811 104.284C65.2981 103.824 67.2451 103.385 69.2001 103.096C68.0391 103.001 66.8881 102.872 65.7471 102.718C65.5411 102.728 65.3361 102.74 65.1301 102.747C63.7431 103.062 62.3901 103.499 61.0981 104.106ZM72.1301 111.393C72.1651 111.058 72.6211 110.399 72.7601 110.253C75.4731 107.385 78.9841 114.144 75.3821 114.86C72.9221 115.352 71.9031 113.555 72.1301 111.393ZM71.4881 115.686C73.5691 115.922 75.3501 117.921 74.9401 119.999C74.1531 123.982 70.0161 122.633 69.9481 122.644C66.6301 121.176 67.5151 115.235 71.4881 115.686ZM76.5201 103.546C74.2051 104.569 72.2351 106.979 71.6121 109.208C71.1271 110.944 70.8741 113.407 72.0161 114.827C72.0081 114.826 72.0011 114.822 71.9931 114.82C68.6711 114.126 66.7781 117.13 67.0361 119.872C65.0611 116.664 64.7971 112.073 66.6481 109.052C68.9771 105.25 72.4871 103.607 76.5201 103.546Z" fill="#D2B646"/>
<path d="M63.2751 121.926C63.1371 120.745 62.7851 119.642 62.5371 118.485C62.3011 117.377 61.6671 114.301 62.3391 113.169C62.6451 112.654 61.8521 112.176 61.5491 112.69C61.4911 112.785 61.4531 112.886 61.4091 112.985C61.4031 112.991 61.3981 112.993 61.3941 112.998C59.8331 115.024 58.7691 117.626 58.8491 120.225C58.8981 121.88 59.0221 124.265 60.9751 124.837C62.6391 125.323 63.4241 123.195 63.2751 121.926ZM62.2711 123.061C60.7861 124.098 59.7731 122.942 59.8601 121.578C59.7531 120.493 59.7161 119.391 59.9581 118.314C60.2221 117.13 60.6331 116.045 61.1951 115.021C61.2401 115.51 61.3141 116.003 61.3461 116.471C61.4441 117.944 61.8671 119.271 62.1531 120.709C62.3751 121.486 62.4131 122.27 62.2711 123.061Z" fill="#D2B646"/>
<path d="M55.6141 104.919C55.6091 104.927 55.6011 104.934 55.5941 104.94C55.5311 104.935 55.4641 104.943 55.3921 104.97C52.5941 106.033 49.9301 106.521 47.7561 108.769C46.7091 109.852 44.3671 112.336 45.5771 114.028C46.7161 115.62 48.9781 113.585 49.8521 112.798C52.2251 110.663 53.7761 107.838 56.1541 105.674C56.5901 105.278 56.0561 104.52 55.6141 104.919ZM54.1221 106.375C53.3771 107.149 52.6751 107.955 52.0171 108.852C50.8571 110.434 49.2581 112.87 47.3131 113.518C46.3721 112.98 46.1401 112.384 46.6151 111.729C46.7791 111.47 46.9431 111.211 47.1071 110.953C47.2861 110.708 47.4721 110.471 47.6641 110.238C48.4301 109.359 49.2811 108.523 50.2841 107.912C51.4981 107.172 52.8051 106.788 54.1221 106.375Z" fill="#D2B646"/>
<path d="M72.7781 121.627C72.0421 122.922 70.7811 123.304 69.4071 122.795C68.4751 122.449 67.0451 121.548 67.0681 120.424C67.0791 119.801 68.0451 119.816 68.0341 120.438C68.0231 120.991 68.9041 121.424 69.3051 121.674C70.0111 122.116 70.8871 122.262 71.5541 121.686C72.2131 121.117 72.3391 119.983 72.0201 119.219C71.7861 118.66 70.8191 118.466 70.5601 119.051C70.3071 119.618 69.4831 119.112 69.7341 118.551C70.2191 117.458 71.4751 117.577 72.3251 118.167C73.3661 118.89 73.3521 120.614 72.7781 121.627Z" fill="#D2B646"/>
<path d="M55.2161 118.285C54.8601 117.686 54.1271 117.509 53.4271 117.614C53.3511 117.558 53.2551 117.522 53.1291 117.539C50.4161 117.879 50.9411 122.286 53.7571 121.67C54.4981 121.508 55.0191 120.917 55.2341 120.219C55.4171 119.626 55.5451 118.84 55.2161 118.285ZM54.3321 119.853C54.2231 120.356 53.8471 120.727 53.3151 120.77C52.4401 120.838 52.1231 119.903 52.3531 119.211C52.5041 119.211 52.6551 119.151 52.7531 118.983C53.0111 118.545 54.2041 118.301 54.4451 118.883C54.5451 119.124 54.3821 119.61 54.3321 119.853Z" fill="#D2B646"/>
<path d="M43.5371 106.752C43.1811 106.153 42.4491 105.976 41.7481 106.081C41.6731 106.025 41.5771 105.989 41.4501 106.005C38.7371 106.345 39.2621 110.752 42.0781 110.137C42.8201 109.974 43.3411 109.384 43.5561 108.685C43.7371 108.093 43.8661 107.308 43.5371 106.752ZM42.6531 108.32C42.5441 108.823 42.1681 109.195 41.6361 109.237C40.7601 109.306 40.4431 108.37 40.6741 107.677C40.8251 107.678 40.9761 107.618 41.0741 107.45C41.3331 107.011 42.5251 106.767 42.7661 107.348C42.8651 107.591 42.7041 108.077 42.6531 108.32Z" fill="#D2B646"/>
<path d="M154.939 69.8256L154.911 69.9847L154.982 70.1299L160.161 80.7669L154.982 91.402L154.911 91.5472L154.939 91.7063L156.962 103.383L149.019 112.106L148.91 112.225L148.892 112.386L147.556 124.162L137.499 130.264L137.359 130.349L137.297 130.499L132.741 141.421L121.396 144.43L121.237 144.472L121.134 144.599L113.726 153.786L102.003 153.437L101.839 153.432L101.704 153.526L92.023 160.214L80.8733 156.532L80.7165 156.48L80.5597 156.532L69.411 160.214L59.7299 153.526L59.5948 153.432L59.4308 153.437L47.7092 153.787L40.3005 144.6L40.1977 144.473L40.0395 144.431L28.694 141.423L24.1374 130.501L24.0746 130.351L23.9353 130.266L13.8782 124.165L12.5424 112.389L12.5241 112.228L12.4152 112.109L4.47218 103.386L6.49545 91.7093L6.52302 91.5502L6.45234 91.4051L1.27313 80.768L6.45234 70.1309L6.52302 69.9857L6.49545 69.8266L4.47218 58.1502L12.4152 49.4283L12.5241 49.3087L12.5424 49.148L13.8773 37.3723L23.9343 31.2695L24.0737 31.185L24.1364 31.0345L28.692 20.1133L40.0375 17.1039L40.1958 17.0619L40.2985 16.9345L47.7073 7.74812L59.4298 8.0966L59.5938 8.10147L59.7289 8.00819L69.41 1.31978L80.5597 5.002L80.7165 5.05379L80.8733 5.002L92.022 1.31978L101.703 8.00819L101.838 8.10149L102.002 8.09659L113.725 7.74716L121.134 16.9335L121.236 17.061L121.395 17.1029L132.74 20.1113L137.297 31.0326L137.359 31.183L137.499 31.2675L147.556 37.3703L148.892 49.146L148.91 49.3067L149.019 49.4263L156.962 58.1492L154.939 69.8256ZM11.9898 80.767C11.9898 119.103 42.7552 150.188 80.7175 150.188C118.68 150.188 149.445 119.103 149.445 80.767C149.445 42.4312 118.68 11.3459 80.7175 11.3459C42.7552 11.3459 11.9898 42.4312 11.9898 80.767Z" fill="#D2B646" stroke="#D2B646"/>
<path d="M80.7175 147.093C116.98 147.093 146.376 117.398 146.376 80.767C146.376 44.136 116.98 14.4407 80.7175 14.4407C44.455 14.4407 15.0585 44.136 15.0585 80.767C15.0585 117.398 44.455 147.093 80.7175 147.093Z" stroke="#D2B646" stroke-miterlimit="10"/>
<path d="M142.482 90.6891C147.908 56.2356 124.657 23.8626 90.5502 18.382C56.4434 12.9015 24.3962 36.3886 18.9707 70.8421C13.5453 105.296 36.7961 137.668 70.9029 143.149C105.01 148.63 137.057 125.143 142.482 90.6891Z" stroke="#D2B646" stroke-width="1.5" stroke-linecap="round" stroke-linejoin="round" stroke-dasharray="0.1 4.99"/>
<path d="M42.77 96.4C42.686 96.372 42.602 96.344 42.518 96.316C42.434 96.316 42.336 96.316 42.224 96.316V96.274C42.112 96.274 42.014 96.246 41.93 96.19C41.846 96.162 41.776 96.176 41.72 96.232C41.524 96.148 41.314 96.106 41.09 96.106C40.866 96.106 40.656 96.05 40.46 95.938C40.376 95.966 40.166 95.91 39.83 95.77C39.522 95.658 39.284 95.588 39.116 95.56L39.032 95.476H38.864C38.752 95.364 38.682 95.322 38.654 95.35C38.57 95.238 38.472 95.154 38.36 95.098C38.276 95.042 38.192 94.986 38.108 94.93C38.052 94.874 38.01 94.818 37.982 94.762C37.954 94.706 37.898 94.692 37.814 94.72C37.814 94.664 37.688 94.524 37.436 94.3C37.212 94.076 37.058 93.908 36.974 93.796L36.848 93.754C36.596 93.558 36.456 93.39 36.428 93.25C36.4 93.138 36.344 93.012 36.26 92.872C36.176 92.732 35.91 92.536 35.462 92.284C35.35 92.144 35.196 92.004 35 91.864C34.804 91.724 34.692 91.584 34.664 91.444L34.622 91.192C34.706 91.22 34.86 91.346 35.084 91.57C35.308 91.822 35.532 92.018 35.756 92.158L35.84 92.242H35.966C35.966 92.158 35.966 92.088 35.966 92.032C35.994 91.976 36.008 91.934 36.008 91.906C36.008 91.71 35.98 91.612 35.924 91.612C35.896 91.612 35.854 91.556 35.798 91.444C35.798 91.416 35.798 91.388 35.798 91.36C35.826 91.332 35.84 91.304 35.84 91.276C35.812 91.22 35.77 91.15 35.714 91.066C35.686 91.01 35.686 90.94 35.714 90.856C35.714 90.8 35.728 90.744 35.756 90.688C35.812 90.66 35.854 90.632 35.882 90.604L35.924 90.1C35.924 90.044 35.952 89.988 36.008 89.932C36.064 89.876 36.078 89.82 36.05 89.764L36.344 89.26C36.372 89.204 36.372 89.148 36.344 89.092C36.344 89.064 36.358 89.036 36.386 89.008C36.442 88.952 36.484 88.868 36.512 88.756C36.54 88.672 36.61 88.602 36.722 88.546C36.778 88.49 36.834 88.434 36.89 88.378C36.946 88.322 37.03 88.28 37.142 88.252C37.226 88.14 37.38 88.056 37.604 88C37.66 87.972 37.702 87.972 37.73 88C37.758 88.056 37.744 88.126 37.688 88.21C37.52 88.35 37.394 88.434 37.31 88.462H37.226L37.1 88.756L36.974 88.84C36.974 88.896 37.016 88.952 37.1 89.008V89.176L36.596 89.974C36.624 90.058 36.638 90.17 36.638 90.31C36.638 90.422 36.624 90.52 36.596 90.604C36.596 90.716 36.582 90.828 36.554 90.94C36.554 90.968 36.54 90.982 36.512 90.982C36.512 91.01 36.512 91.052 36.512 91.108C36.512 91.192 36.526 91.29 36.554 91.402C36.582 91.542 36.596 91.654 36.596 91.738H36.722C36.75 91.766 36.778 91.794 36.806 91.822C36.834 91.85 36.848 91.892 36.848 91.948L36.806 91.99L36.974 92.326L36.932 92.41C36.932 92.438 36.946 92.466 36.974 92.494C37.03 92.522 37.072 92.55 37.1 92.578C37.072 92.662 37.114 92.76 37.226 92.872L37.31 92.956C37.506 93.068 37.674 93.138 37.814 93.166C37.954 93.222 38.136 93.278 38.36 93.334C38.892 93.502 39.34 93.614 39.704 93.67C40.068 93.726 40.446 93.754 40.838 93.754C41.006 93.754 41.188 93.754 41.384 93.754C41.608 93.754 41.832 93.74 42.056 93.712C42.308 93.712 42.728 93.698 43.316 93.67C43.932 93.642 44.352 93.586 44.576 93.502C44.604 93.502 44.618 93.488 44.618 93.46C44.646 93.432 44.674 93.418 44.702 93.418H44.786C45.094 93.418 45.374 93.362 45.626 93.25C45.906 93.166 46.186 93.096 46.466 93.04C46.69 92.956 46.914 92.858 47.138 92.746C47.39 92.634 47.642 92.55 47.894 92.494C48.09 92.438 48.356 92.326 48.692 92.158C49.028 92.018 49.35 91.85 49.658 91.654C49.994 91.486 50.218 91.346 50.33 91.234C50.526 91.178 50.764 91.052 51.044 90.856C51.324 90.66 51.59 90.45 51.842 90.226C52.094 90.002 52.248 89.82 52.304 89.68C52.444 89.68 52.528 89.582 52.556 89.386C52.584 89.218 52.598 89.106 52.598 89.05C52.738 88.882 52.794 88.784 52.766 88.756C52.738 88.728 52.738 88.658 52.766 88.546C52.822 88.462 52.892 88.364 52.976 88.252C53.06 88.14 53.074 88.042 53.018 87.958C53.074 87.902 53.116 87.846 53.144 87.79C53.2 87.734 53.256 87.692 53.312 87.664L53.564 87.538C53.62 87.482 53.634 87.426 53.606 87.37C53.606 87.286 53.69 87.174 53.858 87.034L53.9 86.866C53.9 86.81 53.928 86.754 53.984 86.698C54.18 86.306 54.362 85.83 54.53 85.27C54.726 84.71 54.922 84.29 55.118 84.01C55.202 83.87 55.258 83.716 55.286 83.548C55.342 83.352 55.384 83.17 55.412 83.002C55.468 82.89 55.566 82.792 55.706 82.708C55.846 82.624 55.888 82.526 55.832 82.414C55.748 82.414 55.706 82.358 55.706 82.246C55.706 82.106 55.762 81.952 55.874 81.784C55.986 81.588 56.028 81.448 56 81.364L56.462 80.146L55.58 80.86C55.468 80.944 55.37 81.014 55.286 81.07C55.202 81.098 55.104 81.14 54.992 81.196C54.824 81.308 54.684 81.448 54.572 81.616C54.46 81.756 54.32 81.896 54.152 82.036C53.704 82.4 53.214 82.736 52.682 83.044C52.178 83.352 51.674 83.66 51.17 83.968C50.974 84.08 50.75 84.234 50.498 84.43C50.246 84.598 49.98 84.71 49.7 84.766C49.532 84.822 49.378 84.878 49.238 84.934C49.098 84.962 48.958 85.06 48.818 85.228L48.398 85.396C48.314 85.312 48.23 85.27 48.146 85.27C48.034 85.27 47.936 85.312 47.852 85.396C47.796 85.452 47.74 85.522 47.684 85.606C47.46 85.802 47.012 86.012 46.34 86.236C45.696 86.46 45.206 86.614 44.87 86.698C44.758 86.67 44.506 86.726 44.114 86.866C43.722 86.978 43.414 87.02 43.19 86.992C43.05 86.88 42.924 86.824 42.812 86.824C42.7 86.824 42.574 86.894 42.434 87.034C41.538 87.118 40.656 87.006 39.788 86.698C38.948 86.39 38.22 85.942 37.604 85.354C36.988 84.766 36.582 84.094 36.386 83.338C36.414 83.254 36.428 83.156 36.428 83.044C36.428 82.876 36.372 82.722 36.26 82.582C36.232 82.442 36.204 82.288 36.176 82.12C36.176 81.952 36.176 81.784 36.176 81.616C36.176 80.72 36.316 79.824 36.596 78.928C36.904 78.004 37.268 77.164 37.688 76.408C37.996 76.24 38.15 76.016 38.15 75.736C38.766 74.784 39.48 73.916 40.292 73.132C40.516 73.076 40.684 73.006 40.796 72.922C40.936 72.81 40.992 72.656 40.964 72.46C41.272 72.236 41.566 71.998 41.846 71.746C42.154 71.494 42.448 71.27 42.728 71.074C43.036 71.018 43.246 70.85 43.358 70.57C43.75 70.318 44.156 70.094 44.576 69.898C44.996 69.674 45.43 69.464 45.878 69.268H45.962C46.102 69.268 46.214 69.24 46.298 69.184C46.382 69.1 46.48 69.016 46.592 68.932C46.62 68.904 46.746 68.848 46.97 68.764C47.222 68.652 47.474 68.554 47.726 68.47C48.006 68.386 48.188 68.33 48.272 68.302H48.398C48.566 68.302 48.762 68.246 48.986 68.134C49.518 67.966 50.26 67.812 51.212 67.672C52.164 67.504 53.046 67.42 53.858 67.42C54.054 67.42 54.236 67.434 54.404 67.462C54.6 67.462 54.768 67.476 54.908 67.504C55.048 67.532 55.118 67.574 55.118 67.63C55.146 67.686 55.174 67.728 55.202 67.756H55.286C55.342 67.756 55.398 67.742 55.454 67.714C55.51 67.658 55.58 67.63 55.664 67.63C55.804 67.63 55.972 67.658 56.168 67.714C56.392 67.742 56.56 67.784 56.672 67.84C56.728 67.98 56.812 68.064 56.924 68.092C57.064 68.092 57.19 68.134 57.302 68.218C57.554 68.358 57.764 68.54 57.932 68.764C58.1 68.96 58.184 69.184 58.184 69.436V69.73C58.184 70.01 58.128 70.234 58.016 70.402C57.932 70.542 57.834 70.612 57.722 70.612C57.526 70.612 57.428 70.444 57.428 70.108L57.26 69.394C57.26 69.254 57.218 69.142 57.134 69.058C57.05 68.974 56.952 68.876 56.84 68.764C56.812 68.596 56.714 68.512 56.546 68.512C56.406 68.512 56.252 68.498 56.084 68.47L55.958 68.302C55.818 68.246 55.664 68.204 55.496 68.176C55.356 68.148 55.188 68.12 54.992 68.092C54.908 68.008 54.796 67.966 54.656 67.966C54.516 67.966 54.362 68.008 54.194 68.092C53.438 68.12 52.71 68.274 52.01 68.554C51.982 68.554 51.94 68.568 51.884 68.596C51.856 68.596 51.814 68.596 51.758 68.596L51.338 68.554C51.254 68.554 51.142 68.596 51.002 68.68C50.918 68.708 50.876 68.75 50.876 68.806C50.876 68.862 50.848 68.918 50.792 68.974C50.596 69.114 50.358 69.226 50.078 69.31C49.798 69.366 49.546 69.45 49.322 69.562C49.238 69.59 49.154 69.632 49.07 69.688C49.014 69.716 48.958 69.758 48.902 69.814C48.762 69.898 48.594 69.982 48.398 70.066C48.23 70.122 48.062 70.192 47.894 70.276L47.936 70.108C47.628 70.22 47.376 70.402 47.18 70.654C47.04 70.766 46.914 70.836 46.802 70.864C46.69 70.864 46.564 70.864 46.424 70.864C46.396 70.892 46.382 70.948 46.382 71.032C46.41 71.088 46.396 71.144 46.34 71.2C46.032 71.48 45.626 71.732 45.122 71.956C44.646 72.18 44.268 72.446 43.988 72.754C43.848 72.922 43.596 73.132 43.232 73.384C42.868 73.608 42.574 73.832 42.35 74.056C42.21 74.168 41.958 74.406 41.594 74.77C41.23 75.134 40.838 75.54 40.418 75.988C39.998 76.436 39.634 76.856 39.326 77.248C39.018 77.64 38.864 77.906 38.864 78.046C38.584 78.494 38.318 78.984 38.066 79.516C37.814 80.048 37.674 80.566 37.646 81.07C37.618 81.21 37.548 81.308 37.436 81.364C37.352 81.42 37.31 81.504 37.31 81.616V81.658C37.31 81.714 37.366 81.742 37.478 81.742C37.59 81.714 37.632 81.77 37.604 81.91C37.604 81.966 37.604 82.064 37.604 82.204C37.632 82.316 37.646 82.442 37.646 82.582C37.646 83.002 37.59 83.226 37.478 83.254C37.45 83.282 37.436 83.324 37.436 83.38C37.436 83.492 37.506 83.562 37.646 83.59C37.814 83.59 37.926 83.646 37.982 83.758C38.346 84.374 38.808 84.822 39.368 85.102C39.956 85.354 40.6 85.508 41.3 85.564C41.384 85.592 41.412 85.648 41.384 85.732C41.384 85.788 41.468 85.816 41.636 85.816C41.692 85.816 41.762 85.816 41.846 85.816C41.93 85.788 42.028 85.76 42.14 85.732C42.196 85.76 42.252 85.788 42.308 85.816C42.364 85.844 42.406 85.858 42.434 85.858C42.546 85.858 42.644 85.788 42.728 85.648C42.784 85.62 42.994 85.578 43.358 85.522C43.722 85.466 43.904 85.438 43.904 85.438C43.988 85.55 44.086 85.606 44.198 85.606C44.254 85.606 44.324 85.578 44.408 85.522C44.492 85.438 44.562 85.382 44.618 85.354C45.822 85.046 46.984 84.696 48.104 84.304C48.216 84.332 48.468 84.248 48.86 84.052C49.28 83.856 49.56 83.73 49.7 83.674C49.84 83.702 50.05 83.632 50.33 83.464C50.61 83.268 50.806 83.142 50.918 83.086C51.086 83.058 51.226 83.002 51.338 82.918C51.478 82.834 51.604 82.764 51.716 82.708C51.8 82.736 51.996 82.652 52.304 82.456C52.64 82.26 52.99 82.022 53.354 81.742C53.746 81.434 54.096 81.168 54.404 80.944C54.74 80.692 54.95 80.524 55.034 80.44C55.118 80.356 55.23 80.286 55.37 80.23C55.51 80.174 55.622 80.104 55.706 80.02C55.762 79.964 55.874 79.824 56.042 79.6C56.21 79.376 56.378 79.166 56.546 78.97C56.714 78.746 56.812 78.606 56.84 78.55C57.26 77.738 57.792 77.122 58.436 76.702C59.08 76.254 59.906 76.03 60.914 76.03C61.082 76.03 61.264 76.044 61.46 76.072C61.656 76.072 61.852 76.086 62.048 76.114C62.216 76.114 62.3 76.156 62.3 76.24C62.3 76.408 62.16 76.492 61.88 76.492C61.32 76.52 60.816 76.744 60.368 77.164C59.948 77.556 59.598 78.018 59.318 78.55C59.066 79.054 58.856 79.502 58.688 79.894C58.66 79.922 58.604 80.048 58.52 80.272C58.436 80.468 58.394 80.58 58.394 80.608C58.282 80.72 58.142 80.832 57.974 80.944C57.806 81.056 57.834 81.21 58.058 81.406C57.946 81.602 57.792 81.84 57.596 82.12C57.4 82.372 57.344 82.61 57.428 82.834C57.288 83.142 57.106 83.422 56.882 83.674C56.686 83.898 56.616 84.192 56.672 84.556C56.672 84.556 56.56 84.808 56.336 85.312C56.112 85.816 55.888 86.306 55.664 86.782C55.804 86.558 56.028 86.306 56.336 86.026C56.644 85.718 56.896 85.508 57.092 85.396C57.288 85.284 57.428 85.228 57.512 85.228C57.596 85.228 57.638 85.27 57.638 85.354C57.638 85.662 57.456 85.942 57.092 86.194C57.008 86.25 56.798 86.432 56.462 86.74C56.126 87.048 55.804 87.356 55.496 87.664C55.188 87.972 55.02 88.154 54.992 88.21L54.908 88.252C54.768 88.364 54.586 88.546 54.362 88.798C54.166 89.05 54.082 89.26 54.11 89.428C54.082 89.428 53.942 89.582 53.69 89.89C53.466 90.226 53.326 90.422 53.27 90.478C53.242 90.506 53.228 90.548 53.228 90.604C53.256 90.66 53.242 90.716 53.186 90.772C53.158 90.828 53.116 90.884 53.06 90.94C53.004 90.996 52.948 91.052 52.892 91.108C52.92 91.22 52.906 91.276 52.85 91.276C52.794 91.304 52.738 91.346 52.682 91.402C52.57 91.514 52.486 91.654 52.43 91.822C52.402 91.99 52.318 92.13 52.178 92.242C52.15 92.27 52.108 92.284 52.052 92.284C51.996 92.284 51.954 92.298 51.926 92.326C51.87 92.382 51.828 92.452 51.8 92.536C51.772 92.62 51.744 92.69 51.716 92.746C51.632 92.886 51.436 93.068 51.128 93.292C50.82 93.544 50.596 93.754 50.456 93.922C50.344 93.95 50.19 94.034 49.994 94.174C49.91 94.202 49.742 94.286 49.49 94.426C49.266 94.594 49.14 94.706 49.112 94.762C49.056 94.79 48.972 94.804 48.86 94.804C48.776 94.832 48.706 94.874 48.65 94.93C48.482 95.21 48.174 95.392 47.726 95.476C47.698 95.476 47.67 95.49 47.642 95.518C47.614 95.546 47.572 95.574 47.516 95.602C47.46 95.63 47.376 95.644 47.264 95.644C47.096 95.644 46.998 95.672 46.97 95.728C46.942 95.784 46.872 95.826 46.76 95.854C46.48 95.91 46.2 95.98 45.92 96.064C45.64 96.176 45.332 96.232 44.996 96.232H44.912C44.856 96.232 44.772 96.218 44.66 96.19C44.576 96.19 44.506 96.19 44.45 96.19C44.254 96.19 44.03 96.218 43.778 96.274C43.526 96.358 43.288 96.4 43.064 96.4C43.036 96.4 42.994 96.386 42.938 96.358C42.91 96.33 42.868 96.33 42.812 96.358C42.812 96.358 42.798 96.358 42.77 96.358C42.77 96.358 42.77 96.372 42.77 96.4ZM42.476 95.896C42.728 95.784 43.05 95.714 43.442 95.686C43.834 95.658 44.184 95.616 44.492 95.56L45.08 95.602C45.388 95.518 45.682 95.364 45.962 95.14C46.27 94.944 46.55 94.832 46.802 94.804C46.858 94.804 46.9 94.776 46.928 94.72C46.984 94.692 47.026 94.664 47.054 94.636L47.306 94.594C47.446 94.398 47.586 94.3 47.726 94.3C47.894 94.3 48.034 94.23 48.146 94.09C48.202 94.062 48.244 94.034 48.272 94.006C48.3 94.006 48.328 94.006 48.356 94.006C48.356 93.978 48.44 93.88 48.608 93.712C48.776 93.572 48.874 93.502 48.902 93.502H49.112C49.252 93.502 49.364 93.432 49.448 93.292C49.532 93.152 49.588 93.04 49.616 92.956C49.672 92.928 49.756 92.914 49.868 92.914L49.91 92.746C49.994 92.69 50.12 92.62 50.288 92.536C50.456 92.452 50.582 92.41 50.666 92.41L50.624 92.158C50.652 92.102 50.68 92.046 50.708 91.99C50.764 91.962 50.806 91.92 50.834 91.864C50.89 91.836 50.988 91.724 51.128 91.528C51.268 91.36 51.338 91.248 51.338 91.192C51.226 91.192 51.17 91.192 51.17 91.192C51.198 91.192 51.142 91.206 51.002 91.234C50.946 91.318 50.722 91.472 50.33 91.696C49.938 91.92 49.546 92.13 49.154 92.326C48.762 92.522 48.51 92.634 48.398 92.662C48.258 92.69 48.118 92.732 47.978 92.788C47.838 92.872 47.684 92.942 47.516 92.998C47.376 93.026 47.25 93.082 47.138 93.166C47.026 93.25 46.886 93.292 46.718 93.292C46.662 93.32 46.606 93.348 46.55 93.376C46.522 93.432 46.48 93.46 46.424 93.46C46.396 93.488 46.354 93.488 46.298 93.46C46.242 93.432 46.186 93.418 46.13 93.418C46.074 93.418 46.032 93.446 46.004 93.502C46.004 93.558 45.976 93.6 45.92 93.628C45.808 93.656 45.724 93.656 45.668 93.628C45.612 93.628 45.528 93.684 45.416 93.796L45.29 93.754C45.178 93.782 45.094 93.824 45.038 93.88C44.982 93.936 44.884 93.978 44.744 94.006C44.688 93.922 44.632 93.908 44.576 93.964C44.576 93.992 44.562 94.006 44.534 94.006L44.072 94.132C43.848 94.188 43.568 94.188 43.232 94.132C42.924 94.104 42.672 94.118 42.476 94.174C42.448 94.202 42.434 94.23 42.434 94.258C42.434 94.286 42.406 94.3 42.35 94.3H42.266L42.182 94.384L42.014 94.3C41.902 94.328 41.804 94.342 41.72 94.342C41.636 94.342 41.538 94.342 41.426 94.342C41.342 94.258 41.272 94.23 41.216 94.258C41.132 94.202 40.964 94.16 40.712 94.132C40.488 94.104 40.32 94.09 40.208 94.09C39.984 94.034 39.83 94.02 39.746 94.048C39.634 94.104 39.41 94.048 39.074 93.88C38.766 93.74 38.542 93.698 38.402 93.754L38.024 93.544L37.898 93.586C37.926 93.614 37.926 93.642 37.898 93.67C37.898 93.698 37.912 93.74 37.94 93.796C37.94 93.824 38.01 93.894 38.15 94.006C38.318 94.118 38.416 94.216 38.444 94.3C38.528 94.328 38.598 94.37 38.654 94.426C38.71 94.51 38.766 94.552 38.822 94.552C38.906 94.608 39.004 94.664 39.116 94.72C39.256 94.804 39.382 94.874 39.494 94.93L39.578 95.056C39.634 95.084 39.704 95.112 39.788 95.14C39.872 95.168 39.928 95.21 39.956 95.266C40.04 95.294 40.124 95.322 40.208 95.35C40.292 95.378 40.362 95.42 40.418 95.476H40.544C40.684 95.56 40.88 95.63 41.132 95.686C41.412 95.77 41.594 95.784 41.678 95.728C41.762 95.756 41.902 95.798 42.098 95.854C42.322 95.91 42.448 95.924 42.476 95.896ZM69.8849 95.98C69.8569 95.98 69.8429 95.966 69.8429 95.938C69.8709 95.91 69.8709 95.882 69.8429 95.854C69.8429 95.854 69.8289 95.854 69.8009 95.854C69.8009 95.882 69.8009 95.91 69.8009 95.938C69.6889 95.882 69.5489 95.84 69.3809 95.812C69.2409 95.784 69.1009 95.714 68.9609 95.602L68.3309 94.972C68.2749 94.916 68.2329 94.832 68.2049 94.72C68.1769 94.608 68.1209 94.524 68.0369 94.468L67.9109 93.418C67.9109 93.362 67.8969 93.292 67.8689 93.208C67.8129 93.152 67.7849 93.096 67.7849 93.04C67.7849 92.984 67.8129 92.9 67.8689 92.788C67.8969 92.676 67.9249 92.564 67.9529 92.452C67.9529 92.424 67.9249 92.354 67.8689 92.242C67.8969 92.158 67.9529 92.074 68.0369 91.99C68.1209 91.934 68.1769 91.864 68.2049 91.78C68.2329 91.724 68.2469 91.668 68.2469 91.612C68.2189 91.584 68.2049 91.542 68.2049 91.486C68.2049 91.374 68.2609 91.262 68.3729 91.15C68.4849 91.066 68.5829 90.968 68.6669 90.856C68.7509 90.744 68.7929 90.632 68.7929 90.52C68.9049 90.38 69.0169 90.24 69.1289 90.1C69.2689 89.96 69.3949 89.82 69.5069 89.68C69.5349 89.624 69.5489 89.512 69.5489 89.344L69.6329 89.218C69.6889 89.162 69.7589 89.12 69.8429 89.092C69.9269 89.092 69.9829 89.064 70.0109 89.008C70.0669 88.952 70.1089 88.896 70.1369 88.84C70.1929 88.784 70.2489 88.742 70.3049 88.714L70.4309 88.756C70.4869 88.616 70.5569 88.518 70.6409 88.462C70.7249 88.406 70.8229 88.336 70.9349 88.252L71.0609 88C71.0889 87.972 71.1309 87.958 71.1869 87.958C71.2709 87.958 71.3409 87.944 71.3969 87.916C71.4529 87.748 71.5509 87.622 71.6909 87.538C71.8309 87.454 71.9149 87.3 71.9429 87.076C71.9989 87.076 72.0689 87.062 72.1529 87.034C72.2649 87.006 72.3349 86.992 72.3629 86.992C72.4189 86.992 72.4329 86.992 72.4049 86.992C72.4049 86.964 72.4049 86.936 72.4049 86.908L72.4889 87.034H72.6149C72.6709 87.006 72.6849 86.964 72.6569 86.908C72.6569 86.852 72.6569 86.81 72.6569 86.782C72.7129 86.726 72.7969 86.67 72.9089 86.614C73.0209 86.558 73.0629 86.474 73.0349 86.362C73.0069 86.306 72.9649 86.278 72.9089 86.278C72.8529 86.25 72.8109 86.222 72.7829 86.194C72.7549 86.138 72.7129 86.082 72.6569 86.026C72.6009 85.942 72.5449 85.886 72.4889 85.858C72.4889 85.774 72.4749 85.718 72.4469 85.69L72.1949 85.564C72.0829 85.34 71.9429 85.144 71.7749 84.976C71.6069 84.78 71.4669 84.598 71.3549 84.43C71.3269 84.346 71.3129 84.234 71.3129 84.094C71.3129 83.926 71.2429 83.828 71.1029 83.8C70.9909 83.464 70.9349 83.212 70.9349 83.044C70.9349 82.848 70.9629 82.582 71.0189 82.246C71.0189 82.19 71.0049 82.162 70.9769 82.162C70.9489 82.134 70.9349 82.106 70.9349 82.078L71.1449 81.532V81.28C71.1449 81.14 71.1729 81.014 71.2289 80.902C71.3129 80.762 71.4109 80.622 71.5229 80.482C71.4949 80.454 71.4669 80.426 71.4389 80.398C71.4109 80.342 71.3549 80.314 71.2709 80.314C71.2149 80.314 71.1869 80.328 71.1869 80.356C71.2149 80.356 71.2009 80.356 71.1449 80.356H71.1029C71.0189 80.356 70.8509 80.328 70.5989 80.272C70.3749 80.216 70.1929 80.174 70.0529 80.146C70.0249 80.034 69.8989 79.922 69.6749 79.81H69.5909L69.5069 79.726C69.5349 79.67 69.5629 79.614 69.5909 79.558C69.6189 79.502 69.6329 79.46 69.6329 79.432C69.6609 79.432 69.7869 79.488 70.0109 79.6C70.2629 79.684 70.5289 79.782 70.8089 79.894C71.0889 79.978 71.2569 80.02 71.3129 80.02C71.3689 80.02 71.4109 80.02 71.4389 80.02C71.4949 79.992 71.5369 79.978 71.5649 79.978L73.3709 77.206C73.5109 77.15 73.6509 77.08 73.7909 76.996C73.9309 76.912 74.0429 76.814 74.1269 76.702C74.2389 76.534 74.4069 76.366 74.6309 76.198C74.8549 76.002 75.0369 75.862 75.1769 75.778C75.2609 75.722 75.3309 75.652 75.3869 75.568C75.4709 75.484 75.5549 75.414 75.6389 75.358C75.6949 75.33 75.7789 75.288 75.8909 75.232C76.0309 75.176 76.1289 75.134 76.1849 75.106C76.2409 75.05 76.2969 74.98 76.3529 74.896C76.4369 74.784 76.5209 74.714 76.6049 74.686C76.6609 74.658 76.7449 74.63 76.8569 74.602C76.9689 74.574 77.0669 74.546 77.1509 74.518C77.2069 74.462 77.2769 74.392 77.3609 74.308C77.4449 74.196 77.5009 74.14 77.5289 74.14C77.5849 74.14 77.5989 74.154 77.5709 74.182C77.5429 74.182 77.5569 74.182 77.6129 74.182C77.6689 74.182 77.7809 74.112 77.9489 73.972C78.1449 73.832 78.2989 73.748 78.4109 73.72C78.7469 73.58 79.1529 73.468 79.6289 73.384C80.1049 73.3 80.3569 73.258 80.3849 73.258H80.8049C80.8609 73.258 80.9729 73.258 81.1409 73.258C81.3369 73.258 81.5189 73.244 81.6869 73.216C81.7429 73.272 81.8129 73.314 81.8969 73.342C81.9809 73.342 82.0509 73.37 82.1069 73.426C82.1069 73.454 82.1209 73.482 82.1489 73.51C82.1769 73.538 82.2049 73.58 82.2329 73.636C82.2889 73.636 82.3869 73.678 82.5269 73.762C82.6669 73.818 82.7509 73.846 82.7789 73.846C82.7789 73.958 82.8629 74.056 83.0309 74.14C83.0589 74.224 83.0869 74.308 83.1149 74.392C83.1709 74.476 83.1989 74.546 83.1989 74.602C83.1989 74.798 83.1149 75.134 82.9469 75.61C82.9469 75.722 82.9889 75.792 83.0729 75.82C83.0449 75.848 83.0309 75.89 83.0309 75.946C83.0309 75.974 83.0169 76.002 82.9889 76.03C82.8769 76.03 82.7649 76.086 82.6529 76.198C82.5689 76.226 82.5129 76.282 82.4849 76.366C82.4569 76.422 82.4149 76.478 82.3589 76.534C82.3589 76.59 82.3869 76.674 82.4429 76.786C82.3029 76.814 82.2329 76.884 82.2329 76.996C82.2329 77.08 82.2049 77.164 82.1489 77.248C82.0089 77.248 81.9249 77.276 81.8969 77.332C81.7009 77.5 81.4209 77.724 81.0569 78.004C80.6929 78.256 80.3989 78.452 80.1749 78.592C80.0629 78.648 80.0069 78.76 80.0069 78.928C79.8669 78.928 79.7409 79.012 79.6289 79.18C79.6009 79.18 79.5589 79.166 79.5029 79.138C79.4749 79.11 79.4329 79.096 79.3769 79.096C79.3489 79.096 79.2369 79.152 79.0409 79.264C78.8449 79.376 78.6629 79.46 78.4949 79.516L78.4109 79.6C78.3549 79.6 78.2989 79.628 78.2429 79.684C78.1869 79.712 78.1309 79.754 78.0749 79.81C78.0749 79.754 78.0609 79.726 78.0329 79.726C77.8369 79.726 77.6269 79.754 77.4029 79.81C77.3749 79.838 77.3329 79.866 77.2769 79.894C77.2489 79.922 77.2069 79.936 77.1509 79.936C77.1229 79.964 77.0949 79.964 77.0669 79.936C77.0389 79.908 76.9969 79.908 76.9409 79.936C76.9129 79.936 76.8569 79.978 76.7729 80.062C76.6889 80.118 76.6189 80.16 76.5629 80.188C76.5349 80.188 76.5069 80.188 76.4789 80.188C76.4509 80.16 76.4089 80.146 76.3529 80.146C76.1849 80.146 76.0729 80.202 76.0169 80.314C75.9609 80.398 75.9049 80.44 75.8489 80.44C75.8209 80.44 75.7789 80.454 75.7229 80.482C75.6949 80.51 75.6529 80.524 75.5969 80.524C75.5409 80.552 75.5129 80.552 75.5129 80.524C75.5409 80.468 75.5269 80.454 75.4709 80.482C75.4149 80.482 75.4009 80.496 75.4289 80.524C75.4569 80.524 75.4429 80.524 75.3869 80.524C75.3309 80.524 75.2889 80.51 75.2609 80.482C75.2609 80.454 75.2469 80.426 75.2189 80.398C74.9389 80.342 74.6869 80.314 74.4629 80.314C74.3789 80.314 74.2809 80.342 74.1689 80.398C74.1409 80.426 74.1409 80.454 74.1689 80.482C74.1969 80.482 74.1969 80.482 74.1689 80.482C74.0849 80.51 73.9869 80.552 73.8749 80.608C73.7909 80.636 73.7069 80.678 73.6229 80.734C73.5949 80.678 73.5529 80.622 73.4969 80.566C73.4689 80.51 73.3989 80.482 73.2869 80.482C73.2029 80.51 73.1469 80.608 73.1189 80.776C73.0909 80.944 73.0769 81.07 73.0769 81.154C73.0769 81.294 73.0629 81.392 73.0349 81.448L72.6569 82.078C72.6289 82.218 72.5729 82.4 72.4889 82.624C72.4049 82.848 72.3629 82.988 72.3629 83.044L72.4889 83.296V83.422C72.4889 83.618 72.5309 83.8 72.6149 83.968V84.346C72.6149 84.346 72.6009 84.346 72.5729 84.346C72.5729 84.318 72.5729 84.332 72.5729 84.388C72.5729 84.472 72.6429 84.584 72.7829 84.724V84.808C72.7829 85.004 72.8389 85.158 72.9509 85.27C73.0629 85.382 73.1749 85.522 73.2869 85.69C73.4269 85.83 73.5249 85.9 73.5809 85.9H73.7069C73.7629 85.9 73.8749 85.83 74.0429 85.69C74.2109 85.522 74.3509 85.396 74.4629 85.312C74.4909 85.284 74.5049 85.228 74.5049 85.144L74.8829 85.018C74.9669 84.962 75.0369 84.906 75.0929 84.85C75.1489 84.794 75.2189 84.738 75.3029 84.682C75.5829 84.458 75.8629 84.29 76.1429 84.178C76.4229 84.066 76.7029 83.926 76.9829 83.758C77.0389 83.702 77.0949 83.618 77.1509 83.506C77.2069 83.394 77.2769 83.324 77.3609 83.296C77.4729 83.24 77.5709 83.184 77.6549 83.128C77.7389 83.072 77.8089 83.03 77.8649 83.002C78.0049 82.918 78.1589 82.876 78.3269 82.876C78.3829 82.764 78.4669 82.68 78.5789 82.624C78.7189 82.54 78.8589 82.47 78.9989 82.414C79.1669 82.358 79.3069 82.288 79.4189 82.204C79.4749 82.176 79.5309 82.12 79.5869 82.036C79.6429 81.952 79.6849 81.91 79.7129 81.91C79.7689 81.91 79.8109 81.924 79.8389 81.952C79.8949 81.952 79.9509 81.938 80.0069 81.91C80.0629 81.91 80.1329 81.882 80.2169 81.826C80.3289 81.742 80.4129 81.686 80.4689 81.658L80.7209 81.574C80.7769 81.546 80.8189 81.504 80.8469 81.448C80.9029 81.392 80.9589 81.35 81.0149 81.322C81.0709 81.266 81.1549 81.224 81.2669 81.196C81.4069 81.168 81.5189 81.14 81.6029 81.112C81.6309 81.084 81.6449 81.014 81.6449 80.902C81.7569 80.846 81.8829 80.762 82.0229 80.65C82.1629 80.538 82.2609 80.426 82.3169 80.314C82.3449 80.286 82.3869 80.244 82.4429 80.188C82.4989 80.132 82.5549 80.104 82.6109 80.104C82.6669 80.104 82.6809 80.118 82.6529 80.146C82.6249 80.146 82.6389 80.146 82.6949 80.146C82.7509 80.118 82.7929 80.076 82.8209 80.02C82.8769 79.964 82.9189 79.922 82.9469 79.894C83.1149 79.838 83.2829 79.81 83.4509 79.81C83.5349 79.726 83.5769 79.67 83.5769 79.642C83.6609 79.586 83.7589 79.544 83.8709 79.516C83.9829 79.488 84.0949 79.446 84.2069 79.39C84.2349 79.39 84.2629 79.362 84.2909 79.306C84.3189 79.25 84.3469 79.222 84.3749 79.222C84.4869 79.166 84.5989 79.124 84.7109 79.096C84.8229 79.068 84.9349 79.04 85.0469 79.012C85.1029 78.984 85.1449 78.942 85.1729 78.886C85.2289 78.802 85.2709 78.732 85.2989 78.676C85.3269 78.648 85.3969 78.634 85.5089 78.634L85.5929 78.55C85.8729 78.438 86.0409 78.34 86.0969 78.256C86.1809 78.172 86.3069 78.074 86.4749 77.962C86.5589 77.906 86.6849 77.85 86.8529 77.794C87.0489 77.71 87.2029 77.612 87.3149 77.5C87.3149 77.472 87.3009 77.444 87.2729 77.416C87.1889 77.444 87.0629 77.444 86.8949 77.416C86.8949 77.36 86.8809 77.318 86.8529 77.29C86.8809 77.29 86.9089 77.276 86.9369 77.248C86.9649 77.192 86.9929 77.15 87.0209 77.122C87.0209 77.15 87.0489 77.192 87.1049 77.248C87.1609 77.192 87.1889 77.136 87.1889 77.08C87.3009 77.108 87.3989 77.136 87.4829 77.164C87.5949 77.164 87.6789 77.164 87.7349 77.164C87.7909 77.164 87.8329 77.136 87.8609 77.08C87.9169 76.996 87.9729 76.94 88.0289 76.912C88.0849 76.856 88.1689 76.814 88.2809 76.786C88.3929 76.758 88.5049 76.716 88.6169 76.66C88.7009 76.604 88.7709 76.548 88.8269 76.492C88.8829 76.408 88.9389 76.324 88.9949 76.24C89.0509 76.184 89.0929 76.17 89.1209 76.198C89.1769 76.198 89.2189 76.184 89.2469 76.156C89.5269 75.96 89.7929 75.764 90.0449 75.568C90.3249 75.344 90.6049 75.092 90.8849 74.812L90.9689 74.728C90.9689 74.728 91.0389 74.728 91.1789 74.728C91.2349 74.7 91.2769 74.672 91.3049 74.644C91.3609 74.588 91.4029 74.546 91.4309 74.518C91.4309 74.462 91.4169 74.42 91.3889 74.392C91.4729 74.392 91.5289 74.406 91.5569 74.434C91.6129 74.378 91.6689 74.294 91.7249 74.182C91.8089 74.042 91.8789 73.944 91.9349 73.888C92.0189 73.776 92.1729 73.664 92.3969 73.552C92.6209 73.412 92.6769 73.258 92.5649 73.09C92.6489 73.062 92.7329 73.02 92.8169 72.964C92.9289 72.908 93.0409 72.852 93.1529 72.796C93.2089 72.684 93.2789 72.586 93.3629 72.502C93.4749 72.39 93.5589 72.278 93.6149 72.166C93.6989 71.998 93.7689 71.788 93.8249 71.536C93.8809 71.284 93.9089 71.144 93.9089 71.116C93.9089 71.06 93.8809 71.018 93.8249 70.99C93.7969 70.962 93.7829 70.934 93.7829 70.906C93.7549 70.85 93.7409 70.78 93.7409 70.696C93.7689 70.612 93.7549 70.556 93.6989 70.528C93.6709 70.472 93.6149 70.416 93.5309 70.36C93.4469 70.304 93.3769 70.262 93.3209 70.234V69.94C93.3489 69.94 93.3769 69.94 93.4049 69.94C93.4609 69.912 93.5029 69.898 93.5309 69.898C93.5869 69.898 93.6429 69.912 93.6989 69.94C93.7829 69.968 93.8529 69.982 93.9089 69.982C93.9089 70.038 93.9229 70.094 93.9509 70.15C93.9789 70.178 94.0069 70.22 94.0349 70.276C94.0349 70.304 94.0209 70.332 93.9929 70.36C93.9929 70.36 93.9929 70.374 93.9929 70.402C94.0489 70.514 94.1049 70.682 94.1609 70.906C94.2169 71.102 94.2589 71.228 94.2869 71.284C94.2869 71.284 94.2729 71.298 94.2449 71.326C94.2169 71.326 94.2169 71.396 94.2449 71.536L94.1609 71.788C94.0769 71.872 94.0209 71.97 93.9929 72.082C93.9929 72.166 93.9789 72.278 93.9509 72.418V72.586C93.9229 72.698 93.8529 72.782 93.7409 72.838C93.6289 72.894 93.5869 72.992 93.6149 73.132C93.5029 73.132 93.3909 73.188 93.2789 73.3V73.384C93.2789 73.636 93.2089 73.832 93.0689 73.972H92.9429C92.8869 73.972 92.8029 73.944 92.6909 73.888V74.056C92.6909 74.168 92.6349 74.238 92.5229 74.266C92.4389 74.294 92.3549 74.336 92.2709 74.392C92.2709 74.336 92.2569 74.294 92.2289 74.266C92.2009 74.294 92.1869 74.308 92.1869 74.308C92.1869 74.308 92.1729 74.322 92.1449 74.35L92.1869 74.518C92.1869 74.518 92.1729 74.518 92.1449 74.518C92.1169 74.518 92.0889 74.504 92.0609 74.476C92.0329 74.504 92.0189 74.56 92.0189 74.644C91.9349 74.644 91.8789 74.658 91.8509 74.686C91.7949 74.77 91.6689 74.91 91.4729 75.106C91.3049 75.302 91.1649 75.428 91.0529 75.484C90.9689 75.512 90.8709 75.582 90.7589 75.694C90.6749 75.778 90.6049 75.82 90.5489 75.82C90.5209 75.848 90.5069 75.848 90.5069 75.82C90.5349 75.792 90.5209 75.792 90.4649 75.82C90.4369 75.82 90.3529 75.848 90.2129 75.904C90.1009 75.96 90.0029 76.016 89.9189 76.072L89.8349 76.24L89.3729 76.45C89.2609 76.506 89.1629 76.562 89.0789 76.618C89.0229 76.674 88.9669 76.73 88.9109 76.786V76.828C88.9109 76.968 88.8409 77.052 88.7009 77.08C88.5889 77.08 88.4909 77.108 88.4069 77.164C88.4349 77.192 88.4909 77.22 88.5749 77.248C88.6589 77.276 88.7149 77.318 88.7429 77.374C88.7709 77.402 88.7989 77.444 88.8269 77.5C88.8549 77.556 88.8829 77.612 88.9109 77.668C88.9669 77.724 89.0229 77.78 89.0789 77.836C89.1629 77.892 89.2189 77.948 89.2469 78.004L89.4569 78.424C89.4569 78.48 89.4849 78.564 89.5409 78.676C89.4289 78.956 89.4569 79.152 89.6249 79.264C89.6809 79.376 89.7089 79.474 89.7089 79.558C89.7089 79.586 89.6949 79.628 89.6669 79.684C89.6389 79.74 89.6249 79.796 89.6249 79.852C89.5969 79.936 89.5689 80.048 89.5409 80.188C89.5409 80.328 89.5129 80.468 89.4569 80.608C89.4569 80.608 89.4289 80.636 89.3729 80.692C89.2609 80.972 89.1069 81.238 88.9109 81.49C88.7429 81.742 88.5609 81.952 88.3649 82.12C88.2809 82.204 88.1689 82.33 88.0289 82.498C87.8889 82.666 87.8189 82.75 87.8189 82.75L87.2729 83.422C87.2729 83.394 87.2449 83.38 87.1889 83.38C87.1609 83.38 87.0769 83.436 86.9369 83.548C86.8249 83.632 86.7129 83.702 86.6009 83.758C86.5449 83.758 86.5169 83.8 86.5169 83.884L85.6349 84.388C85.6069 84.416 85.5509 84.472 85.4669 84.556C85.4109 84.612 85.3549 84.64 85.2989 84.64C85.2709 84.64 85.2429 84.64 85.2149 84.64C85.2149 84.612 85.2149 84.598 85.2149 84.598L83.4089 85.564C83.4089 85.564 83.2969 85.62 83.0729 85.732C82.8489 85.844 82.6249 85.956 82.4009 86.068C82.1769 86.152 82.0369 86.194 81.9809 86.194C81.9529 86.194 81.9389 86.194 81.9389 86.194C81.9389 86.166 81.9109 86.152 81.8549 86.152C81.7989 86.152 81.6589 86.208 81.4349 86.32C81.2389 86.432 81.1129 86.502 81.0569 86.53C81.0009 86.53 80.9729 86.516 80.9729 86.488C81.0009 86.46 80.9869 86.46 80.9309 86.488H80.8889C80.8049 86.572 80.7489 86.614 80.7209 86.614C80.6369 86.642 80.5109 86.698 80.3429 86.782C80.2029 86.838 80.1049 86.866 80.0489 86.866C79.9929 86.894 79.9649 86.894 79.9649 86.866C79.9649 86.838 79.9369 86.838 79.8809 86.866C79.8529 86.866 79.7829 86.894 79.6709 86.95C79.5869 86.978 79.5029 87.02 79.4189 87.076H79.3349C79.3069 87.076 79.2649 87.09 79.2089 87.118C79.1809 87.146 79.1389 87.16 79.0829 87.16C79.0269 87.16 78.9849 87.16 78.9569 87.16C78.9289 87.132 78.8869 87.132 78.8309 87.16C78.8029 87.16 78.7189 87.202 78.5789 87.286C78.4389 87.342 78.3129 87.398 78.2009 87.454C78.1449 87.398 78.0749 87.356 77.9909 87.328C77.9069 87.272 77.8229 87.244 77.7389 87.244H77.2349C77.1789 87.244 77.1369 87.272 77.1089 87.328C77.1089 87.384 77.0809 87.412 77.0249 87.412H76.1429L75.4289 87.37C75.4289 87.314 75.3869 87.272 75.3029 87.244C75.2469 87.188 75.1909 87.174 75.1349 87.202C75.0789 87.202 75.0509 87.216 75.0509 87.244C75.0789 87.244 75.0649 87.244 75.0089 87.244C74.9529 87.244 74.8829 87.202 74.7989 87.118C74.7149 87.034 74.6449 86.978 74.5889 86.95L74.5049 87.034C74.4769 87.034 74.4209 87.034 74.3369 87.034C74.2529 87.034 74.1829 87.02 74.1269 86.992C74.0989 86.936 74.0429 86.88 73.9589 86.824C73.9029 86.768 73.8469 86.74 73.7909 86.74C73.7349 86.768 73.6649 86.824 73.5809 86.908C73.5249 86.992 73.4689 87.062 73.4129 87.118L72.6569 87.664C72.6289 87.692 72.6149 87.748 72.6149 87.832C72.5029 87.86 72.3629 87.944 72.1949 88.084C72.0269 88.224 71.8449 88.364 71.6489 88.504C71.6209 88.504 71.6209 88.504 71.6489 88.504C71.6769 88.532 71.6769 88.56 71.6489 88.588C71.5369 88.7 71.3829 88.854 71.1869 89.05C70.9909 89.246 70.8229 89.456 70.6829 89.68C70.3469 90.156 70.0249 90.576 69.7169 90.94C69.4369 91.332 69.1849 91.808 68.9609 92.368C68.8489 92.676 68.7649 92.956 68.7089 93.208C68.6529 93.488 68.6389 93.74 68.6669 93.964C68.6669 93.992 68.6669 94.048 68.6669 94.132C68.6669 94.216 68.6809 94.286 68.7089 94.342C68.8209 94.594 68.9049 94.818 68.9609 95.014C69.0449 95.21 69.2269 95.378 69.5069 95.518C69.5629 95.546 69.6329 95.546 69.7169 95.518C69.8009 95.518 69.8989 95.518 70.0109 95.518C70.0669 95.518 70.1369 95.532 70.2209 95.56C70.3329 95.616 70.4309 95.644 70.5149 95.644C70.5149 95.756 70.5429 95.84 70.5989 95.896C70.4869 95.896 70.3469 95.91 70.1789 95.938C70.0389 95.966 69.9409 95.98 69.8849 95.98ZM73.7069 79.978C73.8749 79.978 74.0709 79.964 74.2949 79.936C74.5469 79.908 74.6869 79.894 74.7149 79.894C74.7709 79.894 74.9109 79.866 75.1349 79.81C75.3589 79.726 75.5129 79.67 75.5969 79.642C75.7649 79.586 75.9469 79.558 76.1429 79.558C76.3389 79.558 76.5209 79.544 76.6889 79.516C76.7729 79.488 76.8709 79.446 76.9829 79.39C77.1229 79.334 77.2069 79.306 77.2349 79.306C77.2909 79.306 77.3189 79.306 77.3189 79.306C77.3469 79.278 77.3749 79.25 77.4029 79.222C77.4589 79.222 77.5289 79.194 77.6129 79.138C77.7249 79.082 77.7949 79.054 77.8229 79.054C77.8789 79.026 77.9069 79.026 77.9069 79.054C77.9069 79.082 77.9209 79.082 77.9489 79.054C78.0049 79.054 78.1449 78.984 78.3689 78.844C78.5929 78.704 78.8169 78.564 79.0409 78.424C79.2649 78.284 79.3909 78.214 79.4189 78.214C79.4749 78.214 79.5589 78.2 79.6709 78.172C79.7829 78.116 79.8809 78.088 79.9649 78.088C79.9369 78.004 79.9229 77.948 79.9229 77.92C79.9509 77.892 79.9789 77.864 80.0069 77.836L80.0909 77.92C80.0909 77.864 80.1189 77.808 80.1749 77.752C80.2309 77.752 80.2729 77.752 80.3009 77.752C80.3569 77.724 80.3849 77.71 80.3849 77.71C80.6929 77.486 80.8889 77.318 80.9729 77.206C81.0569 77.094 81.1549 76.982 81.2669 76.87C81.2949 76.814 81.3089 76.758 81.3089 76.702C81.3089 76.646 81.3229 76.604 81.3509 76.576C81.4069 76.464 81.4769 76.38 81.5609 76.324C81.6449 76.24 81.7009 76.17 81.7289 76.114C81.7849 76.058 81.7989 76.016 81.7709 75.988C81.7709 75.932 81.7849 75.89 81.8129 75.862C81.8129 75.862 81.8129 75.848 81.8129 75.82C81.8129 75.792 81.7989 75.764 81.7709 75.736C81.7989 75.652 81.8129 75.554 81.8129 75.442C81.8409 75.33 81.8689 75.246 81.8969 75.19C81.7849 75.19 81.7289 75.148 81.7289 75.064C81.7289 75.036 81.7289 75.022 81.7289 75.022C81.7569 74.994 81.7709 74.966 81.7709 74.938L81.6449 74.77C81.5889 74.714 81.4909 74.644 81.3509 74.56C81.2389 74.448 81.1549 74.392 81.0989 74.392L80.6789 74.476C80.6509 74.476 80.6369 74.49 80.6369 74.518C80.6369 74.546 80.6089 74.574 80.5529 74.602C80.5249 74.602 80.4829 74.602 80.4269 74.602C80.3989 74.574 80.3569 74.56 80.3009 74.56C80.2449 74.56 80.2309 74.574 80.2589 74.602C80.3149 74.63 80.3149 74.644 80.2589 74.644C80.1469 74.644 80.0629 74.686 80.0069 74.77L79.8809 74.686C79.7689 74.714 79.6429 74.742 79.5029 74.77C79.3629 74.798 79.2509 74.84 79.1669 74.896C79.1389 74.924 79.0969 74.98 79.0409 75.064C79.0129 75.148 78.9709 75.19 78.9149 75.19C78.8589 75.19 78.8449 75.176 78.8729 75.148C78.9009 75.092 78.8869 75.078 78.8309 75.106C78.8029 75.106 78.6909 75.162 78.4949 75.274C78.3269 75.358 78.1869 75.428 78.0749 75.484C77.8509 75.596 77.6129 75.736 77.3609 75.904C77.1089 76.072 76.8709 76.24 76.6469 76.408C76.5909 76.548 76.4789 76.688 76.3109 76.828L76.1009 76.912C76.0449 76.968 75.9469 77.066 75.8069 77.206C75.6949 77.346 75.5689 77.444 75.4289 77.5C75.4009 77.556 75.3449 77.626 75.2609 77.71C75.1769 77.794 75.1069 77.864 75.0509 77.92C74.9669 78.032 74.8829 78.158 74.7989 78.298C74.7429 78.438 74.6449 78.55 74.5049 78.634C74.3929 78.83 74.2529 79.04 74.0849 79.264C73.9449 79.46 73.8049 79.628 73.6649 79.768L73.7069 79.978ZM77.7809 86.95C77.7809 86.866 77.8089 86.824 77.8649 86.824C77.9209 86.824 77.9769 86.838 78.0329 86.866C78.1169 86.894 78.1729 86.894 78.2009 86.866C78.2569 86.866 78.4249 86.824 78.7049 86.74C78.9849 86.628 79.1389 86.572 79.1669 86.572C79.2229 86.544 79.2369 86.544 79.2089 86.572C79.2089 86.6 79.2369 86.6 79.2929 86.572C79.3489 86.572 79.4049 86.558 79.4609 86.53C79.5169 86.474 79.5589 86.446 79.5869 86.446C79.6429 86.446 79.6569 86.46 79.6289 86.488C79.6289 86.516 79.6569 86.53 79.7129 86.53C79.8249 86.502 80.0349 86.418 80.3429 86.278C80.6509 86.11 80.8329 86.012 80.8889 85.984C80.8889 85.872 80.9029 85.802 80.9309 85.774C81.0429 85.774 81.1689 85.774 81.3089 85.774C81.4489 85.746 81.5329 85.732 81.5609 85.732C81.6169 85.732 81.6449 85.732 81.6449 85.732C81.6729 85.704 81.7009 85.69 81.7289 85.69C81.7849 85.69 81.8549 85.662 81.9389 85.606C82.0229 85.522 82.0929 85.466 82.1489 85.438C82.1769 85.382 82.1769 85.34 82.1489 85.312C82.1489 85.256 82.1489 85.214 82.1489 85.186C82.2049 85.13 82.2609 85.088 82.3169 85.06C82.4009 85.004 82.4569 84.976 82.4849 84.976C82.5409 84.976 82.5689 84.99 82.5689 85.018C82.5689 85.046 82.5969 85.06 82.6529 85.06C82.7649 85.06 82.8349 85.046 82.8629 85.018C82.9189 84.962 82.9749 84.92 83.0309 84.892C83.0869 84.836 83.1429 84.808 83.1989 84.808C83.2549 84.78 83.2829 84.78 83.2829 84.808C83.3109 84.836 83.3389 84.836 83.3669 84.808C83.4229 84.808 83.5069 84.752 83.6189 84.64C83.7589 84.528 83.8709 84.444 83.9549 84.388L84.5429 83.716C84.6549 83.716 84.7809 83.73 84.9209 83.758C85.0889 83.786 85.2149 83.772 85.2989 83.716V83.59C85.2989 83.562 85.2989 83.548 85.2989 83.548C85.3269 83.548 85.3409 83.534 85.3409 83.506C85.3969 83.31 85.4529 83.198 85.5089 83.17L85.8449 83.002C85.8729 83.03 85.8869 83.058 85.8869 83.086C85.9429 82.946 86.0829 82.806 86.3069 82.666C86.5309 82.498 86.6989 82.386 86.8109 82.33C86.7829 82.274 86.7689 82.218 86.7689 82.162C86.7969 82.106 86.8669 82.078 86.9789 82.078C86.9789 82.05 86.9649 82.036 86.9369 82.036C86.9369 82.008 86.9369 81.98 86.9369 81.952C86.9369 81.728 87.0489 81.56 87.2729 81.448V81.322H87.3149C87.4549 81.322 87.5529 81.252 87.6089 81.112C87.6929 80.944 87.7629 80.804 87.8189 80.692C87.8749 80.692 87.9169 80.678 87.9449 80.65C88.0009 80.622 88.0429 80.608 88.0709 80.608C88.0709 80.552 88.0709 80.51 88.0709 80.482C88.0989 80.454 88.1129 80.426 88.1129 80.398C88.1689 80.37 88.2249 80.328 88.2809 80.272C88.3369 80.188 88.3929 80.132 88.4489 80.104C88.3929 79.992 88.3649 79.922 88.3649 79.894V79.516C88.3929 79.432 88.4349 79.348 88.4909 79.264C88.5469 79.18 88.5889 79.124 88.6169 79.096C88.5889 79.068 88.5749 79.04 88.5749 79.012C88.5749 78.984 88.5749 78.97 88.5749 78.97C88.4629 79.082 88.3789 79.152 88.3229 79.18C88.2949 79.124 88.2949 79.082 88.3229 79.054C88.3509 78.998 88.3509 78.97 88.3229 78.97C88.2949 78.97 88.2669 78.97 88.2389 78.97C88.2389 78.942 88.2389 78.928 88.2389 78.928L88.3229 78.802C88.4069 78.886 88.4769 78.928 88.5329 78.928C88.5609 78.844 88.5889 78.76 88.6169 78.676C88.6449 78.564 88.6589 78.48 88.6589 78.424C88.6869 78.424 88.7009 78.424 88.7009 78.424C88.7289 78.396 88.7429 78.382 88.7429 78.382C88.7149 78.354 88.6869 78.312 88.6589 78.256C88.6589 78.172 88.6449 78.116 88.6169 78.088V78.214C88.5049 78.046 88.4629 77.92 88.4909 77.836C88.4629 77.808 88.4209 77.766 88.3649 77.71C88.3089 77.654 88.2669 77.626 88.2389 77.626C88.1829 77.626 88.1689 77.64 88.1969 77.668C88.2249 77.668 88.2109 77.668 88.1549 77.668C88.0709 77.668 88.0009 77.64 87.9449 77.584C87.9169 77.556 87.8889 77.556 87.8609 77.584C87.6929 77.696 87.5249 77.794 87.3569 77.878C87.1889 77.934 87.0349 78.018 86.8949 78.13C86.7829 78.186 86.6429 78.284 86.4749 78.424C86.3349 78.564 86.1949 78.662 86.0549 78.718C85.9709 78.746 85.8729 78.788 85.7609 78.844C85.6489 78.9 85.5649 78.956 85.5089 79.012L85.2149 79.306C85.0189 79.418 84.8089 79.53 84.5849 79.642C84.3609 79.726 84.1649 79.838 83.9969 79.978C83.9409 80.034 83.8289 80.132 83.6609 80.272C83.4929 80.384 83.3669 80.44 83.2829 80.44L83.1569 80.608C82.9889 80.664 82.8629 80.734 82.7789 80.818C82.7509 80.846 82.7089 80.888 82.6529 80.944C82.6249 80.972 82.5969 80.986 82.5689 80.986C82.5129 81.042 82.4429 81.07 82.3589 81.07C82.3029 81.07 82.2469 81.098 82.1909 81.154C81.9389 81.266 81.6729 81.434 81.3929 81.658C81.1129 81.854 80.6929 82.106 80.1329 82.414C79.9929 82.498 79.8949 82.596 79.8389 82.708C79.8109 82.708 79.7969 82.708 79.7969 82.708C79.7969 82.68 79.7969 82.666 79.7969 82.666C79.7409 82.778 79.6849 82.834 79.6289 82.834L78.7469 83.38C78.6909 83.38 78.6769 83.38 78.7049 83.38C78.7329 83.352 78.7189 83.338 78.6629 83.338C78.6069 83.338 78.5649 83.38 78.5369 83.464C78.5369 83.52 78.5089 83.562 78.4529 83.59C78.2289 83.702 77.9209 83.884 77.5289 84.136C77.1649 84.36 76.8709 84.57 76.6469 84.766C76.5629 84.766 76.5069 84.78 76.4789 84.808C76.2269 85.06 75.9889 85.256 75.7649 85.396C75.7089 85.424 75.6249 85.466 75.5129 85.522C75.4289 85.55 75.3449 85.592 75.2609 85.648C75.2609 85.704 75.1629 85.788 74.9669 85.9C74.7989 86.012 74.6869 86.082 74.6309 86.11C74.6029 86.138 74.5469 86.166 74.4629 86.194C74.4069 86.222 74.3509 86.25 74.2949 86.278C74.3789 86.418 74.5189 86.516 74.7149 86.572C74.9389 86.628 75.1209 86.684 75.2609 86.74C75.3729 86.768 75.5969 86.81 75.9329 86.866C76.2689 86.894 76.5069 86.908 76.6469 86.908C76.7029 86.908 76.7589 86.894 76.8149 86.866C76.8989 86.81 76.9549 86.782 76.9829 86.782C77.0389 86.782 77.1509 86.796 77.3189 86.824C77.4869 86.852 77.6129 86.88 77.6969 86.908C77.7249 86.908 77.7389 86.922 77.7389 86.95C77.7669 86.95 77.7809 86.95 77.7809 86.95ZM110.25 89.554C110.082 89.498 109.9 89.456 109.704 89.428C109.536 89.4 109.354 89.358 109.158 89.302L109.368 89.428C109.256 89.428 109.144 89.4 109.032 89.344C108.948 89.316 108.864 89.316 108.78 89.344L107.982 89.134L107.94 89.092C107.828 88.98 107.716 88.882 107.604 88.798C107.492 88.714 107.338 88.7 107.142 88.756C107.198 88.784 107.254 88.798 107.31 88.798C107.366 88.798 107.408 88.826 107.436 88.882H107.352C107.24 88.882 107.156 88.854 107.1 88.798C107.044 88.742 106.974 88.686 106.89 88.63C106.47 88.378 106.092 88.084 105.756 87.748V87.706C105.644 87.566 105.56 87.426 105.504 87.286C105.448 87.118 105.35 86.992 105.21 86.908H105.168C105.084 86.74 105 86.558 104.916 86.362C104.86 86.138 104.804 85.928 104.748 85.732C104.748 85.648 104.734 85.578 104.706 85.522C104.706 85.438 104.706 85.354 104.706 85.27C104.706 85.158 104.706 85.06 104.706 84.976C104.734 84.864 104.762 84.752 104.79 84.64C104.65 84.696 104.58 84.654 104.58 84.514C104.552 84.206 104.538 83.898 104.538 83.59C104.566 83.282 104.608 82.946 104.664 82.582L104.79 81.952C104.846 81.812 104.93 81.714 105.042 81.658C105.154 81.602 105.196 81.504 105.168 81.364C105.14 81.364 105.112 81.378 105.084 81.406C105.056 81.434 105.014 81.448 104.958 81.448C104.958 81.448 104.944 81.448 104.916 81.448C104.916 81.42 104.916 81.392 104.916 81.364H104.958V81.322C104.93 81.294 104.93 81.28 104.958 81.28C104.986 81.28 104.986 81.266 104.958 81.238V81.196C104.958 81.056 105 80.916 105.084 80.776C105.168 80.608 105.238 80.44 105.294 80.272C105.35 80.132 105.434 80.006 105.546 79.894C105.686 79.782 105.728 79.642 105.672 79.474H105.546C105.63 79.418 105.672 79.362 105.672 79.306L105.714 79.264L106.134 78.382H106.176C106.4 78.382 106.498 78.326 106.47 78.214C106.47 78.102 106.47 77.976 106.47 77.836V77.794L106.806 77.248C106.974 77.164 107.086 77.038 107.142 76.87C107.198 76.674 107.282 76.52 107.394 76.408C107.45 76.268 107.534 76.156 107.646 76.072C107.758 75.96 107.856 75.834 107.94 75.694C108.108 75.47 108.276 75.26 108.444 75.064C108.612 74.84 108.794 74.63 108.99 74.434C109.13 74.378 109.228 74.308 109.284 74.224C109.34 74.14 109.41 74.042 109.494 73.93C109.494 73.902 109.494 73.888 109.494 73.888C109.522 73.888 109.536 73.874 109.536 73.846C109.62 73.734 109.732 73.664 109.872 73.636C110.012 73.608 110.11 73.524 110.166 73.384C110.222 73.244 110.306 73.118 110.418 73.006C110.642 72.782 110.88 72.572 111.132 72.376C111.384 72.152 111.636 71.942 111.888 71.746C112.056 71.718 112.182 71.69 112.266 71.662C112.35 71.606 112.392 71.494 112.392 71.326H112.434C112.742 71.102 113.05 70.892 113.358 70.696C113.666 70.5 113.96 70.318 114.24 70.15C114.464 70.01 114.674 69.884 114.87 69.772C115.094 69.66 115.304 69.548 115.5 69.436H115.626C115.738 69.436 115.822 69.408 115.878 69.352C115.934 69.296 116.004 69.226 116.088 69.142H116.13C118.202 68.218 120.12 67.756 121.884 67.756C122.108 67.756 122.346 67.77 122.598 67.798C122.85 67.798 123.088 67.812 123.312 67.84C124.628 68.008 125.622 68.442 126.294 69.142C126.966 69.814 127.302 70.556 127.302 71.368C127.302 71.648 127.26 71.942 127.176 72.25C127.456 72.054 127.708 71.858 127.932 71.662C128.156 71.466 128.338 71.242 128.478 70.99C128.534 70.906 128.604 70.878 128.688 70.906C128.772 70.906 128.786 70.948 128.73 71.032C128.646 71.284 128.464 71.564 128.184 71.872C127.904 72.152 127.596 72.404 127.26 72.628C127.26 72.656 127.19 72.754 127.05 72.922C126.91 73.062 126.854 73.16 126.882 73.216C126.882 73.244 126.84 73.3 126.756 73.384C126.7 73.44 126.658 73.496 126.63 73.552L126.336 73.93C126.336 73.93 126.336 73.944 126.336 73.972C126.336 73.972 126.322 73.986 126.294 74.014C126.294 74.014 126.238 74.042 126.126 74.098C126.07 74.154 125.986 74.252 125.874 74.392C125.79 74.532 125.678 74.63 125.538 74.686L125.37 74.77C125.342 74.798 125.314 74.84 125.286 74.896C125.258 74.924 125.216 74.966 125.16 75.022C125.048 75.134 124.838 75.274 124.53 75.442C124.25 75.582 124.04 75.708 123.9 75.82C123.9 75.82 123.872 75.834 123.816 75.862C123.76 75.89 123.69 75.932 123.606 75.988L123.48 76.03C123.452 76.03 123.396 76.058 123.312 76.114C123.256 76.17 123.214 76.212 123.186 76.24C123.158 76.268 123.116 76.282 123.06 76.282C123.032 76.282 122.99 76.31 122.934 76.366C122.906 76.394 122.864 76.408 122.808 76.408C122.752 76.408 122.696 76.436 122.64 76.492L122.01 76.66C121.982 76.688 121.898 76.744 121.758 76.828C121.646 76.884 121.576 76.912 121.548 76.912H121.464C121.436 76.912 121.408 76.926 121.38 76.954C121.38 76.982 121.352 76.996 121.296 76.996C121.268 77.024 121.226 77.038 121.17 77.038C121.142 77.01 121.1 77.01 121.044 77.038C121.016 77.038 120.974 77.066 120.918 77.122C120.89 77.15 120.862 77.164 120.834 77.164H120.708L120.456 77.29C120.344 77.318 120.218 77.332 120.078 77.332C119.966 77.332 119.84 77.36 119.7 77.416C119.672 77.416 119.616 77.402 119.532 77.374C119.476 77.346 119.42 77.332 119.364 77.332C119.112 77.416 118.86 77.458 118.608 77.458C118.58 77.486 118.552 77.486 118.524 77.458C118.524 77.43 118.51 77.416 118.482 77.416C118.454 77.416 118.44 77.43 118.44 77.458C118.44 77.458 118.426 77.458 118.398 77.458C118.398 77.458 118.356 77.458 118.272 77.458C118.216 77.43 118.174 77.402 118.146 77.374H118.104C118.048 77.374 118.006 77.36 117.978 77.332C117.95 77.304 117.922 77.29 117.894 77.29C117.894 77.29 117.894 77.304 117.894 77.332C117.894 77.332 117.88 77.332 117.852 77.332C117.824 77.332 117.796 77.318 117.768 77.29C117.712 77.29 117.614 77.276 117.474 77.248C117.362 77.192 117.292 77.15 117.264 77.122C117.18 77.15 117.096 77.122 117.012 77.038C116.956 76.982 116.928 76.968 116.928 76.996L116.634 76.87C116.634 76.842 116.62 76.828 116.592 76.828C116.592 76.8 116.592 76.786 116.592 76.786H116.508C116.452 76.73 116.41 76.702 116.382 76.702C116.354 76.618 116.326 76.562 116.298 76.534C116.27 76.506 116.228 76.464 116.172 76.408C116.172 76.296 116.158 76.24 116.13 76.24C116.13 76.184 116.088 76.1 116.004 75.988C115.948 75.848 115.92 75.722 115.92 75.61L115.878 75.568C115.766 75.456 115.738 75.26 115.794 74.98C115.822 74.84 115.808 74.784 115.752 74.812C115.696 74.812 115.71 74.728 115.794 74.56L116.004 74.14C116.004 74.112 115.99 74.098 115.962 74.098C115.934 74.07 115.934 74.042 115.962 74.014C115.962 73.986 115.962 73.972 115.962 73.972C115.99 73.944 116.004 73.916 116.004 73.888C116.032 73.86 116.046 73.804 116.046 73.72C116.046 73.664 116.06 73.622 116.088 73.594C116.088 73.566 116.116 73.51 116.172 73.426C116.256 73.314 116.312 73.244 116.34 73.216L116.592 72.922C116.62 72.894 116.662 72.866 116.718 72.838C116.774 72.81 116.816 72.768 116.844 72.712C116.9 72.656 116.956 72.628 117.012 72.628C117.096 72.6 117.152 72.558 117.18 72.502C117.264 72.362 117.362 72.292 117.474 72.292H117.558C117.67 72.292 117.726 72.32 117.726 72.376C117.726 72.516 117.642 72.628 117.474 72.712C117.362 72.824 117.306 72.88 117.306 72.88C117.306 72.852 117.264 72.88 117.18 72.964C117.18 72.992 117.152 73.006 117.096 73.006C117.068 73.006 117.054 73.034 117.054 73.09C117.026 73.09 117.026 73.104 117.054 73.132C117.082 73.16 117.082 73.202 117.054 73.258C117.054 73.37 117.054 73.426 117.054 73.426C117.026 73.454 117.026 73.496 117.054 73.552C117.082 73.58 117.082 73.622 117.054 73.678C117.026 73.678 116.998 73.692 116.97 73.72L116.928 74.308C116.928 74.308 116.942 74.392 116.97 74.56C116.998 74.7 116.998 74.784 116.97 74.812V75.022C116.97 75.106 117.096 75.19 117.348 75.274C117.376 75.302 117.404 75.316 117.432 75.316C117.488 75.288 117.53 75.288 117.558 75.316C117.922 75.428 118.16 75.512 118.272 75.568C118.384 75.596 118.636 75.61 119.028 75.61H119.364C119.504 75.61 119.63 75.596 119.742 75.568C119.77 75.568 119.77 75.582 119.742 75.61C119.742 75.61 119.756 75.61 119.784 75.61L120.288 75.526C120.316 75.498 120.344 75.484 120.372 75.484C120.4 75.456 120.428 75.456 120.456 75.484C120.484 75.484 120.512 75.484 120.54 75.484L121.464 75.232C121.632 75.176 121.786 75.12 121.926 75.064C122.094 74.98 122.262 74.924 122.43 74.896C122.682 74.84 122.948 74.742 123.228 74.602C123.508 74.434 123.788 74.294 124.068 74.182C124.068 74.154 124.194 74.07 124.446 73.93C124.726 73.79 125.02 73.636 125.328 73.468L125.454 73.048C125.51 72.908 125.594 72.838 125.706 72.838C125.818 72.81 125.902 72.754 125.958 72.67C125.874 72.614 125.804 72.572 125.748 72.544C125.692 72.516 125.692 72.446 125.748 72.334V72.292L125.958 71.62C126.07 71.284 126.126 70.962 126.126 70.654C126.126 69.954 125.86 69.45 125.328 69.142C124.796 68.834 124.166 68.68 123.438 68.68C123.326 68.68 123.2 68.68 123.06 68.68C122.948 68.68 122.822 68.694 122.682 68.722C122.43 68.75 122.178 68.792 121.926 68.848C121.674 68.904 121.408 68.96 121.128 69.016H121.044C120.932 69.016 120.834 69.044 120.75 69.1C120.666 69.128 120.582 69.17 120.498 69.226C120.106 69.338 119.672 69.492 119.196 69.688C118.944 69.744 118.762 69.828 118.65 69.94C118.538 69.996 118.468 70.024 118.44 70.024V70.066C118.272 70.122 118.132 70.15 118.02 70.15C117.964 70.15 117.894 70.15 117.81 70.15C117.726 70.122 117.642 70.108 117.558 70.108C117.614 70.136 117.656 70.15 117.684 70.15C117.712 70.15 117.74 70.164 117.768 70.192C117.796 70.276 117.768 70.332 117.684 70.36C117.628 70.388 117.586 70.43 117.558 70.486H117.516C117.488 70.514 117.432 70.542 117.348 70.57C117.292 70.598 117.236 70.64 117.18 70.696C116.928 70.724 116.704 70.808 116.508 70.948C116.34 71.088 116.186 71.242 116.046 71.41H116.004L115.038 72.082C114.814 72.194 114.618 72.334 114.45 72.502C114.086 72.782 113.722 73.076 113.358 73.384C112.994 73.692 112.63 74 112.266 74.308H112.182C112.042 74.308 111.958 74.35 111.93 74.434C111.93 74.49 111.902 74.588 111.846 74.728H111.804C111.72 74.84 111.622 74.938 111.51 75.022C111.398 75.05 111.328 75.106 111.3 75.19C111.272 75.274 111.216 75.358 111.132 75.442L110.838 75.736C110.726 75.708 110.6 75.666 110.46 75.61C110.348 75.526 110.222 75.484 110.082 75.484C110.082 75.484 110.068 75.498 110.04 75.526C110.04 75.526 110.04 75.554 110.04 75.61C110.208 75.638 110.348 75.708 110.46 75.82C110.572 75.932 110.558 76.058 110.418 76.198L110.334 76.282C110.222 76.394 110.082 76.436 109.914 76.408C109.774 76.38 109.648 76.436 109.536 76.576C109.592 76.604 109.662 76.618 109.746 76.618C109.83 76.618 109.872 76.688 109.872 76.828C109.732 76.996 109.592 77.164 109.452 77.332C109.34 77.5 109.214 77.668 109.074 77.836C108.962 77.948 108.864 78.074 108.78 78.214C108.696 78.326 108.584 78.424 108.444 78.508C108.416 78.536 108.402 78.578 108.402 78.634C108.43 78.662 108.43 78.69 108.402 78.718V78.76L107.772 79.768C107.632 79.852 107.52 79.936 107.436 80.02C107.352 80.104 107.31 80.23 107.31 80.398C107.422 80.286 107.478 80.244 107.478 80.272V80.314C107.478 80.37 107.45 80.426 107.394 80.482C107.338 80.51 107.296 80.552 107.268 80.608L107.058 81.112C106.778 81.756 106.582 82.33 106.47 82.834C106.302 83.366 106.218 83.87 106.218 84.346C106.19 84.458 106.134 84.57 106.05 84.682C105.994 84.766 106.008 84.864 106.092 84.976C106.148 85.032 106.19 85.074 106.218 85.102C106.246 85.102 106.26 85.158 106.26 85.27C106.26 85.41 106.274 85.508 106.302 85.564V85.69C106.302 85.774 106.274 85.858 106.218 85.942C106.162 86.026 106.148 86.11 106.176 86.194C106.204 86.222 106.26 86.236 106.344 86.236C106.428 86.208 106.484 86.222 106.512 86.278L106.764 86.74C106.848 86.796 106.904 86.88 106.932 86.992C106.96 87.104 106.988 87.188 107.016 87.244C107.072 87.3 107.142 87.356 107.226 87.412C107.31 87.44 107.366 87.496 107.394 87.58C107.394 87.608 107.38 87.636 107.352 87.664C107.352 87.664 107.352 87.692 107.352 87.748C107.492 87.692 107.506 87.58 107.394 87.412C107.562 87.524 107.562 87.636 107.394 87.748C107.45 87.748 107.506 87.748 107.562 87.748C107.618 87.72 107.674 87.706 107.73 87.706C107.842 87.706 107.954 87.748 108.066 87.832C108.514 88.056 109.018 88.21 109.578 88.294C110.166 88.406 110.796 88.462 111.468 88.462C112.224 88.462 113.036 88.392 113.904 88.252C114.772 88.14 115.64 87.986 116.508 87.79V87.748C116.564 87.748 116.606 87.762 116.634 87.79C116.662 87.79 116.69 87.79 116.718 87.79C116.858 87.79 116.984 87.734 117.096 87.622L117.558 87.496C117.782 87.356 117.992 87.244 118.188 87.16C118.384 87.076 118.594 87.062 118.818 87.118C118.874 87.146 118.874 87.174 118.818 87.202C118.79 87.202 118.776 87.23 118.776 87.286C118.832 87.258 118.874 87.216 118.902 87.16C118.93 87.104 118.972 87.062 119.028 87.034L119.28 86.95C119.476 86.922 119.644 86.88 119.784 86.824C119.924 86.74 120.078 86.67 120.246 86.614L120.708 86.446C120.764 86.474 120.82 86.488 120.876 86.488C120.988 86.488 121.072 86.46 121.128 86.404C121.184 86.32 121.268 86.236 121.38 86.152C121.408 86.152 121.478 86.124 121.59 86.068C121.73 86.012 121.884 85.97 122.052 85.942C122.22 85.886 122.36 85.802 122.472 85.69H122.514C122.934 85.494 123.34 85.298 123.732 85.102C124.124 84.906 124.502 84.71 124.866 84.514L126 83.884C126.14 83.772 126.252 83.674 126.336 83.59C126.42 83.506 126.532 83.464 126.672 83.464L126.714 83.422C126.91 83.226 127.12 83.072 127.344 82.96C127.568 82.82 127.75 82.68 127.89 82.54C128.114 82.344 128.282 82.246 128.394 82.246C128.478 82.246 128.52 82.302 128.52 82.414C128.52 82.554 128.436 82.708 128.268 82.876C128.016 83.1 127.736 83.352 127.428 83.632C127.12 83.912 126.77 84.206 126.378 84.514C126.238 84.626 126.084 84.696 125.916 84.724C125.776 84.752 125.678 84.85 125.622 85.018C125.454 85.13 125.272 85.242 125.076 85.354C124.908 85.466 124.712 85.578 124.488 85.69C124.236 85.83 123.97 85.97 123.69 86.11C123.438 86.25 123.158 86.39 122.85 86.53C122.766 86.53 122.668 86.53 122.556 86.53C122.472 86.502 122.388 86.488 122.304 86.488C122.108 86.488 121.968 86.53 121.884 86.614C121.884 86.614 121.884 86.628 121.884 86.656C121.884 86.656 121.898 86.684 121.926 86.74C121.982 86.74 122.038 86.74 122.094 86.74C122.15 86.712 122.206 86.712 122.262 86.74C122.262 86.74 122.262 86.754 122.262 86.782C122.262 86.81 122.234 86.824 122.178 86.824C122.066 86.88 121.982 86.908 121.926 86.908V86.95L121.632 87.076H121.59C121.478 87.188 121.394 87.16 121.338 86.992C121.254 87.02 121.17 87.076 121.086 87.16C121.03 87.244 120.96 87.314 120.876 87.37L120.582 87.496C120.47 87.524 120.358 87.552 120.246 87.58C120.134 87.58 120.05 87.622 119.994 87.706H119.952C119.84 87.762 119.7 87.818 119.532 87.874C119.392 87.902 119.252 87.944 119.112 88V88.042H118.902C118.762 88.042 118.608 88.028 118.44 88C118.272 87.944 118.104 87.916 117.936 87.916C117.992 88 118.09 88.042 118.23 88.042C118.37 88.07 118.412 88.14 118.356 88.252C118.356 88.28 118.342 88.294 118.314 88.294L117.222 88.588V88.63C117.11 88.658 116.984 88.672 116.844 88.672C116.732 88.7 116.62 88.742 116.508 88.798C115.416 89.078 114.338 89.274 113.274 89.386C112.21 89.498 111.216 89.554 110.292 89.554H110.25ZM119.28 77.038C119.308 77.01 119.364 76.996 119.448 76.996C119.56 76.968 119.644 76.94 119.7 76.912L120.624 76.828C120.652 76.828 120.68 76.814 120.708 76.786C120.736 76.758 120.764 76.744 120.792 76.744C120.82 76.716 120.862 76.702 120.918 76.702C121.058 76.59 121.128 76.576 121.128 76.66C121.128 76.716 121.184 76.702 121.296 76.618C121.324 76.59 121.366 76.576 121.422 76.576C121.478 76.52 121.52 76.492 121.548 76.492C121.604 76.464 121.646 76.436 121.674 76.408C121.73 76.38 121.758 76.366 121.758 76.366C121.758 76.338 121.786 76.324 121.842 76.324H121.884C121.94 76.324 122.038 76.282 122.178 76.198C122.318 76.114 122.388 76.072 122.388 76.072C122.416 76.072 122.444 76.044 122.472 75.988C122.528 75.932 122.57 75.904 122.598 75.904C122.626 75.876 122.668 75.862 122.724 75.862C122.78 75.834 122.808 75.806 122.808 75.778C122.864 75.75 122.92 75.722 122.976 75.694C123.032 75.666 123.074 75.652 123.102 75.652C123.13 75.624 123.186 75.582 123.27 75.526C123.382 75.47 123.438 75.428 123.438 75.4C123.494 75.344 123.55 75.302 123.606 75.274C123.69 75.246 123.746 75.218 123.774 75.19C123.858 75.162 124.054 75.022 124.362 74.77C124.67 74.49 124.936 74.168 125.16 73.804C125.216 73.748 125.09 73.818 124.782 74.014C124.502 74.182 124.348 74.28 124.32 74.308C124.292 74.308 124.236 74.35 124.152 74.434C124.068 74.49 124.012 74.518 123.984 74.518L123.9 74.602H123.774L123.732 74.644C123.732 74.644 123.676 74.672 123.564 74.728C123.536 74.728 123.48 74.756 123.396 74.812C123.312 74.868 123.256 74.896 123.228 74.896C123.2 74.896 123.172 74.91 123.144 74.938C123.116 74.938 123.088 74.938 123.06 74.938C122.948 75.022 122.78 75.106 122.556 75.19C122.36 75.274 122.22 75.316 122.136 75.316H122.094C122.038 75.316 121.982 75.344 121.926 75.4L121.884 75.442L121.674 75.484C121.618 75.512 121.548 75.54 121.464 75.568C121.38 75.596 121.31 75.61 121.254 75.61C121.226 75.638 121.212 75.652 121.212 75.652C121.212 75.624 121.212 75.61 121.212 75.61C121.156 75.666 121.086 75.694 121.002 75.694C120.974 75.694 120.96 75.694 120.96 75.694C120.96 75.666 120.946 75.652 120.918 75.652C120.89 75.652 120.834 75.694 120.75 75.778H120.54C120.54 75.806 120.512 75.82 120.456 75.82H120.414C120.386 75.82 120.344 75.834 120.288 75.862C120.232 75.89 120.19 75.904 120.162 75.904C120.134 75.904 120.12 75.918 120.12 75.946C120.12 75.946 120.106 75.946 120.078 75.946C120.078 75.918 120.064 75.904 120.036 75.904H119.994L119.742 75.988H119.616C119.532 75.988 119.434 75.974 119.322 75.946C119.238 75.918 119.14 75.918 119.028 75.946C119 75.946 118.986 75.96 118.986 75.988C118.986 75.988 118.972 75.988 118.944 75.988H118.86C118.86 75.988 118.846 75.988 118.818 75.988C118.818 75.988 118.804 76.002 118.776 76.03C118.776 76.002 118.762 75.988 118.734 75.988H118.482C118.482 75.96 118.468 75.946 118.44 75.946C118.412 75.946 118.384 75.96 118.356 75.988C118.328 75.988 118.3 75.988 118.272 75.988C118.104 75.988 117.978 75.932 117.894 75.82C117.81 75.708 117.656 75.68 117.432 75.736C117.432 75.708 117.418 75.694 117.39 75.694C117.362 75.666 117.348 75.638 117.348 75.61H117.306C117.25 75.666 117.222 75.708 117.222 75.736C117.194 75.764 117.194 75.806 117.222 75.862C117.278 75.89 117.292 75.932 117.264 75.988C117.292 76.016 117.306 76.058 117.306 76.114C117.334 76.142 117.362 76.156 117.39 76.156C117.39 76.24 117.432 76.324 117.516 76.408C117.516 76.436 117.53 76.464 117.558 76.492C117.614 76.52 117.628 76.534 117.6 76.534C117.628 76.562 117.656 76.576 117.684 76.576C117.712 76.576 117.726 76.604 117.726 76.66L117.852 76.786H117.894C118.146 76.898 118.398 76.982 118.65 77.038C118.93 77.066 119.14 77.066 119.28 77.038Z" fill="#D2B646"/>
</svg>
