<svg width="161" height="161" viewBox="0 0 161 161" fill="none" xmlns="http://www.w3.org/2000/svg">
<path d="M154.939 69.8256L154.911 69.9847L154.982 70.1299L160.161 80.7669L154.982 91.402L154.911 91.5472L154.939 91.7063L156.962 103.383L149.019 112.106L148.91 112.225L148.892 112.386L147.556 124.162L137.499 130.264L137.359 130.349L137.297 130.499L132.741 141.421L121.396 144.43L121.237 144.472L121.134 144.599L113.726 153.786L102.003 153.437L101.839 153.432L101.704 153.526L92.023 160.214L80.8733 156.532L80.7165 156.48L80.5597 156.532L69.411 160.214L59.7299 153.526L59.5948 153.432L59.4308 153.437L47.7092 153.787L40.3005 144.6L40.1977 144.473L40.0395 144.431L28.694 141.423L24.1374 130.501L24.0746 130.351L23.9353 130.266L13.8782 124.165L12.5424 112.389L12.5241 112.228L12.4152 112.109L4.47218 103.386L6.49546 91.7093L6.52302 91.5502L6.45234 91.405L1.27313 80.768L6.45234 70.1309L6.52302 69.9857L6.49546 69.8266L4.47218 58.1502L12.4152 49.4283L12.5241 49.3087L12.5424 49.148L13.8773 37.3723L23.9343 31.2695L24.0737 31.185L24.1364 31.0345L28.692 20.1133L40.0375 17.1039L40.1958 17.0619L40.2985 16.9345L47.7073 7.74812L59.4298 8.0966L59.5938 8.10147L59.7289 8.00819L69.41 1.31978L80.5597 5.002L80.7165 5.05379L80.8733 5.002L92.022 1.31978L101.703 8.00819L101.838 8.10148L102.002 8.09659L113.725 7.74716L121.134 16.9335L121.236 17.061L121.395 17.1029L132.74 20.1113L137.297 31.0326L137.359 31.183L137.499 31.2675L147.556 37.3703L148.892 49.146L148.91 49.3067L149.019 49.4263L156.962 58.1492L154.939 69.8256ZM11.9898 80.767C11.9898 119.103 42.7552 150.188 80.7175 150.188C118.68 150.188 149.445 119.103 149.445 80.767C149.445 42.4312 118.68 11.3459 80.7175 11.3459C42.7552 11.3459 11.9898 42.4312 11.9898 80.767Z" fill="#D2B646" stroke="#D2B646"/>
</svg>
