<svg width="144" height="146" viewBox="0 0 144 146" fill="none" xmlns="http://www.w3.org/2000/svg">
<path d="M71.7175 139.093C107.98 139.093 137.376 109.398 137.376 72.767C137.376 36.136 107.98 6.44067 71.7175 6.44067C35.455 6.44067 6.05853 36.136 6.05853 72.767C6.05853 109.398 35.455 139.093 71.7175 139.093Z" stroke="#D2B646" stroke-miterlimit="10"/>
<path d="M33.77 88.4C33.686 88.372 33.602 88.344 33.518 88.316C33.434 88.316 33.336 88.316 33.224 88.316V88.274C33.112 88.274 33.014 88.246 32.93 88.19C32.846 88.162 32.776 88.176 32.72 88.232C32.524 88.148 32.314 88.106 32.09 88.106C31.866 88.106 31.656 88.05 31.46 87.938C31.376 87.966 31.166 87.91 30.83 87.77C30.522 87.658 30.284 87.588 30.116 87.56L30.032 87.476H29.864C29.752 87.364 29.682 87.322 29.654 87.35C29.57 87.238 29.472 87.154 29.36 87.098C29.276 87.042 29.192 86.986 29.108 86.93C29.052 86.874 29.01 86.818 28.982 86.762C28.954 86.706 28.898 86.692 28.814 86.72C28.814 86.664 28.688 86.524 28.436 86.3C28.212 86.076 28.058 85.908 27.974 85.796L27.848 85.754C27.596 85.558 27.456 85.39 27.428 85.25C27.4 85.138 27.344 85.012 27.26 84.872C27.176 84.732 26.91 84.536 26.462 84.284C26.35 84.144 26.196 84.004 26 83.864C25.804 83.724 25.692 83.584 25.664 83.444L25.622 83.192C25.706 83.22 25.86 83.346 26.084 83.57C26.308 83.822 26.532 84.018 26.756 84.158L26.84 84.242H26.966C26.966 84.158 26.966 84.088 26.966 84.032C26.994 83.976 27.008 83.934 27.008 83.906C27.008 83.71 26.98 83.612 26.924 83.612C26.896 83.612 26.854 83.556 26.798 83.444C26.798 83.416 26.798 83.388 26.798 83.36C26.826 83.332 26.84 83.304 26.84 83.276C26.812 83.22 26.77 83.15 26.714 83.066C26.686 83.01 26.686 82.94 26.714 82.856C26.714 82.8 26.728 82.744 26.756 82.688C26.812 82.66 26.854 82.632 26.882 82.604L26.924 82.1C26.924 82.044 26.952 81.988 27.008 81.932C27.064 81.876 27.078 81.82 27.05 81.764L27.344 81.26C27.372 81.204 27.372 81.148 27.344 81.092C27.344 81.064 27.358 81.036 27.386 81.008C27.442 80.952 27.484 80.868 27.512 80.756C27.54 80.672 27.61 80.602 27.722 80.546C27.778 80.49 27.834 80.434 27.89 80.378C27.946 80.322 28.03 80.28 28.142 80.252C28.226 80.14 28.38 80.056 28.604 80C28.66 79.972 28.702 79.972 28.73 80C28.758 80.056 28.744 80.126 28.688 80.21C28.52 80.35 28.394 80.434 28.31 80.462H28.226L28.1 80.756L27.974 80.84C27.974 80.896 28.016 80.952 28.1 81.008V81.176L27.596 81.974C27.624 82.058 27.638 82.17 27.638 82.31C27.638 82.422 27.624 82.52 27.596 82.604C27.596 82.716 27.582 82.828 27.554 82.94C27.554 82.968 27.54 82.982 27.512 82.982C27.512 83.01 27.512 83.052 27.512 83.108C27.512 83.192 27.526 83.29 27.554 83.402C27.582 83.542 27.596 83.654 27.596 83.738H27.722C27.75 83.766 27.778 83.794 27.806 83.822C27.834 83.85 27.848 83.892 27.848 83.948L27.806 83.99L27.974 84.326L27.932 84.41C27.932 84.438 27.946 84.466 27.974 84.494C28.03 84.522 28.072 84.55 28.1 84.578C28.072 84.662 28.114 84.76 28.226 84.872L28.31 84.956C28.506 85.068 28.674 85.138 28.814 85.166C28.954 85.222 29.136 85.278 29.36 85.334C29.892 85.502 30.34 85.614 30.704 85.67C31.068 85.726 31.446 85.754 31.838 85.754C32.006 85.754 32.188 85.754 32.384 85.754C32.608 85.754 32.832 85.74 33.056 85.712C33.308 85.712 33.728 85.698 34.316 85.67C34.932 85.642 35.352 85.586 35.576 85.502C35.604 85.502 35.618 85.488 35.618 85.46C35.646 85.432 35.674 85.418 35.702 85.418H35.786C36.094 85.418 36.374 85.362 36.626 85.25C36.906 85.166 37.186 85.096 37.466 85.04C37.69 84.956 37.914 84.858 38.138 84.746C38.39 84.634 38.642 84.55 38.894 84.494C39.09 84.438 39.356 84.326 39.692 84.158C40.028 84.018 40.35 83.85 40.658 83.654C40.994 83.486 41.218 83.346 41.33 83.234C41.526 83.178 41.764 83.052 42.044 82.856C42.324 82.66 42.59 82.45 42.842 82.226C43.094 82.002 43.248 81.82 43.304 81.68C43.444 81.68 43.528 81.582 43.556 81.386C43.584 81.218 43.598 81.106 43.598 81.05C43.738 80.882 43.794 80.784 43.766 80.756C43.738 80.728 43.738 80.658 43.766 80.546C43.822 80.462 43.892 80.364 43.976 80.252C44.06 80.14 44.074 80.042 44.018 79.958C44.074 79.902 44.116 79.846 44.144 79.79C44.2 79.734 44.256 79.692 44.312 79.664L44.564 79.538C44.62 79.482 44.634 79.426 44.606 79.37C44.606 79.286 44.69 79.174 44.858 79.034L44.9 78.866C44.9 78.81 44.928 78.754 44.984 78.698C45.18 78.306 45.362 77.83 45.53 77.27C45.726 76.71 45.922 76.29 46.118 76.01C46.202 75.87 46.258 75.716 46.286 75.548C46.342 75.352 46.384 75.17 46.412 75.002C46.468 74.89 46.566 74.792 46.706 74.708C46.846 74.624 46.888 74.526 46.832 74.414C46.748 74.414 46.706 74.358 46.706 74.246C46.706 74.106 46.762 73.952 46.874 73.784C46.986 73.588 47.028 73.448 47 73.364L47.462 72.146L46.58 72.86C46.468 72.944 46.37 73.014 46.286 73.07C46.202 73.098 46.104 73.14 45.992 73.196C45.824 73.308 45.684 73.448 45.572 73.616C45.46 73.756 45.32 73.896 45.152 74.036C44.704 74.4 44.214 74.736 43.682 75.044C43.178 75.352 42.674 75.66 42.17 75.968C41.974 76.08 41.75 76.234 41.498 76.43C41.246 76.598 40.98 76.71 40.7 76.766C40.532 76.822 40.378 76.878 40.238 76.934C40.098 76.962 39.958 77.06 39.818 77.228L39.398 77.396C39.314 77.312 39.23 77.27 39.146 77.27C39.034 77.27 38.936 77.312 38.852 77.396C38.796 77.452 38.74 77.522 38.684 77.606C38.46 77.802 38.012 78.012 37.34 78.236C36.696 78.46 36.206 78.614 35.87 78.698C35.758 78.67 35.506 78.726 35.114 78.866C34.722 78.978 34.414 79.02 34.19 78.992C34.05 78.88 33.924 78.824 33.812 78.824C33.7 78.824 33.574 78.894 33.434 79.034C32.538 79.118 31.656 79.006 30.788 78.698C29.948 78.39 29.22 77.942 28.604 77.354C27.988 76.766 27.582 76.094 27.386 75.338C27.414 75.254 27.428 75.156 27.428 75.044C27.428 74.876 27.372 74.722 27.26 74.582C27.232 74.442 27.204 74.288 27.176 74.12C27.176 73.952 27.176 73.784 27.176 73.616C27.176 72.72 27.316 71.824 27.596 70.928C27.904 70.004 28.268 69.164 28.688 68.408C28.996 68.24 29.15 68.016 29.15 67.736C29.766 66.784 30.48 65.916 31.292 65.132C31.516 65.076 31.684 65.006 31.796 64.922C31.936 64.81 31.992 64.656 31.964 64.46C32.272 64.236 32.566 63.998 32.846 63.746C33.154 63.494 33.448 63.27 33.728 63.074C34.036 63.018 34.246 62.85 34.358 62.57C34.75 62.318 35.156 62.094 35.576 61.898C35.996 61.674 36.43 61.464 36.878 61.268H36.962C37.102 61.268 37.214 61.24 37.298 61.184C37.382 61.1 37.48 61.016 37.592 60.932C37.62 60.904 37.746 60.848 37.97 60.764C38.222 60.652 38.474 60.554 38.726 60.47C39.006 60.386 39.188 60.33 39.272 60.302H39.398C39.566 60.302 39.762 60.246 39.986 60.134C40.518 59.966 41.26 59.812 42.212 59.672C43.164 59.504 44.046 59.42 44.858 59.42C45.054 59.42 45.236 59.434 45.404 59.462C45.6 59.462 45.768 59.476 45.908 59.504C46.048 59.532 46.118 59.574 46.118 59.63C46.146 59.686 46.174 59.728 46.202 59.756H46.286C46.342 59.756 46.398 59.742 46.454 59.714C46.51 59.658 46.58 59.63 46.664 59.63C46.804 59.63 46.972 59.658 47.168 59.714C47.392 59.742 47.56 59.784 47.672 59.84C47.728 59.98 47.812 60.064 47.924 60.092C48.064 60.092 48.19 60.134 48.302 60.218C48.554 60.358 48.764 60.54 48.932 60.764C49.1 60.96 49.184 61.184 49.184 61.436V61.73C49.184 62.01 49.128 62.234 49.016 62.402C48.932 62.542 48.834 62.612 48.722 62.612C48.526 62.612 48.428 62.444 48.428 62.108L48.26 61.394C48.26 61.254 48.218 61.142 48.134 61.058C48.05 60.974 47.952 60.876 47.84 60.764C47.812 60.596 47.714 60.512 47.546 60.512C47.406 60.512 47.252 60.498 47.084 60.47L46.958 60.302C46.818 60.246 46.664 60.204 46.496 60.176C46.356 60.148 46.188 60.12 45.992 60.092C45.908 60.008 45.796 59.966 45.656 59.966C45.516 59.966 45.362 60.008 45.194 60.092C44.438 60.12 43.71 60.274 43.01 60.554C42.982 60.554 42.94 60.568 42.884 60.596C42.856 60.596 42.814 60.596 42.758 60.596L42.338 60.554C42.254 60.554 42.142 60.596 42.002 60.68C41.918 60.708 41.876 60.75 41.876 60.806C41.876 60.862 41.848 60.918 41.792 60.974C41.596 61.114 41.358 61.226 41.078 61.31C40.798 61.366 40.546 61.45 40.322 61.562C40.238 61.59 40.154 61.632 40.07 61.688C40.014 61.716 39.958 61.758 39.902 61.814C39.762 61.898 39.594 61.982 39.398 62.066C39.23 62.122 39.062 62.192 38.894 62.276L38.936 62.108C38.628 62.22 38.376 62.402 38.18 62.654C38.04 62.766 37.914 62.836 37.802 62.864C37.69 62.864 37.564 62.864 37.424 62.864C37.396 62.892 37.382 62.948 37.382 63.032C37.41 63.088 37.396 63.144 37.34 63.2C37.032 63.48 36.626 63.732 36.122 63.956C35.646 64.18 35.268 64.446 34.988 64.754C34.848 64.922 34.596 65.132 34.232 65.384C33.868 65.608 33.574 65.832 33.35 66.056C33.21 66.168 32.958 66.406 32.594 66.77C32.23 67.134 31.838 67.54 31.418 67.988C30.998 68.436 30.634 68.856 30.326 69.248C30.018 69.64 29.864 69.906 29.864 70.046C29.584 70.494 29.318 70.984 29.066 71.516C28.814 72.048 28.674 72.566 28.646 73.07C28.618 73.21 28.548 73.308 28.436 73.364C28.352 73.42 28.31 73.504 28.31 73.616V73.658C28.31 73.714 28.366 73.742 28.478 73.742C28.59 73.714 28.632 73.77 28.604 73.91C28.604 73.966 28.604 74.064 28.604 74.204C28.632 74.316 28.646 74.442 28.646 74.582C28.646 75.002 28.59 75.226 28.478 75.254C28.45 75.282 28.436 75.324 28.436 75.38C28.436 75.492 28.506 75.562 28.646 75.59C28.814 75.59 28.926 75.646 28.982 75.758C29.346 76.374 29.808 76.822 30.368 77.102C30.956 77.354 31.6 77.508 32.3 77.564C32.384 77.592 32.412 77.648 32.384 77.732C32.384 77.788 32.468 77.816 32.636 77.816C32.692 77.816 32.762 77.816 32.846 77.816C32.93 77.788 33.028 77.76 33.14 77.732C33.196 77.76 33.252 77.788 33.308 77.816C33.364 77.844 33.406 77.858 33.434 77.858C33.546 77.858 33.644 77.788 33.728 77.648C33.784 77.62 33.994 77.578 34.358 77.522C34.722 77.466 34.904 77.438 34.904 77.438C34.988 77.55 35.086 77.606 35.198 77.606C35.254 77.606 35.324 77.578 35.408 77.522C35.492 77.438 35.562 77.382 35.618 77.354C36.822 77.046 37.984 76.696 39.104 76.304C39.216 76.332 39.468 76.248 39.86 76.052C40.28 75.856 40.56 75.73 40.7 75.674C40.84 75.702 41.05 75.632 41.33 75.464C41.61 75.268 41.806 75.142 41.918 75.086C42.086 75.058 42.226 75.002 42.338 74.918C42.478 74.834 42.604 74.764 42.716 74.708C42.8 74.736 42.996 74.652 43.304 74.456C43.64 74.26 43.99 74.022 44.354 73.742C44.746 73.434 45.096 73.168 45.404 72.944C45.74 72.692 45.95 72.524 46.034 72.44C46.118 72.356 46.23 72.286 46.37 72.23C46.51 72.174 46.622 72.104 46.706 72.02C46.762 71.964 46.874 71.824 47.042 71.6C47.21 71.376 47.378 71.166 47.546 70.97C47.714 70.746 47.812 70.606 47.84 70.55C48.26 69.738 48.792 69.122 49.436 68.702C50.08 68.254 50.906 68.03 51.914 68.03C52.082 68.03 52.264 68.044 52.46 68.072C52.656 68.072 52.852 68.086 53.048 68.114C53.216 68.114 53.3 68.156 53.3 68.24C53.3 68.408 53.16 68.492 52.88 68.492C52.32 68.52 51.816 68.744 51.368 69.164C50.948 69.556 50.598 70.018 50.318 70.55C50.066 71.054 49.856 71.502 49.688 71.894C49.66 71.922 49.604 72.048 49.52 72.272C49.436 72.468 49.394 72.58 49.394 72.608C49.282 72.72 49.142 72.832 48.974 72.944C48.806 73.056 48.834 73.21 49.058 73.406C48.946 73.602 48.792 73.84 48.596 74.12C48.4 74.372 48.344 74.61 48.428 74.834C48.288 75.142 48.106 75.422 47.882 75.674C47.686 75.898 47.616 76.192 47.672 76.556C47.672 76.556 47.56 76.808 47.336 77.312C47.112 77.816 46.888 78.306 46.664 78.782C46.804 78.558 47.028 78.306 47.336 78.026C47.644 77.718 47.896 77.508 48.092 77.396C48.288 77.284 48.428 77.228 48.512 77.228C48.596 77.228 48.638 77.27 48.638 77.354C48.638 77.662 48.456 77.942 48.092 78.194C48.008 78.25 47.798 78.432 47.462 78.74C47.126 79.048 46.804 79.356 46.496 79.664C46.188 79.972 46.02 80.154 45.992 80.21L45.908 80.252C45.768 80.364 45.586 80.546 45.362 80.798C45.166 81.05 45.082 81.26 45.11 81.428C45.082 81.428 44.942 81.582 44.69 81.89C44.466 82.226 44.326 82.422 44.27 82.478C44.242 82.506 44.228 82.548 44.228 82.604C44.256 82.66 44.242 82.716 44.186 82.772C44.158 82.828 44.116 82.884 44.06 82.94C44.004 82.996 43.948 83.052 43.892 83.108C43.92 83.22 43.906 83.276 43.85 83.276C43.794 83.304 43.738 83.346 43.682 83.402C43.57 83.514 43.486 83.654 43.43 83.822C43.402 83.99 43.318 84.13 43.178 84.242C43.15 84.27 43.108 84.284 43.052 84.284C42.996 84.284 42.954 84.298 42.926 84.326C42.87 84.382 42.828 84.452 42.8 84.536C42.772 84.62 42.744 84.69 42.716 84.746C42.632 84.886 42.436 85.068 42.128 85.292C41.82 85.544 41.596 85.754 41.456 85.922C41.344 85.95 41.19 86.034 40.994 86.174C40.91 86.202 40.742 86.286 40.49 86.426C40.266 86.594 40.14 86.706 40.112 86.762C40.056 86.79 39.972 86.804 39.86 86.804C39.776 86.832 39.706 86.874 39.65 86.93C39.482 87.21 39.174 87.392 38.726 87.476C38.698 87.476 38.67 87.49 38.642 87.518C38.614 87.546 38.572 87.574 38.516 87.602C38.46 87.63 38.376 87.644 38.264 87.644C38.096 87.644 37.998 87.672 37.97 87.728C37.942 87.784 37.872 87.826 37.76 87.854C37.48 87.91 37.2 87.98 36.92 88.064C36.64 88.176 36.332 88.232 35.996 88.232H35.912C35.856 88.232 35.772 88.218 35.66 88.19C35.576 88.19 35.506 88.19 35.45 88.19C35.254 88.19 35.03 88.218 34.778 88.274C34.526 88.358 34.288 88.4 34.064 88.4C34.036 88.4 33.994 88.386 33.938 88.358C33.91 88.33 33.868 88.33 33.812 88.358C33.812 88.358 33.798 88.358 33.77 88.358C33.77 88.358 33.77 88.372 33.77 88.4ZM33.476 87.896C33.728 87.784 34.05 87.714 34.442 87.686C34.834 87.658 35.184 87.616 35.492 87.56L36.08 87.602C36.388 87.518 36.682 87.364 36.962 87.14C37.27 86.944 37.55 86.832 37.802 86.804C37.858 86.804 37.9 86.776 37.928 86.72C37.984 86.692 38.026 86.664 38.054 86.636L38.306 86.594C38.446 86.398 38.586 86.3 38.726 86.3C38.894 86.3 39.034 86.23 39.146 86.09C39.202 86.062 39.244 86.034 39.272 86.006C39.3 86.006 39.328 86.006 39.356 86.006C39.356 85.978 39.44 85.88 39.608 85.712C39.776 85.572 39.874 85.502 39.902 85.502H40.112C40.252 85.502 40.364 85.432 40.448 85.292C40.532 85.152 40.588 85.04 40.616 84.956C40.672 84.928 40.756 84.914 40.868 84.914L40.91 84.746C40.994 84.69 41.12 84.62 41.288 84.536C41.456 84.452 41.582 84.41 41.666 84.41L41.624 84.158C41.652 84.102 41.68 84.046 41.708 83.99C41.764 83.962 41.806 83.92 41.834 83.864C41.89 83.836 41.988 83.724 42.128 83.528C42.268 83.36 42.338 83.248 42.338 83.192C42.226 83.192 42.17 83.192 42.17 83.192C42.198 83.192 42.142 83.206 42.002 83.234C41.946 83.318 41.722 83.472 41.33 83.696C40.938 83.92 40.546 84.13 40.154 84.326C39.762 84.522 39.51 84.634 39.398 84.662C39.258 84.69 39.118 84.732 38.978 84.788C38.838 84.872 38.684 84.942 38.516 84.998C38.376 85.026 38.25 85.082 38.138 85.166C38.026 85.25 37.886 85.292 37.718 85.292C37.662 85.32 37.606 85.348 37.55 85.376C37.522 85.432 37.48 85.46 37.424 85.46C37.396 85.488 37.354 85.488 37.298 85.46C37.242 85.432 37.186 85.418 37.13 85.418C37.074 85.418 37.032 85.446 37.004 85.502C37.004 85.558 36.976 85.6 36.92 85.628C36.808 85.656 36.724 85.656 36.668 85.628C36.612 85.628 36.528 85.684 36.416 85.796L36.29 85.754C36.178 85.782 36.094 85.824 36.038 85.88C35.982 85.936 35.884 85.978 35.744 86.006C35.688 85.922 35.632 85.908 35.576 85.964C35.576 85.992 35.562 86.006 35.534 86.006L35.072 86.132C34.848 86.188 34.568 86.188 34.232 86.132C33.924 86.104 33.672 86.118 33.476 86.174C33.448 86.202 33.434 86.23 33.434 86.258C33.434 86.286 33.406 86.3 33.35 86.3H33.266L33.182 86.384L33.014 86.3C32.902 86.328 32.804 86.342 32.72 86.342C32.636 86.342 32.538 86.342 32.426 86.342C32.342 86.258 32.272 86.23 32.216 86.258C32.132 86.202 31.964 86.16 31.712 86.132C31.488 86.104 31.32 86.09 31.208 86.09C30.984 86.034 30.83 86.02 30.746 86.048C30.634 86.104 30.41 86.048 30.074 85.88C29.766 85.74 29.542 85.698 29.402 85.754L29.024 85.544L28.898 85.586C28.926 85.614 28.926 85.642 28.898 85.67C28.898 85.698 28.912 85.74 28.94 85.796C28.94 85.824 29.01 85.894 29.15 86.006C29.318 86.118 29.416 86.216 29.444 86.3C29.528 86.328 29.598 86.37 29.654 86.426C29.71 86.51 29.766 86.552 29.822 86.552C29.906 86.608 30.004 86.664 30.116 86.72C30.256 86.804 30.382 86.874 30.494 86.93L30.578 87.056C30.634 87.084 30.704 87.112 30.788 87.14C30.872 87.168 30.928 87.21 30.956 87.266C31.04 87.294 31.124 87.322 31.208 87.35C31.292 87.378 31.362 87.42 31.418 87.476H31.544C31.684 87.56 31.88 87.63 32.132 87.686C32.412 87.77 32.594 87.784 32.678 87.728C32.762 87.756 32.902 87.798 33.098 87.854C33.322 87.91 33.448 87.924 33.476 87.896ZM60.8849 87.98C60.8569 87.98 60.8429 87.966 60.8429 87.938C60.8709 87.91 60.8709 87.882 60.8429 87.854C60.8429 87.854 60.8289 87.854 60.8009 87.854C60.8009 87.882 60.8009 87.91 60.8009 87.938C60.6889 87.882 60.5489 87.84 60.3809 87.812C60.2409 87.784 60.1009 87.714 59.9609 87.602L59.3309 86.972C59.2749 86.916 59.2329 86.832 59.2049 86.72C59.1769 86.608 59.1209 86.524 59.0369 86.468L58.9109 85.418C58.9109 85.362 58.8969 85.292 58.8689 85.208C58.8129 85.152 58.7849 85.096 58.7849 85.04C58.7849 84.984 58.8129 84.9 58.8689 84.788C58.8969 84.676 58.9249 84.564 58.9529 84.452C58.9529 84.424 58.9249 84.354 58.8689 84.242C58.8969 84.158 58.9529 84.074 59.0369 83.99C59.1209 83.934 59.1769 83.864 59.2049 83.78C59.2329 83.724 59.2469 83.668 59.2469 83.612C59.2189 83.584 59.2049 83.542 59.2049 83.486C59.2049 83.374 59.2609 83.262 59.3729 83.15C59.4849 83.066 59.5829 82.968 59.6669 82.856C59.7509 82.744 59.7929 82.632 59.7929 82.52C59.9049 82.38 60.0169 82.24 60.1289 82.1C60.2689 81.96 60.3949 81.82 60.5069 81.68C60.5349 81.624 60.5489 81.512 60.5489 81.344L60.6329 81.218C60.6889 81.162 60.7589 81.12 60.8429 81.092C60.9269 81.092 60.9829 81.064 61.0109 81.008C61.0669 80.952 61.1089 80.896 61.1369 80.84C61.1929 80.784 61.2489 80.742 61.3049 80.714L61.4309 80.756C61.4869 80.616 61.5569 80.518 61.6409 80.462C61.7249 80.406 61.8229 80.336 61.9349 80.252L62.0609 80C62.0889 79.972 62.1309 79.958 62.1869 79.958C62.2709 79.958 62.3409 79.944 62.3969 79.916C62.4529 79.748 62.5509 79.622 62.6909 79.538C62.8309 79.454 62.9149 79.3 62.9429 79.076C62.9989 79.076 63.0689 79.062 63.1529 79.034C63.2649 79.006 63.3349 78.992 63.3629 78.992C63.4189 78.992 63.4329 78.992 63.4049 78.992C63.4049 78.964 63.4049 78.936 63.4049 78.908L63.4889 79.034H63.6149C63.6709 79.006 63.6849 78.964 63.6569 78.908C63.6569 78.852 63.6569 78.81 63.6569 78.782C63.7129 78.726 63.7969 78.67 63.9089 78.614C64.0209 78.558 64.0629 78.474 64.0349 78.362C64.0069 78.306 63.9649 78.278 63.9089 78.278C63.8529 78.25 63.8109 78.222 63.7829 78.194C63.7549 78.138 63.7129 78.082 63.6569 78.026C63.6009 77.942 63.5449 77.886 63.4889 77.858C63.4889 77.774 63.4749 77.718 63.4469 77.69L63.1949 77.564C63.0829 77.34 62.9429 77.144 62.7749 76.976C62.6069 76.78 62.4669 76.598 62.3549 76.43C62.3269 76.346 62.3129 76.234 62.3129 76.094C62.3129 75.926 62.2429 75.828 62.1029 75.8C61.9909 75.464 61.9349 75.212 61.9349 75.044C61.9349 74.848 61.9629 74.582 62.0189 74.246C62.0189 74.19 62.0049 74.162 61.9769 74.162C61.9489 74.134 61.9349 74.106 61.9349 74.078L62.1449 73.532V73.28C62.1449 73.14 62.1729 73.014 62.2289 72.902C62.3129 72.762 62.4109 72.622 62.5229 72.482C62.4949 72.454 62.4669 72.426 62.4389 72.398C62.4109 72.342 62.3549 72.314 62.2709 72.314C62.2149 72.314 62.1869 72.328 62.1869 72.356C62.2149 72.356 62.2009 72.356 62.1449 72.356H62.1029C62.0189 72.356 61.8509 72.328 61.5989 72.272C61.3749 72.216 61.1929 72.174 61.0529 72.146C61.0249 72.034 60.8989 71.922 60.6749 71.81H60.5909L60.5069 71.726C60.5349 71.67 60.5629 71.614 60.5909 71.558C60.6189 71.502 60.6329 71.46 60.6329 71.432C60.6609 71.432 60.7869 71.488 61.0109 71.6C61.2629 71.684 61.5289 71.782 61.8089 71.894C62.0889 71.978 62.2569 72.02 62.3129 72.02C62.3689 72.02 62.4109 72.02 62.4389 72.02C62.4949 71.992 62.5369 71.978 62.5649 71.978L64.3709 69.206C64.5109 69.15 64.6509 69.08 64.7909 68.996C64.9309 68.912 65.0429 68.814 65.1269 68.702C65.2389 68.534 65.4069 68.366 65.6309 68.198C65.8549 68.002 66.0369 67.862 66.1769 67.778C66.2609 67.722 66.3309 67.652 66.3869 67.568C66.4709 67.484 66.5549 67.414 66.6389 67.358C66.6949 67.33 66.7789 67.288 66.8909 67.232C67.0309 67.176 67.1289 67.134 67.1849 67.106C67.2409 67.05 67.2969 66.98 67.3529 66.896C67.4369 66.784 67.5209 66.714 67.6049 66.686C67.6609 66.658 67.7449 66.63 67.8569 66.602C67.9689 66.574 68.0669 66.546 68.1509 66.518C68.2069 66.462 68.2769 66.392 68.3609 66.308C68.4449 66.196 68.5009 66.14 68.5289 66.14C68.5849 66.14 68.5989 66.154 68.5709 66.182C68.5429 66.182 68.5569 66.182 68.6129 66.182C68.6689 66.182 68.7809 66.112 68.9489 65.972C69.1449 65.832 69.2989 65.748 69.4109 65.72C69.7469 65.58 70.1529 65.468 70.6289 65.384C71.1049 65.3 71.3569 65.258 71.3849 65.258H71.8049C71.8609 65.258 71.9729 65.258 72.1409 65.258C72.3369 65.258 72.5189 65.244 72.6869 65.216C72.7429 65.272 72.8129 65.314 72.8969 65.342C72.9809 65.342 73.0509 65.37 73.1069 65.426C73.1069 65.454 73.1209 65.482 73.1489 65.51C73.1769 65.538 73.2049 65.58 73.2329 65.636C73.2889 65.636 73.3869 65.678 73.5269 65.762C73.6669 65.818 73.7509 65.846 73.7789 65.846C73.7789 65.958 73.8629 66.056 74.0309 66.14C74.0589 66.224 74.0869 66.308 74.1149 66.392C74.1709 66.476 74.1989 66.546 74.1989 66.602C74.1989 66.798 74.1149 67.134 73.9469 67.61C73.9469 67.722 73.9889 67.792 74.0729 67.82C74.0449 67.848 74.0309 67.89 74.0309 67.946C74.0309 67.974 74.0169 68.002 73.9889 68.03C73.8769 68.03 73.7649 68.086 73.6529 68.198C73.5689 68.226 73.5129 68.282 73.4849 68.366C73.4569 68.422 73.4149 68.478 73.3589 68.534C73.3589 68.59 73.3869 68.674 73.4429 68.786C73.3029 68.814 73.2329 68.884 73.2329 68.996C73.2329 69.08 73.2049 69.164 73.1489 69.248C73.0089 69.248 72.9249 69.276 72.8969 69.332C72.7009 69.5 72.4209 69.724 72.0569 70.004C71.6929 70.256 71.3989 70.452 71.1749 70.592C71.0629 70.648 71.0069 70.76 71.0069 70.928C70.8669 70.928 70.7409 71.012 70.6289 71.18C70.6009 71.18 70.5589 71.166 70.5029 71.138C70.4749 71.11 70.4329 71.096 70.3769 71.096C70.3489 71.096 70.2369 71.152 70.0409 71.264C69.8449 71.376 69.6629 71.46 69.4949 71.516L69.4109 71.6C69.3549 71.6 69.2989 71.628 69.2429 71.684C69.1869 71.712 69.1309 71.754 69.0749 71.81C69.0749 71.754 69.0609 71.726 69.0329 71.726C68.8369 71.726 68.6269 71.754 68.4029 71.81C68.3749 71.838 68.3329 71.866 68.2769 71.894C68.2489 71.922 68.2069 71.936 68.1509 71.936C68.1229 71.964 68.0949 71.964 68.0669 71.936C68.0389 71.908 67.9969 71.908 67.9409 71.936C67.9129 71.936 67.8569 71.978 67.7729 72.062C67.6889 72.118 67.6189 72.16 67.5629 72.188C67.5349 72.188 67.5069 72.188 67.4789 72.188C67.4509 72.16 67.4089 72.146 67.3529 72.146C67.1849 72.146 67.0729 72.202 67.0169 72.314C66.9609 72.398 66.9049 72.44 66.8489 72.44C66.8209 72.44 66.7789 72.454 66.7229 72.482C66.6949 72.51 66.6529 72.524 66.5969 72.524C66.5409 72.552 66.5129 72.552 66.5129 72.524C66.5409 72.468 66.5269 72.454 66.4709 72.482C66.4149 72.482 66.4009 72.496 66.4289 72.524C66.4569 72.524 66.4429 72.524 66.3869 72.524C66.3309 72.524 66.2889 72.51 66.2609 72.482C66.2609 72.454 66.2469 72.426 66.2189 72.398C65.9389 72.342 65.6869 72.314 65.4629 72.314C65.3789 72.314 65.2809 72.342 65.1689 72.398C65.1409 72.426 65.1409 72.454 65.1689 72.482C65.1969 72.482 65.1969 72.482 65.1689 72.482C65.0849 72.51 64.9869 72.552 64.8749 72.608C64.7909 72.636 64.7069 72.678 64.6229 72.734C64.5949 72.678 64.5529 72.622 64.4969 72.566C64.4689 72.51 64.3989 72.482 64.2869 72.482C64.2029 72.51 64.1469 72.608 64.1189 72.776C64.0909 72.944 64.0769 73.07 64.0769 73.154C64.0769 73.294 64.0629 73.392 64.0349 73.448L63.6569 74.078C63.6289 74.218 63.5729 74.4 63.4889 74.624C63.4049 74.848 63.3629 74.988 63.3629 75.044L63.4889 75.296V75.422C63.4889 75.618 63.5309 75.8 63.6149 75.968V76.346C63.6149 76.346 63.6009 76.346 63.5729 76.346C63.5729 76.318 63.5729 76.332 63.5729 76.388C63.5729 76.472 63.6429 76.584 63.7829 76.724V76.808C63.7829 77.004 63.8389 77.158 63.9509 77.27C64.0629 77.382 64.1749 77.522 64.2869 77.69C64.4269 77.83 64.5249 77.9 64.5809 77.9H64.7069C64.7629 77.9 64.8749 77.83 65.0429 77.69C65.2109 77.522 65.3509 77.396 65.4629 77.312C65.4909 77.284 65.5049 77.228 65.5049 77.144L65.8829 77.018C65.9669 76.962 66.0369 76.906 66.0929 76.85C66.1489 76.794 66.2189 76.738 66.3029 76.682C66.5829 76.458 66.8629 76.29 67.1429 76.178C67.4229 76.066 67.7029 75.926 67.9829 75.758C68.0389 75.702 68.0949 75.618 68.1509 75.506C68.2069 75.394 68.2769 75.324 68.3609 75.296C68.4729 75.24 68.5709 75.184 68.6549 75.128C68.7389 75.072 68.8089 75.03 68.8649 75.002C69.0049 74.918 69.1589 74.876 69.3269 74.876C69.3829 74.764 69.4669 74.68 69.5789 74.624C69.7189 74.54 69.8589 74.47 69.9989 74.414C70.1669 74.358 70.3069 74.288 70.4189 74.204C70.4749 74.176 70.5309 74.12 70.5869 74.036C70.6429 73.952 70.6849 73.91 70.7129 73.91C70.7689 73.91 70.8109 73.924 70.8389 73.952C70.8949 73.952 70.9509 73.938 71.0069 73.91C71.0629 73.91 71.1329 73.882 71.2169 73.826C71.3289 73.742 71.4129 73.686 71.4689 73.658L71.7209 73.574C71.7769 73.546 71.8189 73.504 71.8469 73.448C71.9029 73.392 71.9589 73.35 72.0149 73.322C72.0709 73.266 72.1549 73.224 72.2669 73.196C72.4069 73.168 72.5189 73.14 72.6029 73.112C72.6309 73.084 72.6449 73.014 72.6449 72.902C72.7569 72.846 72.8829 72.762 73.0229 72.65C73.1629 72.538 73.2609 72.426 73.3169 72.314C73.3449 72.286 73.3869 72.244 73.4429 72.188C73.4989 72.132 73.5549 72.104 73.6109 72.104C73.6669 72.104 73.6809 72.118 73.6529 72.146C73.6249 72.146 73.6389 72.146 73.6949 72.146C73.7509 72.118 73.7929 72.076 73.8209 72.02C73.8769 71.964 73.9189 71.922 73.9469 71.894C74.1149 71.838 74.2829 71.81 74.4509 71.81C74.5349 71.726 74.5769 71.67 74.5769 71.642C74.6609 71.586 74.7589 71.544 74.8709 71.516C74.9829 71.488 75.0949 71.446 75.2069 71.39C75.2349 71.39 75.2629 71.362 75.2909 71.306C75.3189 71.25 75.3469 71.222 75.3749 71.222C75.4869 71.166 75.5989 71.124 75.7109 71.096C75.8229 71.068 75.9349 71.04 76.0469 71.012C76.1029 70.984 76.1449 70.942 76.1729 70.886C76.2289 70.802 76.2709 70.732 76.2989 70.676C76.3269 70.648 76.3969 70.634 76.5089 70.634L76.5929 70.55C76.8729 70.438 77.0409 70.34 77.0969 70.256C77.1809 70.172 77.3069 70.074 77.4749 69.962C77.5589 69.906 77.6849 69.85 77.8529 69.794C78.0489 69.71 78.2029 69.612 78.3149 69.5C78.3149 69.472 78.3009 69.444 78.2729 69.416C78.1889 69.444 78.0629 69.444 77.8949 69.416C77.8949 69.36 77.8809 69.318 77.8529 69.29C77.8809 69.29 77.9089 69.276 77.9369 69.248C77.9649 69.192 77.9929 69.15 78.0209 69.122C78.0209 69.15 78.0489 69.192 78.1049 69.248C78.1609 69.192 78.1889 69.136 78.1889 69.08C78.3009 69.108 78.3989 69.136 78.4829 69.164C78.5949 69.164 78.6789 69.164 78.7349 69.164C78.7909 69.164 78.8329 69.136 78.8609 69.08C78.9169 68.996 78.9729 68.94 79.0289 68.912C79.0849 68.856 79.1689 68.814 79.2809 68.786C79.3929 68.758 79.5049 68.716 79.6169 68.66C79.7009 68.604 79.7709 68.548 79.8269 68.492C79.8829 68.408 79.9389 68.324 79.9949 68.24C80.0509 68.184 80.0929 68.17 80.1209 68.198C80.1769 68.198 80.2189 68.184 80.2469 68.156C80.5269 67.96 80.7929 67.764 81.0449 67.568C81.3249 67.344 81.6049 67.092 81.8849 66.812L81.9689 66.728C81.9689 66.728 82.0389 66.728 82.1789 66.728C82.2349 66.7 82.2769 66.672 82.3049 66.644C82.3609 66.588 82.4029 66.546 82.4309 66.518C82.4309 66.462 82.4169 66.42 82.3889 66.392C82.4729 66.392 82.5289 66.406 82.5569 66.434C82.6129 66.378 82.6689 66.294 82.7249 66.182C82.8089 66.042 82.8789 65.944 82.9349 65.888C83.0189 65.776 83.1729 65.664 83.3969 65.552C83.6209 65.412 83.6769 65.258 83.5649 65.09C83.6489 65.062 83.7329 65.02 83.8169 64.964C83.9289 64.908 84.0409 64.852 84.1529 64.796C84.2089 64.684 84.2789 64.586 84.3629 64.502C84.4749 64.39 84.5589 64.278 84.6149 64.166C84.6989 63.998 84.7689 63.788 84.8249 63.536C84.8809 63.284 84.9089 63.144 84.9089 63.116C84.9089 63.06 84.8809 63.018 84.8249 62.99C84.7969 62.962 84.7829 62.934 84.7829 62.906C84.7549 62.85 84.7409 62.78 84.7409 62.696C84.7689 62.612 84.7549 62.556 84.6989 62.528C84.6709 62.472 84.6149 62.416 84.5309 62.36C84.4469 62.304 84.3769 62.262 84.3209 62.234V61.94C84.3489 61.94 84.3769 61.94 84.4049 61.94C84.4609 61.912 84.5029 61.898 84.5309 61.898C84.5869 61.898 84.6429 61.912 84.6989 61.94C84.7829 61.968 84.8529 61.982 84.9089 61.982C84.9089 62.038 84.9229 62.094 84.9509 62.15C84.9789 62.178 85.0069 62.22 85.0349 62.276C85.0349 62.304 85.0209 62.332 84.9929 62.36C84.9929 62.36 84.9929 62.374 84.9929 62.402C85.0489 62.514 85.1049 62.682 85.1609 62.906C85.2169 63.102 85.2589 63.228 85.2869 63.284C85.2869 63.284 85.2729 63.298 85.2449 63.326C85.2169 63.326 85.2169 63.396 85.2449 63.536L85.1609 63.788C85.0769 63.872 85.0209 63.97 84.9929 64.082C84.9929 64.166 84.9789 64.278 84.9509 64.418V64.586C84.9229 64.698 84.8529 64.782 84.7409 64.838C84.6289 64.894 84.5869 64.992 84.6149 65.132C84.5029 65.132 84.3909 65.188 84.2789 65.3V65.384C84.2789 65.636 84.2089 65.832 84.0689 65.972H83.9429C83.8869 65.972 83.8029 65.944 83.6909 65.888V66.056C83.6909 66.168 83.6349 66.238 83.5229 66.266C83.4389 66.294 83.3549 66.336 83.2709 66.392C83.2709 66.336 83.2569 66.294 83.2289 66.266C83.2009 66.294 83.1869 66.308 83.1869 66.308C83.1869 66.308 83.1729 66.322 83.1449 66.35L83.1869 66.518C83.1869 66.518 83.1729 66.518 83.1449 66.518C83.1169 66.518 83.0889 66.504 83.0609 66.476C83.0329 66.504 83.0189 66.56 83.0189 66.644C82.9349 66.644 82.8789 66.658 82.8509 66.686C82.7949 66.77 82.6689 66.91 82.4729 67.106C82.3049 67.302 82.1649 67.428 82.0529 67.484C81.9689 67.512 81.8709 67.582 81.7589 67.694C81.6749 67.778 81.6049 67.82 81.5489 67.82C81.5209 67.848 81.5069 67.848 81.5069 67.82C81.5349 67.792 81.5209 67.792 81.4649 67.82C81.4369 67.82 81.3529 67.848 81.2129 67.904C81.1009 67.96 81.0029 68.016 80.9189 68.072L80.8349 68.24L80.3729 68.45C80.2609 68.506 80.1629 68.562 80.0789 68.618C80.0229 68.674 79.9669 68.73 79.9109 68.786V68.828C79.9109 68.968 79.8409 69.052 79.7009 69.08C79.5889 69.08 79.4909 69.108 79.4069 69.164C79.4349 69.192 79.4909 69.22 79.5749 69.248C79.6589 69.276 79.7149 69.318 79.7429 69.374C79.7709 69.402 79.7989 69.444 79.8269 69.5C79.8549 69.556 79.8829 69.612 79.9109 69.668C79.9669 69.724 80.0229 69.78 80.0789 69.836C80.1629 69.892 80.2189 69.948 80.2469 70.004L80.4569 70.424C80.4569 70.48 80.4849 70.564 80.5409 70.676C80.4289 70.956 80.4569 71.152 80.6249 71.264C80.6809 71.376 80.7089 71.474 80.7089 71.558C80.7089 71.586 80.6949 71.628 80.6669 71.684C80.6389 71.74 80.6249 71.796 80.6249 71.852C80.5969 71.936 80.5689 72.048 80.5409 72.188C80.5409 72.328 80.5129 72.468 80.4569 72.608C80.4569 72.608 80.4289 72.636 80.3729 72.692C80.2609 72.972 80.1069 73.238 79.9109 73.49C79.7429 73.742 79.5609 73.952 79.3649 74.12C79.2809 74.204 79.1689 74.33 79.0289 74.498C78.8889 74.666 78.8189 74.75 78.8189 74.75L78.2729 75.422C78.2729 75.394 78.2449 75.38 78.1889 75.38C78.1609 75.38 78.0769 75.436 77.9369 75.548C77.8249 75.632 77.7129 75.702 77.6009 75.758C77.5449 75.758 77.5169 75.8 77.5169 75.884L76.6349 76.388C76.6069 76.416 76.5509 76.472 76.4669 76.556C76.4109 76.612 76.3549 76.64 76.2989 76.64C76.2709 76.64 76.2429 76.64 76.2149 76.64C76.2149 76.612 76.2149 76.598 76.2149 76.598L74.4089 77.564C74.4089 77.564 74.2969 77.62 74.0729 77.732C73.8489 77.844 73.6249 77.956 73.4009 78.068C73.1769 78.152 73.0369 78.194 72.9809 78.194C72.9529 78.194 72.9389 78.194 72.9389 78.194C72.9389 78.166 72.9109 78.152 72.8549 78.152C72.7989 78.152 72.6589 78.208 72.4349 78.32C72.2389 78.432 72.1129 78.502 72.0569 78.53C72.0009 78.53 71.9729 78.516 71.9729 78.488C72.0009 78.46 71.9869 78.46 71.9309 78.488H71.8889C71.8049 78.572 71.7489 78.614 71.7209 78.614C71.6369 78.642 71.5109 78.698 71.3429 78.782C71.2029 78.838 71.1049 78.866 71.0489 78.866C70.9929 78.894 70.9649 78.894 70.9649 78.866C70.9649 78.838 70.9369 78.838 70.8809 78.866C70.8529 78.866 70.7829 78.894 70.6709 78.95C70.5869 78.978 70.5029 79.02 70.4189 79.076H70.3349C70.3069 79.076 70.2649 79.09 70.2089 79.118C70.1809 79.146 70.1389 79.16 70.0829 79.16C70.0269 79.16 69.9849 79.16 69.9569 79.16C69.9289 79.132 69.8869 79.132 69.8309 79.16C69.8029 79.16 69.7189 79.202 69.5789 79.286C69.4389 79.342 69.3129 79.398 69.2009 79.454C69.1449 79.398 69.0749 79.356 68.9909 79.328C68.9069 79.272 68.8229 79.244 68.7389 79.244H68.2349C68.1789 79.244 68.1369 79.272 68.1089 79.328C68.1089 79.384 68.0809 79.412 68.0249 79.412H67.1429L66.4289 79.37C66.4289 79.314 66.3869 79.272 66.3029 79.244C66.2469 79.188 66.1909 79.174 66.1349 79.202C66.0789 79.202 66.0509 79.216 66.0509 79.244C66.0789 79.244 66.0649 79.244 66.0089 79.244C65.9529 79.244 65.8829 79.202 65.7989 79.118C65.7149 79.034 65.6449 78.978 65.5889 78.95L65.5049 79.034C65.4769 79.034 65.4209 79.034 65.3369 79.034C65.2529 79.034 65.1829 79.02 65.1269 78.992C65.0989 78.936 65.0429 78.88 64.9589 78.824C64.9029 78.768 64.8469 78.74 64.7909 78.74C64.7349 78.768 64.6649 78.824 64.5809 78.908C64.5249 78.992 64.4689 79.062 64.4129 79.118L63.6569 79.664C63.6289 79.692 63.6149 79.748 63.6149 79.832C63.5029 79.86 63.3629 79.944 63.1949 80.084C63.0269 80.224 62.8449 80.364 62.6489 80.504C62.6209 80.504 62.6209 80.504 62.6489 80.504C62.6769 80.532 62.6769 80.56 62.6489 80.588C62.5369 80.7 62.3829 80.854 62.1869 81.05C61.9909 81.246 61.8229 81.456 61.6829 81.68C61.3469 82.156 61.0249 82.576 60.7169 82.94C60.4369 83.332 60.1849 83.808 59.9609 84.368C59.8489 84.676 59.7649 84.956 59.7089 85.208C59.6529 85.488 59.6389 85.74 59.6669 85.964C59.6669 85.992 59.6669 86.048 59.6669 86.132C59.6669 86.216 59.6809 86.286 59.7089 86.342C59.8209 86.594 59.9049 86.818 59.9609 87.014C60.0449 87.21 60.2269 87.378 60.5069 87.518C60.5629 87.546 60.6329 87.546 60.7169 87.518C60.8009 87.518 60.8989 87.518 61.0109 87.518C61.0669 87.518 61.1369 87.532 61.2209 87.56C61.3329 87.616 61.4309 87.644 61.5149 87.644C61.5149 87.756 61.5429 87.84 61.5989 87.896C61.4869 87.896 61.3469 87.91 61.1789 87.938C61.0389 87.966 60.9409 87.98 60.8849 87.98ZM64.7069 71.978C64.8749 71.978 65.0709 71.964 65.2949 71.936C65.5469 71.908 65.6869 71.894 65.7149 71.894C65.7709 71.894 65.9109 71.866 66.1349 71.81C66.3589 71.726 66.5129 71.67 66.5969 71.642C66.7649 71.586 66.9469 71.558 67.1429 71.558C67.3389 71.558 67.5209 71.544 67.6889 71.516C67.7729 71.488 67.8709 71.446 67.9829 71.39C68.1229 71.334 68.2069 71.306 68.2349 71.306C68.2909 71.306 68.3189 71.306 68.3189 71.306C68.3469 71.278 68.3749 71.25 68.4029 71.222C68.4589 71.222 68.5289 71.194 68.6129 71.138C68.7249 71.082 68.7949 71.054 68.8229 71.054C68.8789 71.026 68.9069 71.026 68.9069 71.054C68.9069 71.082 68.9209 71.082 68.9489 71.054C69.0049 71.054 69.1449 70.984 69.3689 70.844C69.5929 70.704 69.8169 70.564 70.0409 70.424C70.2649 70.284 70.3909 70.214 70.4189 70.214C70.4749 70.214 70.5589 70.2 70.6709 70.172C70.7829 70.116 70.8809 70.088 70.9649 70.088C70.9369 70.004 70.9229 69.948 70.9229 69.92C70.9509 69.892 70.9789 69.864 71.0069 69.836L71.0909 69.92C71.0909 69.864 71.1189 69.808 71.1749 69.752C71.2309 69.752 71.2729 69.752 71.3009 69.752C71.3569 69.724 71.3849 69.71 71.3849 69.71C71.6929 69.486 71.8889 69.318 71.9729 69.206C72.0569 69.094 72.1549 68.982 72.2669 68.87C72.2949 68.814 72.3089 68.758 72.3089 68.702C72.3089 68.646 72.3229 68.604 72.3509 68.576C72.4069 68.464 72.4769 68.38 72.5609 68.324C72.6449 68.24 72.7009 68.17 72.7289 68.114C72.7849 68.058 72.7989 68.016 72.7709 67.988C72.7709 67.932 72.7849 67.89 72.8129 67.862C72.8129 67.862 72.8129 67.848 72.8129 67.82C72.8129 67.792 72.7989 67.764 72.7709 67.736C72.7989 67.652 72.8129 67.554 72.8129 67.442C72.8409 67.33 72.8689 67.246 72.8969 67.19C72.7849 67.19 72.7289 67.148 72.7289 67.064C72.7289 67.036 72.7289 67.022 72.7289 67.022C72.7569 66.994 72.7709 66.966 72.7709 66.938L72.6449 66.77C72.5889 66.714 72.4909 66.644 72.3509 66.56C72.2389 66.448 72.1549 66.392 72.0989 66.392L71.6789 66.476C71.6509 66.476 71.6369 66.49 71.6369 66.518C71.6369 66.546 71.6089 66.574 71.5529 66.602C71.5249 66.602 71.4829 66.602 71.4269 66.602C71.3989 66.574 71.3569 66.56 71.3009 66.56C71.2449 66.56 71.2309 66.574 71.2589 66.602C71.3149 66.63 71.3149 66.644 71.2589 66.644C71.1469 66.644 71.0629 66.686 71.0069 66.77L70.8809 66.686C70.7689 66.714 70.6429 66.742 70.5029 66.77C70.3629 66.798 70.2509 66.84 70.1669 66.896C70.1389 66.924 70.0969 66.98 70.0409 67.064C70.0129 67.148 69.9709 67.19 69.9149 67.19C69.8589 67.19 69.8449 67.176 69.8729 67.148C69.9009 67.092 69.8869 67.078 69.8309 67.106C69.8029 67.106 69.6909 67.162 69.4949 67.274C69.3269 67.358 69.1869 67.428 69.0749 67.484C68.8509 67.596 68.6129 67.736 68.3609 67.904C68.1089 68.072 67.8709 68.24 67.6469 68.408C67.5909 68.548 67.4789 68.688 67.3109 68.828L67.1009 68.912C67.0449 68.968 66.9469 69.066 66.8069 69.206C66.6949 69.346 66.5689 69.444 66.4289 69.5C66.4009 69.556 66.3449 69.626 66.2609 69.71C66.1769 69.794 66.1069 69.864 66.0509 69.92C65.9669 70.032 65.8829 70.158 65.7989 70.298C65.7429 70.438 65.6449 70.55 65.5049 70.634C65.3929 70.83 65.2529 71.04 65.0849 71.264C64.9449 71.46 64.8049 71.628 64.6649 71.768L64.7069 71.978ZM68.7809 78.95C68.7809 78.866 68.8089 78.824 68.8649 78.824C68.9209 78.824 68.9769 78.838 69.0329 78.866C69.1169 78.894 69.1729 78.894 69.2009 78.866C69.2569 78.866 69.4249 78.824 69.7049 78.74C69.9849 78.628 70.1389 78.572 70.1669 78.572C70.2229 78.544 70.2369 78.544 70.2089 78.572C70.2089 78.6 70.2369 78.6 70.2929 78.572C70.3489 78.572 70.4049 78.558 70.4609 78.53C70.5169 78.474 70.5589 78.446 70.5869 78.446C70.6429 78.446 70.6569 78.46 70.6289 78.488C70.6289 78.516 70.6569 78.53 70.7129 78.53C70.8249 78.502 71.0349 78.418 71.3429 78.278C71.6509 78.11 71.8329 78.012 71.8889 77.984C71.8889 77.872 71.9029 77.802 71.9309 77.774C72.0429 77.774 72.1689 77.774 72.3089 77.774C72.4489 77.746 72.5329 77.732 72.5609 77.732C72.6169 77.732 72.6449 77.732 72.6449 77.732C72.6729 77.704 72.7009 77.69 72.7289 77.69C72.7849 77.69 72.8549 77.662 72.9389 77.606C73.0229 77.522 73.0929 77.466 73.1489 77.438C73.1769 77.382 73.1769 77.34 73.1489 77.312C73.1489 77.256 73.1489 77.214 73.1489 77.186C73.2049 77.13 73.2609 77.088 73.3169 77.06C73.4009 77.004 73.4569 76.976 73.4849 76.976C73.5409 76.976 73.5689 76.99 73.5689 77.018C73.5689 77.046 73.5969 77.06 73.6529 77.06C73.7649 77.06 73.8349 77.046 73.8629 77.018C73.9189 76.962 73.9749 76.92 74.0309 76.892C74.0869 76.836 74.1429 76.808 74.1989 76.808C74.2549 76.78 74.2829 76.78 74.2829 76.808C74.3109 76.836 74.3389 76.836 74.3669 76.808C74.4229 76.808 74.5069 76.752 74.6189 76.64C74.7589 76.528 74.8709 76.444 74.9549 76.388L75.5429 75.716C75.6549 75.716 75.7809 75.73 75.9209 75.758C76.0889 75.786 76.2149 75.772 76.2989 75.716V75.59C76.2989 75.562 76.2989 75.548 76.2989 75.548C76.3269 75.548 76.3409 75.534 76.3409 75.506C76.3969 75.31 76.4529 75.198 76.5089 75.17L76.8449 75.002C76.8729 75.03 76.8869 75.058 76.8869 75.086C76.9429 74.946 77.0829 74.806 77.3069 74.666C77.5309 74.498 77.6989 74.386 77.8109 74.33C77.7829 74.274 77.7689 74.218 77.7689 74.162C77.7969 74.106 77.8669 74.078 77.9789 74.078C77.9789 74.05 77.9649 74.036 77.9369 74.036C77.9369 74.008 77.9369 73.98 77.9369 73.952C77.9369 73.728 78.0489 73.56 78.2729 73.448V73.322H78.3149C78.4549 73.322 78.5529 73.252 78.6089 73.112C78.6929 72.944 78.7629 72.804 78.8189 72.692C78.8749 72.692 78.9169 72.678 78.9449 72.65C79.0009 72.622 79.0429 72.608 79.0709 72.608C79.0709 72.552 79.0709 72.51 79.0709 72.482C79.0989 72.454 79.1129 72.426 79.1129 72.398C79.1689 72.37 79.2249 72.328 79.2809 72.272C79.3369 72.188 79.3929 72.132 79.4489 72.104C79.3929 71.992 79.3649 71.922 79.3649 71.894V71.516C79.3929 71.432 79.4349 71.348 79.4909 71.264C79.5469 71.18 79.5889 71.124 79.6169 71.096C79.5889 71.068 79.5749 71.04 79.5749 71.012C79.5749 70.984 79.5749 70.97 79.5749 70.97C79.4629 71.082 79.3789 71.152 79.3229 71.18C79.2949 71.124 79.2949 71.082 79.3229 71.054C79.3509 70.998 79.3509 70.97 79.3229 70.97C79.2949 70.97 79.2669 70.97 79.2389 70.97C79.2389 70.942 79.2389 70.928 79.2389 70.928L79.3229 70.802C79.4069 70.886 79.4769 70.928 79.5329 70.928C79.5609 70.844 79.5889 70.76 79.6169 70.676C79.6449 70.564 79.6589 70.48 79.6589 70.424C79.6869 70.424 79.7009 70.424 79.7009 70.424C79.7289 70.396 79.7429 70.382 79.7429 70.382C79.7149 70.354 79.6869 70.312 79.6589 70.256C79.6589 70.172 79.6449 70.116 79.6169 70.088V70.214C79.5049 70.046 79.4629 69.92 79.4909 69.836C79.4629 69.808 79.4209 69.766 79.3649 69.71C79.3089 69.654 79.2669 69.626 79.2389 69.626C79.1829 69.626 79.1689 69.64 79.1969 69.668C79.2249 69.668 79.2109 69.668 79.1549 69.668C79.0709 69.668 79.0009 69.64 78.9449 69.584C78.9169 69.556 78.8889 69.556 78.8609 69.584C78.6929 69.696 78.5249 69.794 78.3569 69.878C78.1889 69.934 78.0349 70.018 77.8949 70.13C77.7829 70.186 77.6429 70.284 77.4749 70.424C77.3349 70.564 77.1949 70.662 77.0549 70.718C76.9709 70.746 76.8729 70.788 76.7609 70.844C76.6489 70.9 76.5649 70.956 76.5089 71.012L76.2149 71.306C76.0189 71.418 75.8089 71.53 75.5849 71.642C75.3609 71.726 75.1649 71.838 74.9969 71.978C74.9409 72.034 74.8289 72.132 74.6609 72.272C74.4929 72.384 74.3669 72.44 74.2829 72.44L74.1569 72.608C73.9889 72.664 73.8629 72.734 73.7789 72.818C73.7509 72.846 73.7089 72.888 73.6529 72.944C73.6249 72.972 73.5969 72.986 73.5689 72.986C73.5129 73.042 73.4429 73.07 73.3589 73.07C73.3029 73.07 73.2469 73.098 73.1909 73.154C72.9389 73.266 72.6729 73.434 72.3929 73.658C72.1129 73.854 71.6929 74.106 71.1329 74.414C70.9929 74.498 70.8949 74.596 70.8389 74.708C70.8109 74.708 70.7969 74.708 70.7969 74.708C70.7969 74.68 70.7969 74.666 70.7969 74.666C70.7409 74.778 70.6849 74.834 70.6289 74.834L69.7469 75.38C69.6909 75.38 69.6769 75.38 69.7049 75.38C69.7329 75.352 69.7189 75.338 69.6629 75.338C69.6069 75.338 69.5649 75.38 69.5369 75.464C69.5369 75.52 69.5089 75.562 69.4529 75.59C69.2289 75.702 68.9209 75.884 68.5289 76.136C68.1649 76.36 67.8709 76.57 67.6469 76.766C67.5629 76.766 67.5069 76.78 67.4789 76.808C67.2269 77.06 66.9889 77.256 66.7649 77.396C66.7089 77.424 66.6249 77.466 66.5129 77.522C66.4289 77.55 66.3449 77.592 66.2609 77.648C66.2609 77.704 66.1629 77.788 65.9669 77.9C65.7989 78.012 65.6869 78.082 65.6309 78.11C65.6029 78.138 65.5469 78.166 65.4629 78.194C65.4069 78.222 65.3509 78.25 65.2949 78.278C65.3789 78.418 65.5189 78.516 65.7149 78.572C65.9389 78.628 66.1209 78.684 66.2609 78.74C66.3729 78.768 66.5969 78.81 66.9329 78.866C67.2689 78.894 67.5069 78.908 67.6469 78.908C67.7029 78.908 67.7589 78.894 67.8149 78.866C67.8989 78.81 67.9549 78.782 67.9829 78.782C68.0389 78.782 68.1509 78.796 68.3189 78.824C68.4869 78.852 68.6129 78.88 68.6969 78.908C68.7249 78.908 68.7389 78.922 68.7389 78.95C68.7669 78.95 68.7809 78.95 68.7809 78.95ZM101.25 81.554C101.082 81.498 100.9 81.456 100.704 81.428C100.536 81.4 100.354 81.358 100.158 81.302L100.368 81.428C100.256 81.428 100.144 81.4 100.032 81.344C99.9482 81.316 99.8642 81.316 99.7802 81.344L98.9822 81.134L98.9402 81.092C98.8282 80.98 98.7162 80.882 98.6042 80.798C98.4922 80.714 98.3382 80.7 98.1422 80.756C98.1982 80.784 98.2542 80.798 98.3102 80.798C98.3662 80.798 98.4082 80.826 98.4362 80.882H98.3522C98.2402 80.882 98.1562 80.854 98.1002 80.798C98.0442 80.742 97.9742 80.686 97.8902 80.63C97.4702 80.378 97.0922 80.084 96.7562 79.748V79.706C96.6442 79.566 96.5602 79.426 96.5042 79.286C96.4482 79.118 96.3502 78.992 96.2102 78.908H96.1682C96.0842 78.74 96.0002 78.558 95.9162 78.362C95.8602 78.138 95.8042 77.928 95.7482 77.732C95.7482 77.648 95.7342 77.578 95.7062 77.522C95.7062 77.438 95.7062 77.354 95.7062 77.27C95.7062 77.158 95.7062 77.06 95.7062 76.976C95.7342 76.864 95.7622 76.752 95.7902 76.64C95.6502 76.696 95.5802 76.654 95.5802 76.514C95.5522 76.206 95.5382 75.898 95.5382 75.59C95.5662 75.282 95.6082 74.946 95.6642 74.582L95.7902 73.952C95.8462 73.812 95.9302 73.714 96.0422 73.658C96.1542 73.602 96.1962 73.504 96.1682 73.364C96.1402 73.364 96.1122 73.378 96.0842 73.406C96.0562 73.434 96.0142 73.448 95.9582 73.448C95.9582 73.448 95.9442 73.448 95.9162 73.448C95.9162 73.42 95.9162 73.392 95.9162 73.364H95.9582V73.322C95.9302 73.294 95.9302 73.28 95.9582 73.28C95.9862 73.28 95.9862 73.266 95.9582 73.238V73.196C95.9582 73.056 96.0002 72.916 96.0842 72.776C96.1682 72.608 96.2382 72.44 96.2942 72.272C96.3502 72.132 96.4342 72.006 96.5462 71.894C96.6862 71.782 96.7282 71.642 96.6722 71.474H96.5462C96.6302 71.418 96.6722 71.362 96.6722 71.306L96.7142 71.264L97.1342 70.382H97.1762C97.4002 70.382 97.4982 70.326 97.4702 70.214C97.4702 70.102 97.4702 69.976 97.4702 69.836V69.794L97.8062 69.248C97.9742 69.164 98.0862 69.038 98.1422 68.87C98.1982 68.674 98.2822 68.52 98.3942 68.408C98.4502 68.268 98.5342 68.156 98.6462 68.072C98.7582 67.96 98.8562 67.834 98.9402 67.694C99.1082 67.47 99.2762 67.26 99.4442 67.064C99.6122 66.84 99.7942 66.63 99.9902 66.434C100.13 66.378 100.228 66.308 100.284 66.224C100.34 66.14 100.41 66.042 100.494 65.93C100.494 65.902 100.494 65.888 100.494 65.888C100.522 65.888 100.536 65.874 100.536 65.846C100.62 65.734 100.732 65.664 100.872 65.636C101.012 65.608 101.11 65.524 101.166 65.384C101.222 65.244 101.306 65.118 101.418 65.006C101.642 64.782 101.88 64.572 102.132 64.376C102.384 64.152 102.636 63.942 102.888 63.746C103.056 63.718 103.182 63.69 103.266 63.662C103.35 63.606 103.392 63.494 103.392 63.326H103.434C103.742 63.102 104.05 62.892 104.358 62.696C104.666 62.5 104.96 62.318 105.24 62.15C105.464 62.01 105.674 61.884 105.87 61.772C106.094 61.66 106.304 61.548 106.5 61.436H106.626C106.738 61.436 106.822 61.408 106.878 61.352C106.934 61.296 107.004 61.226 107.088 61.142H107.13C109.202 60.218 111.12 59.756 112.884 59.756C113.108 59.756 113.346 59.77 113.598 59.798C113.85 59.798 114.088 59.812 114.312 59.84C115.628 60.008 116.622 60.442 117.294 61.142C117.966 61.814 118.302 62.556 118.302 63.368C118.302 63.648 118.26 63.942 118.176 64.25C118.456 64.054 118.708 63.858 118.932 63.662C119.156 63.466 119.338 63.242 119.478 62.99C119.534 62.906 119.604 62.878 119.688 62.906C119.772 62.906 119.786 62.948 119.73 63.032C119.646 63.284 119.464 63.564 119.184 63.872C118.904 64.152 118.596 64.404 118.26 64.628C118.26 64.656 118.19 64.754 118.05 64.922C117.91 65.062 117.854 65.16 117.882 65.216C117.882 65.244 117.84 65.3 117.756 65.384C117.7 65.44 117.658 65.496 117.63 65.552L117.336 65.93C117.336 65.93 117.336 65.944 117.336 65.972C117.336 65.972 117.322 65.986 117.294 66.014C117.294 66.014 117.238 66.042 117.126 66.098C117.07 66.154 116.986 66.252 116.874 66.392C116.79 66.532 116.678 66.63 116.538 66.686L116.37 66.77C116.342 66.798 116.314 66.84 116.286 66.896C116.258 66.924 116.216 66.966 116.16 67.022C116.048 67.134 115.838 67.274 115.53 67.442C115.25 67.582 115.04 67.708 114.9 67.82C114.9 67.82 114.872 67.834 114.816 67.862C114.76 67.89 114.69 67.932 114.606 67.988L114.48 68.03C114.452 68.03 114.396 68.058 114.312 68.114C114.256 68.17 114.214 68.212 114.186 68.24C114.158 68.268 114.116 68.282 114.06 68.282C114.032 68.282 113.99 68.31 113.934 68.366C113.906 68.394 113.864 68.408 113.808 68.408C113.752 68.408 113.696 68.436 113.64 68.492L113.01 68.66C112.982 68.688 112.898 68.744 112.758 68.828C112.646 68.884 112.576 68.912 112.548 68.912H112.464C112.436 68.912 112.408 68.926 112.38 68.954C112.38 68.982 112.352 68.996 112.296 68.996C112.268 69.024 112.226 69.038 112.17 69.038C112.142 69.01 112.1 69.01 112.044 69.038C112.016 69.038 111.974 69.066 111.918 69.122C111.89 69.15 111.862 69.164 111.834 69.164H111.708L111.456 69.29C111.344 69.318 111.218 69.332 111.078 69.332C110.966 69.332 110.84 69.36 110.7 69.416C110.672 69.416 110.616 69.402 110.532 69.374C110.476 69.346 110.42 69.332 110.364 69.332C110.112 69.416 109.86 69.458 109.608 69.458C109.58 69.486 109.552 69.486 109.524 69.458C109.524 69.43 109.51 69.416 109.482 69.416C109.454 69.416 109.44 69.43 109.44 69.458C109.44 69.458 109.426 69.458 109.398 69.458C109.398 69.458 109.356 69.458 109.272 69.458C109.216 69.43 109.174 69.402 109.146 69.374H109.104C109.048 69.374 109.006 69.36 108.978 69.332C108.95 69.304 108.922 69.29 108.894 69.29C108.894 69.29 108.894 69.304 108.894 69.332C108.894 69.332 108.88 69.332 108.852 69.332C108.824 69.332 108.796 69.318 108.768 69.29C108.712 69.29 108.614 69.276 108.474 69.248C108.362 69.192 108.292 69.15 108.264 69.122C108.18 69.15 108.096 69.122 108.012 69.038C107.956 68.982 107.928 68.968 107.928 68.996L107.634 68.87C107.634 68.842 107.62 68.828 107.592 68.828C107.592 68.8 107.592 68.786 107.592 68.786H107.508C107.452 68.73 107.41 68.702 107.382 68.702C107.354 68.618 107.326 68.562 107.298 68.534C107.27 68.506 107.228 68.464 107.172 68.408C107.172 68.296 107.158 68.24 107.13 68.24C107.13 68.184 107.088 68.1 107.004 67.988C106.948 67.848 106.92 67.722 106.92 67.61L106.878 67.568C106.766 67.456 106.738 67.26 106.794 66.98C106.822 66.84 106.808 66.784 106.752 66.812C106.696 66.812 106.71 66.728 106.794 66.56L107.004 66.14C107.004 66.112 106.99 66.098 106.962 66.098C106.934 66.07 106.934 66.042 106.962 66.014C106.962 65.986 106.962 65.972 106.962 65.972C106.99 65.944 107.004 65.916 107.004 65.888C107.032 65.86 107.046 65.804 107.046 65.72C107.046 65.664 107.06 65.622 107.088 65.594C107.088 65.566 107.116 65.51 107.172 65.426C107.256 65.314 107.312 65.244 107.34 65.216L107.592 64.922C107.62 64.894 107.662 64.866 107.718 64.838C107.774 64.81 107.816 64.768 107.844 64.712C107.9 64.656 107.956 64.628 108.012 64.628C108.096 64.6 108.152 64.558 108.18 64.502C108.264 64.362 108.362 64.292 108.474 64.292H108.558C108.67 64.292 108.726 64.32 108.726 64.376C108.726 64.516 108.642 64.628 108.474 64.712C108.362 64.824 108.306 64.88 108.306 64.88C108.306 64.852 108.264 64.88 108.18 64.964C108.18 64.992 108.152 65.006 108.096 65.006C108.068 65.006 108.054 65.034 108.054 65.09C108.026 65.09 108.026 65.104 108.054 65.132C108.082 65.16 108.082 65.202 108.054 65.258C108.054 65.37 108.054 65.426 108.054 65.426C108.026 65.454 108.026 65.496 108.054 65.552C108.082 65.58 108.082 65.622 108.054 65.678C108.026 65.678 107.998 65.692 107.97 65.72L107.928 66.308C107.928 66.308 107.942 66.392 107.97 66.56C107.998 66.7 107.998 66.784 107.97 66.812V67.022C107.97 67.106 108.096 67.19 108.348 67.274C108.376 67.302 108.404 67.316 108.432 67.316C108.488 67.288 108.53 67.288 108.558 67.316C108.922 67.428 109.16 67.512 109.272 67.568C109.384 67.596 109.636 67.61 110.028 67.61H110.364C110.504 67.61 110.63 67.596 110.742 67.568C110.77 67.568 110.77 67.582 110.742 67.61C110.742 67.61 110.756 67.61 110.784 67.61L111.288 67.526C111.316 67.498 111.344 67.484 111.372 67.484C111.4 67.456 111.428 67.456 111.456 67.484C111.484 67.484 111.512 67.484 111.54 67.484L112.464 67.232C112.632 67.176 112.786 67.12 112.926 67.064C113.094 66.98 113.262 66.924 113.43 66.896C113.682 66.84 113.948 66.742 114.228 66.602C114.508 66.434 114.788 66.294 115.068 66.182C115.068 66.154 115.194 66.07 115.446 65.93C115.726 65.79 116.02 65.636 116.328 65.468L116.454 65.048C116.51 64.908 116.594 64.838 116.706 64.838C116.818 64.81 116.902 64.754 116.958 64.67C116.874 64.614 116.804 64.572 116.748 64.544C116.692 64.516 116.692 64.446 116.748 64.334V64.292L116.958 63.62C117.07 63.284 117.126 62.962 117.126 62.654C117.126 61.954 116.86 61.45 116.328 61.142C115.796 60.834 115.166 60.68 114.438 60.68C114.326 60.68 114.2 60.68 114.06 60.68C113.948 60.68 113.822 60.694 113.682 60.722C113.43 60.75 113.178 60.792 112.926 60.848C112.674 60.904 112.408 60.96 112.128 61.016H112.044C111.932 61.016 111.834 61.044 111.75 61.1C111.666 61.128 111.582 61.17 111.498 61.226C111.106 61.338 110.672 61.492 110.196 61.688C109.944 61.744 109.762 61.828 109.65 61.94C109.538 61.996 109.468 62.024 109.44 62.024V62.066C109.272 62.122 109.132 62.15 109.02 62.15C108.964 62.15 108.894 62.15 108.81 62.15C108.726 62.122 108.642 62.108 108.558 62.108C108.614 62.136 108.656 62.15 108.684 62.15C108.712 62.15 108.74 62.164 108.768 62.192C108.796 62.276 108.768 62.332 108.684 62.36C108.628 62.388 108.586 62.43 108.558 62.486H108.516C108.488 62.514 108.432 62.542 108.348 62.57C108.292 62.598 108.236 62.64 108.18 62.696C107.928 62.724 107.704 62.808 107.508 62.948C107.34 63.088 107.186 63.242 107.046 63.41H107.004L106.038 64.082C105.814 64.194 105.618 64.334 105.45 64.502C105.086 64.782 104.722 65.076 104.358 65.384C103.994 65.692 103.63 66 103.266 66.308H103.182C103.042 66.308 102.958 66.35 102.93 66.434C102.93 66.49 102.902 66.588 102.846 66.728H102.804C102.72 66.84 102.622 66.938 102.51 67.022C102.398 67.05 102.328 67.106 102.3 67.19C102.272 67.274 102.216 67.358 102.132 67.442L101.838 67.736C101.726 67.708 101.6 67.666 101.46 67.61C101.348 67.526 101.222 67.484 101.082 67.484C101.082 67.484 101.068 67.498 101.04 67.526C101.04 67.526 101.04 67.554 101.04 67.61C101.208 67.638 101.348 67.708 101.46 67.82C101.572 67.932 101.558 68.058 101.418 68.198L101.334 68.282C101.222 68.394 101.082 68.436 100.914 68.408C100.774 68.38 100.648 68.436 100.536 68.576C100.592 68.604 100.662 68.618 100.746 68.618C100.83 68.618 100.872 68.688 100.872 68.828C100.732 68.996 100.592 69.164 100.452 69.332C100.34 69.5 100.214 69.668 100.074 69.836C99.9622 69.948 99.8642 70.074 99.7802 70.214C99.6962 70.326 99.5842 70.424 99.4442 70.508C99.4162 70.536 99.4022 70.578 99.4022 70.634C99.4302 70.662 99.4302 70.69 99.4022 70.718V70.76L98.7722 71.768C98.6322 71.852 98.5202 71.936 98.4362 72.02C98.3522 72.104 98.3102 72.23 98.3102 72.398C98.4222 72.286 98.4782 72.244 98.4782 72.272V72.314C98.4782 72.37 98.4502 72.426 98.3942 72.482C98.3382 72.51 98.2962 72.552 98.2682 72.608L98.0582 73.112C97.7782 73.756 97.5822 74.33 97.4702 74.834C97.3022 75.366 97.2182 75.87 97.2182 76.346C97.1902 76.458 97.1342 76.57 97.0502 76.682C96.9942 76.766 97.0082 76.864 97.0922 76.976C97.1482 77.032 97.1902 77.074 97.2182 77.102C97.2462 77.102 97.2602 77.158 97.2602 77.27C97.2602 77.41 97.2742 77.508 97.3022 77.564V77.69C97.3022 77.774 97.2742 77.858 97.2182 77.942C97.1622 78.026 97.1482 78.11 97.1762 78.194C97.2042 78.222 97.2602 78.236 97.3442 78.236C97.4282 78.208 97.4842 78.222 97.5122 78.278L97.7642 78.74C97.8482 78.796 97.9042 78.88 97.9322 78.992C97.9602 79.104 97.9882 79.188 98.0162 79.244C98.0722 79.3 98.1422 79.356 98.2262 79.412C98.3102 79.44 98.3662 79.496 98.3942 79.58C98.3942 79.608 98.3802 79.636 98.3522 79.664C98.3522 79.664 98.3522 79.692 98.3522 79.748C98.4922 79.692 98.5062 79.58 98.3942 79.412C98.5622 79.524 98.5622 79.636 98.3942 79.748C98.4502 79.748 98.5062 79.748 98.5622 79.748C98.6182 79.72 98.6742 79.706 98.7302 79.706C98.8422 79.706 98.9542 79.748 99.0662 79.832C99.5142 80.056 100.018 80.21 100.578 80.294C101.166 80.406 101.796 80.462 102.468 80.462C103.224 80.462 104.036 80.392 104.904 80.252C105.772 80.14 106.64 79.986 107.508 79.79V79.748C107.564 79.748 107.606 79.762 107.634 79.79C107.662 79.79 107.69 79.79 107.718 79.79C107.858 79.79 107.984 79.734 108.096 79.622L108.558 79.496C108.782 79.356 108.992 79.244 109.188 79.16C109.384 79.076 109.594 79.062 109.818 79.118C109.874 79.146 109.874 79.174 109.818 79.202C109.79 79.202 109.776 79.23 109.776 79.286C109.832 79.258 109.874 79.216 109.902 79.16C109.93 79.104 109.972 79.062 110.028 79.034L110.28 78.95C110.476 78.922 110.644 78.88 110.784 78.824C110.924 78.74 111.078 78.67 111.246 78.614L111.708 78.446C111.764 78.474 111.82 78.488 111.876 78.488C111.988 78.488 112.072 78.46 112.128 78.404C112.184 78.32 112.268 78.236 112.38 78.152C112.408 78.152 112.478 78.124 112.59 78.068C112.73 78.012 112.884 77.97 113.052 77.942C113.22 77.886 113.36 77.802 113.472 77.69H113.514C113.934 77.494 114.34 77.298 114.732 77.102C115.124 76.906 115.502 76.71 115.866 76.514L117 75.884C117.14 75.772 117.252 75.674 117.336 75.59C117.42 75.506 117.532 75.464 117.672 75.464L117.714 75.422C117.91 75.226 118.12 75.072 118.344 74.96C118.568 74.82 118.75 74.68 118.89 74.54C119.114 74.344 119.282 74.246 119.394 74.246C119.478 74.246 119.52 74.302 119.52 74.414C119.52 74.554 119.436 74.708 119.268 74.876C119.016 75.1 118.736 75.352 118.428 75.632C118.12 75.912 117.77 76.206 117.378 76.514C117.238 76.626 117.084 76.696 116.916 76.724C116.776 76.752 116.678 76.85 116.622 77.018C116.454 77.13 116.272 77.242 116.076 77.354C115.908 77.466 115.712 77.578 115.488 77.69C115.236 77.83 114.97 77.97 114.69 78.11C114.438 78.25 114.158 78.39 113.85 78.53C113.766 78.53 113.668 78.53 113.556 78.53C113.472 78.502 113.388 78.488 113.304 78.488C113.108 78.488 112.968 78.53 112.884 78.614C112.884 78.614 112.884 78.628 112.884 78.656C112.884 78.656 112.898 78.684 112.926 78.74C112.982 78.74 113.038 78.74 113.094 78.74C113.15 78.712 113.206 78.712 113.262 78.74C113.262 78.74 113.262 78.754 113.262 78.782C113.262 78.81 113.234 78.824 113.178 78.824C113.066 78.88 112.982 78.908 112.926 78.908V78.95L112.632 79.076H112.59C112.478 79.188 112.394 79.16 112.338 78.992C112.254 79.02 112.17 79.076 112.086 79.16C112.03 79.244 111.96 79.314 111.876 79.37L111.582 79.496C111.47 79.524 111.358 79.552 111.246 79.58C111.134 79.58 111.05 79.622 110.994 79.706H110.952C110.84 79.762 110.7 79.818 110.532 79.874C110.392 79.902 110.252 79.944 110.112 80V80.042H109.902C109.762 80.042 109.608 80.028 109.44 80C109.272 79.944 109.104 79.916 108.936 79.916C108.992 80 109.09 80.042 109.23 80.042C109.37 80.07 109.412 80.14 109.356 80.252C109.356 80.28 109.342 80.294 109.314 80.294L108.222 80.588V80.63C108.11 80.658 107.984 80.672 107.844 80.672C107.732 80.7 107.62 80.742 107.508 80.798C106.416 81.078 105.338 81.274 104.274 81.386C103.21 81.498 102.216 81.554 101.292 81.554H101.25ZM110.28 69.038C110.308 69.01 110.364 68.996 110.448 68.996C110.56 68.968 110.644 68.94 110.7 68.912L111.624 68.828C111.652 68.828 111.68 68.814 111.708 68.786C111.736 68.758 111.764 68.744 111.792 68.744C111.82 68.716 111.862 68.702 111.918 68.702C112.058 68.59 112.128 68.576 112.128 68.66C112.128 68.716 112.184 68.702 112.296 68.618C112.324 68.59 112.366 68.576 112.422 68.576C112.478 68.52 112.52 68.492 112.548 68.492C112.604 68.464 112.646 68.436 112.674 68.408C112.73 68.38 112.758 68.366 112.758 68.366C112.758 68.338 112.786 68.324 112.842 68.324H112.884C112.94 68.324 113.038 68.282 113.178 68.198C113.318 68.114 113.388 68.072 113.388 68.072C113.416 68.072 113.444 68.044 113.472 67.988C113.528 67.932 113.57 67.904 113.598 67.904C113.626 67.876 113.668 67.862 113.724 67.862C113.78 67.834 113.808 67.806 113.808 67.778C113.864 67.75 113.92 67.722 113.976 67.694C114.032 67.666 114.074 67.652 114.102 67.652C114.13 67.624 114.186 67.582 114.27 67.526C114.382 67.47 114.438 67.428 114.438 67.4C114.494 67.344 114.55 67.302 114.606 67.274C114.69 67.246 114.746 67.218 114.774 67.19C114.858 67.162 115.054 67.022 115.362 66.77C115.67 66.49 115.936 66.168 116.16 65.804C116.216 65.748 116.09 65.818 115.782 66.014C115.502 66.182 115.348 66.28 115.32 66.308C115.292 66.308 115.236 66.35 115.152 66.434C115.068 66.49 115.012 66.518 114.984 66.518L114.9 66.602H114.774L114.732 66.644C114.732 66.644 114.676 66.672 114.564 66.728C114.536 66.728 114.48 66.756 114.396 66.812C114.312 66.868 114.256 66.896 114.228 66.896C114.2 66.896 114.172 66.91 114.144 66.938C114.116 66.938 114.088 66.938 114.06 66.938C113.948 67.022 113.78 67.106 113.556 67.19C113.36 67.274 113.22 67.316 113.136 67.316H113.094C113.038 67.316 112.982 67.344 112.926 67.4L112.884 67.442L112.674 67.484C112.618 67.512 112.548 67.54 112.464 67.568C112.38 67.596 112.31 67.61 112.254 67.61C112.226 67.638 112.212 67.652 112.212 67.652C112.212 67.624 112.212 67.61 112.212 67.61C112.156 67.666 112.086 67.694 112.002 67.694C111.974 67.694 111.96 67.694 111.96 67.694C111.96 67.666 111.946 67.652 111.918 67.652C111.89 67.652 111.834 67.694 111.75 67.778H111.54C111.54 67.806 111.512 67.82 111.456 67.82H111.414C111.386 67.82 111.344 67.834 111.288 67.862C111.232 67.89 111.19 67.904 111.162 67.904C111.134 67.904 111.12 67.918 111.12 67.946C111.12 67.946 111.106 67.946 111.078 67.946C111.078 67.918 111.064 67.904 111.036 67.904H110.994L110.742 67.988H110.616C110.532 67.988 110.434 67.974 110.322 67.946C110.238 67.918 110.14 67.918 110.028 67.946C110 67.946 109.986 67.96 109.986 67.988C109.986 67.988 109.972 67.988 109.944 67.988H109.86C109.86 67.988 109.846 67.988 109.818 67.988C109.818 67.988 109.804 68.002 109.776 68.03C109.776 68.002 109.762 67.988 109.734 67.988H109.482C109.482 67.96 109.468 67.946 109.44 67.946C109.412 67.946 109.384 67.96 109.356 67.988C109.328 67.988 109.3 67.988 109.272 67.988C109.104 67.988 108.978 67.932 108.894 67.82C108.81 67.708 108.656 67.68 108.432 67.736C108.432 67.708 108.418 67.694 108.39 67.694C108.362 67.666 108.348 67.638 108.348 67.61H108.306C108.25 67.666 108.222 67.708 108.222 67.736C108.194 67.764 108.194 67.806 108.222 67.862C108.278 67.89 108.292 67.932 108.264 67.988C108.292 68.016 108.306 68.058 108.306 68.114C108.334 68.142 108.362 68.156 108.39 68.156C108.39 68.24 108.432 68.324 108.516 68.408C108.516 68.436 108.53 68.464 108.558 68.492C108.614 68.52 108.628 68.534 108.6 68.534C108.628 68.562 108.656 68.576 108.684 68.576C108.712 68.576 108.726 68.604 108.726 68.66L108.852 68.786H108.894C109.146 68.898 109.398 68.982 109.65 69.038C109.93 69.066 110.14 69.066 110.28 69.038Z" fill="#D2B646"/>
<path d="M70.6505 51H23.3389C22.8786 51 22.8919 52 23.35 52H70.6623C71.1204 52 71.1086 51 70.6505 51Z" fill="#D2B646"/>
<path d="M56.1301 52.1624C56.3361 52.1694 56.5411 52.1814 56.7471 52.1914C57.8891 52.0364 59.0391 51.9084 60.2001 51.8134C58.2461 51.5244 56.2991 51.0854 54.3821 50.6254C52.2511 50.1144 50.3871 48.9404 48.8151 47.4474C47.8681 46.5484 47.0911 45.4714 46.6301 44.2474C46.0241 42.7324 46.8101 41.3424 48.7811 41.7854C49.2561 42.0704 49.6851 42.4124 50.0661 42.8124C51.1581 43.8494 51.9441 45.3664 53.1801 46.2394C54.6021 47.2434 56.1621 48.1514 57.6571 49.0494C59.2121 49.9834 60.7021 50.9084 62.3241 51.6744C65.1631 51.5204 68.0151 51.5004 70.8101 51.5404C70.8041 51.3704 70.7251 51.2134 70.5571 51.1694C70.4941 51.0204 70.3591 50.9104 70.1451 50.9284C67.1571 51.1854 64.7801 48.5564 63.7101 45.8044C65.6191 47.0244 68.0291 45.3164 68.6921 43.1964C69.4211 40.8714 67.4511 38.8244 65.2211 38.9894C65.4981 38.7434 65.7561 38.4724 65.9791 38.1474C66.6021 37.2364 67.0701 35.4664 66.8201 34.3714C66.1391 31.3894 63.1691 30.5244 60.8821 31.1664C56.1151 33.3564 54.2111 40.5914 56.2911 45.1844C56.8761 46.4794 57.6231 47.5784 58.4861 48.5064C56.4351 47.2974 54.1851 46.0754 52.6481 44.3464C51.6451 43.2154 47.0711 37.9004 45.7771 41.7974C44.4601 45.7634 48.9861 49.3404 52.0991 50.8014C53.3901 51.4084 54.7431 51.8454 56.1301 52.1624ZM66.3821 40.0464C69.9841 40.7644 66.4721 47.5234 63.7601 44.6544C63.6211 44.5074 63.1651 43.8484 63.1301 43.5144C62.9031 41.3524 63.9221 39.5564 66.3821 40.0464ZM60.9481 32.2644C61.0161 32.2764 65.1541 30.9254 65.9401 34.9104C66.3501 36.9864 64.5691 38.9854 62.4881 39.2214C58.5151 39.6734 57.6301 33.7314 60.9481 32.2644ZM57.6491 45.8564C55.7991 42.8344 56.0631 38.2444 58.0371 35.0354C57.7791 37.7764 59.6721 40.7824 62.9941 40.0874C63.0021 40.0864 63.0091 40.0824 63.0171 40.0814C61.8751 41.5004 62.1281 43.9634 62.6131 45.6994C63.2361 47.9294 65.2061 50.3384 67.5211 51.3614C63.4871 51.3014 59.9771 49.6584 57.6491 45.8564Z" fill="#D2B646"/>
<path d="M51.9751 30.0723C50.0221 30.6423 49.8981 33.0294 49.8491 34.6834C49.7701 37.2834 50.8331 39.8834 52.3941 41.9094C52.3971 41.9164 52.4041 41.9184 52.4091 41.9234C52.4531 42.0234 52.4911 42.1233 52.5491 42.2193C52.8531 42.7333 53.6451 42.2553 53.3401 41.7403C52.6681 40.6063 53.3011 37.5314 53.5381 36.4244C53.7851 35.2674 54.1371 34.1644 54.2761 32.9834C54.4251 31.7134 53.6391 29.5863 51.9751 30.0723ZM53.1541 34.1984C52.8671 35.6374 52.4461 36.9644 52.3471 38.4364C52.3151 38.9064 52.2411 39.3973 52.1961 39.8873C51.6351 38.8613 51.2231 37.7763 50.9591 36.5943C50.7171 35.5173 50.7541 34.4144 50.8621 33.3284C50.7741 31.9664 51.7871 30.8084 53.2721 31.8464C53.4131 32.6384 53.3751 33.4214 53.1541 34.1984Z" fill="#D2B646"/>
<path d="M47.1541 49.2333C44.7771 47.0703 43.2271 44.2453 40.8521 42.1103C39.9781 41.3233 37.7161 39.2873 36.5771 40.8803C35.3681 42.5713 37.7101 45.0553 38.7561 46.1383C40.9291 48.3853 43.5931 48.8743 46.3921 49.9363C46.4641 49.9643 46.5311 49.9733 46.5941 49.9683C46.6011 49.9743 46.6091 49.9813 46.6151 49.9883C47.0561 50.3873 47.5901 49.6303 47.1541 49.2333ZM41.2841 46.9973C40.2811 46.3863 39.4301 45.5503 38.6641 44.6713C38.4721 44.4393 38.2861 44.2003 38.1081 43.9563C37.9421 43.6973 37.7781 43.4383 37.6141 43.1793C37.1381 42.5253 37.3721 41.9293 38.3121 41.3913C40.2571 42.0383 41.8561 44.4743 43.0171 46.0573C43.6751 46.9523 44.3761 47.7583 45.1211 48.5333C43.8051 48.1203 42.4981 47.7353 41.2841 46.9973Z" fill="#D2B646"/>
<path d="M63.7781 33.2803C63.0421 31.9853 61.7811 31.6043 60.4071 32.1133C59.4751 32.4583 58.0451 33.3603 58.0681 34.4843C58.0791 35.1073 59.0451 35.0913 59.0341 34.4693C59.0231 33.9173 59.9051 33.4843 60.3051 33.2333C61.0111 32.7923 61.8871 32.6453 62.5541 33.2223C63.2131 33.7903 63.3391 34.9243 63.0201 35.6893C62.7861 36.2483 61.8191 36.4423 61.5601 35.8573C61.3071 35.2893 60.4831 35.7943 60.7341 36.3573C61.2191 37.4503 62.4751 37.3313 63.3251 36.7403C64.3661 36.0173 64.3521 34.2943 63.7781 33.2803Z" fill="#D2B646"/>
<path d="M46.2361 34.6903C46.0211 33.9913 45.5001 33.4003 44.7591 33.2393C41.9421 32.6223 41.4171 37.0303 44.1311 37.3703C44.2571 37.3863 44.3531 37.3493 44.4291 37.2943C45.1291 37.3993 45.8611 37.2213 46.2181 36.6243C46.5451 36.0683 46.4171 35.2813 46.2361 34.6903ZM45.4451 36.0263C45.2041 36.6073 44.0111 36.3643 43.7531 35.9253C43.6541 35.7573 43.5041 35.6963 43.3531 35.6973C43.1231 35.0063 43.4401 34.0693 44.3151 34.1383C44.8471 34.1813 45.2231 34.5523 45.3321 35.0553C45.3821 35.2983 45.5451 35.7843 45.4451 36.0263Z" fill="#D2B646"/>
<path d="M70.3779 51H121.633C122.131 51 122.118 52 121.62 52H70.366C69.8697 52 69.8825 51 70.3779 51Z" fill="#D2B646"/>
<path d="M124.616 55H71.1463H70.8535H17.3847C16.8629 55 16.8767 56 17.397 56H70.8404H71.1593H124.602C125.123 56 125.138 55 124.616 55Z" fill="#D2B646"/>
<path d="M88.4301 50.8014C91.5401 49.3404 96.0671 45.7634 94.7501 41.7974C93.4561 37.9004 88.8821 43.2154 87.8791 44.3464C86.3421 46.0764 84.0921 47.2974 82.0411 48.5064C82.9041 47.5774 83.6511 46.4794 84.2371 45.1844C86.3171 40.5914 84.4121 33.3564 79.6451 31.1664C77.3591 30.5244 74.3891 31.3894 73.7071 34.3714C73.4571 35.4674 73.9271 37.2364 74.5491 38.1474C74.7721 38.4724 75.0301 38.7434 75.3071 38.9894C73.0761 38.8244 71.1081 40.8714 71.8361 43.1964C72.4991 45.3164 74.9091 47.0244 76.8191 45.8044C75.7491 48.5564 73.3721 51.1854 70.3841 50.9284C70.1701 50.9104 70.0341 51.0204 69.9711 51.1694C69.8031 51.2134 69.7251 51.3704 69.7181 51.5404C72.5121 51.5004 75.3651 51.5194 78.2041 51.6744C79.8261 50.9084 81.3151 49.9834 82.8711 49.0494C84.3651 48.1514 85.9251 47.2424 87.3481 46.2394C88.5841 45.3664 89.3681 43.8494 90.4611 42.8124C90.8411 42.4124 91.2701 42.0704 91.7461 41.7854C93.7171 41.3424 94.5031 42.7324 93.8971 44.2474C93.4371 45.4724 92.6591 46.5484 91.7121 47.4474C90.1401 48.9394 88.2761 50.1144 86.1461 50.6254C84.2301 51.0844 82.2821 51.5244 80.3271 51.8134C81.4871 51.9084 82.6391 52.0364 83.7801 52.1914C83.9861 52.1804 84.1911 52.1694 84.3981 52.1624C85.7841 51.8454 87.1371 51.4084 88.4301 50.8014ZM77.3971 43.5154C77.3621 43.8494 76.9061 44.5084 76.7671 44.6554C74.0541 47.5234 70.5431 40.7644 74.1451 40.0474C76.6051 39.5564 77.6231 41.3524 77.3971 43.5154ZM78.0391 39.2214C75.9581 38.9854 74.1761 36.9864 74.5861 34.9104C75.3721 30.9264 79.5111 32.2764 79.5781 32.2644C82.8981 33.7314 82.0121 39.6734 78.0391 39.2214ZM73.0071 51.3614C75.3211 50.3384 77.2921 47.9284 77.9151 45.6994C78.4001 43.9634 78.6521 41.5004 77.5111 40.0814C77.5191 40.0824 77.5261 40.0864 77.5341 40.0874C80.8561 40.7824 82.7481 37.7764 82.4911 35.0354C84.4661 38.2444 84.7301 42.8354 82.8801 45.8564C80.5501 49.6584 77.0391 51.3014 73.0071 51.3614Z" fill="#D2B646"/>
<path d="M86.2521 32.9814C86.3901 34.1634 86.7431 35.2653 86.9901 36.4223C87.2261 37.5293 87.8601 40.6053 87.1881 41.7383C86.8831 42.2543 87.6741 42.7313 87.9781 42.2173C88.0361 42.1213 88.0741 42.0213 88.1181 41.9213C88.1231 41.9163 88.1291 41.9143 88.1321 41.9073C89.6931 39.8823 90.7571 37.2813 90.6781 34.6813C90.6291 33.0273 90.5041 30.6403 88.5521 30.0703C86.8881 29.5863 86.1031 31.7134 86.2521 32.9814ZM87.2561 31.8463C88.7401 30.8093 89.7541 31.9663 89.6681 33.3283C89.7751 34.4143 89.8121 35.5163 89.5701 36.5943C89.3061 37.7763 88.8951 38.8613 88.3321 39.8873C88.2871 39.3973 88.2141 38.9063 88.1811 38.4363C88.0831 36.9633 87.6611 35.6373 87.3741 34.1983C87.1521 33.4213 87.1141 32.6383 87.2561 31.8463Z" fill="#D2B646"/>
<path d="M93.9121 49.9883C93.9181 49.9803 93.9261 49.9733 93.9331 49.9683C93.9961 49.9733 94.0641 49.9643 94.1351 49.9363C96.9321 48.8753 99.5971 48.3853 101.77 46.1383C102.818 45.0553 105.159 42.5723 103.95 40.8803C102.81 39.2873 100.548 41.3233 99.6751 42.1103C97.3021 44.2453 95.7501 47.0703 93.3731 49.2333C92.9371 49.6303 93.4701 50.3873 93.9121 49.9883ZM95.4041 48.5323C96.1501 47.7583 96.8511 46.9523 97.5101 46.0563C98.6701 44.4733 100.268 42.0373 102.214 41.3903C103.155 41.9283 103.387 42.5243 102.912 43.1783C102.748 43.4383 102.583 43.6963 102.419 43.9553C102.24 44.1993 102.055 44.4373 101.862 44.6703C101.097 45.5493 100.245 46.3853 99.2421 46.9963C98.0291 47.7353 96.7221 48.1203 95.4041 48.5323Z" fill="#D2B646"/>
<path d="M76.7491 33.2803C77.4851 31.9853 78.7471 31.6043 80.1211 32.1133C81.0521 32.4583 82.4831 33.3603 82.4601 34.4843C82.4481 35.1073 81.4821 35.0913 81.4941 34.4693C81.5051 33.9173 80.6241 33.4843 80.2221 33.2333C79.5161 32.7923 78.6411 32.6453 77.9731 33.2223C77.3151 33.7903 77.1871 34.9243 77.5071 35.6893C77.7401 36.2483 78.7071 36.4423 78.9671 35.8573C79.2201 35.2893 80.0451 35.7943 79.7931 36.3573C79.3081 37.4503 78.0531 37.3313 77.2021 36.7403C76.1601 36.0173 76.1751 34.2943 76.7491 33.2803Z" fill="#D2B646"/>
<path d="M94.3101 36.6243C94.6671 37.2213 95.3991 37.3993 96.0981 37.2943C96.1741 37.3503 96.2701 37.3863 96.3961 37.3703C99.1091 37.0303 98.5851 32.6223 95.7681 33.2393C95.0261 33.4003 94.5061 33.9913 94.2901 34.6903C94.1111 35.2813 93.9821 36.0683 94.3101 36.6243ZM95.1941 35.0553C95.3041 34.5523 95.6791 34.1813 96.2121 34.1383C97.0871 34.0693 97.4041 35.0053 97.1731 35.6973C97.0221 35.6963 96.8721 35.7583 96.7741 35.9253C96.5151 36.3643 95.3231 36.6073 95.0821 36.0263C94.9821 35.7843 95.1441 35.2983 95.1941 35.0553Z" fill="#D2B646"/>
<path d="M105.989 48.1564C106.345 48.7554 107.077 48.9323 107.777 48.8273C107.852 48.8833 107.948 48.9184 108.075 48.9024C110.789 48.5634 110.264 44.1553 107.447 44.7713C106.706 44.9323 106.185 45.5243 105.97 46.2233C105.79 46.8143 105.661 47.6004 105.989 48.1564ZM106.875 46.5874C106.984 46.0843 107.36 45.7134 107.892 45.6704C108.768 45.6024 109.084 46.5374 108.854 47.2304C108.704 47.2304 108.553 47.2903 108.454 47.4573C108.195 47.8963 107.003 48.1394 106.762 47.5584C106.661 47.3174 106.823 46.8324 106.875 46.5874Z" fill="#D2B646"/>
<path d="M70.3779 96H121.633C122.131 96 122.118 95 121.62 95H70.366C69.8697 95 69.8825 96 70.3779 96Z" fill="#D2B646"/>
<path d="M84.3981 94.7474C84.1911 94.7404 83.9861 94.7274 83.7801 94.7184C82.6381 94.8724 81.4871 95.0014 80.3271 95.0964C82.2811 95.3844 84.2281 95.8244 86.1451 96.2844C88.2761 96.7944 90.1401 97.9694 91.7121 99.4624C92.6591 100.359 93.4371 101.438 93.8971 102.662C94.5031 104.176 93.7161 105.566 91.7461 105.123C91.2701 104.839 90.8411 104.495 90.4611 104.097C89.3681 103.059 88.5841 101.542 87.3471 100.669C85.9251 99.6664 84.3651 98.7574 82.8711 97.8594C81.3151 96.9244 79.8261 96.0004 78.2041 95.2334C75.3651 95.3884 72.5121 95.4074 69.7181 95.3684C69.7251 95.5374 69.8031 95.6934 69.9711 95.7394C70.0341 95.8874 70.1691 95.9984 70.3841 95.9794C73.3721 95.7234 75.7491 98.3514 76.8191 101.104C74.9091 99.8844 72.4991 101.591 71.8361 103.712C71.1081 106.036 73.0761 108.084 75.3071 107.918C75.0301 108.163 74.7711 108.435 74.5491 108.761C73.9271 109.672 73.4581 111.442 73.7071 112.537C74.3891 115.52 77.3591 116.382 79.6451 115.742C84.4121 113.552 86.3171 106.316 84.2371 101.724C83.6511 100.428 82.9041 99.3314 82.0411 98.4014C84.0921 99.6104 86.3421 100.833 87.8791 102.562C88.8821 103.691 93.4551 109.008 94.7501 105.111C96.0671 101.144 91.5411 97.5674 88.4281 96.1064C87.1371 95.4994 85.7841 95.0624 84.3981 94.7474ZM74.1451 106.861C70.5431 106.144 74.0541 99.3854 76.7671 102.254C76.9061 102.4 77.3631 103.059 77.3971 103.394C77.6231 105.555 76.6051 107.352 74.1451 106.861ZM79.5781 114.643C79.5111 114.632 75.3731 115.982 74.5861 111.998C74.1761 109.921 75.9581 107.922 78.0391 107.685C82.0121 107.235 82.8981 113.176 79.5781 114.643ZM82.8781 101.052C84.7281 104.073 84.4641 108.664 82.4901 111.872C82.7481 109.13 80.8551 106.126 77.5331 106.82C77.5251 106.822 77.5181 106.826 77.5101 106.827C78.6521 105.407 78.3991 102.944 77.9141 101.208C77.2911 98.9794 75.3211 96.5694 73.0061 95.5464C77.0391 95.6074 80.5501 97.2504 82.8781 101.052Z" fill="#D2B646"/>
<path d="M88.5521 116.837C90.5041 116.265 90.6291 113.88 90.6781 112.225C90.7561 109.626 89.6931 107.025 88.1321 104.998C88.1291 104.993 88.1221 104.991 88.1181 104.985C88.0741 104.886 88.0351 104.785 87.9781 104.69C87.6741 104.175 86.8821 104.654 87.1871 105.169C87.8591 106.302 87.2261 109.377 86.9891 110.485C86.7431 111.642 86.3901 112.746 86.2511 113.926C86.1021 115.195 86.8881 117.323 88.5521 116.837ZM87.3731 112.71C87.6601 111.271 88.0811 109.944 88.1801 108.472C88.2131 108.003 88.2861 107.511 88.3311 107.022C88.8931 108.046 89.3051 109.131 89.5691 110.315C89.8111 111.392 89.7731 112.494 89.6661 113.579C89.7531 114.943 88.7401 116.1 87.2551 115.062C87.1141 114.27 87.1521 113.486 87.3731 112.71Z" fill="#D2B646"/>
<path d="M93.3721 97.6744C95.7491 99.8384 97.3001 102.663 99.6741 104.798C100.548 105.585 102.809 107.62 103.949 106.028C105.158 104.336 102.816 101.852 101.769 100.769C99.5961 98.5214 96.9311 98.0334 94.1341 96.9704C94.0631 96.9434 93.9941 96.9354 93.9321 96.9404C93.9251 96.9334 93.9171 96.9264 93.9101 96.9194C93.4701 96.5204 92.9371 97.2784 93.3721 97.6744ZM99.2421 99.9124C100.245 100.523 101.096 101.359 101.862 102.238C102.055 102.47 102.24 102.708 102.418 102.953C102.583 103.211 102.748 103.471 102.912 103.729C103.387 104.384 103.154 104.98 102.214 105.518C100.268 104.87 98.6701 102.434 97.5091 100.852C96.8511 99.9553 96.1501 99.1504 95.4041 98.3754C96.7221 98.7884 98.0291 99.1724 99.2421 99.9124Z" fill="#D2B646"/>
<path d="M76.7491 113.627C77.4851 114.922 78.7471 115.304 80.1211 114.795C81.0521 114.449 82.4831 113.548 82.4601 112.424C82.4481 111.801 81.4821 111.816 81.4941 112.438C81.5051 112.991 80.6231 113.424 80.2221 113.674C79.5161 114.116 78.6411 114.262 77.9731 113.686C77.3151 113.117 77.1871 111.983 77.5071 111.219C77.7401 110.66 78.7071 110.466 78.9671 111.051C79.2201 111.618 80.0451 111.112 79.7931 110.551C79.3081 109.458 78.0531 109.577 77.2021 110.167C76.1601 110.89 76.1751 112.614 76.7491 113.627Z" fill="#D2B646"/>
<path d="M94.2911 112.218C94.5061 112.916 95.0261 113.507 95.7691 113.669C98.5861 114.285 99.1101 109.878 96.3971 109.538C96.2711 109.521 96.1751 109.558 96.0991 109.613C95.3991 109.508 94.6671 109.685 94.3111 110.284C93.9821 110.84 94.1111 111.626 94.2911 112.218ZM95.0821 110.882C95.3231 110.301 96.5161 110.544 96.7741 110.982C96.8721 111.15 97.0231 111.21 97.1731 111.21C97.4031 111.902 97.0871 112.838 96.2121 112.769C95.6791 112.726 95.3041 112.355 95.1941 111.852C95.1441 111.61 94.9821 111.124 95.0821 110.882Z" fill="#D2B646"/>
<path d="M70.6505 96H23.3389C22.8786 96 22.8919 95 23.35 95H70.6623C71.1204 95 71.1086 96 70.6505 96Z" fill="#D2B646"/>
<path d="M124.602 91H71.1598H70.8408H17.3974C16.8771 91 16.8625 92 17.3843 92H70.8539H71.1467H124.615C125.137 92 125.123 91 124.602 91Z" fill="#D2B646"/>
<path d="M52.0981 96.1064C48.9871 97.5674 44.4601 101.144 45.7771 105.111C47.0711 109.008 51.6451 103.691 52.6481 102.562C54.1841 100.832 56.4351 99.6104 58.4861 98.4014C57.6231 99.3314 56.8761 100.428 56.2901 101.724C54.2111 106.316 56.1141 113.551 60.8821 115.742C63.1691 116.382 66.1381 115.519 66.8201 112.537C67.0701 111.441 66.6011 109.672 65.9791 108.761C65.7561 108.435 65.4981 108.163 65.2211 107.918C67.4511 108.084 69.4201 106.036 68.6921 103.712C68.0291 101.591 65.6191 99.8844 63.7101 101.104C64.7791 98.3514 67.1571 95.7234 70.1451 95.9794C70.3591 95.9984 70.4951 95.8864 70.5571 95.7394C70.7251 95.6934 70.8041 95.5374 70.8101 95.3684C68.0161 95.4074 65.1631 95.3894 62.3241 95.2334C60.7021 96.0004 59.2121 96.9244 57.6571 97.8594C56.1631 98.7564 54.6021 99.6664 53.1791 100.669C51.9441 101.542 51.1581 103.059 50.0661 104.097C49.6851 104.495 49.2561 104.839 48.7811 105.123C46.8091 105.566 46.0241 104.176 46.6301 102.662C47.0901 101.437 47.8671 100.359 48.8151 99.4624C50.3871 97.9694 52.2511 96.7944 54.3811 96.2844C56.2981 95.8244 58.2451 95.3854 60.2001 95.0964C59.0391 95.0014 57.8881 94.8724 56.7471 94.7184C56.5411 94.7284 56.3361 94.7404 56.1301 94.7474C54.7431 95.0624 53.3901 95.4994 52.0981 96.1064ZM63.1301 103.393C63.1651 103.058 63.6211 102.399 63.7601 102.253C66.4731 99.3854 69.9841 106.144 66.3821 106.86C63.9221 107.352 62.9031 105.555 63.1301 103.393ZM62.4881 107.686C64.5691 107.922 66.3501 109.921 65.9401 111.999C65.1531 115.982 61.0161 114.633 60.9481 114.644C57.6301 113.176 58.5151 107.235 62.4881 107.686ZM67.5201 95.5464C65.2051 96.5694 63.2351 98.9794 62.6121 101.208C62.1271 102.944 61.8741 105.407 63.0161 106.827C63.0081 106.826 63.0011 106.822 62.9931 106.82C59.6711 106.126 57.7781 109.13 58.0361 111.872C56.0611 108.664 55.7971 104.073 57.6481 101.052C59.9771 97.2504 63.4871 95.6074 67.5201 95.5464Z" fill="#D2B646"/>
<path d="M54.2751 113.926C54.1371 112.745 53.7851 111.642 53.5371 110.485C53.3011 109.377 52.6671 106.301 53.3391 105.169C53.6451 104.654 52.8521 104.176 52.5491 104.69C52.4911 104.785 52.4531 104.886 52.4091 104.985C52.4031 104.991 52.3981 104.993 52.3941 104.998C50.8331 107.024 49.7691 109.626 49.8491 112.225C49.8981 113.88 50.0221 116.265 51.9751 116.837C53.6391 117.323 54.4241 115.195 54.2751 113.926ZM53.2711 115.061C51.7861 116.098 50.7731 114.942 50.8601 113.578C50.7531 112.493 50.7161 111.391 50.9581 110.314C51.2221 109.13 51.6331 108.045 52.1951 107.021C52.2401 107.51 52.3141 108.003 52.3461 108.471C52.4441 109.944 52.8671 111.271 53.1531 112.709C53.3751 113.486 53.4131 114.27 53.2711 115.061Z" fill="#D2B646"/>
<path d="M46.6141 96.9194C46.6091 96.9274 46.6011 96.9344 46.5941 96.9404C46.5311 96.9354 46.4641 96.9434 46.3921 96.9704C43.5941 98.0334 40.9301 98.5214 38.7561 100.769C37.7091 101.852 35.3671 104.336 36.5771 106.028C37.7161 107.62 39.9781 105.585 40.8521 104.798C43.2251 102.663 44.7761 99.8384 47.1541 97.6744C47.5901 97.2784 47.0561 96.5204 46.6141 96.9194ZM45.1221 98.3754C44.3771 99.1494 43.6751 99.9553 43.0171 100.852C41.8571 102.434 40.2581 104.87 38.3131 105.518C37.3721 104.98 37.1401 104.384 37.6151 103.729C37.7791 103.47 37.9431 103.211 38.1071 102.953C38.2861 102.708 38.4721 102.471 38.6641 102.238C39.4301 101.359 40.2811 100.523 41.2841 99.9124C42.4981 99.1724 43.8051 98.7884 45.1221 98.3754Z" fill="#D2B646"/>
<path d="M63.7781 113.627C63.0421 114.922 61.7811 115.304 60.4071 114.795C59.4751 114.449 58.0451 113.548 58.0681 112.424C58.0791 111.801 59.0451 111.816 59.0341 112.438C59.0231 112.991 59.9041 113.424 60.3051 113.674C61.0111 114.116 61.8871 114.262 62.5541 113.686C63.2131 113.117 63.3391 111.983 63.0201 111.219C62.7861 110.66 61.8191 110.466 61.5601 111.051C61.3071 111.618 60.4831 111.112 60.7341 110.551C61.2191 109.458 62.4751 109.577 63.3251 110.167C64.3661 110.89 64.3521 112.614 63.7781 113.627Z" fill="#D2B646"/>
<path d="M46.2161 110.285C45.8601 109.686 45.1271 109.509 44.4271 109.614C44.3511 109.558 44.2551 109.522 44.1291 109.539C41.4161 109.879 41.9411 114.286 44.7571 113.67C45.4981 113.508 46.0191 112.917 46.2341 112.219C46.4171 111.626 46.5451 110.84 46.2161 110.285ZM45.3321 111.853C45.2231 112.356 44.8471 112.727 44.3151 112.77C43.4401 112.838 43.1231 111.903 43.3531 111.211C43.5041 111.211 43.6551 111.151 43.7531 110.983C44.0111 110.545 45.2041 110.301 45.4451 110.883C45.5451 111.124 45.3821 111.61 45.3321 111.853Z" fill="#D2B646"/>
<path d="M34.5371 98.7524C34.1811 98.1534 33.4491 97.9764 32.7481 98.0814C32.6731 98.0254 32.5771 97.9894 32.4501 98.0054C29.7371 98.3454 30.2621 102.752 33.0781 102.137C33.8201 101.974 34.3411 101.384 34.5561 100.685C34.7371 100.093 34.8661 99.3084 34.5371 98.7524ZM33.6531 100.32C33.5441 100.823 33.1681 101.195 32.6361 101.237C31.7601 101.306 31.4431 100.37 31.6741 99.6774C31.8251 99.6784 31.9761 99.6184 32.0741 99.4504C32.3331 99.0114 33.5251 98.7674 33.7661 99.3484C33.8651 99.5914 33.7041 100.077 33.6531 100.32Z" fill="#D2B646"/>
</svg>
