<svg width="247" height="159" viewBox="0 0 247 159" fill="none" xmlns="http://www.w3.org/2000/svg">
<path d="M244.891 28.0461C244.703 27.5201 244.412 26.8731 244.019 26.4181C243.966 26.2531 243.884 26.0961 243.741 25.9671C243.448 25.6841 243.158 25.3891 242.865 25.0931C242.37 24.3481 241.899 23.7531 240.877 23.0771C239.14 21.9911 237.183 21.2641 235.181 20.8511C232.246 20.4571 229.266 20.7141 226.316 20.7901C218.722 21.1861 211.118 21.9001 203.682 23.5381C189.65 26.9381 175.534 30.1031 161.736 34.3771C160.82 34.6751 159.922 35.0241 159.034 35.3981C158.942 35.2071 158.616 34.5451 158.526 34.3951C158.514 34.3811 158.509 34.3761 158.498 34.3631C158.408 34.2271 158.309 34.0981 158.223 33.9591C157.044 32.1161 156.369 30.9841 155.253 29.3621L155.252 29.3591C155.085 28.9591 154.771 28.5821 154.345 28.4561C154.193 28.4281 154.031 28.4021 153.87 28.3881C153.817 28.2501 153.744 28.1171 153.623 28.0061C150.947 24.9561 147.345 20.2981 145.755 18.2491C143.89 15.7371 141.339 13.8551 139.359 11.4421C136.549 8.28112 133.546 5.07112 129.487 3.57212C126.305 2.46212 122.904 2.08912 119.606 1.45212C114.283 0.474125 105.987 1.13112 99.7239 2.95612C96.3019 3.91512 92.7989 4.64212 89.4609 5.87112C84.5139 7.83812 79.8829 10.5681 75.5739 13.6821C66.4889 19.7561 59.9819 29.2901 56.9049 39.7181C55.8609 44.4071 55.2159 49.2261 55.3329 54.0361C55.4589 57.0571 56.1719 60.0141 56.6479 62.9911C57.4599 67.8201 59.3119 72.3921 61.1989 76.8741C60.8209 77.3131 60.4799 77.7721 60.1989 78.2611C59.9529 78.7221 59.7659 79.2221 59.7479 79.7491C59.7629 80.0381 59.7899 80.3391 59.8939 80.6111C59.8669 80.5531 59.8679 80.5801 59.9349 80.7401C60.0839 81.1791 60.6989 82.5041 60.9409 83.0361C61.4309 84.0671 62.0139 85.7071 62.4429 86.6671C62.4939 86.7691 62.5449 86.8771 62.5959 86.9851C61.7689 87.4691 60.9799 88.0591 60.1569 88.5151C56.3479 90.9321 52.7039 93.5911 49.1109 96.3151C36.9709 105.555 25.8869 116.083 14.9219 126.665C11.6109 130.005 8.15886 133.214 5.00186 136.702C3.42886 138.616 1.41486 140.555 1.00186 143.089C0.961863 144.338 1.57187 145.442 2.27487 146.439C2.38887 147.106 3.01386 147.771 3.42586 148.287C4.17686 149.202 4.98886 150.067 5.83786 150.892C14.4529 159.63 31.3529 158.472 42.6669 157.059C51.5199 155.843 60.5259 154.23 68.5719 150.171C76.2049 145.811 83.3859 140.152 90.1589 134.555C96.0469 129.79 101.334 124.355 106.852 119.18C115.883 110.979 124.298 102.141 133.051 93.6491C138.066 90.5041 143.022 88.1761 148.265 86.4191C156.785 83.9971 165.6 82.8141 174.259 80.9961C182.872 79.1441 191.447 77.1111 200.164 75.7941C203.235 75.2501 206.292 74.6341 209.362 74.0841C212.003 73.6791 214.566 72.9591 216.879 71.5911C220.358 69.6811 223.943 67.8531 227.014 65.3111C228.943 63.6461 230.459 61.5711 231.81 59.4261C235.008 54.3441 237.817 49.0351 240.702 43.7731C242.206 40.8971 243.995 38.1191 244.948 34.9951C245.35 33.4831 245.529 31.8771 245.377 30.3101C246.142 29.7601 245.523 28.8591 244.891 28.0461ZM153.851 30.3931C153.858 30.3981 153.862 30.4001 153.87 30.4061C154.685 31.3951 155.302 32.0991 155.597 32.5681C156.912 34.6641 157.006 34.9331 157.384 36.1221C157.063 36.2701 156.757 36.4511 156.67 36.8241C156.669 36.8261 156.67 36.8281 156.669 36.8301C155.3 37.5471 154.843 37.7291 153.539 38.2361C150.323 39.4751 146.777 41.5451 144.648 42.2831C142.296 43.2091 140.141 44.1081 138.126 45.3041C138.086 45.3301 138.042 45.3531 138.001 45.3781C138.372 42.5061 137.823 40.2781 137.496 37.3871C137.418 36.8301 137.336 36.2141 137.248 35.5761C140.095 34.1701 142.964 32.7331 145.501 31.8531C149.292 30.6111 152.382 30.1641 153.851 30.3931ZM134.982 52.8561C134.821 53.0411 134.676 53.2411 134.546 53.4471C133.649 54.9121 133.562 54.8481 132.826 55.5931C132.81 55.5981 132.781 55.6181 132.736 55.6581C131.268 56.6571 130.65 56.8411 128.868 57.1931C126.571 57.3541 123.871 56.9501 122.448 56.7511C121.363 56.6141 119.41 56.1351 117.768 56.1471C117.762 56.1181 117.755 56.0891 117.749 56.0601C117.743 56.0321 117.737 56.0041 117.731 55.9771C117.784 55.8391 117.966 55.5391 118.049 55.3931C118.074 55.3691 118.096 55.3441 118.123 55.3231C118.803 54.8471 118.49 55.0521 119.19 54.6081C119.946 54.0471 121.235 53.7441 122.461 53.1701C123.955 52.3801 125.231 51.2231 126.798 50.5601C132.379 48.0591 136.631 47.8931 135.59 51.6701C135.511 52.0051 134.871 52.9011 134.982 52.8561ZM101.055 66.1151C99.7239 66.7301 98.3509 67.0631 97.5109 67.1111C96.2839 67.1521 96.2949 67.3051 95.0339 66.8821C94.8699 66.7771 94.5579 66.6291 94.1729 66.2411C93.9029 66.0121 92.0879 63.1761 91.3269 61.6381C90.6949 60.4201 90.3069 59.6361 89.8549 57.9141C89.8449 57.8501 89.8379 57.8281 89.8329 57.8231C89.8379 57.2411 89.8249 57.0721 89.8579 56.9421C89.8789 56.9091 89.8919 56.8681 89.9089 56.8311C89.9479 56.7641 89.9809 56.6921 90.0109 56.6181C90.1479 56.3511 90.2409 56.1551 90.3189 55.9911C90.3199 55.9891 90.3219 55.9871 90.3219 55.9871C90.8519 55.2531 92.4069 54.0781 94.0449 53.1201C95.1459 52.5821 96.2659 52.0761 97.3459 51.5031C97.5579 51.4151 97.7839 51.3251 98.0799 51.2101C98.2589 51.1611 98.4169 51.0401 98.5099 50.8791C98.5209 50.8611 98.5239 50.8411 98.5329 50.8231C98.9419 50.5691 99.3439 50.3021 99.7269 50.0041C101.789 48.5271 103.188 47.1291 105.668 45.8241C106.96 45.2201 110.104 44.6431 110.824 45.2851C110.84 45.2941 110.855 45.3061 110.87 45.3161C111.458 46.2941 111.861 47.3731 112.411 48.3721C113.877 50.9491 114.819 53.1251 115.493 56.1851C115.54 56.3321 115.569 56.6201 115.566 56.9371C115.564 56.9521 115.566 56.9681 115.565 56.9831C115.555 57.5131 115.454 58.1071 115.189 58.2511C114.125 59.2651 111.438 60.4491 109.242 61.8591C109.263 61.8381 109.281 61.8191 109.297 61.8041C106.461 63.5871 104.241 64.9711 101.055 66.1151ZM86.8409 82.8951C86.5499 83.2881 86.7009 83.1331 86.2009 83.7041C86.0029 83.9471 85.4739 84.4051 85.3359 84.5261C85.3029 84.5481 85.2709 84.5721 85.2399 84.5951C84.0049 85.3471 84.0539 85.1921 83.1989 85.6251C82.9019 85.7761 82.6949 85.8611 82.4189 85.9741C82.2069 85.8641 81.9509 85.8491 81.7219 85.7721C81.6799 85.7511 81.6389 85.7271 81.5989 85.7021C81.5919 85.6941 81.5829 85.6831 81.5749 85.6741C81.5449 85.6271 81.5159 85.5801 81.4929 85.5391C81.4839 85.5061 81.4739 85.4741 81.4679 85.4401C81.4669 85.4051 81.4659 85.3721 81.4669 85.3081C81.4759 85.2221 81.4819 85.1691 81.4859 85.1261C81.4889 85.1061 81.4899 85.1011 81.4929 85.0761C81.9549 82.6531 83.2399 80.7121 84.5849 78.1481C85.7529 76.0991 87.1969 73.2401 88.2959 72.2481C89.8789 70.6031 90.3379 70.3141 91.6279 69.7111C90.3609 72.0931 90.6369 73.5531 90.1279 75.3911C89.2829 78.1871 88.5079 79.9991 86.7929 82.9571C86.8079 82.9391 86.8249 82.9161 86.8409 82.8951ZM89.1729 69.1951C87.8309 70.3831 85.6529 73.7421 84.0119 76.6921C82.7989 79.0521 81.0239 81.0611 79.7789 83.3931C79.4379 84.2491 79.0949 84.5411 79.2579 85.8821C78.8949 85.6681 78.8969 85.6361 78.5189 85.2681C78.0579 84.4511 78.2549 84.9151 78.1029 83.9831C77.9229 81.2681 77.8829 79.7871 77.2369 77.2601C77.1209 76.8971 76.9719 76.5451 76.8369 76.1891C76.8299 76.0931 76.8179 75.9961 76.8189 75.9011C76.7379 75.7381 76.6419 75.5601 76.5289 75.3641C76.5209 75.3451 76.5159 75.3251 76.5069 75.3061C76.3209 74.9361 76.2249 74.4361 75.8029 74.2791C74.0719 72.1151 71.2959 70.0531 69.6909 68.9121C67.6599 67.4821 64.6749 64.2381 63.7389 62.4291C63.7279 62.3981 63.7219 62.3661 63.7129 62.3351C64.1449 61.6961 65.7959 60.6821 67.2109 59.9191C69.1209 58.7821 71.0859 58.3111 73.5929 57.9291C75.7479 57.5731 78.3979 57.3151 81.0459 57.5611C82.1449 57.7161 87.0119 58.3211 87.3499 58.3271C87.6699 58.3531 88.0699 58.4821 88.4249 58.4961C88.9999 60.2941 89.9809 61.9291 90.8819 63.5791C91.7909 65.0681 92.2619 66.1911 92.7549 67.0231C91.2099 67.0511 90.2419 68.0521 89.1729 69.1951ZM133.869 46.4371C132.255 46.5161 131.796 46.7361 130.622 47.2071C130.009 47.3781 127.91 48.3091 126.604 48.9641C125.146 49.6421 123.878 50.6431 122.463 51.3941C122.373 51.4291 122.261 51.4731 122.203 51.4921C121.945 51.6381 119.87 51.9961 119.876 51.9991C118.867 52.2741 118.49 52.4801 118.073 52.6761C117.859 52.7831 117.064 53.1811 117.674 52.9111C117.16 53.1211 116.694 53.4741 116.346 53.9111L116.345 53.9081C116.367 53.8811 116.385 53.8501 116.407 53.8231C116.386 53.8501 116.365 53.8781 116.344 53.9051C115.719 52.0941 114.806 49.8781 113.847 47.8601C113.579 47.4921 113.218 46.0801 112.628 44.8991C114.917 41.2581 116.745 37.5141 120.082 34.9381C121.272 34.0751 124.103 32.4261 125.611 30.9291C126.515 30.0401 128.508 28.2901 128.962 27.9601C130.288 27.0411 130.788 26.7071 131.705 26.4351C132.189 26.4261 132.923 27.0761 133.743 28.6121C134.926 30.8981 135.42 33.9961 135.782 36.7831C136.011 39.2391 136.462 41.7101 136.249 44.1811C136.195 44.4781 135.978 45.7271 135.881 46.9301C135.343 46.6821 134.68 46.5071 133.869 46.4371ZM58.1089 61.0051C57.0809 56.2131 56.5129 53.2151 56.9449 48.0611C57.2039 45.1251 57.5859 42.2741 58.4329 39.0821C59.3069 36.2751 60.2619 34.2921 61.5149 31.6661C65.3009 24.1451 70.7609 18.5031 77.7139 14.1311C81.8619 11.4121 86.1089 9.24512 90.1869 7.71112C93.6849 6.55712 97.3049 5.77712 100.905 5.01412C106.607 3.71812 111.363 2.98712 117.559 3.55912C119.576 3.86612 124.921 4.59812 128.654 5.78812C131.88 6.87412 135.344 10.3501 138.364 13.9071C139.764 15.4831 141.379 16.8511 142.813 18.3951C144.14 19.8671 144.49 20.5731 145.964 22.2921C147.045 23.6891 149.208 26.5271 151.039 28.5251C151.14 28.6101 151.233 28.7091 151.324 28.8131C148.509 29.3601 145.717 30.1101 143.074 31.2131C141.084 32.1721 138.973 32.9791 137.015 34.0061C136.651 31.7231 136.11 29.2401 135.058 27.1981C133.5 24.3481 131.595 24.0581 129.62 25.6901C127.903 26.7911 125.798 29.0391 123.887 30.8061C122.221 32.2231 119.06 33.7591 117.269 35.8611C115.223 38.2871 113.338 40.9361 111.73 43.6771C109.848 42.3081 107.189 43.2581 105.219 44.0461C102.36 45.5091 99.5089 47.9351 96.1679 49.6921C94.4049 50.6341 90.1779 51.9761 88.8009 54.6971C88.6479 55.0241 88.5029 55.3771 88.4119 55.7391C88.3609 55.8321 88.2969 55.9171 88.2559 56.0171C88.1529 56.3261 88.1019 56.6531 88.0949 56.9811C87.9359 56.9661 87.7799 56.9571 87.6429 56.9501C86.6509 56.8551 85.6589 56.7571 84.6659 56.6691C83.1359 56.5441 82.0429 56.2611 80.2449 56.1551C78.1999 56.0621 76.1579 56.2781 74.1389 56.5871C72.8219 56.7911 70.6859 57.0341 69.0519 57.6021C67.6839 58.0881 66.4129 58.8081 65.1539 59.5231C64.1429 60.2391 62.4859 60.9341 62.3039 62.2861C62.3969 63.0631 62.5459 63.1861 62.9669 63.9611C64.7339 66.6751 66.4419 68.6551 69.1259 70.7341C67.7199 71.5631 66.3639 72.5311 65.7729 72.9971C64.6759 73.8121 63.5789 74.6101 62.6059 75.4671C60.7499 70.7591 58.9519 66.0201 58.1089 61.0051ZM61.4409 79.7511C61.4439 79.6901 61.4459 79.6451 61.4479 79.6151C61.6069 78.5281 62.4359 77.3321 63.7499 76.1741C65.2969 74.7981 66.4559 74.0001 68.2409 72.9431C69.1559 72.4411 69.7239 72.1731 70.2819 71.8881C70.3319 71.8781 70.4099 71.8441 70.4949 71.8001C71.8419 72.8821 73.1269 74.0611 74.5999 75.5831C74.9719 75.9161 75.2939 76.6101 75.6279 77.3601C75.6899 77.6091 75.7469 77.8571 75.7879 78.1071C73.2719 80.0771 70.6279 81.7561 67.7229 83.6211C66.3479 84.5781 65.5239 85.2941 64.3439 86.3331C64.2689 86.3121 64.1909 86.2981 64.1089 86.2991C63.6409 85.4831 63.2389 84.6271 62.8259 83.7831C62.3969 82.9961 61.4929 80.3301 61.4409 79.7511ZM114.151 109.054C110.499 112.693 106.602 116.073 102.908 119.668C98.5529 123.756 94.3659 128.033 89.7459 131.829C85.0939 135.781 81.4849 138.624 76.4669 142.185C73.1879 144.541 69.9069 146.943 66.2519 148.69C60.1719 151.577 51.3249 153.52 43.6739 154.548C32.3369 156.049 15.1689 157.472 7.13186 148.846C6.75886 148.471 6.39286 148.088 6.03686 147.697C5.89286 147.538 5.75486 147.375 5.61286 147.213C5.59086 147.079 5.54886 146.946 5.47086 146.818C3.91086 144.699 3.26486 143.783 3.37586 143.111C4.12786 140.075 7.18586 136.477 10.5439 132.98C21.2709 121.96 32.4219 111.278 44.3989 101.618C48.5269 98.4301 53.3889 94.9051 58.1029 91.9421C60.0169 90.7491 61.9129 89.5241 63.8739 88.4101C64.5319 88.5441 65.0009 87.9541 65.4159 87.5151C66.9309 85.9871 68.4369 84.6761 69.6339 83.8981C71.7479 82.4961 73.8639 81.0991 75.9419 79.6431C75.9929 80.6331 75.9799 81.6671 76.0229 82.8061C76.2189 84.0261 76.1409 85.1611 77.3269 86.3651C77.3469 86.3851 77.3729 86.3981 77.3929 86.4171C77.3789 86.4161 77.4099 86.4581 77.4989 86.5341C77.9409 86.9071 78.4069 87.2791 78.9549 87.4801C80.1339 87.9201 82.1019 87.8851 82.5979 87.7741C82.9999 87.7291 85.3389 87.6631 86.6609 86.0931C88.5529 83.8991 88.9959 82.0171 90.0489 79.6841C91.4079 76.8521 92.5749 74.0881 93.2059 71.7471C93.6639 70.4411 94.9599 69.6041 95.1489 68.7651C95.2219 68.7791 95.2899 68.7961 95.3669 68.8081C97.3039 68.9941 99.0769 68.2971 101.158 67.3751C103.79 66.3851 106.847 64.9501 109.127 63.7261C110.356 63.1601 112.408 61.9761 114.599 60.8471C115.162 60.4851 116.672 59.7691 117.078 58.1071C117.088 58.0481 117.084 57.9891 117.091 57.9291C118.064 57.8721 118.461 57.9571 119.541 58.1771C122.249 58.6591 123.666 59.0451 126.44 58.9311C128.353 58.7961 131.148 58.5701 133.684 57.5061C133.788 57.4821 133.889 57.4471 133.981 57.3921C134.026 57.3721 134.007 57.3781 133.973 57.3901C134.96 56.9821 135.628 56.0731 136.213 55.2081C136.663 54.3721 136.703 54.4821 136.835 53.8851C137.235 52.9431 137.174 53.0421 137.558 51.9931C137.855 51.2781 138.013 50.3661 137.865 49.4871C137.942 49.0681 137.985 48.6401 138.036 48.2241C138.027 48.0301 138.056 47.8191 138.077 47.6071C138.291 47.4721 138.497 47.3131 138.706 47.1901C140.002 46.3411 140.324 46.1771 141.698 45.4321C143.401 44.5351 145.214 43.8751 146.944 43.0341C148.773 42.1631 150.478 41.0531 152.308 40.1851C153.75 39.4931 155.823 38.8401 157.752 38.0631C157.809 38.0421 157.846 38.0271 157.876 38.0141C158.126 37.9481 158.384 37.8361 158.412 37.8021C158.567 37.7451 158.716 37.6711 158.857 37.5881C158.896 37.5561 158.917 37.5231 158.951 37.4911C162.613 35.8651 167.243 34.6111 171.593 33.4001C179.765 31.0011 188.03 28.9351 196.327 27.0201C206.468 24.3661 215.691 22.9541 226.155 22.7941C227.665 22.7711 229.786 22.7801 231.547 22.8431C230.874 22.9751 230.204 23.1071 229.543 23.2201C221.543 24.7691 214.192 28.5081 207.213 32.5931C199.778 36.8801 192.527 41.4681 185.26 46.0321C171.036 55.4031 159.386 67.9781 146.306 78.7741C134.834 88.0371 124.604 98.6871 114.151 109.054ZM241.734 36.7451C238.744 42.5631 235.553 48.2851 232.325 53.9751C229.932 57.8881 228.427 60.9741 225.213 63.7321C222.724 65.8011 215.983 69.5251 213.09 70.7921C209.12 71.9491 204.977 72.4281 200.939 73.3111C190.868 74.9541 180.987 77.4961 170.992 79.5151C162.896 81.1501 154.585 82.0211 146.704 84.5631C144.319 85.4251 141.5 86.7311 138.688 88.2511C145.377 82.0631 152.627 76.5071 159.299 70.2941C172.02 58.9761 182.345 49.4671 195.996 40.8471C202.542 36.8261 209.017 32.5661 216.044 29.4251C221.066 27.0771 229.709 25.2001 234.798 24.7091C237.934 24.3851 238.847 24.4321 240.46 26.0771C241.023 26.4741 241.442 27.1581 241.986 27.5971C242.058 27.7611 242.156 27.9151 242.278 28.0461C242.633 28.7181 242.667 28.7081 242.934 29.8581C243.334 31.5731 242.798 34.8471 241.734 36.7451Z" fill="#D2B646" stroke="#D2B646"/>
</svg>
