<svg width="245" height="158" viewBox="0 0 245 158" fill="none" xmlns="http://www.w3.org/2000/svg">
<path d="M243.891 27.0461C243.703 26.5201 243.412 25.8731 243.019 25.4181C242.966 25.2531 242.884 25.0961 242.741 24.9671C242.448 24.6841 242.158 24.3891 241.865 24.0931C241.37 23.3481 240.899 22.7531 239.877 22.0771C238.14 20.9911 236.183 20.2641 234.181 19.8511C231.246 19.4571 228.266 19.7141 225.316 19.7901C217.722 20.1861 210.118 20.9001 202.682 22.5381C188.65 25.9381 174.534 29.1031 160.736 33.3771C159.82 33.6751 158.922 34.0241 158.034 34.3981C157.942 34.2071 157.616 33.5451 157.526 33.3951C157.514 33.3811 157.509 33.3761 157.498 33.3631C157.408 33.2271 157.309 33.0981 157.223 32.9591C156.044 31.1161 155.369 29.9841 154.253 28.3621L154.252 28.3591C154.085 27.9591 153.771 27.5821 153.345 27.4561C153.193 27.4281 153.031 27.4021 152.87 27.3881C152.817 27.2501 152.744 27.1171 152.623 27.0061C149.947 23.9561 146.345 19.2981 144.755 17.2491C142.89 14.7371 140.339 12.8551 138.359 10.4421C135.549 7.28112 132.546 4.07112 128.487 2.57212C125.305 1.46212 121.904 1.08912 118.606 0.452125C113.283 -0.525875 104.987 0.131123 98.7239 1.95612C95.3019 2.91512 91.7989 3.64212 88.4609 4.87112C83.5139 6.83812 78.8829 9.56812 74.5739 12.6821C65.4889 18.7561 58.9819 28.2901 55.9049 38.7181C54.8609 43.4071 54.2159 48.2261 54.3329 53.0361C54.4589 56.0571 55.1719 59.0141 55.6479 61.9911C56.4599 66.8201 58.3119 71.3921 60.1989 75.8741C59.8209 76.3131 59.4799 76.7721 59.1989 77.2611C58.9529 77.7221 58.7659 78.2221 58.7479 78.7491C58.7629 79.0381 58.7899 79.3391 58.8939 79.6111C58.8669 79.5531 58.8679 79.5801 58.9349 79.7401C59.0839 80.1791 59.6989 81.5041 59.9409 82.0361C60.4309 83.0671 61.0139 84.7071 61.4429 85.6671C61.4939 85.7691 61.5449 85.8771 61.5959 85.9851C60.7689 86.4691 59.9799 87.0591 59.1569 87.5151C55.3479 89.9321 51.7039 92.5911 48.1109 95.3151C35.9709 104.555 24.8869 115.083 13.9219 125.665C10.6109 129.005 7.15886 132.214 4.00186 135.702C2.42886 137.616 0.414863 139.555 0.0018627 142.089C-0.0381373 143.338 0.571865 144.442 1.27487 145.439C1.38887 146.106 2.01386 146.771 2.42586 147.287C3.17686 148.202 3.98886 149.067 4.83786 149.892C13.4529 158.63 30.3529 157.472 41.6669 156.059C50.5199 154.843 59.5259 153.23 67.5719 149.171C75.2049 144.811 82.3859 139.152 89.1589 133.555C95.0469 128.79 100.334 123.355 105.852 118.18C114.883 109.979 123.298 101.141 132.051 92.6491C137.066 89.5041 142.022 87.1761 147.265 85.4191C155.785 82.9971 164.6 81.8141 173.259 79.9961C181.872 78.1441 190.447 76.1111 199.164 74.7941C202.235 74.2501 205.292 73.6341 208.362 73.0841C211.003 72.6791 213.566 71.9591 215.879 70.5911C219.358 68.6811 222.943 66.8531 226.014 64.3111C227.943 62.6461 229.459 60.5711 230.81 58.4261C234.008 53.3441 236.817 48.0351 239.702 42.7731C241.206 39.8971 242.995 37.1191 243.948 33.9951C244.35 32.4831 244.529 30.8771 244.377 29.3101C245.142 28.7601 244.523 27.8591 243.891 27.0461ZM152.851 29.3931C152.858 29.3981 152.862 29.4001 152.87 29.4061C153.685 30.3951 154.302 31.0991 154.597 31.5681C155.912 33.6641 156.006 33.9331 156.384 35.1221C156.063 35.2701 155.757 35.4511 155.67 35.8241C155.669 35.8261 155.67 35.8281 155.669 35.8301C154.3 36.5471 153.843 36.7291 152.539 37.2361C149.323 38.4751 145.777 40.5451 143.648 41.2831C141.296 42.2091 139.141 43.1081 137.126 44.3041C137.086 44.3301 137.042 44.3531 137.001 44.3781C137.372 41.5061 136.823 39.2781 136.496 36.3871C136.418 35.8301 136.336 35.2141 136.248 34.5761C139.095 33.1701 141.964 31.7331 144.501 30.8531C148.292 29.6111 151.382 29.1641 152.851 29.3931ZM133.982 51.8561C133.821 52.0411 133.676 52.2411 133.546 52.4471C132.649 53.9121 132.562 53.8481 131.826 54.5931C131.81 54.5981 131.781 54.6181 131.736 54.6581C130.268 55.6571 129.65 55.8411 127.868 56.1931C125.571 56.3541 122.871 55.9501 121.448 55.7511C120.363 55.6141 118.41 55.1351 116.768 55.1471C116.762 55.1181 116.755 55.0891 116.749 55.0601C116.743 55.0321 116.737 55.0041 116.731 54.9771C116.784 54.8391 116.966 54.5391 117.049 54.3931C117.074 54.3691 117.096 54.3441 117.123 54.3231C117.803 53.8471 117.49 54.0521 118.19 53.6081C118.946 53.0471 120.235 52.7441 121.461 52.1701C122.955 51.3801 124.231 50.2231 125.798 49.5601C131.379 47.0591 135.631 46.8931 134.59 50.6701C134.511 51.0051 133.871 51.9011 133.982 51.8561ZM100.055 65.1151C98.7239 65.7301 97.3509 66.0631 96.5109 66.1111C95.2839 66.1521 95.2949 66.3051 94.0339 65.8821C93.8699 65.7771 93.5579 65.6291 93.1729 65.2411C92.9029 65.0121 91.0879 62.1761 90.3269 60.6381C89.6949 59.4201 89.3069 58.6361 88.8549 56.9141C88.8449 56.8501 88.8379 56.8281 88.8329 56.8231C88.8379 56.2411 88.8249 56.0721 88.8579 55.9421C88.8789 55.9091 88.8919 55.8681 88.9089 55.8311C88.9479 55.7641 88.9809 55.6921 89.0109 55.6181C89.1479 55.3511 89.2409 55.1551 89.3189 54.9911C89.3199 54.9891 89.3219 54.9871 89.3219 54.9871C89.8519 54.2531 91.4069 53.0781 93.0449 52.1201C94.1459 51.5821 95.2659 51.0761 96.3459 50.5031C96.5579 50.4151 96.7839 50.3251 97.0799 50.2101C97.2589 50.1611 97.4169 50.0401 97.5099 49.8791C97.5209 49.8611 97.5239 49.8411 97.5329 49.8231C97.9419 49.5691 98.3439 49.3021 98.7269 49.0041C100.789 47.5271 102.188 46.1291 104.668 44.8241C105.96 44.2201 109.104 43.6431 109.824 44.2851C109.84 44.2941 109.855 44.3061 109.87 44.3161C110.458 45.2941 110.861 46.3731 111.411 47.3721C112.877 49.9491 113.819 52.1251 114.493 55.1851C114.54 55.3321 114.569 55.6201 114.566 55.9371C114.564 55.9521 114.566 55.9681 114.565 55.9831C114.555 56.5131 114.454 57.1071 114.189 57.2511C113.125 58.2651 110.438 59.4491 108.242 60.8591C108.263 60.8381 108.281 60.8191 108.297 60.8041C105.461 62.5871 103.241 63.9711 100.055 65.1151ZM85.8409 81.8951C85.5499 82.2881 85.7009 82.1331 85.2009 82.7041C85.0029 82.9471 84.4739 83.4051 84.3359 83.5261C84.3029 83.5481 84.2709 83.5721 84.2399 83.5951C83.0049 84.3471 83.0539 84.1921 82.1989 84.6251C81.9019 84.7761 81.6949 84.8611 81.4189 84.9741C81.2069 84.8641 80.9509 84.8491 80.7219 84.7721C80.6799 84.7511 80.6389 84.7271 80.5989 84.7021C80.5919 84.6941 80.5829 84.6831 80.5749 84.6741C80.5449 84.6271 80.5159 84.5801 80.4929 84.5391C80.4839 84.5061 80.4739 84.4741 80.4679 84.4401C80.4669 84.4051 80.4659 84.3721 80.4669 84.3081C80.4759 84.2221 80.4819 84.1691 80.4859 84.1261C80.4889 84.1061 80.4899 84.1011 80.4929 84.0761C80.9549 81.6531 82.2399 79.7121 83.5849 77.1481C84.7529 75.0991 86.1969 72.2401 87.2959 71.2481C88.8789 69.6031 89.3379 69.3141 90.6279 68.7111C89.3609 71.0931 89.6369 72.5531 89.1279 74.3911C88.2829 77.1871 87.5079 78.9991 85.7929 81.9571C85.8079 81.9391 85.8249 81.9161 85.8409 81.8951ZM88.1729 68.1951C86.8309 69.3831 84.6529 72.7421 83.0119 75.6921C81.7989 78.0521 80.0239 80.0611 78.7789 82.3931C78.4379 83.2491 78.0949 83.5411 78.2579 84.8821C77.8949 84.6681 77.8969 84.6361 77.5189 84.2681C77.0579 83.4511 77.2549 83.9151 77.1029 82.9831C76.9229 80.2681 76.8829 78.7871 76.2369 76.2601C76.1209 75.8971 75.9719 75.5451 75.8369 75.1891C75.8299 75.0931 75.8179 74.9961 75.8189 74.9011C75.7379 74.7381 75.6419 74.5601 75.5289 74.3641C75.5209 74.3451 75.5159 74.3251 75.5069 74.3061C75.3209 73.9361 75.2249 73.4361 74.8029 73.2791C73.0719 71.1151 70.2959 69.0531 68.6909 67.9121C66.6599 66.4821 63.6749 63.2381 62.7389 61.4291C62.7279 61.3981 62.7219 61.3661 62.7129 61.3351C63.1449 60.6961 64.7959 59.6821 66.2109 58.9191C68.1209 57.7821 70.0859 57.3111 72.5929 56.9291C74.7479 56.5731 77.3979 56.3151 80.0459 56.5611C81.1449 56.7161 86.0119 57.3211 86.3499 57.3271C86.6699 57.3531 87.0699 57.4821 87.4249 57.4961C87.9999 59.2941 88.9809 60.9291 89.8819 62.5791C90.7909 64.0681 91.2619 65.1911 91.7549 66.0231C90.2099 66.0511 89.2419 67.0521 88.1729 68.1951ZM132.869 45.4371C131.255 45.5161 130.796 45.7361 129.622 46.2071C129.009 46.3781 126.91 47.3091 125.604 47.9641C124.146 48.6421 122.878 49.6431 121.463 50.3941C121.373 50.4291 121.261 50.4731 121.203 50.4921C120.945 50.6381 118.87 50.9961 118.876 50.9991C117.867 51.2741 117.49 51.4801 117.073 51.6761C116.859 51.7831 116.064 52.1811 116.674 51.9111C116.16 52.1211 115.694 52.4741 115.346 52.9111L115.345 52.9081C115.367 52.8811 115.385 52.8501 115.407 52.8231C115.386 52.8501 115.365 52.8781 115.344 52.9051C114.719 51.0941 113.806 48.8781 112.847 46.8601C112.579 46.4921 112.218 45.0801 111.628 43.8991C113.917 40.2581 115.745 36.5141 119.082 33.9381C120.272 33.0751 123.103 31.4261 124.611 29.9291C125.515 29.0401 127.508 27.2901 127.962 26.9601C129.288 26.0411 129.788 25.7071 130.705 25.4351C131.189 25.4261 131.923 26.0761 132.743 27.6121C133.926 29.8981 134.42 32.9961 134.782 35.7831C135.011 38.2391 135.462 40.7101 135.249 43.1811C135.195 43.4781 134.978 44.7271 134.881 45.9301C134.343 45.6821 133.68 45.5071 132.869 45.4371ZM57.1089 60.0051C56.0809 55.2131 55.5129 52.2151 55.9449 47.0611C56.2039 44.1251 56.5859 41.2741 57.4329 38.0821C58.3069 35.2751 59.2619 33.2921 60.5149 30.6661C64.3009 23.1451 69.7609 17.5031 76.7139 13.1311C80.8619 10.4121 85.1089 8.24512 89.1869 6.71112C92.6849 5.55712 96.3049 4.77712 99.9049 4.01412C105.607 2.71812 110.363 1.98712 116.559 2.55912C118.576 2.86612 123.921 3.59812 127.654 4.78812C130.88 5.87412 134.344 9.35013 137.364 12.9071C138.764 14.4831 140.379 15.8511 141.813 17.3951C143.14 18.8671 143.49 19.5731 144.964 21.2921C146.045 22.6891 148.208 25.5271 150.039 27.5251C150.14 27.6101 150.233 27.7091 150.324 27.8131C147.509 28.3601 144.717 29.1101 142.074 30.2131C140.084 31.1721 137.973 31.9791 136.015 33.0061C135.651 30.7231 135.11 28.2401 134.058 26.1981C132.5 23.3481 130.595 23.0581 128.62 24.6901C126.903 25.7911 124.798 28.0391 122.887 29.8061C121.221 31.2231 118.06 32.7591 116.269 34.8611C114.223 37.2871 112.338 39.9361 110.73 42.6771C108.848 41.3081 106.189 42.2581 104.219 43.0461C101.36 44.5091 98.5089 46.9351 95.1679 48.6921C93.4049 49.6341 89.1779 50.9761 87.8009 53.6971C87.6479 54.0241 87.5029 54.3771 87.4119 54.7391C87.3609 54.8321 87.2969 54.9171 87.2559 55.0171C87.1529 55.3261 87.1019 55.6531 87.0949 55.9811C86.9359 55.9661 86.7799 55.9571 86.6429 55.9501C85.6509 55.8551 84.6589 55.7571 83.6659 55.6691C82.1359 55.5441 81.0429 55.2611 79.2449 55.1551C77.1999 55.0621 75.1579 55.2781 73.1389 55.5871C71.8219 55.7911 69.6859 56.0341 68.0519 56.6021C66.6839 57.0881 65.4129 57.8081 64.1539 58.5231C63.1429 59.2391 61.4859 59.9341 61.3039 61.2861C61.3969 62.0631 61.5459 62.1861 61.9669 62.9611C63.7339 65.6751 65.4419 67.6551 68.1259 69.7341C66.7199 70.5631 65.3639 71.5311 64.7729 71.9971C63.6759 72.8121 62.5789 73.6101 61.6059 74.4671C59.7499 69.7591 57.9519 65.0201 57.1089 60.0051ZM60.4409 78.7511C60.4439 78.6901 60.4459 78.6451 60.4479 78.6151C60.6069 77.5281 61.4359 76.3321 62.7499 75.1741C64.2969 73.7981 65.4559 73.0001 67.2409 71.9431C68.1559 71.4411 68.7239 71.1731 69.2819 70.8881C69.3319 70.8781 69.4099 70.8441 69.4949 70.8001C70.8419 71.8821 72.1269 73.0611 73.5999 74.5831C73.9719 74.9161 74.2939 75.6101 74.6279 76.3601C74.6899 76.6091 74.7469 76.8571 74.7879 77.1071C72.2719 79.0771 69.6279 80.7561 66.7229 82.6211C65.3479 83.5781 64.5239 84.2941 63.3439 85.3331C63.2689 85.3121 63.1909 85.2981 63.1089 85.2991C62.6409 84.4831 62.2389 83.6271 61.8259 82.7831C61.3969 81.9961 60.4929 79.3301 60.4409 78.7511ZM113.151 108.054C109.499 111.693 105.602 115.073 101.908 118.668C97.5529 122.756 93.3659 127.033 88.7459 130.829C84.0939 134.781 80.4849 137.624 75.4669 141.185C72.1879 143.541 68.9069 145.943 65.2519 147.69C59.1719 150.577 50.3249 152.52 42.6739 153.548C31.3369 155.049 14.1689 156.472 6.13186 147.846C5.75886 147.471 5.39286 147.088 5.03686 146.697C4.89286 146.538 4.75486 146.375 4.61286 146.213C4.59086 146.079 4.54886 145.946 4.47086 145.818C2.91086 143.699 2.26486 142.783 2.37586 142.111C3.12786 139.075 6.18586 135.477 9.54386 131.98C20.2709 120.96 31.4219 110.278 43.3989 100.618C47.5269 97.4301 52.3889 93.9051 57.1029 90.9421C59.0169 89.7491 60.9129 88.5241 62.8739 87.4101C63.5319 87.5441 64.0009 86.9541 64.4159 86.5151C65.9309 84.9871 67.4369 83.6761 68.6339 82.8981C70.7479 81.4961 72.8639 80.0991 74.9419 78.6431C74.9929 79.6331 74.9799 80.6671 75.0229 81.8061C75.2189 83.0261 75.1409 84.1611 76.3269 85.3651C76.3469 85.3851 76.3729 85.3981 76.3929 85.4171C76.3789 85.4161 76.4099 85.4581 76.4989 85.5341C76.9409 85.9071 77.4069 86.2791 77.9549 86.4801C79.1339 86.9201 81.1019 86.8851 81.5979 86.7741C81.9999 86.7291 84.3389 86.6631 85.6609 85.0931C87.5529 82.8991 87.9959 81.0171 89.0489 78.6841C90.4079 75.8521 91.5749 73.0881 92.2059 70.7471C92.6639 69.4411 93.9599 68.6041 94.1489 67.7651C94.2219 67.7791 94.2899 67.7961 94.3669 67.8081C96.3039 67.9941 98.0769 67.2971 100.158 66.3751C102.79 65.3851 105.847 63.9501 108.127 62.7261C109.356 62.1601 111.408 60.9761 113.599 59.8471C114.162 59.4851 115.672 58.7691 116.078 57.1071C116.088 57.0481 116.084 56.9891 116.091 56.9291C117.064 56.8721 117.461 56.9571 118.541 57.1771C121.249 57.6591 122.666 58.0451 125.44 57.9311C127.353 57.7961 130.148 57.5701 132.684 56.5061C132.788 56.4821 132.889 56.4471 132.981 56.3921C133.026 56.3721 133.007 56.3781 132.973 56.3901C133.96 55.9821 134.628 55.0731 135.213 54.2081C135.663 53.3721 135.703 53.4821 135.835 52.8851C136.235 51.9431 136.174 52.0421 136.558 50.9931C136.855 50.2781 137.013 49.3661 136.865 48.4871C136.942 48.0681 136.985 47.6401 137.036 47.2241C137.027 47.0301 137.056 46.8191 137.077 46.6071C137.291 46.4721 137.497 46.3131 137.706 46.1901C139.002 45.3411 139.324 45.1771 140.698 44.4321C142.401 43.5351 144.214 42.8751 145.944 42.0341C147.773 41.1631 149.478 40.0531 151.308 39.1851C152.75 38.4931 154.823 37.8401 156.752 37.0631C156.809 37.0421 156.846 37.0271 156.876 37.0141C157.126 36.9481 157.384 36.8361 157.412 36.8021C157.567 36.7451 157.716 36.6711 157.857 36.5881C157.896 36.5561 157.917 36.5231 157.951 36.4911C161.613 34.8651 166.243 33.6111 170.593 32.4001C178.765 30.0011 187.03 27.9351 195.327 26.0201C205.468 23.3661 214.691 21.9541 225.155 21.7941C226.665 21.7711 228.786 21.7801 230.547 21.8431C229.874 21.9751 229.204 22.1071 228.543 22.2201C220.543 23.7691 213.192 27.5081 206.213 31.5931C198.778 35.8801 191.527 40.4681 184.26 45.0321C170.036 54.4031 158.386 66.9781 145.306 77.7741C133.834 87.0371 123.604 97.6871 113.151 108.054ZM240.734 35.7451C237.744 41.5631 234.553 47.2851 231.325 52.9751C228.932 56.8881 227.427 59.9741 224.213 62.7321C221.724 64.8011 214.983 68.5251 212.09 69.7921C208.12 70.9491 203.977 71.4281 199.939 72.3111C189.868 73.9541 179.987 76.4961 169.992 78.5151C161.896 80.1501 153.585 81.0211 145.704 83.5631C143.319 84.4251 140.5 85.7311 137.688 87.2511C144.377 81.0631 151.627 75.5071 158.299 69.2941C171.02 57.9761 181.345 48.4671 194.996 39.8471C201.542 35.8261 208.017 31.5661 215.044 28.4251C220.066 26.0771 228.709 24.2001 233.798 23.7091C236.934 23.3851 237.847 23.4321 239.46 25.0771C240.023 25.4741 240.442 26.1581 240.986 26.5971C241.058 26.7611 241.156 26.9151 241.278 27.0461C241.633 27.7181 241.667 27.7081 241.934 28.8581C242.334 30.5731 241.798 33.8471 240.734 35.7451Z" fill="#D2B646"/>
<path d="M89.9128 64.0519C89.2098 62.9709 88.5248 61.8769 87.8778 60.7609C87.3818 60.0529 87.0908 58.8949 86.5148 58.3379C86.2588 58.2589 86.0228 58.5639 86.1658 58.7919C86.9758 60.5569 87.9808 62.2159 88.9648 63.8879C89.1908 64.2229 89.4238 65.0539 89.9428 64.6419C90.1168 64.4729 90.0568 64.2189 89.9128 64.0519Z" fill="#D2B646"/>
<path d="M87.9708 63.402C87.3908 62.317 86.7438 61.269 86.1328 60.202C85.8258 59.659 84.9778 60.153 85.2998 60.689C85.9208 61.749 86.5248 62.819 87.1638 63.867C87.3018 64.142 87.6928 64.2 87.9058 63.981C88.0588 63.832 88.0838 63.58 87.9708 63.402Z" fill="#D2B646"/>
<path d="M87.1219 65.7092C86.5289 64.5092 85.8399 63.3282 85.1309 62.2032C84.7969 61.9142 84.2868 62.3662 84.5218 62.7382C85.1188 63.9542 85.6978 65.1952 86.4918 66.2982C86.9098 66.8362 87.5239 66.2222 87.1219 65.7092Z" fill="#D2B646"/>
<path d="M84.7749 66.1608C84.4979 65.5038 84.3939 65.3128 84.1679 64.6618C84.0459 64.1928 83.3119 64.3948 83.4459 64.8608C83.6569 65.4988 83.9319 66.1118 84.2009 66.7278C84.3179 66.9398 84.6269 66.9768 84.7949 66.8048C84.9899 66.6178 84.8729 66.3628 84.7749 66.1608Z" fill="#D2B646"/>
<path d="M82.6008 66.746C82.3368 66.362 81.6978 66.685 81.8358 67.127C81.8818 67.449 82.0388 67.873 82.4428 67.761C82.8818 67.636 82.7698 67.047 82.6008 66.746Z" fill="#D2B646"/>
<path d="M80.8209 67.731C80.2689 67.722 80.2699 68.591 80.8209 68.584C81.3739 68.593 81.3729 67.724 80.8209 67.731Z" fill="#D2B646"/>
<path d="M115.672 49.1949C115.034 47.7849 114.512 46.6349 114.003 45.3859C113.708 44.8159 113.615 44.0889 113.213 43.5999C112.939 43.4279 112.567 43.7119 112.663 44.0229C113.338 45.9029 114.114 47.7449 114.912 49.5759C114.957 49.6489 115.083 49.8379 115.19 49.8239C115.338 49.8669 115.496 49.8189 115.606 49.7139C115.74 49.5809 115.769 49.3569 115.672 49.1949Z" fill="#D2B646"/>
<path d="M114.93 49.6186C114.924 49.6036 114.918 49.5886 114.911 49.5746C114.886 49.5336 114.886 49.5286 114.93 49.6186Z" fill="#D2B646"/>
<path d="M117.81 49.2461C116.848 47.2411 116.195 45.4731 115.382 43.2391C115.064 42.5331 114.958 41.6691 114.524 41.0441C114.277 40.8901 113.942 41.1441 114.029 41.4251C114.991 44.3681 115.733 47.4261 117.124 49.8481C117.501 50.1721 118.075 49.6651 117.81 49.2461Z" fill="#D2B646"/>
<path d="M119.155 48.1363C118.315 46.1233 117.367 43.6863 116.552 41.2783C116.277 40.6993 116.202 39.7283 115.801 39.2943C115.494 39.1013 115.076 39.4193 115.184 39.7683C115.924 42.3463 116.809 44.8833 117.764 47.3893C118.039 47.8813 118.128 48.7773 118.657 49.0203C119.393 49.1313 119.335 48.3403 119.155 48.1363Z" fill="#D2B646"/>
<path d="M120.349 46.0869C119.446 44.0639 118.901 42.8429 118.202 40.9959C117.991 40.5949 118.003 40.0209 117.681 39.7069C117.412 39.5379 117.046 39.8169 117.141 40.1219C117.631 41.9459 118.371 43.6949 119.121 45.4239C119.379 45.8679 119.599 46.7339 120.041 46.9619C120.729 47.0069 120.548 46.3939 120.349 46.0869Z" fill="#D2B646"/>
<path d="M121.401 41.5772C121.368 41.3892 121.332 41.1802 121.147 41.0832C120.815 40.8742 120.365 41.2192 120.482 41.5952C120.552 41.8722 120.555 42.1932 120.714 42.4352C120.888 42.6972 121.322 42.6602 121.47 42.3892C121.617 42.1282 121.439 41.8452 121.401 41.5772Z" fill="#D2B646"/>
<path d="M134.189 41.8862C134.2 41.8322 134.199 41.8122 134.189 41.8862Z" fill="#D2B646"/>
<path d="M134.186 41.9072C134.188 41.8942 134.188 41.8952 134.189 41.8862C134.188 41.8902 134.187 41.8942 134.186 41.8992C134.186 41.9022 134.186 41.9052 134.186 41.9072Z" fill="#D2B646"/>
<path d="M133.275 32.074C132.897 30.264 132.328 28.49 131.565 26.81C131.358 26.51 130.851 26.759 130.961 27.111C132.923 31.503 133.495 36.708 133.399 41.773C133.347 42.185 133.943 42.379 134.144 42.013C134.165 41.98 134.177 41.937 134.186 41.9C134.464 38.614 133.883 35.296 133.275 32.074Z" fill="#D2B646"/>
<path d="M131.161 31.9381C131.07 31.7101 131.089 31.3991 130.866 31.2531C130.609 31.0921 130.261 31.3571 130.351 31.6491C131.23 34.6421 131.405 37.2331 131.661 40.2931C131.808 40.7061 132.473 40.5721 132.457 40.1331C132.255 37.3381 131.98 34.7891 131.161 31.9381Z" fill="#D2B646"/>
<path d="M130.451 37.1148C130.289 36.5888 130.326 35.8698 129.946 35.4628C129.669 35.2888 129.295 35.5758 129.392 35.8888C129.744 37.0758 129.784 38.3568 130.13 39.5308C130.295 39.7768 130.707 39.6878 130.776 39.4048C130.786 38.9558 130.58 37.8728 130.451 37.1148Z" fill="#D2B646"/>
<path d="M74.1139 70.2339C72.8249 69.0199 71.3449 67.9589 69.8209 67.0759C69.4929 67.0129 69.3219 67.5019 69.6189 67.6609C72.9189 69.5779 75.8549 72.4309 77.1289 75.7549C77.2449 76.0149 77.3079 76.3069 77.4559 76.5489C77.6449 76.8299 78.1179 76.7299 78.1969 76.4049C77.6069 74.0069 75.7869 72.0009 74.1139 70.2339Z" fill="#D2B646"/>
<path d="M78.0858 72.8642C77.6978 72.4062 77.2938 71.9612 76.8878 71.5192C76.3768 70.9822 75.8718 70.4312 75.2718 69.9912C75.1388 69.8612 74.9408 69.8132 74.7748 69.9102C74.5608 70.0282 74.5188 70.3482 74.6968 70.5172C75.7338 71.3952 76.5238 72.5202 77.4418 73.5142C77.6258 73.7822 78.0528 73.7672 78.2128 73.4822C78.3408 73.2752 78.2568 73.0202 78.0858 72.8642Z" fill="#D2B646"/>
<path d="M77.6228 70.305C77.4698 70.174 77.3428 69.963 77.1198 69.966C76.7968 69.955 76.6178 70.386 76.8538 70.607C77.1238 70.836 77.3248 71.163 77.6218 71.351C77.8588 71.472 78.1618 71.261 78.1538 71C78.1288 70.693 77.8038 70.527 77.6228 70.305Z" fill="#D2B646"/>
<path d="M89.7808 68.5449C89.3688 68.7599 89.5258 68.8269 89.3098 69.2349C87.6868 73.3889 87.1758 77.6659 84.4208 81.1619C84.1548 81.5739 83.0718 82.7509 82.6998 83.0039C82.4008 83.2789 81.9858 83.3869 81.6738 83.6249C81.4708 83.8579 81.7878 84.2249 82.0518 84.0559C83.9048 83.1769 85.0938 81.3289 86.1578 79.6449C88.1698 76.3469 88.7848 71.7849 90.2688 69.2099C90.4908 68.8899 90.1568 68.4279 89.7808 68.5449Z" fill="#D2B646"/>
<path d="M88.2039 68.9739C87.3329 70.8489 86.7939 72.8519 86.0289 74.7679C85.5879 75.7909 84.6179 77.5919 83.9039 78.8259C83.5529 79.4559 83.2869 79.7359 82.8649 80.2099C82.7269 80.4919 83.1309 80.7669 83.3469 80.5349C84.4549 79.4479 85.0539 77.954 85.8209 76.627C87.1189 74.322 87.8159 71.433 88.8029 69.325C89.0329 68.943 88.4259 68.5809 88.2039 68.9739Z" fill="#D2B646"/>
<path d="M133.549 50.5669C133.425 50.3849 133.124 50.4079 133.02 50.5999C131.623 53.5229 128.68 55.0379 125.623 55.0109C123.524 54.9249 121.7 54.7029 119.869 54.3919C119.045 54.2599 118.226 54.0209 117.401 53.9389C117.287 53.9449 117.175 54.0109 117.112 54.1059C116.913 54.3349 117.049 54.7319 117.342 54.8029C122.074 55.6649 127.951 57.1849 131.782 53.3489C132.398 52.7359 132.943 52.0469 133.383 51.2969C133.48 51.0729 133.737 50.8029 133.549 50.5669Z" fill="#D2B646"/>
<path d="M131.57 49.965C129.18 52.524 125.796 53.095 122.273 53.102C120.977 53.135 119.684 53.004 118.389 53C117.972 52.96 117.784 53.558 118.153 53.762C119.798 54 121.513 53.876 123.176 53.811C126.077 53.665 129.137 53.006 131.365 51.032C131.609 50.754 132.08 50.586 132.149 50.205C132.159 49.914 131.772 49.752 131.57 49.965Z" fill="#D2B646"/>
<path d="M130.498 49.2969C127.016 51.1439 123.524 51.3999 119.463 51.6499C119.023 51.6299 118.844 52.2589 119.232 52.4729C120.012 52.6329 120.857 52.3669 121.653 52.3319C123.406 52.1299 125.166 51.9169 126.874 51.4619C128.276 51.0619 129.659 50.4699 130.935 49.7939C131.169 49.5209 130.803 49.1039 130.498 49.2969Z" fill="#D2B646"/>
<path d="M75.0109 75.525C72.0699 77.545 67.9979 79.911 64.9409 82.443C64.3919 82.939 63.9039 83.155 63.5049 83.64C63.4329 83.876 63.7139 84.097 63.9259 83.964C67.3249 81.176 71.7149 78.242 75.4199 76.224C75.8729 75.969 75.4629 75.253 75.0109 75.525Z" fill="#D2B646"/>
<path d="M74.7818 74.2681C74.5448 74.0241 74.1518 74.1771 73.9848 74.4291C74.0338 74.3621 74.0788 74.3141 73.9718 74.4121C73.6648 74.6351 71.6438 76.0461 70.6998 76.7031C68.5008 78.2321 66.2618 79.7121 64.1638 81.3801C63.9208 81.6171 64.2968 82.0021 64.5388 81.7551C67.3198 79.5901 71.4798 76.7901 74.4148 75.0881C74.5248 75.0461 74.4278 75.0771 74.3798 75.1011C74.4888 75.0581 74.5968 75.0161 74.6948 74.9501C74.9358 74.8151 74.9788 74.4601 74.7818 74.2681Z" fill="#D2B646"/>
<path d="M73.5318 72.8458C71.2568 74.4158 69.0179 76.0428 66.8439 77.7518C66.8189 77.7708 66.9149 77.6968 66.8999 77.7078C66.6659 77.8888 66.4308 78.0678 66.1948 78.2458C65.8668 78.4308 66.1638 78.9488 66.4908 78.7518C68.9338 76.8478 71.4289 74.9868 74.0669 73.3748C74.3449 73.0418 73.8718 72.5798 73.5318 72.8458Z" fill="#D2B646"/>
<path d="M72.4918 71.8279C72.3488 71.6809 72.0978 71.6699 71.9418 71.8029C71.1248 72.3999 70.2938 72.9789 69.4768 73.5759C68.8628 74.0909 68.0569 74.4539 67.5499 75.0619C67.4679 75.3279 67.7849 75.5729 68.0219 75.4249C69.2979 74.5399 70.5508 73.6149 71.8618 72.7809C72.2088 72.5809 72.9008 72.3089 72.4918 71.8279Z" fill="#D2B646"/>
<path d="M103.402 45.9621C100.849 48.1101 98.9858 50.2071 95.8668 51.6111C94.9568 52.0301 93.4798 52.5321 92.2838 53.0341C91.9758 53.2451 92.2328 53.7651 92.5918 53.6521C94.7568 52.8431 97.0068 52.1511 98.9048 50.7901C100.522 49.6391 101.918 48.2141 103.434 46.9391C103.699 46.6371 104.216 46.4611 104.284 46.0411C104.216 45.4831 103.672 45.6291 103.402 45.9621Z" fill="#D2B646"/>
<path d="M103.191 48.739C102.602 47.764 102.059 49.01 101.93 49.095C100.517 50.979 98.7639 51.894 96.5709 52.847C96.3989 52.964 95.1958 53.284 94.6788 53.488C94.3568 53.71 94.6258 54.252 95.0008 54.134C97.3628 53.37 99.7368 52.35 101.658 50.752C102.077 50.394 102.453 49.986 102.802 49.56C102.97 49.309 103.289 49.075 103.191 48.739Z" fill="#D2B646"/>
<path d="M101.552 51.1628C100.45 52.3418 99.2988 52.9838 97.8608 53.9318C97.6308 54.0408 97.4838 54.3168 97.6278 54.5528C97.9968 55.0678 98.5759 54.4278 98.9649 54.2398C99.4489 53.9328 100.526 53.1918 101.191 52.5358C101.494 52.1668 102.007 51.8718 102.143 51.4078C102.153 51.1098 101.757 50.9448 101.552 51.1628Z" fill="#D2B646"/>
<path d="M101.213 53.6798C101.005 53.8708 100.703 54.0028 100.572 54.2578C100.431 54.5348 100.677 54.8898 100.982 54.8798C101.297 54.8328 101.668 54.4908 101.846 54.2378C102.03 53.8638 101.561 53.4578 101.213 53.6798Z" fill="#D2B646"/>
<path d="M110.291 57.4182C107.587 59.4122 104.756 61.2522 101.757 62.7742C101.021 63.1432 99.9288 63.6092 99.5068 63.7912C99.2378 63.9492 99.2128 63.7922 99.0218 64.1732C98.9808 65.3042 100.316 64.3122 100.827 64.1362C102.927 63.1632 104.89 61.9252 106.825 60.6622C108.135 59.7652 109.468 58.8832 110.7 57.8852C110.919 57.6302 110.577 57.2372 110.291 57.4182Z" fill="#D2B646"/>
<path d="M107.639 57.7609C105.636 59.2369 103.483 60.4829 101.334 61.7299C100.981 61.9989 100.421 62.1139 100.226 62.5319C100.109 62.9149 100.577 63.2539 100.906 63.0249C103.403 61.6079 105.877 60.1019 108.125 58.3149C108.387 58.0119 107.978 57.5459 107.639 57.7609Z" fill="#D2B646"/>
<path d="M105.421 57.6142C104.292 58.0162 103.297 58.7272 102.253 59.3052C102.023 59.4712 101.731 59.5742 101.539 59.7832C101.324 60.0242 101.475 60.4452 101.783 60.5192C102.172 60.5912 102.481 60.2312 102.812 60.0772C103.572 59.6112 105.02 58.6922 105.45 58.4842C106.11 58.4052 106.111 57.5252 105.421 57.6142Z" fill="#D2B646"/>
<path d="M103.597 56.5058C103.239 56.7788 102.297 57.0638 102.755 57.6368C103.15 58.0028 103.788 57.3408 104.135 57.1188C104.427 56.7818 103.971 56.2688 103.597 56.5058Z" fill="#D2B646"/>
<path d="M151.604 35.4458C146.443 38.1708 140.831 40.3458 136.083 43.7138C135.994 44.0058 136.342 44.2788 136.604 44.1138C141.148 41.3098 145.943 38.9568 150.736 36.6158C151.158 36.3358 151.78 36.2198 152.068 35.8028C152.147 35.5418 151.838 35.2988 151.604 35.4458Z" fill="#D2B646"/>
<path d="M147.877 35.215C143.63 37.431 139.285 39.538 135.241 42.098C134.977 42.404 135.389 42.875 135.733 42.658C138.615 40.902 141.581 39.286 144.551 37.684C145.782 36.996 147.103 36.432 148.292 35.687C148.512 35.43 148.167 35.032 147.877 35.215Z" fill="#D2B646"/>
<path d="M147.874 33.1991C143.503 34.9401 139.47 37.4841 135.461 39.9071C135.204 40.2081 135.618 40.6621 135.946 40.4351C139.689 38.2841 143.276 35.8321 147.244 34.0991C147.506 33.9891 147.769 33.8831 148.034 33.7791C148.408 33.6841 148.251 33.0891 147.874 33.1991Z" fill="#D2B646"/>
<path d="M144.506 32.6821C141.941 33.6961 139.51 35.0271 137.025 36.2191C136.349 36.5621 135.666 36.8961 135.007 37.2721C134.912 37.3281 134.841 37.4201 134.812 37.5261C134.701 37.8921 135.148 38.2131 135.461 37.9921C138.136 36.5531 140.807 35.0991 143.555 33.8001C144.092 33.5341 144.252 33.5331 144.803 33.2761C145.099 33.0731 144.851 32.5741 144.506 32.6821Z" fill="#D2B646"/>
<path d="M236.173 36.3618C235.059 36.3658 235.061 38.0598 236.173 38.0668C237.288 38.0638 237.285 36.3688 236.173 36.3618Z" fill="#D2B646"/>
<path d="M233.557 42.2259C233.295 41.7629 232.549 41.8519 232.417 42.3749C232.182 43.4269 231.975 43.9209 231.586 44.8019C228.932 50.2129 225.719 54.5979 221.495 58.7849C214.444 65.9669 203.315 68.7439 192.349 70.4969C181.015 72.4909 169.701 74.6029 158.447 77.0119C154.103 77.8909 149.799 78.9439 145.507 80.0439C144.508 80.3099 143.505 80.5639 142.519 80.8749C142.149 80.9909 141.736 81.0759 141.537 81.4439C141.228 81.9589 141.513 82.6889 142.106 82.8409C142.643 82.9619 143.169 82.6229 143.69 82.5219C145.256 82.0539 146.828 81.6069 148.404 81.1729C156.567 78.8559 164.897 77.1979 173.187 75.4049C181.055 73.7759 188.963 72.3469 196.873 70.9389C207.109 68.9049 218.492 66.1469 224.954 57.2419C227.484 54.1759 229.684 50.8549 231.579 47.3629C232.211 46.2719 232.974 44.5659 233.251 43.6979C233.398 43.2299 233.793 42.7139 233.557 42.2259Z" fill="#D2B646"/>
<path d="M158.948 73.2389C158.66 73.0709 158.337 73.2149 158.032 73.2509C155.727 73.6569 153.412 74.0389 151.151 74.6509C150.787 74.7709 150.329 74.8039 150.124 75.1719C149.769 75.7369 150.355 76.5009 150.994 76.3029C153.615 75.4559 156.396 75.0639 159.011 74.2619C159.366 74.0269 159.316 73.4389 158.948 73.2389Z" fill="#D2B646"/>
<path d="M232.503 31.3421C232.089 31.3381 231.893 31.7141 231.833 32.0731C231.635 32.7861 231.43 33.4981 231.18 34.1941C230.61 35.7631 229.859 37.2461 228.98 38.9671C227.293 42.1371 225.717 45.4031 223.573 48.2971C222.117 50.1861 219.283 52.9411 216.959 54.9311C208.789 61.6921 198.899 65.8091 187.53 67.2781C181.749 68.2091 175.117 69.7901 169.818 70.6241C167.836 70.9461 166.899 70.8381 165.336 70.8721C164.69 71.1021 164.878 72.1781 165.593 72.1471C170.731 72.0221 176.344 70.4251 181.767 69.4831C187.492 68.3371 193.362 67.8951 198.993 66.3151C204.23 64.8211 209.206 62.4791 213.779 59.5291C216.315 57.8951 218.88 56.2411 220.962 54.0321C224.957 50.0351 227.876 43.9021 230.695 38.2891C231.559 36.4251 232.261 34.9691 232.869 32.9091C233.058 32.3451 233.402 31.4141 232.503 31.3421Z" fill="#D2B646"/>
<path d="M234.639 23.4169C234.361 23.1249 233.845 23.1969 233.647 23.5449C233.425 24.6459 233.232 26.2629 232.585 27.7149C232.345 28.5389 233.646 28.8989 233.865 28.0679C234.306 26.9829 234.597 25.8389 234.746 24.6779C234.774 24.2649 234.966 23.7539 234.639 23.4169Z" fill="#D2B646"/>
<path d="M227.64 25.931C227.514 26.742 228.78 26.84 228.792 26.023C228.918 25.212 227.652 25.113 227.64 25.931Z" fill="#D2B646"/>
<path d="M225.728 33.029C225.157 35.176 224.208 36.867 222.99 39.051C221.574 41.442 220.344 43.55 218.626 45.386C211.183 53.003 201.334 57.06 190.971 59.983C183.935 62.032 176.772 63.615 169.553 64.862C166.126 65.485 162.701 66.1211 159.278 66.7681C158.774 66.9151 158.128 66.875 157.83 67.374C157.448 67.996 158.077 68.8541 158.796 68.6311C159.834 68.3971 160.868 68.142 161.908 67.918C165.893 67.129 169.889 66.396 173.881 65.646C180.384 64.424 186.813 62.8101 193.132 60.8511C197.953 59.3611 202.75 57.6941 207.19 55.2691C211.831 52.7821 216.3 49.792 219.843 45.861C221.587 43.854 222.93 41.541 224.253 39.245C225.199 37.334 226.633 35.1751 227.052 33.1191C226.985 32.4121 225.9 32.329 225.728 33.029Z" fill="#D2B646"/>
<path d="M177.104 57.8531C176.021 58.0681 174.939 58.2891 173.859 58.5141C171.68 59.0371 169.393 59.3271 167.274 59.9991C166.629 60.4421 167.171 61.5201 167.915 61.2861C170.728 60.6481 173.511 59.8931 176.316 59.2211C176.781 59.0431 177.435 59.1221 177.752 58.6941C178.015 58.2741 177.58 57.7051 177.104 57.8531Z" fill="#D2B646"/>
<path d="M222.009 25.1601C220.894 24.9221 220.942 26.2591 220.696 26.9831C220.27 28.4031 219.818 29.4811 219.427 30.3701C214.66 41.9511 203.984 49.4121 192.768 53.6231C189.991 54.6151 187.135 55.4191 184.229 55.9281C183.038 55.8561 182.872 57.4441 184.118 57.3231C191.992 55.7921 199.551 52.6641 206.24 48.2411C213.304 43.5641 218.384 37.6771 221.426 29.9091C221.86 28.8241 222.267 27.7221 222.509 26.5761C222.685 26.0441 222.659 25.3261 222.009 25.1601Z" fill="#D2B646"/>
<path d="M191.255 48.4343C190.425 48.5913 190.68 49.8333 191.502 49.6313C192.332 49.4743 192.077 48.2323 191.255 48.4343Z" fill="#D2B646"/>
<path d="M215.673 27.3541C215.264 27.3481 214.933 27.6691 214.851 28.0571C214.814 28.1491 214.815 28.1501 214.826 28.1261C214.822 28.1341 214.819 28.1431 214.815 28.1511C212.056 34.4771 207.343 39.3381 201.966 43.0741C200.5 44.1661 197.79 45.7491 196.76 46.1961C196.398 46.3971 195.896 46.4111 195.66 46.7821C195.355 47.2681 195.858 47.9341 196.412 47.7611C204.651 43.6521 212.689 37.5211 216.331 28.8111C216.646 28.2111 216.464 27.3701 215.673 27.3541Z" fill="#D2B646"/>
<path d="M186.369 50.213C182.425 51.629 177.521 52.672 174.002 53.368C173.437 53.756 173.911 54.701 174.564 54.496C178.652 53.66 182.715 52.628 186.653 51.245C187.321 51.073 187.038 50.02 186.369 50.213Z" fill="#D2B646"/>
<path d="M207.413 31.4369C207.126 31.6229 207.007 31.975 206.805 32.24C206.035 33.703 203.462 35.9059 202.409 36.7029C198.631 39.6169 194.398 41.902 190.06 43.865C189.234 44.221 186.493 45.282 184.994 45.797C184.211 45.998 184.538 47.2449 185.33 47.0149C191.472 44.8279 197.488 42.0689 202.727 38.1449C205.136 36.3199 207.503 34.2219 208.456 32.1349C208.568 31.5799 207.887 31.1399 207.413 31.4369Z" fill="#D2B646"/>
<path d="M85.1039 124.706C84.2809 124.923 83.7929 125.861 83.1219 126.367C76.5419 132.77 69.2389 139.281 61.4109 142.738C58.2509 144.049 54.9939 145.156 51.6669 145.96C49.9389 146.435 48.0979 146.588 46.4069 147.135C45.9149 147.475 46.3219 148.316 46.9039 148.133C64.2289 145.272 73.1139 138.411 85.1619 126.234C85.3409 126.027 85.5999 125.874 85.7059 125.617C85.9089 125.213 85.5539 124.689 85.1039 124.706Z" fill="#D2B646"/>
<path d="M217.491 20.3971C216.513 20.5741 213.433 21.0111 211.154 21.6851C201.262 24.3451 192.161 29.2571 183.687 34.9231C167.914 44.9711 154.336 58.1981 140.402 71.3701C134.467 76.8341 128.866 82.6411 123.048 88.2261C116.255 94.4731 109.852 101.126 103.06 107.373C99.4918 110.579 96.0978 113.972 92.5588 117.208C91.5278 118.121 90.4728 119.005 89.4018 119.87C89.2978 119.975 89.2378 120.118 89.2378 120.266C89.2318 120.734 89.8578 121.022 90.1928 120.662C93.5138 118.085 96.4768 115.105 99.5478 112.246C105.231 107.117 110.783 101.851 116.254 96.4971C127.233 86.2241 137.88 75.6071 148.984 65.4641C160.916 54.3771 172.317 44.3331 186.084 35.8361C194.093 30.5701 201.83 26.6191 210.637 24.0041C213.018 23.2691 215.464 22.7821 217.892 22.2341C218.832 21.8741 220.589 22.1811 220.367 20.7561C219.939 19.5731 218.612 20.3451 217.491 20.3971Z" fill="#D2B646"/>
<path d="M41.1938 147.763C34.8858 148.364 26.5848 149.774 20.3618 148.364C17.3548 147.681 15.4529 146.756 12.7119 145.236C10.0559 143.646 8.63485 142.65 7.14885 140.487C6.31485 139.085 6.05185 138.327 6.03585 136.887C5.98985 136.239 6.27585 136.267 6.03185 135.59C4.15385 133.882 4.26785 138.489 4.69785 139.585C6.04685 143.467 9.80785 145.849 13.3458 147.545C16.6858 149.158 20.3119 150.14 24.0229 150.308C27.7549 150.543 31.4638 149.977 35.1698 149.634C37.3348 149.366 39.6118 149.374 41.7038 148.784C42.2038 148.431 41.7918 147.579 41.1938 147.763Z" fill="#D2B646"/>
<path d="M141.696 64.1562C129.073 76.6532 115.971 88.6602 103.565 101.377C102.984 101.984 103.952 102.85 104.497 102.164C114.06 92.4192 123.961 83.0212 133.826 73.5842C136.737 70.7292 139.665 67.8902 142.586 65.0452C143.156 64.4922 142.274 63.5642 141.696 64.1562Z" fill="#D2B646"/>
<path d="M129.89 68.3429C122.348 75.1529 115.129 82.3919 108.227 89.8319C107.918 90.7979 109.14 91.0989 109.611 90.2839C115.964 83.6289 122.37 77.0159 129.084 70.7229C129.636 70.2119 130.204 69.7189 130.768 69.2209C130.884 69.1049 130.95 68.9459 130.95 68.7819C130.965 68.2509 130.258 67.9509 129.89 68.3429Z" fill="#D2B646"/>
<path d="M119.168 71.87C114.645 76.597 109.781 81.038 105.367 85.849C105.034 86.53 106.007 87.185 106.525 86.629C110.123 83.065 113.602 79.383 117.176 75.795C118.155 74.8 119.104 73.778 120.054 72.755C120.171 72.638 120.238 72.477 120.237 72.312C120.253 71.776 119.538 71.475 119.168 71.87Z" fill="#D2B646"/>
<path d="M110.226 73.1048C108.778 74.3898 107.393 75.7458 106.014 77.1028C105.725 77.4398 105.315 77.7038 105.106 78.0958C104.889 78.5218 105.267 79.0678 105.737 79.0518C106.282 79.0088 106.583 78.4388 106.991 78.1328C108.42 76.8078 109.754 75.3838 111.192 74.0688C111.824 73.4558 110.844 72.4728 110.226 73.1048Z" fill="#D2B646"/>
<path d="M178.801 32.585C170.337 38.472 162.176 44.86 154.703 51.948C154.422 52.544 155.278 53.081 155.708 52.575C161.65 47.516 167.23 42.385 173.256 38.101C175.352 36.545 177.535 35.083 179.589 33.482C180.009 32.993 179.351 32.235 178.801 32.585Z" fill="#D2B646"/>
<path d="M167.86 36.0368C164.944 38.0778 162.15 40.2898 159.35 42.4848C158.564 43.1038 157.794 43.7438 157.049 44.4118C156.918 44.5428 156.842 44.7248 156.843 44.9088C156.832 45.3618 157.301 45.7108 157.733 45.5868C158.211 45.3698 158.565 44.9298 159.002 44.6368C161.316 42.8338 164.113 40.6358 166.857 38.5578C167.492 37.9598 168.507 37.6188 168.932 36.8618C169.12 36.2578 168.398 35.6998 167.86 36.0368Z" fill="#D2B646"/>
<path d="M158.707 38.362C157.292 39.48 155.953 40.688 154.633 41.915C154.399 42.096 154.276 42.44 154.416 42.714C154.739 43.446 155.518 43.019 155.901 42.579C156.695 41.894 157.502 41.224 158.303 40.546C158.792 40.055 159.491 39.72 159.87 39.146C160.205 38.459 159.225 37.806 158.707 38.362Z" fill="#D2B646"/>
<path d="M76.7999 125.563C75.2229 127.854 71.2288 130.821 69.0188 132.593C64.4788 136.191 60.2339 138.234 54.8719 139.922C54.1529 140.166 53.4368 140.419 52.7138 140.652C52.5368 140.701 52.3849 140.819 52.2919 140.977C51.9689 141.493 52.5008 142.197 53.0888 142.014C57.6018 140.676 62.1079 139.024 65.9989 136.324C68.7129 134.493 71.3009 132.476 73.8039 130.366C75.2629 129.082 76.8488 127.863 77.9188 126.217C78.3448 125.504 77.2199 124.83 76.7999 125.563Z" fill="#D2B646"/>
<path d="M70.0478 125.72C65.3738 130.003 59.6518 133.279 53.7418 136.589C52.9468 137.038 53.6678 138.288 54.4578 137.813C59.7588 134.907 65.0428 131.859 69.6858 127.958C70.1958 127.39 71.1788 127.042 71.3078 126.242C71.3268 125.608 70.4838 125.255 70.0478 125.72Z" fill="#D2B646"/>
<path d="M62.6798 125.769C60.3928 127.424 57.9308 128.819 55.5148 130.275C55.3238 130.375 55.1358 130.509 55.0828 130.73C54.9258 131.237 55.5318 131.705 55.9828 131.422C56.9708 130.864 57.9578 130.302 58.9388 129.733C60.4488 128.859 61.9528 127.969 63.3618 126.938C63.5128 126.85 63.6268 126.702 63.6728 126.534C63.8478 125.974 63.1778 125.457 62.6798 125.769Z" fill="#D2B646"/>
<path d="M35.0888 142.293C34.4468 141.876 34.4779 142.185 33.7059 142.187C27.6719 142.663 21.5968 143.087 16.3238 140.942C15.1648 140.47 13.3319 139.15 12.8809 138.78C12.2099 138.386 11.5799 137.283 10.8769 137.196C10.2538 137.176 9.90285 138.009 10.3629 138.438C16.7268 144.716 26.3348 144.092 34.5878 143.503C35.1958 143.525 35.5368 142.712 35.0888 142.293Z" fill="#D2B646"/>
<path d="M27.3489 137.391C26.1389 137.239 25.2259 137.12 23.6939 136.844C21.6259 136.483 20.4939 135.929 19.1639 134.999C18.3239 134.75 17.8009 135.98 18.5709 136.407C20.6079 137.96 23.2729 138.269 25.7339 138.645C26.5939 138.766 27.4559 138.882 28.3229 138.95C28.6059 138.952 28.8999 138.772 28.9929 138.5C29.3579 137.423 28.0549 137.451 27.3489 137.391Z" fill="#D2B646"/>
<path d="M29.2528 131.349C28.2968 131.313 27.3398 131.268 26.3908 131.153C26.1648 131.239 25.0629 130.718 24.3149 131.021C23.6579 131.377 23.7959 132.443 24.5239 132.619C26.1709 132.902 27.8418 132.878 29.5048 132.799C30.0228 132.818 30.7408 132.745 30.7358 132.073C30.7168 131.275 29.8288 131.36 29.2528 131.349Z" fill="#D2B646"/>
<path d="M140.781 20.099C138.547 17.222 136.308 14.322 133.687 11.783C131.413 9.61003 128.991 7.41603 126.109 6.10903C125.393 5.97203 125.025 7.03603 125.669 7.38303C133.174 11.24 137.781 18.399 142.896 25.115C142.905 25.126 142.907 25.129 142.914 25.139C142.957 25.217 143.014 25.281 143.087 25.328C143.497 25.689 144.196 25.335 144.178 24.794C143.318 23.045 141.964 21.818 140.781 20.099Z" fill="#D2B646"/>
<path d="M142.971 25.2119C143.008 25.2609 143.003 25.2539 142.971 25.2119Z" fill="#D2B646"/>
<path d="M142.971 25.212C142.958 25.196 142.937 25.168 142.914 25.138L142.912 25.136C142.936 25.168 142.956 25.193 142.971 25.212Z" fill="#D2B646"/>
<path d="M140.18 24.3951C137.092 20.2081 133.66 16.2571 129.944 12.6151C129.39 12.0441 128.494 12.9281 129.07 13.4891C132.665 16.8991 136.448 21.5451 138.774 24.6341C138.988 24.8791 139.118 25.2431 139.458 25.3341C139.986 25.4981 140.476 24.8661 140.18 24.3951Z" fill="#D2B646"/>
<path d="M132.438 19.695C131.727 19.057 131.022 18.409 130.273 17.815C129.692 17.215 128.764 18.144 129.361 18.727C130.193 19.344 130.901 20.14 131.734 20.74C131.884 20.817 132.081 20.817 132.231 20.74C132.648 20.595 132.757 19.993 132.438 19.695Z" fill="#D2B646"/>
<path d="M127.158 20.0831C126.971 19.6681 126.594 19.1711 126.098 19.1631C125.412 19.1391 125.034 20.0541 125.535 20.5231C126.027 21.4231 127.353 21.1801 127.158 20.0831Z" fill="#D2B646"/>
<path d="M65.6458 25.61C61.0388 31.444 58.2828 38.704 57.5088 46.078C57.1348 50.469 57.8058 54.874 58.4198 59.215C58.5238 59.627 59.0338 59.8339 59.3988 59.6129C59.6538 59.4669 59.7858 59.143 59.7048 58.861C59.5688 58.002 59.4478 57.1409 59.3328 56.2789C59.0118 53.8779 58.5128 49.4759 58.7858 46.3759C59.1618 42.3189 60.3438 37.601 62.2688 33.837C63.2088 31.752 65.1518 28.461 66.1288 27.3C66.3818 26.913 66.8628 26.614 66.8838 26.123C66.9028 25.503 66.0738 25.151 65.6458 25.61Z" fill="#D2B646"/>
<path d="M66.1188 32.65C66.2558 31.949 65.2078 31.586 64.8698 32.218C62.8228 35.9 62.0578 40.125 61.5468 44.262C61.1478 48.21 60.8138 52.244 61.1998 56.194C61.6128 57.064 62.7798 56.476 62.5158 55.59C62.4338 48.666 62.6228 42.464 64.6768 35.997C65.1118 34.627 65.4958 34.067 66.1188 32.65Z" fill="#D2B646"/>
<path d="M68.0958 39.0988C68.0358 38.3178 66.8288 38.2378 66.6488 38.9998C65.5498 42.3278 65.3998 45.8878 65.2338 49.3638C65.1868 50.5948 65.1388 51.8318 65.2688 53.0598C65.3228 53.5948 65.3928 54.2258 65.8068 54.6078C66.1498 54.9058 66.7308 54.6998 66.8398 54.2658C66.9158 53.9918 66.7698 53.7308 66.7268 53.4608C66.7038 49.8308 66.9898 45.4148 67.3868 42.5008C67.4938 41.3438 67.9088 40.2208 68.0958 39.0988Z" fill="#D2B646"/>
<path d="M72.1919 51.335C72.1409 51.06 72.1009 50.783 72.0639 50.505C72.0629 50.496 72.0628 50.497 72.0618 50.487C71.9558 49.706 71.7818 48.373 71.7518 47.022C71.6398 45.715 72.0128 44.051 71.8948 42.924C71.6578 42.256 70.6049 42.329 70.4429 43.016C70.0129 45.431 69.9208 47.902 70.4298 50.313C70.6298 50.967 70.5138 52.128 71.3678 52.273C71.8768 52.377 72.3439 51.826 72.1919 51.335Z" fill="#D2B646"/>
<path d="M77.3058 48.5208C77.0938 47.3918 77.0409 47.2738 77.0629 46.1378C77.0599 45.1638 75.5768 45.1648 75.5708 46.1378C75.5548 47.3008 75.6159 48.5798 76.0779 49.6488C76.3659 50.0818 77.0818 50.0208 77.3258 49.5718C77.5268 49.2398 77.3648 48.8708 77.3058 48.5208Z" fill="#D2B646"/>
</svg>
