<svg width="1373" height="303" viewBox="0 0 1373 303" fill="none" xmlns="http://www.w3.org/2000/svg">
<g clip-path="url(#clip0_11_5)">
<path d="M512.042 7.22203C512.384 7.22203 512.747 7.19933 513.109 7.14262C521.526 5.81578 530.124 4.93122 538.642 4.50028C540.857 4.38687 542.467 3.28688 542.266 2.05076C542.085 0.814647 540.091 -0.103937 537.937 0.00946864C528.916 0.46309 519.855 1.40431 510.955 2.7992C508.82 3.13941 507.592 4.37553 508.176 5.57763C508.679 6.57559 510.27 7.22203 512.042 7.22203ZM591.015 8.00453C592.667 8.00453 594.217 7.42613 594.801 6.48486C595.506 5.31679 594.418 4.03529 592.324 3.62703C583.525 1.91461 574.484 0.746624 565.443 0.145577C563.248 -0.00184978 561.275 0.882647 561.013 2.11876C560.751 3.35488 562.322 4.47766 564.537 4.62509C572.974 5.18078 581.431 6.2807 589.707 7.87973C590.15 7.97046 590.572 8.00453 591.015 8.00453ZM463.897 20.0482C464.682 20.0482 465.467 19.9122 466.152 19.6513C473.361 16.8502 480.972 14.3666 488.745 12.2913C490.738 11.7582 491.584 10.4087 490.637 9.28603C489.691 8.1633 487.295 7.68695 485.301 8.21996C477.146 10.4087 469.172 13.0057 461.621 15.9429C459.789 16.6461 459.346 18.0522 460.595 19.0729C461.36 19.7079 462.628 20.0482 463.897 20.0482ZM636.684 23.3143C637.751 23.3143 638.838 23.0761 639.624 22.5884C641.114 21.6698 641.013 20.2523 639.402 19.4018C632.697 15.9429 625.267 12.8243 617.293 10.1593C615.38 9.52415 612.923 9.87564 611.816 10.9417C610.668 12.0077 611.292 13.3912 613.205 14.0263C620.696 16.544 627.683 19.4698 633.965 22.7245C634.751 23.1215 635.717 23.3143 636.684 23.3143ZM425.256 40.7106C426.444 40.7106 427.632 40.4044 428.417 39.8261C433.693 35.9703 439.573 32.2959 445.895 28.9164C447.506 28.0546 447.567 26.6257 446.056 25.7298C444.526 24.8226 441.989 24.7885 440.398 25.6504C433.753 29.1886 427.592 33.0444 422.074 37.0816C420.745 38.0682 421.067 39.4858 422.819 40.2456C423.544 40.5632 424.39 40.7106 425.256 40.7106ZM665.982 48.1386C666.384 48.1386 666.807 48.1046 667.21 48.0253C669.324 47.6396 670.472 46.3695 669.787 45.1901C667.008 40.3704 662.861 35.6528 657.484 31.162C656.236 30.13 653.759 29.8577 651.907 30.5608C650.094 31.2526 649.611 32.6589 650.839 33.6909C655.813 37.8301 659.639 42.1622 662.176 46.5737C662.72 47.5263 664.29 48.1386 665.982 48.1386ZM400.287 67.1944C401.979 67.1944 403.529 66.5991 404.093 65.6563C405.543 63.2182 407.174 60.7903 408.966 58.4406C410.577 56.3382 412.369 54.2172 414.302 52.1645C415.349 51.0645 414.604 49.6924 412.651 49.114C410.697 48.5243 408.281 48.9439 407.254 50.0439C405.2 52.2213 403.308 54.444 401.616 56.6666C399.743 59.13 398.032 61.6723 396.502 64.2252C395.797 65.4046 396.925 66.6813 399.019 67.0761C399.442 67.1567 399.885 67.1944 400.287 67.1944ZM390.843 96.7487C392.978 96.7487 394.75 95.8009 394.83 94.5894C395.213 89.5995 396.159 84.6642 397.649 79.9226C398.032 78.6983 396.582 77.5279 394.407 77.31C392.233 77.0898 390.159 77.9075 389.776 79.1336C388.206 84.0734 387.239 89.2109 386.856 94.4024C386.756 95.6454 388.467 96.6941 390.682 96.7465C390.723 96.7476 390.803 96.7487 390.843 96.7487ZM394.911 126.731C395.153 126.731 395.394 126.717 395.656 126.692C397.831 126.463 399.24 125.287 398.857 124.064C397.206 119.122 396.039 114.179 395.354 109.373C395.173 108.132 393.24 107.21 391.065 107.304C388.87 107.402 387.219 108.486 387.38 109.727C388.085 114.692 389.293 119.794 390.984 124.89C391.347 125.974 393.018 126.731 394.911 126.731ZM409.57 155.671C410.033 155.671 410.516 155.623 411 155.522C413.053 155.078 414.08 153.776 413.295 152.613C410.134 147.933 407.315 143.188 404.939 138.511C404.314 137.315 402.079 136.624 399.985 136.967C397.871 137.309 396.643 138.558 397.227 139.753C399.683 144.553 402.563 149.421 405.825 154.221C406.429 155.12 407.959 155.671 409.57 155.671ZM432.404 182.895C433.069 182.895 433.733 182.801 434.357 182.602C436.29 181.989 436.955 180.614 435.868 179.532C431.518 175.202 427.431 170.751 423.685 166.306C422.739 165.181 420.363 164.7 418.349 165.231C416.376 165.764 415.51 167.107 416.456 168.231C420.282 172.777 424.471 177.325 428.921 181.751C429.646 182.484 430.995 182.895 432.404 182.895ZM999.434 197.412C1001.27 197.412 1002.92 196.703 1003.32 195.657C1003.82 194.444 1002.47 193.237 1000.32 192.962C991.46 191.83 981.855 191.693 972.23 192.557C970.035 192.753 968.545 193.906 968.908 195.136C969.25 196.365 971.304 197.199 973.478 197.007C982.117 196.232 990.695 196.35 998.548 197.356C998.85 197.394 999.132 197.412 999.434 197.412ZM461.964 207.989C462.83 207.989 463.675 207.837 464.4 207.523C466.152 206.764 466.474 205.349 465.125 204.364C459.749 200.419 454.574 196.339 449.721 192.234C448.493 191.197 446.016 190.915 444.184 191.603C442.351 192.292 441.848 193.69 443.056 194.726C448.009 198.918 453.305 203.084 458.802 207.109C459.588 207.686 460.776 207.989 461.964 207.989ZM925.917 210.501C926.944 210.501 927.951 210.282 928.736 209.845C934.676 206.519 941.623 203.705 949.356 201.481C951.329 200.915 952.094 199.559 951.107 198.451C950.101 197.342 947.684 196.901 945.731 197.467C937.234 199.904 929.622 202.995 923.098 206.651C921.528 207.527 921.528 208.956 923.098 209.838C923.863 210.279 924.89 210.501 925.917 210.501ZM1039.93 215.509C1040.51 215.509 1041.11 215.436 1041.68 215.281C1043.65 214.737 1044.48 213.389 1043.53 212.27C1039.24 207.33 1033.32 203.14 1025.85 199.819C1024.12 199.047 1021.6 199.213 1020.23 200.188C1018.87 201.164 1019.17 202.58 1020.88 203.353C1027.4 206.251 1032.6 209.915 1036.32 214.241C1037.03 215.043 1038.46 215.509 1039.93 215.509ZM497.322 230.592C498.349 230.592 499.376 230.371 500.162 229.928C501.712 229.047 501.712 227.618 500.121 226.742C493.879 223.24 487.778 219.585 481.979 215.879C480.509 214.945 477.992 214.855 476.321 215.678C474.67 216.5 474.508 217.923 475.978 218.857C481.898 222.638 488.12 226.365 494.483 229.936C495.269 230.373 496.296 230.592 497.322 230.592ZM905.6 237.484C907.795 237.484 909.587 236.486 909.587 235.247C909.627 232.007 910.392 228.797 911.842 225.706C912.507 224.276 913.393 222.842 914.46 221.443C915.326 220.3 914.399 218.975 912.346 218.484C910.332 217.992 907.976 218.521 907.11 219.665C905.882 221.267 904.875 222.913 904.11 224.558C902.479 228.012 901.653 231.597 901.593 235.214C901.573 236.457 903.365 237.475 905.56 237.484C905.58 237.484 905.58 237.484 905.6 237.484ZM1043.98 244.916C1045.75 244.916 1047.34 244.258 1047.84 243.258C1049.81 239.165 1050.82 234.963 1050.82 230.764C1050.82 229.698 1050.76 228.629 1050.64 227.587C1050.48 226.346 1048.59 225.413 1046.37 225.496C1044.16 225.582 1042.5 226.658 1042.65 227.899C1042.77 228.839 1042.83 229.804 1042.83 230.765C1042.83 234.561 1041.92 238.365 1040.11 242.069C1039.53 243.27 1040.79 244.508 1042.91 244.837C1043.27 244.89 1043.61 244.916 1043.98 244.916ZM537.574 250.418C538.783 250.418 539.971 250.113 540.756 249.536C542.105 248.548 541.763 247.135 540.031 246.377C533.044 243.357 526.137 240.176 519.512 236.919C517.841 236.101 515.324 236.196 513.874 237.132C512.425 238.07 512.606 239.493 514.257 240.312C521.003 243.632 528.03 246.875 535.158 249.951C535.883 250.266 536.729 250.418 537.574 250.418ZM921.669 265.759C922.434 265.759 923.199 265.639 923.884 265.385C925.736 264.697 926.239 263.3 925.011 262.263C920.098 258.086 916.292 253.733 913.695 249.32C912.99 248.139 910.735 247.501 908.641 247.891C906.546 248.283 905.399 249.559 906.103 250.74C908.923 255.53 913.03 260.243 918.346 264.751C919.111 265.405 920.38 265.759 921.669 265.759ZM1345.71 266.405C1346.36 266.405 1347 266.319 1347.59 266.14C1355.52 263.768 1363.41 261.256 1371.06 258.678C1372.96 258.039 1373.56 256.655 1372.43 255.588C1371.31 254.52 1368.85 254.174 1366.94 254.813C1359.43 257.352 1351.65 259.825 1343.84 262.162C1341.89 262.746 1341.14 264.11 1342.19 265.209C1342.89 265.971 1344.28 266.405 1345.71 266.405ZM581.974 267.21C583.364 267.21 584.693 266.81 585.458 266.092C586.565 265.018 585.921 263.639 584.008 263.012C576.417 260.514 568.846 257.847 561.536 255.085C559.724 254.392 557.227 254.666 555.999 255.699C554.771 256.733 555.254 258.131 557.086 258.826C564.537 261.639 572.228 264.356 579.961 266.903C580.605 267.111 581.31 267.21 581.974 267.21ZM1014.82 269.638C1015.76 269.638 1016.69 269.455 1017.46 269.082C1024.64 265.534 1030.89 261.652 1036 257.54C1037.27 256.52 1036.83 255.115 1035.01 254.403C1033.2 253.689 1030.71 253.94 1029.44 254.959C1024.71 258.772 1018.9 262.382 1012.18 265.69C1010.51 266.509 1010.35 267.931 1011.82 268.868C1012.6 269.378 1013.71 269.638 1014.82 269.638ZM1297.31 279.198C1297.83 279.198 1298.33 279.143 1298.84 279.027C1307.13 277.111 1315.43 275.057 1323.48 272.925C1325.5 272.396 1326.36 271.055 1325.42 269.929C1324.47 268.801 1322.09 268.318 1320.1 268.846C1312.15 270.947 1303.97 272.969 1295.8 274.86C1293.74 275.333 1292.78 276.648 1293.6 277.799C1294.24 278.67 1295.74 279.198 1297.31 279.198ZM629.777 280.727C631.348 280.727 632.818 280.214 633.462 279.356C634.328 278.212 633.381 276.888 631.348 276.402C627.482 275.472 623.575 274.499 619.77 273.508C615.601 272.424 611.393 271.285 607.305 270.127C605.332 269.571 602.936 270.016 601.929 271.13C600.942 272.241 601.748 273.595 603.721 274.154C607.889 275.334 612.158 276.493 616.427 277.6C620.293 278.608 624.26 279.6 628.227 280.547C628.73 280.67 629.254 280.727 629.777 280.727ZM969.19 285.123C969.713 285.123 970.257 285.065 970.76 284.944C979.539 282.848 987.755 280.539 995.145 278.078C997.038 277.445 997.682 276.064 996.534 274.993C995.427 273.923 992.97 273.568 991.057 274.2C983.989 276.557 976.096 278.777 967.639 280.795C965.585 281.281 964.639 282.602 965.525 283.749C966.149 284.607 967.639 285.123 969.19 285.123ZM959.947 286.499C961.296 286.499 962.585 286.121 963.35 285.434C964.518 284.377 963.934 282.988 962.061 282.332C954.712 279.762 947.825 276.757 941.603 273.399C940.012 272.538 937.496 272.569 935.945 273.468C934.415 274.366 934.495 275.793 936.066 276.654C942.711 280.227 950.02 283.427 957.833 286.159C958.497 286.388 959.222 286.499 959.947 286.499ZM1246.9 289.277C1247.31 289.277 1247.69 289.247 1248.07 289.181C1256.65 287.722 1265.27 286.13 1273.67 284.448C1275.76 284.031 1276.83 282.744 1276.1 281.571C1275.36 280.398 1273.08 279.786 1270.99 280.201C1262.69 281.86 1254.22 283.43 1245.78 284.867C1243.64 285.227 1242.45 286.485 1243.08 287.676C1243.6 288.649 1245.21 289.277 1246.9 289.277ZM680.178 290.815C681.909 290.815 683.5 290.174 684.003 289.188C684.628 287.992 683.399 286.743 681.285 286.397C672.788 285.014 664.31 283.474 656.055 281.823C653.961 281.407 651.685 282.019 650.94 283.192C650.195 284.363 651.282 285.652 653.376 286.069C661.773 287.751 670.432 289.317 679.07 290.725C679.433 290.785 679.815 290.815 680.178 290.815ZM918.245 294.234C918.547 294.234 918.87 294.215 919.172 294.173C922.816 293.686 926.481 293.167 930.085 292.63C935.301 291.854 940.415 291.027 945.248 290.173C947.362 289.802 948.55 288.538 947.865 287.351C947.221 286.163 944.986 285.502 942.852 285.873C938.12 286.707 933.146 287.515 928.052 288.273C924.508 288.802 920.883 289.311 917.319 289.79C915.185 290.076 913.856 291.292 914.359 292.503C914.802 293.537 916.433 294.234 918.245 294.234ZM1195.05 296.612C1195.32 296.612 1195.58 296.598 1195.84 296.567C1204.6 295.573 1213.44 294.447 1222.12 293.222C1224.25 292.92 1225.56 291.696 1225.02 290.489C1224.49 289.283 1222.32 288.549 1220.16 288.852C1211.63 290.06 1202.91 291.17 1194.27 292.151C1192.1 292.396 1190.71 293.584 1191.13 294.803C1191.51 295.873 1193.18 296.612 1195.05 296.612ZM732.31 297.499C734.243 297.499 735.934 296.72 736.256 295.62C736.619 294.393 735.149 293.23 732.974 293.024C724.275 292.201 715.516 291.225 706.958 290.13C704.804 289.853 702.67 290.613 702.166 291.826C701.683 293.039 703.032 294.247 705.187 294.522C713.885 295.638 722.785 296.629 731.645 297.467C731.867 297.488 732.108 297.499 732.31 297.499ZM1009.2 297.975C1010.97 297.975 1012.6 297.3 1013.07 296.284C1013.63 295.079 1012.34 293.851 1010.19 293.541C1001.47 292.272 993.091 290.723 985.318 288.937C983.265 288.467 980.949 289.02 980.103 290.172C979.258 291.324 980.244 292.638 982.298 293.109C990.393 294.971 999.112 296.585 1008.21 297.904C1008.54 297.953 1008.88 297.975 1009.2 297.975ZM865.59 299.447C865.731 299.447 865.892 299.442 866.053 299.432C874.973 298.849 883.954 298.112 892.733 297.242C894.928 297.028 896.378 295.859 895.995 294.635C895.613 293.408 893.518 292.592 891.364 292.805C882.705 293.66 873.886 294.384 865.127 294.955C862.932 295.099 861.361 296.217 861.603 297.454C861.845 298.6 863.576 299.447 865.59 299.447ZM785.469 300.812C787.583 300.812 789.335 299.883 789.456 298.682C789.576 297.44 787.885 296.378 785.67 296.31C776.891 296.042 767.991 295.629 759.252 295.085C757.057 294.95 755.083 295.839 754.842 297.076C754.58 298.312 756.171 299.426 758.366 299.563C767.266 300.116 776.307 300.536 785.247 300.809C785.308 300.811 785.388 300.812 785.469 300.812ZM1142.18 301.148C1142.32 301.148 1142.46 301.145 1142.6 301.136C1151.48 300.616 1160.48 299.968 1169.32 299.208C1171.5 299.021 1172.99 297.872 1172.66 296.641C1172.32 295.411 1170.29 294.566 1168.11 294.754C1159.37 295.502 1150.53 296.142 1141.77 296.655C1139.56 296.784 1137.99 297.891 1138.21 299.13C1138.41 300.288 1140.16 301.148 1142.18 301.148ZM812.209 301.206C821.19 301.196 830.251 301.043 839.171 300.749C841.386 300.677 843.058 299.611 842.937 298.369C842.816 297.127 840.883 296.171 838.708 296.252C829.929 296.541 821.029 296.692 812.189 296.701C809.974 296.703 808.202 297.713 808.202 298.957C808.202 300.2 809.994 301.206 812.209 301.206ZM1062.06 302.425C1064.15 302.425 1065.92 301.503 1066.04 300.308C1066.17 299.066 1064.49 297.998 1062.28 297.924C1053.16 297.613 1044.32 297.111 1036 296.431C1033.83 296.248 1031.79 297.104 1031.47 298.335C1031.15 299.566 1032.68 300.709 1034.85 300.888C1043.39 301.589 1052.45 302.104 1061.82 302.422C1061.9 302.423 1061.98 302.425 1062.06 302.425ZM1088.78 302.817C1088.8 302.817 1088.8 302.817 1088.82 302.817C1091.52 302.808 1094.21 302.788 1096.91 302.754C1103.15 302.679 1109.5 302.541 1115.74 302.345C1117.93 302.276 1119.63 301.212 1119.51 299.97C1119.4 298.727 1117.47 297.782 1115.3 297.846C1109.13 298.04 1102.89 298.176 1096.75 298.25C1094.09 298.283 1091.42 298.303 1088.78 298.312C1086.56 298.318 1084.77 299.331 1084.79 300.575C1084.79 301.816 1086.58 302.817 1088.78 302.817Z" fill="#D2B646"/>
<path d="M774.071 49.8289C775.962 49.8289 777.65 49.0695 778.01 47.9843C778.393 46.7597 776.952 45.5858 774.791 45.3601C765.923 44.4398 756.829 44.0201 747.803 44.1139C745.597 44.138 743.841 45.1637 743.886 46.4086C743.931 47.6383 745.709 48.6195 747.87 48.6195C747.915 48.6195 747.915 48.6195 747.938 48.6195C756.446 48.5332 764.977 48.925 773.351 49.7909C773.598 49.8162 773.824 49.8289 774.071 49.8289ZM697.246 55.6452C697.876 55.6452 698.529 55.559 699.137 55.3764C706.273 53.2136 714.218 51.5364 722.727 50.3904C724.888 50.1014 726.216 48.887 725.698 47.6763C725.181 46.4656 723.02 45.7202 720.881 46.008C711.675 47.244 703.076 49.0619 695.356 51.4084C693.397 51.9979 692.677 53.3646 693.712 54.4611C694.433 55.2155 695.806 55.6452 697.246 55.6452ZM822.084 61.3096C823.299 61.3096 824.515 60.9999 825.303 60.4119C826.631 59.419 826.271 58.0071 824.515 57.2563C817.469 54.2671 809.501 51.7166 800.812 49.678C798.764 49.2001 796.423 49.7414 795.568 50.8899C794.735 52.0385 795.703 53.3582 797.729 53.8374C805.787 55.7302 813.192 58.0921 819.698 60.8557C820.418 61.161 821.251 61.3096 822.084 61.3096ZM854.655 84.2515C855.218 84.2515 855.803 84.1816 856.366 84.0358C858.369 83.5047 859.224 82.1637 858.257 81.0379C854.362 76.3774 849.545 72.0014 843.94 68.0297C842.567 67.0571 840.046 66.8966 838.313 67.6698C836.58 68.4454 836.287 69.8612 837.66 70.8361C842.905 74.5341 847.407 78.6139 851.031 82.9595C851.729 83.7733 853.147 84.2515 854.655 84.2515ZM866.54 112.919C866.585 112.919 866.63 112.919 866.675 112.917C868.858 112.878 870.592 111.837 870.524 110.595C870.232 105.437 869.084 100.352 867.103 95.4822C866.608 94.2691 864.447 93.5133 862.308 93.7909C860.147 94.0703 858.797 95.2783 859.292 96.4914C861.183 101.078 862.263 105.871 862.533 110.738C862.623 111.957 864.379 112.919 866.54 112.919ZM859.022 142.115C860.71 142.115 862.286 141.509 862.826 140.559C865.617 135.734 867.688 130.759 868.993 125.772C869.309 124.541 867.778 123.396 865.595 123.217C863.411 123.04 861.385 123.888 861.07 125.119C859.832 129.855 857.874 134.582 855.218 139.164C854.542 140.347 855.69 141.619 857.784 142.004C858.211 142.079 858.617 142.115 859.022 142.115ZM835.162 168.413C836.422 168.413 837.66 168.077 838.448 167.45C843.67 163.242 848.352 158.9 852.381 154.546C853.394 153.441 852.629 152.081 850.671 151.507C848.69 150.932 846.304 151.364 845.269 152.466C841.419 156.649 836.918 160.822 831.875 164.87C830.615 165.89 831.065 167.294 832.866 168.007C833.563 168.282 834.374 168.413 835.162 168.413ZM800.632 190.711C801.623 190.711 802.613 190.507 803.378 190.093C810.019 186.546 816.276 182.91 821.904 179.286C823.367 178.351 823.209 176.927 821.543 176.107C819.878 175.286 817.357 175.378 815.894 176.314C810.424 179.836 804.346 183.371 797.886 186.824C796.288 187.68 796.22 189.105 797.729 190.009C798.516 190.476 799.597 190.711 800.632 190.711ZM759.98 209.495C760.79 209.495 761.601 209.357 762.299 209.069C769.727 206.059 776.817 202.999 783.39 199.978C785.101 199.191 785.371 197.771 783.953 196.808C782.58 195.844 780.036 195.701 778.325 196.487C771.888 199.451 764.932 202.456 757.617 205.414C755.838 206.142 755.433 207.551 756.716 208.56C757.504 209.171 758.742 209.495 759.98 209.495ZM715.929 225.717C716.627 225.717 717.347 225.614 717.978 225.395C721.061 224.357 724.123 223.306 727.161 222.245C731.731 220.654 736.188 219.058 740.419 217.501C742.288 216.822 742.805 215.427 741.59 214.384C740.397 213.341 737.921 213.046 736.075 213.725C731.866 215.263 727.454 216.84 722.952 218.415C719.936 219.466 716.897 220.505 713.858 221.532C711.968 222.174 711.36 223.557 712.485 224.623C713.25 225.328 714.578 225.717 715.929 225.717ZM669.942 240.115C670.55 240.115 671.18 240.035 671.766 239.866C679.599 237.6 687.432 235.239 695.085 232.847C697.021 232.242 697.697 230.871 696.639 229.784C695.558 228.696 693.127 228.304 691.191 228.908C683.628 231.277 675.862 233.615 668.096 235.857C666.138 236.426 665.35 237.783 666.363 238.89C667.084 239.667 668.479 240.115 669.942 240.115ZM622.38 252.796C622.898 252.796 623.46 252.735 623.978 252.608C632.036 250.629 640.14 248.557 648.041 246.452C650.044 245.919 650.899 244.577 649.954 243.452C649.008 242.328 646.622 241.846 644.619 242.379C636.808 244.464 628.773 246.516 620.782 248.476C618.756 248.972 617.833 250.299 618.711 251.44C619.364 252.29 620.827 252.796 622.38 252.796ZM573.489 263.769C573.939 263.769 574.412 263.725 574.862 263.634C583.123 261.938 591.452 260.155 599.555 258.333C601.603 257.873 602.616 256.563 601.806 255.407C600.973 254.252 598.655 253.688 596.606 254.148C588.571 255.953 580.332 257.72 572.116 259.398C570.045 259.824 568.965 261.116 569.73 262.285C570.315 263.2 571.846 263.769 573.489 263.769ZM523.518 273.049C523.878 273.049 524.261 273.02 524.644 272.955C533.085 271.547 541.571 270.05 549.877 268.506C551.97 268.117 553.118 266.843 552.42 265.662C551.745 264.479 549.472 263.838 547.378 264.228C539.14 265.757 530.721 267.24 522.37 268.636C520.254 268.991 519.039 270.244 519.692 271.437C520.187 272.416 521.785 273.049 523.518 273.049ZM29.66 277.448C31.44 277.448 33.06 276.785 33.53 275.78C34.12 274.578 32.8299 273.343 30.6999 273.02C22.2799 271.745 13.7899 270.384 5.50995 268.973C3.38995 268.612 1.15995 269.286 0.509949 270.477C-0.120051 271.668 1.06988 272.925 3.18988 273.285C11.5599 274.711 20.1199 276.085 28.6299 277.371C28.9599 277.424 29.32 277.448 29.66 277.448ZM472.647 280.649C472.939 280.649 473.232 280.63 473.547 280.589C482.101 279.461 490.744 278.248 499.208 276.983C501.324 276.664 502.607 275.431 502.044 274.228C501.482 273.026 499.275 272.309 497.137 272.628C488.764 273.882 480.21 275.083 471.724 276.203C469.563 276.487 468.235 277.699 468.753 278.91C469.18 279.948 470.824 280.649 472.647 280.649ZM80.91 284.247C82.76 284.247 84.45 283.51 84.81 282.443C85.26 281.223 83.8599 280.034 81.6999 279.786C73.1699 278.807 64.5499 277.743 56.1099 276.623C53.9699 276.336 51.81 277.087 51.29 278.299C50.8 279.509 52.12 280.722 54.29 281.008C62.79 282.139 71.4799 283.214 80.0999 284.201C80.3699 284.231 80.64 284.247 80.91 284.247ZM421.078 286.578C421.303 286.578 421.528 286.566 421.753 286.544C430.419 285.692 439.153 284.761 447.729 283.776C449.89 283.527 451.285 282.337 450.858 281.118C450.407 279.9 448.314 279.115 446.131 279.361C437.645 280.338 428.978 281.261 420.38 282.105C418.219 282.318 416.756 283.486 417.139 284.712C417.476 285.806 419.164 286.578 421.078 286.578ZM132.78 289.287C134.73 289.287 136.45 288.475 136.74 287.352C137.03 286.119 135.52 284.979 133.34 284.803C124.72 284.114 116.01 283.342 107.45 282.511C105.27 282.301 103.2 283.122 102.82 284.348C102.46 285.574 103.9 286.741 106.1 286.952C114.72 287.79 123.5 288.567 132.21 289.264C132.39 289.279 132.6 289.287 132.78 289.287ZM368.99 290.84C369.15 290.84 369.28 290.835 369.46 290.825C378.152 290.253 386.976 289.604 395.664 288.893C397.848 288.714 399.356 287.571 399.041 286.34C398.726 285.107 396.7 284.252 394.516 284.434C385.918 285.139 377.162 285.783 368.54 286.35C366.33 286.493 364.76 287.611 365.01 288.847C365.25 289.995 366.99 290.84 368.99 290.84ZM185.09 292.596C187.14 292.596 188.89 291.706 189.07 290.53C189.25 289.29 187.61 288.201 185.4 288.098C176.74 287.692 167.96 287.211 159.34 286.664C157.13 286.526 155.15 287.415 154.9 288.652C154.66 289.888 156.23 291.004 158.44 291.142C167.15 291.693 175.99 292.179 184.75 292.588C184.86 292.593 184.98 292.596 185.09 292.596ZM316.57 293.436C316.63 293.436 316.72 293.435 316.79 293.432C325.57 293.138 334.42 292.771 343.15 292.339C345.36 292.228 346.98 291.136 346.8 289.897C346.59 288.657 344.66 287.742 342.47 287.849C333.81 288.278 325.01 288.643 316.32 288.935C314.11 289.01 312.45 290.076 312.58 291.318C312.69 292.515 314.45 293.436 316.57 293.436ZM237.65 294.197C239.81 294.197 241.56 293.226 241.63 292.001C241.7 290.758 239.94 289.723 237.74 289.693C229.05 289.567 220.23 289.371 211.54 289.107C209.33 289.042 207.46 289.992 207.35 291.234C207.24 292.477 208.93 293.539 211.13 293.605C219.89 293.872 228.76 294.072 237.54 294.197C237.58 294.197 237.6 294.197 237.65 294.197ZM263.94 294.363C263.96 294.363 263.96 294.363 263.96 294.363C272.74 294.349 281.63 294.263 290.41 294.108C292.59 294.069 294.33 293.031 294.26 291.787C294.19 290.542 292.37 289.566 290.14 289.605C281.45 289.759 272.63 289.844 263.94 289.858C261.73 289.862 259.95 290.873 259.95 292.117C259.95 293.359 261.76 294.363 263.94 294.363Z" fill="#D2B646"/>
</g>
<defs>
<clipPath id="clip0_11_5">
<rect width="1373" height="303" fill="white" transform="matrix(-1 0 0 1 1373 0)"/>
</clipPath>
</defs>
</svg>
