<svg width="1373" height="352" viewBox="0 0 1373 352" fill="none" xmlns="http://www.w3.org/2000/svg">
<g clip-path="url(#clip0_11_5)">
<mask id="path-1-inside-1_11_5" fill="white">
<path d="M512.042 8.38995C512.384 8.38995 512.747 8.36358 513.109 8.29769C521.526 6.75629 530.124 5.72867 538.642 5.22804C540.857 5.0963 542.467 3.81843 542.266 2.3824C542.085 0.946388 540.091 -0.120745 537.937 0.0109999C528.916 0.537979 519.855 1.63141 510.955 3.25187C508.82 3.6471 507.592 5.08313 508.176 6.47962C508.679 7.63897 510.27 8.38995 512.042 8.38995ZM591.015 9.299C592.667 9.299 594.217 8.62705 594.801 7.53356C595.506 6.1766 594.418 4.68787 592.324 4.21358C583.525 2.22423 574.484 0.867365 565.443 0.169119C563.248 -0.00214892 561.275 1.02539 561.013 2.4614C560.751 3.89742 562.322 5.20177 564.537 5.37304C572.974 6.01859 581.431 7.29639 589.707 9.15401C590.15 9.25941 590.572 9.299 591.015 9.299ZM463.897 23.2903C464.682 23.2903 465.467 23.1323 466.152 22.8292C473.361 19.5751 480.972 16.6899 488.745 14.2789C490.738 13.6597 491.584 12.092 490.637 10.7877C489.691 9.48343 487.295 8.93005 485.301 9.54926C477.146 12.0919 469.172 15.109 461.621 18.5211C459.789 19.338 459.346 20.9715 460.595 22.1573C461.36 22.895 462.628 23.2903 463.897 23.2903ZM636.684 27.0845C637.751 27.0845 638.838 26.8079 639.624 26.2413C641.114 25.1742 641.013 23.5275 639.402 22.5394C632.697 18.5211 625.267 14.8982 617.293 11.8022C615.38 11.0644 612.923 11.4727 611.816 12.7111C610.668 13.9495 611.292 15.5568 613.205 16.2946C620.696 19.2194 627.683 22.6184 633.965 26.3995C634.751 26.8606 635.717 27.0845 636.684 27.0845ZM425.256 47.2941C426.444 47.2941 427.632 46.9385 428.417 46.2666C433.693 41.7872 439.573 37.5187 445.895 33.5927C447.506 32.5914 447.567 30.9315 446.056 29.8907C444.526 28.8368 441.989 28.7972 440.398 29.7985C433.753 33.9089 427.592 38.3882 422.074 43.0783C420.745 44.2245 421.067 45.8713 422.819 46.754C423.544 47.1229 424.39 47.2941 425.256 47.2941ZM665.982 55.9234C666.384 55.9234 666.807 55.8839 667.21 55.7917C669.324 55.3437 670.472 53.8682 669.787 52.4981C667.008 46.8989 662.861 41.4184 657.484 36.2013C656.236 35.0025 653.759 34.6862 651.907 35.503C650.094 36.3066 649.611 37.9403 650.839 39.1392C655.813 43.9479 659.639 48.9805 662.176 54.1054C662.72 55.212 664.29 55.9234 665.982 55.9234ZM400.287 78.0608C401.979 78.0608 403.529 77.3693 404.093 76.274C405.543 73.4416 407.174 70.6211 408.966 67.8914C410.577 65.449 412.369 62.985 414.302 60.6004C415.349 59.3225 414.604 57.7284 412.651 57.0565C410.697 56.3715 408.281 56.8589 407.254 58.1368C405.2 60.6663 403.308 63.2485 401.616 65.8305C399.743 68.6923 398.032 71.6457 396.502 74.6115C395.797 75.9815 396.925 77.4648 399.019 77.9234C399.442 78.017 399.885 78.0608 400.287 78.0608ZM390.843 112.395C392.978 112.395 394.75 111.293 394.83 109.886C395.213 104.089 396.159 98.3558 397.649 92.8474C398.032 91.425 396.582 90.0655 394.407 89.8123C392.233 89.5564 390.159 90.5064 389.776 91.9308C388.206 97.6694 387.239 103.638 386.856 109.669C386.756 111.113 388.467 112.331 390.682 112.392C390.723 112.393 390.803 112.395 390.843 112.395ZM394.911 147.226C395.153 147.226 395.394 147.209 395.656 147.18C397.831 146.914 399.24 145.548 398.857 144.127C397.206 138.386 396.039 132.644 395.354 127.06C395.173 125.619 393.24 124.548 391.065 124.656C388.87 124.771 387.219 126.03 387.38 127.472C388.085 133.239 389.293 139.166 390.984 145.087C391.347 146.346 393.018 147.226 394.911 147.226ZM409.57 180.845C410.033 180.845 410.516 180.79 411 180.673C413.053 180.157 414.08 178.644 413.295 177.293C410.134 171.856 407.315 166.344 404.939 160.911C404.314 159.521 402.079 158.719 399.985 159.116C397.871 159.514 396.643 160.965 397.227 162.354C399.683 167.93 402.563 173.585 405.825 179.161C406.429 180.205 407.959 180.845 409.57 180.845ZM432.404 212.472C433.069 212.472 433.733 212.363 434.357 212.132C436.29 211.419 436.955 209.823 435.868 208.566C431.518 203.534 427.431 198.364 423.685 193.2C422.739 191.894 420.363 191.335 418.349 191.951C416.376 192.571 415.51 194.131 416.456 195.437C420.282 200.718 424.471 206.002 428.921 211.144C429.646 211.995 430.995 212.472 432.404 212.472ZM999.434 229.336C1001.27 229.336 1002.92 228.513 1003.32 227.298C1003.82 225.889 1002.47 224.487 1000.32 224.167C991.46 222.852 981.855 222.693 972.23 223.697C970.035 223.924 968.545 225.264 968.908 226.693C969.25 228.121 971.304 229.089 973.478 228.866C982.117 227.966 990.695 228.103 998.548 229.272C998.85 229.315 999.132 229.336 999.434 229.336ZM461.964 241.624C462.83 241.624 463.675 241.448 464.4 241.083C466.152 240.201 466.474 238.557 465.125 237.413C459.749 232.83 454.574 228.09 449.721 223.321C448.493 222.117 446.016 221.789 444.184 222.589C442.351 223.388 441.848 225.013 443.056 226.217C448.009 231.086 453.305 235.926 458.802 240.602C459.588 241.272 460.776 241.624 461.964 241.624ZM925.917 244.542C926.944 244.542 927.951 244.288 928.736 243.781C934.676 239.917 941.623 236.647 949.356 234.064C951.329 233.406 952.094 231.831 951.107 230.544C950.101 229.256 947.684 228.744 945.731 229.401C937.234 232.232 929.622 235.822 923.098 240.07C921.528 241.088 921.528 242.747 923.098 243.772C923.863 244.285 924.89 244.542 925.917 244.542ZM1039.93 250.36C1040.51 250.36 1041.11 250.276 1041.68 250.096C1043.65 249.463 1044.48 247.897 1043.53 246.598C1039.24 240.859 1033.32 235.991 1025.85 232.133C1024.12 231.236 1021.6 231.429 1020.23 232.562C1018.87 233.696 1019.17 235.34 1020.88 236.238C1027.4 239.605 1032.6 243.861 1036.32 248.887C1037.03 249.819 1038.46 250.36 1039.93 250.36ZM497.322 267.882C498.349 267.882 499.376 267.626 500.162 267.112C501.712 266.087 501.712 264.428 500.121 263.41C493.879 259.341 487.778 255.095 481.979 250.79C480.509 249.705 477.992 249.6 476.321 250.557C474.67 251.512 474.508 253.165 475.978 254.25C481.898 258.642 488.12 262.972 494.483 267.121C495.269 267.628 496.296 267.882 497.322 267.882ZM905.6 275.889C907.795 275.889 909.587 274.729 909.587 273.291C909.627 269.527 910.392 265.797 911.842 262.206C912.507 260.545 913.393 258.879 914.46 257.254C915.326 255.926 914.399 254.387 912.346 253.816C910.332 253.244 907.976 253.859 907.11 255.189C905.882 257.049 904.875 258.962 904.11 260.872C902.479 264.885 901.653 269.05 901.593 273.251C901.573 274.696 903.365 275.878 905.56 275.889C905.58 275.889 905.58 275.889 905.6 275.889ZM1043.98 284.523C1045.75 284.523 1047.34 283.759 1047.84 282.597C1049.81 277.842 1050.82 272.96 1050.82 268.083C1050.82 266.843 1050.76 265.602 1050.64 264.391C1050.48 262.95 1048.59 261.866 1046.37 261.962C1044.16 262.062 1042.5 263.312 1042.65 264.754C1042.77 265.846 1042.83 266.967 1042.83 268.084C1042.83 272.494 1041.92 276.912 1040.11 281.215C1039.53 282.61 1040.79 284.049 1042.91 284.431C1043.27 284.493 1043.61 284.523 1043.98 284.523ZM537.574 290.914C538.783 290.914 539.971 290.561 540.756 289.89C542.105 288.743 541.763 287.1 540.031 286.22C533.044 282.712 526.137 279.016 519.512 275.233C517.841 274.283 515.324 274.393 513.874 275.48C512.425 276.57 512.606 278.223 514.257 279.175C521.003 283.031 528.03 286.798 535.158 290.372C535.883 290.738 536.729 290.914 537.574 290.914ZM921.669 308.737C922.434 308.737 923.199 308.597 923.884 308.302C925.736 307.503 926.239 305.88 925.011 304.675C920.098 299.823 916.292 294.765 913.695 289.639C912.99 288.267 910.735 287.526 908.641 287.979C906.546 288.434 905.399 289.917 906.103 291.288C908.923 296.853 913.03 302.329 918.346 307.565C919.111 308.326 920.38 308.737 921.669 308.737ZM1345.71 309.486C1346.36 309.486 1347 309.388 1347.59 309.179C1355.52 306.423 1363.41 303.505 1371.06 300.51C1372.96 299.769 1373.56 298.16 1372.43 296.92C1371.31 295.681 1368.85 295.278 1366.94 296.021C1359.43 298.97 1351.65 301.843 1343.84 304.558C1341.89 305.236 1341.14 306.821 1342.19 308.097C1342.89 308.983 1344.28 309.486 1345.71 309.486ZM581.974 310.423C583.364 310.423 584.693 309.958 585.458 309.124C586.565 307.876 585.921 306.274 584.008 305.546C576.417 302.643 568.846 299.545 561.536 296.337C559.724 295.531 557.227 295.849 555.999 297.049C554.771 298.251 555.254 299.875 557.086 300.682C564.537 303.95 572.228 307.107 579.961 310.066C580.605 310.307 581.31 310.423 581.974 310.423ZM1014.82 313.243C1015.76 313.243 1016.69 313.03 1017.46 312.597C1024.64 308.476 1030.89 303.965 1036 299.189C1037.27 298.003 1036.83 296.371 1035.01 295.544C1033.2 294.715 1030.71 295.006 1029.44 296.19C1024.71 300.62 1018.9 304.813 1012.18 308.656C1010.51 309.607 1010.35 311.26 1011.82 312.349C1012.6 312.94 1013.71 313.243 1014.82 313.243ZM1297.31 324.348C1297.83 324.348 1298.33 324.285 1298.84 324.151C1307.13 321.924 1315.43 319.538 1323.48 317.062C1325.5 316.447 1326.36 314.889 1325.42 313.581C1324.47 312.271 1322.09 311.709 1320.1 312.323C1312.15 314.764 1303.97 317.113 1295.8 319.309C1293.74 319.859 1292.78 321.386 1293.6 322.724C1294.24 323.736 1295.74 324.348 1297.31 324.348ZM629.777 326.125C631.348 326.125 632.818 325.529 633.462 324.533C634.328 323.203 633.381 321.666 631.348 321.101C627.482 320.02 623.575 318.89 619.77 317.739C615.601 316.479 611.393 315.156 607.305 313.811C605.332 313.165 602.936 313.682 601.929 314.976C600.942 316.267 601.748 317.84 603.721 318.489C607.889 319.86 612.158 321.206 616.427 322.492C620.293 323.663 624.26 324.816 628.227 325.916C628.73 326.059 629.254 326.125 629.777 326.125ZM969.19 331.232C969.713 331.232 970.257 331.165 970.76 331.024C979.539 328.589 987.755 325.907 995.145 323.048C997.038 322.313 997.682 320.708 996.534 319.463C995.427 318.221 992.97 317.809 991.057 318.542C983.989 321.281 976.096 323.86 967.639 326.204C965.585 326.768 964.639 328.303 965.525 329.635C966.149 330.633 967.639 331.232 969.19 331.232ZM959.947 332.83C961.296 332.83 962.585 332.391 963.35 331.593C964.518 330.365 963.934 328.752 962.061 327.99C954.712 325.005 947.825 321.513 941.603 317.613C940.012 316.612 937.496 316.648 935.945 317.692C934.415 318.736 934.495 320.393 936.066 321.394C942.711 325.544 950.02 329.261 957.833 332.435C958.497 332.702 959.222 332.83 959.947 332.83ZM1246.9 336.058C1247.31 336.058 1247.69 336.023 1248.07 335.946C1256.65 334.251 1265.27 332.402 1273.67 330.448C1275.76 329.963 1276.83 328.468 1276.1 327.106C1275.36 325.743 1273.08 325.032 1270.99 325.514C1262.69 327.442 1254.22 329.265 1245.78 330.934C1243.64 331.353 1242.45 332.814 1243.08 334.198C1243.6 335.328 1245.21 336.058 1246.9 336.058ZM680.178 337.844C681.909 337.844 683.5 337.1 684.003 335.954C684.628 334.565 683.399 333.114 681.285 332.713C672.788 331.106 664.31 329.316 656.055 327.399C653.961 326.915 651.685 327.626 650.94 328.988C650.195 330.349 651.282 331.847 653.376 332.33C661.773 334.285 670.432 336.104 679.07 337.74C679.433 337.81 679.815 337.844 680.178 337.844ZM918.245 341.816C918.547 341.816 918.87 341.794 919.172 341.745C922.816 341.18 926.481 340.577 930.085 339.953C935.301 339.051 940.415 338.091 945.248 337.099C947.362 336.668 948.55 335.199 947.865 333.821C947.221 332.44 944.986 331.672 942.852 332.103C938.12 333.072 933.146 334.011 928.052 334.892C924.508 335.506 920.883 336.097 917.319 336.653C915.185 336.986 913.856 338.399 914.359 339.805C914.802 341.006 916.433 341.816 918.245 341.816ZM1195.05 344.579C1195.32 344.579 1195.58 344.562 1195.84 344.526C1204.6 343.372 1213.44 342.064 1222.12 340.641C1224.25 340.29 1225.56 338.868 1225.02 337.466C1224.49 336.064 1222.32 335.212 1220.16 335.564C1211.63 336.968 1202.91 338.257 1194.27 339.396C1192.1 339.681 1190.71 341.062 1191.13 342.478C1191.51 343.72 1193.18 344.579 1195.05 344.579ZM732.31 345.61C734.243 345.61 735.934 344.704 736.256 343.426C736.619 342.001 735.149 340.65 732.974 340.411C724.275 339.454 715.516 338.321 706.958 337.048C704.804 336.727 702.67 337.61 702.166 339.018C701.683 340.428 703.032 341.831 705.187 342.151C713.885 343.447 722.785 344.599 731.645 345.572C731.867 345.597 732.108 345.61 732.31 345.61ZM1009.2 346.162C1010.97 346.162 1012.6 345.379 1013.07 344.198C1013.63 342.798 1012.34 341.371 1010.19 341.011C1001.47 339.537 993.091 337.737 985.318 335.663C983.265 335.117 980.949 335.759 980.103 337.098C979.258 338.436 980.244 339.963 982.298 340.51C990.393 342.673 999.112 344.548 1008.21 346.079C1008.54 346.136 1008.88 346.162 1009.2 346.162ZM865.59 347.873C865.731 347.873 865.892 347.866 866.053 347.854C874.973 347.177 883.954 346.322 892.733 345.311C894.928 345.063 896.378 343.704 895.995 342.283C895.613 340.857 893.518 339.909 891.364 340.156C882.705 341.149 873.886 341.99 865.127 342.654C862.932 342.822 861.361 344.12 861.603 345.557C861.845 346.889 863.576 347.873 865.59 347.873ZM785.469 349.459C787.583 349.459 789.335 348.379 789.456 346.984C789.576 345.541 787.885 344.308 785.67 344.228C776.891 343.916 767.991 343.437 759.252 342.805C757.057 342.648 755.083 343.681 754.842 345.118C754.58 346.554 756.171 347.848 758.366 348.007C767.266 348.65 776.307 349.137 785.247 349.455C785.308 349.457 785.388 349.459 785.469 349.459ZM1142.18 349.849C1142.32 349.849 1142.46 349.845 1142.6 349.834C1151.48 349.231 1160.48 348.477 1169.32 347.595C1171.5 347.377 1172.99 346.043 1172.66 344.613C1172.32 343.184 1170.29 342.202 1168.11 342.42C1159.37 343.29 1150.53 344.033 1141.77 344.629C1139.56 344.779 1137.99 346.065 1138.21 347.504C1138.41 348.849 1140.16 349.849 1142.18 349.849ZM812.209 349.916C821.19 349.904 830.251 349.726 839.171 349.385C841.386 349.301 843.058 348.062 842.937 346.62C842.816 345.177 840.883 344.067 838.708 344.16C829.929 344.496 821.029 344.671 812.189 344.682C809.974 344.684 808.202 345.858 808.202 347.304C808.202 348.748 809.994 349.916 812.209 349.916ZM1062.06 351.333C1064.15 351.333 1065.92 350.262 1066.04 348.872C1066.17 347.43 1064.49 346.189 1062.28 346.104C1053.16 345.742 1044.32 345.159 1036 344.368C1033.83 344.156 1031.79 345.151 1031.47 346.581C1031.15 348.011 1032.68 349.339 1034.85 349.547C1043.39 350.36 1052.45 350.96 1061.82 351.329C1061.9 351.33 1061.98 351.333 1062.06 351.333ZM1088.78 351.788C1088.8 351.788 1088.8 351.788 1088.82 351.788C1091.52 351.777 1094.21 351.754 1096.91 351.714C1103.15 351.628 1109.5 351.467 1115.74 351.239C1117.93 351.159 1119.63 349.923 1119.51 348.48C1119.4 347.036 1117.47 345.939 1115.3 346.013C1109.13 346.238 1102.89 346.396 1096.75 346.482C1094.09 346.52 1091.42 346.543 1088.78 346.554C1086.56 346.56 1084.77 347.738 1084.79 349.183C1084.79 350.625 1086.58 351.788 1088.78 351.788Z"/>
</mask>
<path d="M512.042 8.38995C512.384 8.38995 512.747 8.36358 513.109 8.29769C521.526 6.75629 530.124 5.72867 538.642 5.22804C540.857 5.0963 542.467 3.81843 542.266 2.3824C542.085 0.946388 540.091 -0.120745 537.937 0.0109999C528.916 0.537979 519.855 1.63141 510.955 3.25187C508.82 3.6471 507.592 5.08313 508.176 6.47962C508.679 7.63897 510.27 8.38995 512.042 8.38995ZM591.015 9.299C592.667 9.299 594.217 8.62705 594.801 7.53356C595.506 6.1766 594.418 4.68787 592.324 4.21358C583.525 2.22423 574.484 0.867365 565.443 0.169119C563.248 -0.00214892 561.275 1.02539 561.013 2.4614C560.751 3.89742 562.322 5.20177 564.537 5.37304C572.974 6.01859 581.431 7.29639 589.707 9.15401C590.15 9.25941 590.572 9.299 591.015 9.299ZM463.897 23.2903C464.682 23.2903 465.467 23.1323 466.152 22.8292C473.361 19.5751 480.972 16.6899 488.745 14.2789C490.738 13.6597 491.584 12.092 490.637 10.7877C489.691 9.48343 487.295 8.93005 485.301 9.54926C477.146 12.0919 469.172 15.109 461.621 18.5211C459.789 19.338 459.346 20.9715 460.595 22.1573C461.36 22.895 462.628 23.2903 463.897 23.2903ZM636.684 27.0845C637.751 27.0845 638.838 26.8079 639.624 26.2413C641.114 25.1742 641.013 23.5275 639.402 22.5394C632.697 18.5211 625.267 14.8982 617.293 11.8022C615.38 11.0644 612.923 11.4727 611.816 12.7111C610.668 13.9495 611.292 15.5568 613.205 16.2946C620.696 19.2194 627.683 22.6184 633.965 26.3995C634.751 26.8606 635.717 27.0845 636.684 27.0845ZM425.256 47.2941C426.444 47.2941 427.632 46.9385 428.417 46.2666C433.693 41.7872 439.573 37.5187 445.895 33.5927C447.506 32.5914 447.567 30.9315 446.056 29.8907C444.526 28.8368 441.989 28.7972 440.398 29.7985C433.753 33.9089 427.592 38.3882 422.074 43.0783C420.745 44.2245 421.067 45.8713 422.819 46.754C423.544 47.1229 424.39 47.2941 425.256 47.2941ZM665.982 55.9234C666.384 55.9234 666.807 55.8839 667.21 55.7917C669.324 55.3437 670.472 53.8682 669.787 52.4981C667.008 46.8989 662.861 41.4184 657.484 36.2013C656.236 35.0025 653.759 34.6862 651.907 35.503C650.094 36.3066 649.611 37.9403 650.839 39.1392C655.813 43.9479 659.639 48.9805 662.176 54.1054C662.72 55.212 664.29 55.9234 665.982 55.9234ZM400.287 78.0608C401.979 78.0608 403.529 77.3693 404.093 76.274C405.543 73.4416 407.174 70.6211 408.966 67.8914C410.577 65.449 412.369 62.985 414.302 60.6004C415.349 59.3225 414.604 57.7284 412.651 57.0565C410.697 56.3715 408.281 56.8589 407.254 58.1368C405.2 60.6663 403.308 63.2485 401.616 65.8305C399.743 68.6923 398.032 71.6457 396.502 74.6115C395.797 75.9815 396.925 77.4648 399.019 77.9234C399.442 78.017 399.885 78.0608 400.287 78.0608ZM390.843 112.395C392.978 112.395 394.75 111.293 394.83 109.886C395.213 104.089 396.159 98.3558 397.649 92.8474C398.032 91.425 396.582 90.0655 394.407 89.8123C392.233 89.5564 390.159 90.5064 389.776 91.9308C388.206 97.6694 387.239 103.638 386.856 109.669C386.756 111.113 388.467 112.331 390.682 112.392C390.723 112.393 390.803 112.395 390.843 112.395ZM394.911 147.226C395.153 147.226 395.394 147.209 395.656 147.18C397.831 146.914 399.24 145.548 398.857 144.127C397.206 138.386 396.039 132.644 395.354 127.06C395.173 125.619 393.24 124.548 391.065 124.656C388.87 124.771 387.219 126.03 387.38 127.472C388.085 133.239 389.293 139.166 390.984 145.087C391.347 146.346 393.018 147.226 394.911 147.226ZM409.57 180.845C410.033 180.845 410.516 180.79 411 180.673C413.053 180.157 414.08 178.644 413.295 177.293C410.134 171.856 407.315 166.344 404.939 160.911C404.314 159.521 402.079 158.719 399.985 159.116C397.871 159.514 396.643 160.965 397.227 162.354C399.683 167.93 402.563 173.585 405.825 179.161C406.429 180.205 407.959 180.845 409.57 180.845ZM432.404 212.472C433.069 212.472 433.733 212.363 434.357 212.132C436.29 211.419 436.955 209.823 435.868 208.566C431.518 203.534 427.431 198.364 423.685 193.2C422.739 191.894 420.363 191.335 418.349 191.951C416.376 192.571 415.51 194.131 416.456 195.437C420.282 200.718 424.471 206.002 428.921 211.144C429.646 211.995 430.995 212.472 432.404 212.472ZM999.434 229.336C1001.27 229.336 1002.92 228.513 1003.32 227.298C1003.82 225.889 1002.47 224.487 1000.32 224.167C991.46 222.852 981.855 222.693 972.23 223.697C970.035 223.924 968.545 225.264 968.908 226.693C969.25 228.121 971.304 229.089 973.478 228.866C982.117 227.966 990.695 228.103 998.548 229.272C998.85 229.315 999.132 229.336 999.434 229.336ZM461.964 241.624C462.83 241.624 463.675 241.448 464.4 241.083C466.152 240.201 466.474 238.557 465.125 237.413C459.749 232.83 454.574 228.09 449.721 223.321C448.493 222.117 446.016 221.789 444.184 222.589C442.351 223.388 441.848 225.013 443.056 226.217C448.009 231.086 453.305 235.926 458.802 240.602C459.588 241.272 460.776 241.624 461.964 241.624ZM925.917 244.542C926.944 244.542 927.951 244.288 928.736 243.781C934.676 239.917 941.623 236.647 949.356 234.064C951.329 233.406 952.094 231.831 951.107 230.544C950.101 229.256 947.684 228.744 945.731 229.401C937.234 232.232 929.622 235.822 923.098 240.07C921.528 241.088 921.528 242.747 923.098 243.772C923.863 244.285 924.89 244.542 925.917 244.542ZM1039.93 250.36C1040.51 250.36 1041.11 250.276 1041.68 250.096C1043.65 249.463 1044.48 247.897 1043.53 246.598C1039.24 240.859 1033.32 235.991 1025.85 232.133C1024.12 231.236 1021.6 231.429 1020.23 232.562C1018.87 233.696 1019.17 235.34 1020.88 236.238C1027.4 239.605 1032.6 243.861 1036.32 248.887C1037.03 249.819 1038.46 250.36 1039.93 250.36ZM497.322 267.882C498.349 267.882 499.376 267.626 500.162 267.112C501.712 266.087 501.712 264.428 500.121 263.41C493.879 259.341 487.778 255.095 481.979 250.79C480.509 249.705 477.992 249.6 476.321 250.557C474.67 251.512 474.508 253.165 475.978 254.25C481.898 258.642 488.12 262.972 494.483 267.121C495.269 267.628 496.296 267.882 497.322 267.882ZM905.6 275.889C907.795 275.889 909.587 274.729 909.587 273.291C909.627 269.527 910.392 265.797 911.842 262.206C912.507 260.545 913.393 258.879 914.46 257.254C915.326 255.926 914.399 254.387 912.346 253.816C910.332 253.244 907.976 253.859 907.11 255.189C905.882 257.049 904.875 258.962 904.11 260.872C902.479 264.885 901.653 269.05 901.593 273.251C901.573 274.696 903.365 275.878 905.56 275.889C905.58 275.889 905.58 275.889 905.6 275.889ZM1043.98 284.523C1045.75 284.523 1047.34 283.759 1047.84 282.597C1049.81 277.842 1050.82 272.96 1050.82 268.083C1050.82 266.843 1050.76 265.602 1050.64 264.391C1050.48 262.95 1048.59 261.866 1046.37 261.962C1044.16 262.062 1042.5 263.312 1042.65 264.754C1042.77 265.846 1042.83 266.967 1042.83 268.084C1042.83 272.494 1041.92 276.912 1040.11 281.215C1039.53 282.61 1040.79 284.049 1042.91 284.431C1043.27 284.493 1043.61 284.523 1043.98 284.523ZM537.574 290.914C538.783 290.914 539.971 290.561 540.756 289.89C542.105 288.743 541.763 287.1 540.031 286.22C533.044 282.712 526.137 279.016 519.512 275.233C517.841 274.283 515.324 274.393 513.874 275.48C512.425 276.57 512.606 278.223 514.257 279.175C521.003 283.031 528.03 286.798 535.158 290.372C535.883 290.738 536.729 290.914 537.574 290.914ZM921.669 308.737C922.434 308.737 923.199 308.597 923.884 308.302C925.736 307.503 926.239 305.88 925.011 304.675C920.098 299.823 916.292 294.765 913.695 289.639C912.99 288.267 910.735 287.526 908.641 287.979C906.546 288.434 905.399 289.917 906.103 291.288C908.923 296.853 913.03 302.329 918.346 307.565C919.111 308.326 920.38 308.737 921.669 308.737ZM1345.71 309.486C1346.36 309.486 1347 309.388 1347.59 309.179C1355.52 306.423 1363.41 303.505 1371.06 300.51C1372.96 299.769 1373.56 298.16 1372.43 296.92C1371.31 295.681 1368.85 295.278 1366.94 296.021C1359.43 298.97 1351.65 301.843 1343.84 304.558C1341.89 305.236 1341.14 306.821 1342.19 308.097C1342.89 308.983 1344.28 309.486 1345.71 309.486ZM581.974 310.423C583.364 310.423 584.693 309.958 585.458 309.124C586.565 307.876 585.921 306.274 584.008 305.546C576.417 302.643 568.846 299.545 561.536 296.337C559.724 295.531 557.227 295.849 555.999 297.049C554.771 298.251 555.254 299.875 557.086 300.682C564.537 303.95 572.228 307.107 579.961 310.066C580.605 310.307 581.31 310.423 581.974 310.423ZM1014.82 313.243C1015.76 313.243 1016.69 313.03 1017.46 312.597C1024.64 308.476 1030.89 303.965 1036 299.189C1037.27 298.003 1036.83 296.371 1035.01 295.544C1033.2 294.715 1030.71 295.006 1029.44 296.19C1024.71 300.62 1018.9 304.813 1012.18 308.656C1010.51 309.607 1010.35 311.26 1011.82 312.349C1012.6 312.94 1013.71 313.243 1014.82 313.243ZM1297.31 324.348C1297.83 324.348 1298.33 324.285 1298.84 324.151C1307.13 321.924 1315.43 319.538 1323.48 317.062C1325.5 316.447 1326.36 314.889 1325.42 313.581C1324.47 312.271 1322.09 311.709 1320.1 312.323C1312.15 314.764 1303.97 317.113 1295.8 319.309C1293.74 319.859 1292.78 321.386 1293.6 322.724C1294.24 323.736 1295.74 324.348 1297.31 324.348ZM629.777 326.125C631.348 326.125 632.818 325.529 633.462 324.533C634.328 323.203 633.381 321.666 631.348 321.101C627.482 320.02 623.575 318.89 619.77 317.739C615.601 316.479 611.393 315.156 607.305 313.811C605.332 313.165 602.936 313.682 601.929 314.976C600.942 316.267 601.748 317.84 603.721 318.489C607.889 319.86 612.158 321.206 616.427 322.492C620.293 323.663 624.26 324.816 628.227 325.916C628.73 326.059 629.254 326.125 629.777 326.125ZM969.19 331.232C969.713 331.232 970.257 331.165 970.76 331.024C979.539 328.589 987.755 325.907 995.145 323.048C997.038 322.313 997.682 320.708 996.534 319.463C995.427 318.221 992.97 317.809 991.057 318.542C983.989 321.281 976.096 323.86 967.639 326.204C965.585 326.768 964.639 328.303 965.525 329.635C966.149 330.633 967.639 331.232 969.19 331.232ZM959.947 332.83C961.296 332.83 962.585 332.391 963.35 331.593C964.518 330.365 963.934 328.752 962.061 327.99C954.712 325.005 947.825 321.513 941.603 317.613C940.012 316.612 937.496 316.648 935.945 317.692C934.415 318.736 934.495 320.393 936.066 321.394C942.711 325.544 950.02 329.261 957.833 332.435C958.497 332.702 959.222 332.83 959.947 332.83ZM1246.9 336.058C1247.31 336.058 1247.69 336.023 1248.07 335.946C1256.65 334.251 1265.27 332.402 1273.67 330.448C1275.76 329.963 1276.83 328.468 1276.1 327.106C1275.36 325.743 1273.08 325.032 1270.99 325.514C1262.69 327.442 1254.22 329.265 1245.78 330.934C1243.64 331.353 1242.45 332.814 1243.08 334.198C1243.6 335.328 1245.21 336.058 1246.9 336.058ZM680.178 337.844C681.909 337.844 683.5 337.1 684.003 335.954C684.628 334.565 683.399 333.114 681.285 332.713C672.788 331.106 664.31 329.316 656.055 327.399C653.961 326.915 651.685 327.626 650.94 328.988C650.195 330.349 651.282 331.847 653.376 332.33C661.773 334.285 670.432 336.104 679.07 337.74C679.433 337.81 679.815 337.844 680.178 337.844ZM918.245 341.816C918.547 341.816 918.87 341.794 919.172 341.745C922.816 341.18 926.481 340.577 930.085 339.953C935.301 339.051 940.415 338.091 945.248 337.099C947.362 336.668 948.55 335.199 947.865 333.821C947.221 332.44 944.986 331.672 942.852 332.103C938.12 333.072 933.146 334.011 928.052 334.892C924.508 335.506 920.883 336.097 917.319 336.653C915.185 336.986 913.856 338.399 914.359 339.805C914.802 341.006 916.433 341.816 918.245 341.816ZM1195.05 344.579C1195.32 344.579 1195.58 344.562 1195.84 344.526C1204.6 343.372 1213.44 342.064 1222.12 340.641C1224.25 340.29 1225.56 338.868 1225.02 337.466C1224.49 336.064 1222.32 335.212 1220.16 335.564C1211.63 336.968 1202.91 338.257 1194.27 339.396C1192.1 339.681 1190.71 341.062 1191.13 342.478C1191.51 343.72 1193.18 344.579 1195.05 344.579ZM732.31 345.61C734.243 345.61 735.934 344.704 736.256 343.426C736.619 342.001 735.149 340.65 732.974 340.411C724.275 339.454 715.516 338.321 706.958 337.048C704.804 336.727 702.67 337.61 702.166 339.018C701.683 340.428 703.032 341.831 705.187 342.151C713.885 343.447 722.785 344.599 731.645 345.572C731.867 345.597 732.108 345.61 732.31 345.61ZM1009.2 346.162C1010.97 346.162 1012.6 345.379 1013.07 344.198C1013.63 342.798 1012.34 341.371 1010.19 341.011C1001.47 339.537 993.091 337.737 985.318 335.663C983.265 335.117 980.949 335.759 980.103 337.098C979.258 338.436 980.244 339.963 982.298 340.51C990.393 342.673 999.112 344.548 1008.21 346.079C1008.54 346.136 1008.88 346.162 1009.2 346.162ZM865.59 347.873C865.731 347.873 865.892 347.866 866.053 347.854C874.973 347.177 883.954 346.322 892.733 345.311C894.928 345.063 896.378 343.704 895.995 342.283C895.613 340.857 893.518 339.909 891.364 340.156C882.705 341.149 873.886 341.99 865.127 342.654C862.932 342.822 861.361 344.12 861.603 345.557C861.845 346.889 863.576 347.873 865.59 347.873ZM785.469 349.459C787.583 349.459 789.335 348.379 789.456 346.984C789.576 345.541 787.885 344.308 785.67 344.228C776.891 343.916 767.991 343.437 759.252 342.805C757.057 342.648 755.083 343.681 754.842 345.118C754.58 346.554 756.171 347.848 758.366 348.007C767.266 348.65 776.307 349.137 785.247 349.455C785.308 349.457 785.388 349.459 785.469 349.459ZM1142.18 349.849C1142.32 349.849 1142.46 349.845 1142.6 349.834C1151.48 349.231 1160.48 348.477 1169.32 347.595C1171.5 347.377 1172.99 346.043 1172.66 344.613C1172.32 343.184 1170.29 342.202 1168.11 342.42C1159.37 343.29 1150.53 344.033 1141.77 344.629C1139.56 344.779 1137.99 346.065 1138.21 347.504C1138.41 348.849 1140.16 349.849 1142.18 349.849ZM812.209 349.916C821.19 349.904 830.251 349.726 839.171 349.385C841.386 349.301 843.058 348.062 842.937 346.62C842.816 345.177 840.883 344.067 838.708 344.16C829.929 344.496 821.029 344.671 812.189 344.682C809.974 344.684 808.202 345.858 808.202 347.304C808.202 348.748 809.994 349.916 812.209 349.916ZM1062.06 351.333C1064.15 351.333 1065.92 350.262 1066.04 348.872C1066.17 347.43 1064.49 346.189 1062.28 346.104C1053.16 345.742 1044.32 345.159 1036 344.368C1033.83 344.156 1031.79 345.151 1031.47 346.581C1031.15 348.011 1032.68 349.339 1034.85 349.547C1043.39 350.36 1052.45 350.96 1061.82 351.329C1061.9 351.33 1061.98 351.333 1062.06 351.333ZM1088.78 351.788C1088.8 351.788 1088.8 351.788 1088.82 351.788C1091.52 351.777 1094.21 351.754 1096.91 351.714C1103.15 351.628 1109.5 351.467 1115.74 351.239C1117.93 351.159 1119.63 349.923 1119.51 348.48C1119.4 347.036 1117.47 345.939 1115.3 346.013C1109.13 346.238 1102.89 346.396 1096.75 346.482C1094.09 346.52 1091.42 346.543 1088.78 346.554C1086.56 346.56 1084.77 347.738 1084.79 349.183C1084.79 350.625 1086.58 351.788 1088.78 351.788Z" fill="#D2B646" stroke="#D2B646" stroke-width="4" mask="url(#path-1-inside-1_11_5)"/>
<path d="M774.071 57.887C775.962 57.887 777.65 57.0048 778.01 55.7442C778.393 54.3215 776.952 52.9577 774.791 52.6956C765.923 51.6264 756.829 51.1389 747.803 51.2479C745.597 51.2759 743.841 52.4674 743.886 53.9136C743.931 55.3422 745.709 56.482 747.87 56.482C747.915 56.482 747.915 56.482 747.938 56.482C756.446 56.3818 764.977 56.8369 773.351 57.8428C773.598 57.8723 773.824 57.887 774.071 57.887ZM697.246 64.6439C697.876 64.6439 698.529 64.5437 699.137 64.3317C706.273 61.8191 714.218 59.8707 722.727 58.5394C724.888 58.2036 726.216 56.7928 725.698 55.3863C725.181 53.9799 723.02 53.1139 720.881 53.4482C711.675 54.8841 703.076 56.9959 695.356 59.722C693.397 60.4068 692.677 61.9945 693.712 63.2683C694.433 64.1447 695.806 64.6439 697.246 64.6439ZM822.084 71.2244C823.299 71.2244 824.515 70.8645 825.303 70.1815C826.631 69.028 826.271 67.3877 824.515 66.5156C817.469 63.043 809.501 60.08 800.812 57.7118C798.764 57.1566 796.423 57.7854 795.568 59.1196C794.735 60.454 795.703 61.9871 797.729 62.5438C805.787 64.7426 813.192 67.4865 819.698 70.697C820.418 71.0517 821.251 71.2244 822.084 71.2244ZM854.655 97.8763C855.218 97.8763 855.803 97.7952 856.366 97.6257C858.369 97.0087 859.224 95.4509 858.257 94.143C854.362 88.7289 849.545 83.6451 843.94 79.0312C842.567 77.9013 840.046 77.7148 838.313 78.6131C836.58 79.514 836.287 81.1589 837.66 82.2914C842.905 86.5874 847.407 91.327 851.031 96.3754C851.729 97.3208 853.147 97.8763 854.655 97.8763ZM866.54 131.18C866.585 131.18 866.63 131.18 866.675 131.178C868.858 131.132 870.592 129.923 870.524 128.48C870.232 122.487 869.084 116.58 867.103 110.923C866.608 109.514 864.447 108.636 862.308 108.958C860.147 109.283 858.797 110.686 859.292 112.096C861.183 117.424 862.263 122.993 862.533 128.646C862.623 130.063 864.379 131.18 866.54 131.18ZM859.022 165.098C860.71 165.098 862.286 164.394 862.826 163.289C865.617 157.684 867.688 151.905 868.993 146.111C869.309 144.681 867.778 143.352 865.595 143.144C863.411 142.938 861.385 143.923 861.07 145.353C859.832 150.855 857.874 156.346 855.218 161.669C854.542 163.043 855.69 164.521 857.784 164.968C858.211 165.055 858.617 165.098 859.022 165.098ZM835.162 195.649C836.422 195.649 837.66 195.258 838.448 194.529C843.67 189.641 848.352 184.597 852.381 179.538C853.394 178.255 852.629 176.675 850.671 176.008C848.69 175.34 846.304 175.842 845.269 177.123C841.419 181.981 836.918 186.83 831.875 191.532C830.615 192.717 831.065 194.348 832.866 195.177C833.563 195.495 834.374 195.649 835.162 195.649ZM800.632 221.553C801.623 221.553 802.613 221.315 803.378 220.834C810.019 216.713 816.276 212.489 821.904 208.28C823.367 207.193 823.209 205.539 821.543 204.587C819.878 203.632 817.357 203.739 815.894 204.827C810.424 208.918 804.346 213.025 797.886 217.037C796.288 218.031 796.22 219.687 797.729 220.737C798.516 221.278 799.597 221.553 800.632 221.553ZM759.98 243.374C760.79 243.374 761.601 243.214 762.299 242.879C769.727 239.382 776.817 235.828 783.39 232.318C785.101 231.403 785.371 229.754 783.953 228.635C782.58 227.516 780.036 227.349 778.325 228.262C771.888 231.706 764.932 235.196 757.617 238.633C755.838 239.478 755.433 241.115 756.716 242.287C757.504 242.997 758.742 243.374 759.98 243.374ZM715.929 262.219C716.627 262.219 717.347 262.1 717.978 261.845C721.061 260.639 724.123 259.418 727.161 258.185C731.731 256.337 736.188 254.483 740.419 252.674C742.288 251.886 742.805 250.265 741.59 249.053C740.397 247.842 737.921 247.499 736.075 248.288C731.866 250.075 727.454 251.907 722.952 253.736C719.936 254.957 716.897 256.164 713.858 257.358C711.968 258.103 711.36 259.71 712.485 260.948C713.25 261.767 714.578 262.219 715.929 262.219ZM669.942 278.945C670.55 278.945 671.18 278.852 671.766 278.656C679.599 276.024 687.432 273.281 695.085 270.502C697.021 269.799 697.697 268.207 696.639 266.944C695.558 265.68 693.127 265.225 691.191 265.926C683.628 268.679 675.862 271.394 668.096 273.999C666.138 274.659 665.35 276.237 666.363 277.523C667.084 278.425 668.479 278.945 669.942 278.945ZM622.38 293.677C622.898 293.677 623.46 293.606 623.978 293.459C632.036 291.16 640.14 288.753 648.041 286.308C650.044 285.689 650.899 284.129 649.954 282.822C649.008 281.516 646.622 280.957 644.619 281.575C636.808 283.998 628.773 286.382 620.782 288.659C618.756 289.235 617.833 290.777 618.711 292.102C619.364 293.089 620.827 293.677 622.38 293.677ZM573.489 306.425C573.939 306.425 574.412 306.373 574.862 306.267C583.123 304.298 591.452 302.226 599.555 300.109C601.603 299.575 602.616 298.054 601.806 296.71C600.973 295.369 598.655 294.714 596.606 295.248C588.571 297.345 580.332 299.397 572.116 301.347C570.045 301.842 568.965 303.342 569.73 304.7C570.315 305.764 571.846 306.425 573.489 306.425ZM523.518 317.205C523.878 317.205 524.261 317.172 524.644 317.096C533.085 315.46 541.571 313.721 549.877 311.928C551.97 311.476 553.118 309.996 552.42 308.624C551.745 307.25 549.472 306.504 547.378 306.958C539.14 308.734 530.721 310.457 522.37 312.079C520.254 312.491 519.039 313.947 519.692 315.333C520.187 316.47 521.785 317.205 523.518 317.205ZM29.66 322.316C31.44 322.316 33.06 321.545 33.53 320.378C34.12 318.981 32.8299 317.547 30.6999 317.172C22.2799 315.691 13.79 314.11 5.50998 312.471C3.38998 312.051 1.15998 312.834 0.509979 314.217C-0.120021 315.601 1.06991 317.061 3.18991 317.479C11.5599 319.136 20.12 320.733 28.63 322.226C28.96 322.288 29.32 322.316 29.66 322.316ZM472.647 326.034C472.939 326.034 473.232 326.012 473.547 325.965C482.101 324.655 490.744 323.245 499.208 321.775C501.324 321.405 502.607 319.973 502.044 318.575C501.482 317.179 499.275 316.345 497.137 316.716C488.764 318.173 480.21 319.569 471.724 320.87C469.563 321.199 468.235 322.607 468.753 324.014C469.18 325.22 470.824 326.034 472.647 326.034ZM80.91 330.214C82.76 330.214 84.45 329.358 84.81 328.118C85.26 326.702 83.8599 325.32 81.6999 325.031C73.1699 323.894 64.55 322.659 56.11 321.357C53.97 321.024 51.81 321.896 51.29 323.304C50.8 324.71 52.12 326.119 54.29 326.451C62.79 327.765 71.4799 329.014 80.0999 330.161C80.3699 330.196 80.64 330.214 80.91 330.214ZM421.078 332.923C421.303 332.923 421.528 332.909 421.753 332.883C430.419 331.893 439.153 330.812 447.729 329.668C449.89 329.378 451.285 327.996 450.858 326.579C450.407 325.164 448.314 324.252 446.131 324.538C437.645 325.673 428.978 326.746 420.38 327.726C418.219 327.974 416.756 329.33 417.139 330.754C417.476 332.026 419.164 332.923 421.078 332.923ZM132.78 336.07C134.73 336.07 136.45 335.126 136.74 333.821C137.03 332.389 135.52 331.065 133.34 330.86C124.72 330.06 116.01 329.163 107.45 328.198C105.27 327.953 103.2 328.907 102.82 330.332C102.46 331.756 103.9 333.111 106.1 333.357C114.72 334.33 123.5 335.233 132.21 336.043C132.39 336.061 132.6 336.07 132.78 336.07ZM368.99 337.874C369.15 337.874 369.28 337.868 369.46 337.856C378.152 337.192 386.976 336.438 395.664 335.612C397.848 335.404 399.356 334.075 399.041 332.645C398.726 331.214 396.7 330.22 394.516 330.432C385.918 331.251 377.162 331.999 368.54 332.657C366.33 332.824 364.76 334.123 365.01 335.559C365.25 336.891 366.99 337.874 368.99 337.874ZM185.09 339.914C187.14 339.914 188.89 338.88 189.07 337.513C189.25 336.072 187.61 334.808 185.4 334.688C176.74 334.217 167.96 333.657 159.34 333.023C157.13 332.862 155.15 333.894 154.9 335.332C154.66 336.768 156.23 338.064 158.44 338.224C167.15 338.865 175.99 339.429 184.75 339.904C184.86 339.91 184.98 339.914 185.09 339.914ZM316.57 340.89C316.63 340.89 316.72 340.888 316.79 340.885C325.57 340.544 334.42 340.116 343.15 339.615C345.36 339.486 346.98 338.217 346.8 336.778C346.59 335.338 344.66 334.274 342.47 334.399C333.81 334.897 325.01 335.321 316.32 335.66C314.11 335.747 312.45 336.986 312.58 338.429C312.69 339.819 314.45 340.89 316.57 340.89ZM237.65 341.774C239.81 341.774 241.56 340.645 241.63 339.223C241.7 337.778 239.94 336.576 237.74 336.541C229.05 336.395 220.23 336.167 211.54 335.86C209.33 335.785 207.46 336.888 207.35 338.332C207.24 339.775 208.93 341.009 211.13 341.085C219.89 341.396 228.76 341.628 237.54 341.774C237.58 341.774 237.6 341.774 237.65 341.774ZM263.94 341.967C263.96 341.967 263.96 341.967 263.96 341.967C272.74 341.95 281.63 341.85 290.41 341.67C292.59 341.624 294.33 340.419 294.26 338.974C294.19 337.527 292.37 336.394 290.14 336.439C281.45 336.617 272.63 336.716 263.94 336.732C261.73 336.737 259.95 337.912 259.95 339.357C259.95 340.8 261.76 341.967 263.94 341.967Z" fill="#D2B646" stroke="#D2B646" stroke-width="2"/>
</g>
<defs>
<clipPath id="clip0_11_5">
<rect width="1373" height="352" fill="white" transform="matrix(-1 0 0 1 1373 0)"/>
</clipPath>
</defs>
</svg>
