<svg width="1367" height="310" viewBox="0 0 1367 310" fill="none" xmlns="http://www.w3.org/2000/svg">
<path d="M257.223 14.299C255.688 14.299 254.199 13.3873 253.544 11.8663C252.687 9.83302 253.635 7.48379 255.666 6.61947C264.535 2.83272 273.607 0.609799 282.566 0.0117721C284.755 -0.157481 286.673 1.53054 286.831 3.73534C286.966 5.94014 285.296 7.84708 283.085 7.99377C275.028 8.53087 266.859 10.5461 258.803 13.9786C258.284 14.1952 257.765 14.299 257.223 14.299ZM331.062 25.6977C330.047 25.6977 329.031 25.3163 328.264 24.5513C325.172 21.516 321.742 18.7988 318.019 16.4812C314.701 14.3983 311.158 12.6674 307.502 11.3314C305.449 10.5709 304.366 8.27361 305.133 6.19744C305.9 4.12353 308.179 3.06066 310.256 3.81666C314.431 5.34445 318.47 7.32354 322.261 9.69985C326.459 12.3267 330.363 15.4025 333.861 18.8462C335.463 20.3943 335.463 22.9286 333.928 24.5016C333.138 25.3004 332.1 25.6977 331.062 25.6977ZM216.715 47.423C215.948 47.423 215.135 47.1928 214.458 46.7122C212.63 45.4574 212.179 42.966 213.443 41.1471C218.633 33.6435 224.929 26.8417 232.128 20.9337C233.843 19.5323 236.348 19.7874 237.747 21.4935C239.169 23.204 238.899 25.7247 237.206 27.1239C230.549 32.558 224.794 38.8069 220.01 45.6966C219.243 46.8205 218.001 47.423 216.715 47.423ZM352.095 73.1449C350.064 73.1449 348.326 71.5855 348.123 69.5183C347.311 60.742 345.28 52.5231 342.098 45.0918C341.24 43.0608 342.188 40.7115 344.219 39.8404C346.25 38.9716 348.597 39.9149 349.454 41.946C352.975 50.1446 355.209 59.1692 356.089 68.7715C356.315 70.9717 354.69 72.9192 352.501 73.1314C352.366 73.1449 352.23 73.1449 352.095 73.1449ZM827.606 82.7991C825.552 82.7991 823.792 81.2126 823.634 79.1184C823.431 76.9181 825.078 74.9841 827.29 74.8126C833.834 74.2777 840.356 74.0115 846.675 74.0115C846.675 74.0115 846.697 74.0115 846.72 74.0115C849.202 74.0115 851.752 74.0522 854.235 74.1311C856.424 74.2124 858.161 76.0651 858.071 78.2654C858.003 80.4792 856.175 82.1988 853.941 82.1311C851.549 82.0521 849.112 82.0251 846.675 82.0115C840.559 82.0115 834.263 82.2642 827.944 82.7855C827.831 82.7855 827.718 82.7991 827.606 82.7991ZM906.161 90.9977C905.755 90.9977 905.326 90.9323 904.92 90.7991C896.728 88.1317 888.266 86.0645 879.78 84.6383C877.591 84.2794 876.125 82.2123 876.486 80.0391C876.847 77.8659 878.923 76.3855 881.09 76.7579C889.981 78.2383 898.827 80.3979 907.38 83.185C909.501 83.8778 910.63 86.1322 909.953 88.2378C909.411 89.919 907.831 90.9977 906.161 90.9977ZM775.498 92.0516C773.715 92.0516 772.113 90.8646 771.617 89.0795C771.075 86.9447 772.339 84.7444 774.46 84.1847C783.329 81.8242 792.153 79.8518 800.638 78.3173C802.804 77.9178 804.903 79.3711 805.287 81.5443C805.67 83.7175 804.226 85.7982 802.06 86.1841C793.777 87.6781 785.179 89.6121 776.514 91.9185C776.175 91.9974 775.837 92.0516 775.498 92.0516ZM202.069 97.3729C199.903 97.3729 198.142 95.6511 198.075 93.4779C198.052 92.5842 198.029 91.6792 198.029 90.772C198.029 86.719 198.3 82.6118 198.797 78.5994C199.316 74.3996 200.196 70.1841 201.414 66.0385C202.046 63.9172 204.258 62.7145 206.379 63.3463C208.501 63.9714 209.697 66.1852 209.087 68.3043C207.982 72.0256 207.192 75.8124 206.718 79.572C206.266 83.2663 206.041 87.0394 206.041 90.772C206.041 91.6115 206.063 92.4397 206.063 93.2657C206.131 95.4795 204.393 97.3187 202.182 97.3729C202.137 97.3729 202.114 97.3729 202.069 97.3729ZM725.309 108.999C723.729 108.999 722.217 108.052 721.608 106.492C720.773 104.439 721.766 102.105 723.82 101.279L726.121 100.359C733.817 97.2917 741.467 94.4799 748.847 91.9591C750.945 91.2528 753.225 92.3721 753.924 94.4663C754.646 96.5583 753.518 98.8262 751.442 99.5325C744.175 102.013 736.66 104.784 729.1 107.785L726.798 108.706C726.325 108.905 725.805 108.999 725.309 108.999ZM953.236 114.865C952.424 114.865 951.589 114.612 950.889 114.093C944.052 109.092 936.649 104.572 928.841 100.638C926.855 99.6387 926.088 97.2398 927.058 95.2652C928.074 93.2928 930.466 92.5051 932.43 93.4913C940.621 97.6256 948.407 102.385 955.606 107.639C957.389 108.932 957.772 111.439 956.463 113.224C955.674 114.291 954.455 114.865 953.236 114.865ZM343.903 124.986C343.361 124.986 342.842 124.891 342.346 124.679C340.315 123.826 339.344 121.479 340.202 119.439C343.474 111.586 345.844 103.346 347.198 94.9176C347.536 92.7444 349.613 91.2663 351.779 91.6116C353.968 91.9591 355.457 94.0126 355.096 96.1994C353.629 105.24 351.102 114.093 347.581 122.533C346.927 124.065 345.46 124.986 343.903 124.986ZM1075.93 125.451C1073.77 125.451 1072.01 123.731 1071.94 121.558C1071.87 119.346 1073.61 117.505 1075.82 117.451C1084.67 117.212 1093.6 117.119 1102.45 117.157C1104.66 117.171 1106.44 118.972 1106.44 121.186C1106.42 123.386 1104.62 125.157 1102.45 125.157C1102.43 125.157 1102.4 125.157 1102.4 125.157C1093.65 125.119 1084.8 125.212 1076.05 125.451C1076.02 125.451 1075.98 125.451 1075.93 125.451ZM1155.39 127.159C1155.3 127.159 1155.19 127.159 1155.1 127.146C1146.37 126.532 1137.5 126.051 1128.76 125.733C1126.55 125.638 1124.84 123.785 1124.93 121.572C1125.02 119.371 1126.82 117.692 1129.08 117.733C1137.9 118.065 1146.84 118.545 1155.66 119.173C1157.87 119.319 1159.52 121.238 1159.36 123.438C1159.23 125.546 1157.47 127.159 1155.39 127.159ZM1023.04 128.626C1021.01 128.626 1019.24 127.064 1019.06 124.999C1018.86 122.799 1020.49 120.838 1022.68 120.64C1031.45 119.825 1040.39 119.146 1049.24 118.613C1051.45 118.466 1053.32 120.159 1053.46 122.359C1053.59 124.573 1051.9 126.466 1049.71 126.6C1040.95 127.119 1032.11 127.798 1023.42 128.613C1023.28 128.613 1023.15 128.626 1023.04 128.626ZM676.903 130.533C675.391 130.533 673.969 129.691 673.292 128.251C672.321 126.266 673.179 123.878 675.165 122.919C684.102 118.679 691.978 115.011 699.312 111.732C701.32 110.839 703.69 111.732 704.592 113.759C705.495 115.772 704.593 118.132 702.584 119.04C695.317 122.292 687.487 125.918 678.618 130.145C678.076 130.411 677.489 130.533 676.903 130.533ZM1208.11 132.573C1207.93 132.573 1207.72 132.559 1207.57 132.532C1198.9 131.359 1190.1 130.319 1181.37 129.411C1179.18 129.186 1177.58 127.225 1177.8 125.024C1178.03 122.824 1179.99 121.224 1182.18 121.452C1191 122.359 1199.89 123.424 1208.63 124.611C1210.82 124.905 1212.35 126.92 1212.06 129.104C1211.79 131.117 1210.07 132.573 1208.11 132.573ZM1260.35 141.372C1260.1 141.372 1259.83 141.345 1259.56 141.293C1250.99 139.571 1242.28 137.946 1233.63 136.493C1231.44 136.132 1229.98 134.065 1230.34 131.891C1230.72 129.705 1232.8 128.238 1234.96 128.613C1243.67 130.079 1252.48 131.706 1261.14 133.451C1263.31 133.891 1264.71 135.999 1264.26 138.172C1263.87 140.065 1262.22 141.372 1260.35 141.372ZM216.647 147.772C215.248 147.772 213.894 147.039 213.149 145.745C208.568 137.599 204.958 129.132 202.43 120.585C201.821 118.466 203.017 116.252 205.138 115.625C207.259 114.984 209.471 116.212 210.103 118.317C212.45 126.293 215.835 134.184 220.123 141.812C221.206 143.732 220.529 146.172 218.611 147.264C217.979 147.612 217.324 147.772 216.647 147.772ZM919.07 147.905C917.445 147.905 915.91 146.892 915.324 145.278C914.556 143.198 915.617 140.905 917.716 140.147C925.659 137.238 934.099 134.746 943.555 132.505C945.699 131.984 947.843 133.318 948.362 135.466C948.881 137.612 947.549 139.772 945.406 140.28C936.266 142.451 928.097 144.865 920.446 147.666C919.995 147.826 919.544 147.905 919.07 147.905ZM989.231 153.305C987.877 153.305 986.568 152.626 985.823 151.398C982.258 145.639 978.173 140.079 973.592 134.839C972.779 134.972 971.944 135.105 971.109 135.238C968.965 135.586 966.889 134.119 966.528 131.932C966.212 129.971 967.363 128.105 969.191 127.491C969.349 126.733 969.755 126.013 970.365 125.426C971.967 123.905 974.517 123.984 976.006 125.597C976.232 125.812 976.435 126.038 976.638 126.265C977.022 126.211 977.406 126.146 977.789 126.092C983.882 125.171 990.088 124.318 996.204 123.546C998.37 123.28 1000.38 124.826 1000.67 127.012C1000.94 129.199 999.409 131.199 997.197 131.478C992.435 132.079 987.629 132.731 982.867 133.426C986.433 137.852 989.727 142.464 992.616 147.212C993.789 149.092 993.203 151.559 991.33 152.719C990.675 153.118 989.953 153.305 989.231 153.305ZM1311.92 153.545C1311.58 153.545 1311.22 153.506 1310.88 153.411C1302.44 151.119 1293.84 148.945 1285.31 146.932C1283.17 146.425 1281.84 144.278 1282.35 142.119C1282.85 139.973 1284.99 138.639 1287.16 139.145C1295.76 141.185 1304.45 143.385 1312.98 145.678C1315.1 146.264 1316.36 148.451 1315.78 150.586C1315.3 152.371 1313.7 153.545 1311.92 153.545ZM629.196 153.626C627.706 153.626 626.285 152.784 625.585 151.358C624.615 149.358 625.472 146.973 627.458 146.012C634.77 142.505 642.082 138.959 649.371 135.398L651.289 134.464C653.275 133.505 655.667 134.331 656.637 136.319C657.608 138.305 656.773 140.693 654.787 141.665L652.869 142.6C645.557 146.158 638.245 149.72 630.911 153.224C630.369 153.506 629.783 153.626 629.196 153.626ZM312.196 166.746C311.045 166.746 309.894 166.239 309.082 165.279C307.683 163.571 307.954 161.053 309.646 159.651C313.844 156.199 317.816 152.493 321.494 148.625C323.593 146.386 325.646 143.985 327.564 141.478C328.896 139.72 331.401 139.386 333.161 140.72C334.921 142.065 335.26 144.572 333.928 146.332C331.83 149.052 329.618 151.678 327.316 154.118C323.412 158.239 319.17 162.172 314.724 165.839C313.979 166.439 313.076 166.746 312.196 166.746ZM1362.58 169.053C1362.15 169.053 1361.72 168.971 1361.29 168.825C1353.01 165.999 1344.57 163.264 1336.22 160.705C1334.1 160.064 1332.9 157.826 1333.56 155.707C1334.19 153.599 1336.45 152.412 1338.57 153.053C1347.01 155.639 1355.52 158.399 1363.89 161.265C1365.97 161.971 1367.09 164.253 1366.37 166.345C1365.81 167.999 1364.25 169.053 1362.58 169.053ZM873.597 174.426C872.514 174.426 871.431 173.999 870.663 173.133C869.151 171.519 869.264 168.985 870.889 167.491C874.884 163.799 879.149 160.398 883.594 157.372C886.596 155.305 889.778 153.319 893.05 151.466C894.968 150.372 897.405 151.04 898.489 152.958C899.594 154.878 898.917 157.318 896.999 158.412C893.93 160.159 890.929 162.039 888.085 163.973C883.978 166.785 880.029 169.946 876.305 173.372C875.538 174.078 874.568 174.426 873.597 174.426ZM580.88 175.399C579.3 175.399 577.811 174.464 577.179 172.918C576.344 170.878 577.314 168.531 579.368 167.692C582.369 166.451 585.371 165.198 588.372 163.905C593.246 161.813 598.234 159.624 603.537 157.212C605.568 156.305 607.915 157.185 608.84 159.198C609.743 161.213 608.863 163.585 606.832 164.492C601.483 166.931 596.474 169.145 591.509 171.264C588.485 172.56 585.461 173.839 582.392 175.092C581.895 175.292 581.376 175.399 580.88 175.399ZM250.904 187.799C250.024 187.799 249.121 187.506 248.399 186.919C241.291 181.185 234.724 174.825 228.856 168.012C227.412 166.331 227.592 163.813 229.285 162.359C230.955 160.92 233.482 161.105 234.927 162.786C240.456 169.238 246.684 175.265 253.409 180.693C255.124 182.078 255.418 184.586 254.018 186.305C253.229 187.291 252.055 187.799 250.904 187.799ZM266.317 192.825C264.715 192.825 263.203 191.866 262.594 190.279C261.804 188.212 262.82 185.892 264.873 185.105C273.268 181.853 281.167 178.159 288.343 174.133C290.284 173.038 292.721 173.733 293.804 175.665C294.887 177.585 294.188 180.025 292.27 181.106C284.755 185.319 276.495 189.171 267.762 192.559C267.288 192.746 266.791 192.825 266.317 192.825ZM531.164 193.705C529.472 193.705 527.915 192.626 527.351 190.931C526.674 188.839 527.802 186.571 529.923 185.892C538.273 183.173 546.645 180.28 554.815 177.265C556.868 176.504 559.193 177.558 559.937 179.639C560.705 181.706 559.644 184.012 557.568 184.773C549.308 187.813 540.846 190.758 532.406 193.506C531.977 193.64 531.571 193.705 531.164 193.705ZM1005.57 203.172C1003.52 203.172 1001.76 201.585 1001.57 199.491C1000.9 190.866 999.251 182.451 996.633 174.478C995.956 172.386 997.084 170.118 999.205 169.439C1001.28 168.746 1003.56 169.906 1004.24 171.998C1007.04 180.573 1008.82 189.611 1009.56 198.866C1009.72 201.066 1008.1 202.985 1005.89 203.158C1005.77 203.172 1005.66 203.172 1005.57 203.172ZM215.271 206.825C213.375 206.825 211.683 205.478 211.322 203.558C210.938 201.387 212.36 199.293 214.526 198.891C223.711 197.171 232.061 195.278 240.072 193.132C242.216 192.559 244.405 193.825 244.992 195.959C245.556 198.092 244.292 200.279 242.148 200.852C233.956 203.066 225.381 205 215.993 206.746C215.767 206.798 215.496 206.825 215.271 206.825ZM480.186 208.186C478.38 208.186 476.755 206.959 476.304 205.119C475.762 202.973 477.094 200.811 479.238 200.292C487.723 198.225 496.298 195.973 504.716 193.572C506.86 192.971 509.049 194.213 509.658 196.332C510.267 198.451 509.026 200.665 506.905 201.265C498.397 203.691 489.709 205.972 481.133 208.064C480.817 208.146 480.502 208.186 480.186 208.186ZM297.189 213.038C296.783 213.038 296.332 212.973 295.903 212.826C291.615 211.359 287.35 209.732 283.243 207.972C279.136 206.212 275.006 204.212 270.989 202.025C269.048 200.972 268.349 198.546 269.409 196.598C270.447 194.666 272.885 193.946 274.825 194.998C278.617 197.065 282.498 198.959 286.379 200.613C290.329 202.292 294.391 203.851 298.498 205.253C300.574 205.959 301.703 208.238 300.98 210.332C300.416 211.984 298.859 213.038 297.189 213.038ZM162.78 214.065C160.749 214.065 159.011 212.533 158.808 210.479C158.582 208.279 160.162 206.306 162.351 206.078C168.376 205.451 174.447 204.758 180.45 204.038C183.135 203.704 185.843 203.359 188.551 202.998C190.74 202.718 192.771 204.253 193.042 206.439C193.336 208.626 191.801 210.639 189.635 210.933C186.881 211.291 184.128 211.652 181.42 211.973C175.372 212.706 169.256 213.399 163.208 214.038C163.051 214.051 162.915 214.065 162.78 214.065ZM109.95 218.265C107.829 218.265 106.069 216.613 105.956 214.478C105.843 212.28 107.536 210.387 109.725 210.265C118.526 209.786 127.395 209.186 136.083 208.504C138.294 208.319 140.19 209.971 140.393 212.172C140.551 214.372 138.904 216.292 136.715 216.48C127.936 217.172 119.022 217.773 110.176 218.253C110.086 218.265 110.018 218.265 109.95 218.265ZM845.388 218.544C845.05 218.544 844.666 218.506 844.282 218.398C842.184 217.773 840.943 215.559 841.552 213.44C844.034 204.851 847.938 196.438 853.151 188.424C854.37 186.572 856.83 186.039 858.703 187.24C860.553 188.451 861.073 190.931 859.876 192.784C855.07 200.132 851.504 207.839 849.247 215.665C848.728 217.412 847.126 218.544 845.388 218.544ZM428.259 218.718C426.318 218.718 424.625 217.306 424.309 215.345C423.948 213.158 425.46 211.106 427.627 210.759C432.14 210.052 436.789 209.238 441.483 208.371C445.455 207.638 449.517 206.853 453.534 206.038C455.7 205.598 457.822 206.999 458.25 209.159C458.702 211.319 457.302 213.44 455.113 213.88C451.051 214.706 446.967 215.491 442.927 216.238C438.166 217.118 433.449 217.933 428.89 218.666C428.687 218.691 428.462 218.718 428.259 218.718ZM30.4917 219.666C30.4691 219.666 30.4465 219.666 30.4013 219.666C21.5776 219.492 12.6185 219.213 3.81737 218.824C1.6058 218.732 -0.0868197 216.865 0.00344853 214.652C0.116284 212.451 1.94422 210.732 4.17836 210.838C12.9118 211.226 21.7808 211.506 30.5593 211.666C32.7709 211.718 34.5312 213.532 34.4861 215.746C34.441 217.933 32.6581 219.666 30.4917 219.666ZM56.9853 219.851C54.7963 219.851 52.9911 218.08 52.9911 215.879C52.9685 213.665 54.7512 211.865 56.9628 211.851C65.7414 211.799 74.6328 211.653 83.3663 211.386C85.5101 211.332 87.4058 213.052 87.4735 215.266C87.5412 217.466 85.8035 219.319 83.5919 219.386C74.7908 219.653 65.8543 219.799 57.008 219.851H56.9853ZM349.071 223.184C348.981 223.184 348.868 223.184 348.777 223.184C339.57 222.505 330.566 221.345 322.058 219.704C319.869 219.291 318.447 217.2 318.876 215.026C319.282 212.851 321.404 211.438 323.57 211.851C331.762 213.426 340.45 214.559 349.364 215.198C351.553 215.358 353.223 217.279 353.043 219.479C352.907 221.587 351.147 223.184 349.071 223.184ZM375.542 223.798C373.376 223.798 371.593 222.065 371.548 219.892C371.503 217.678 373.24 215.852 375.452 215.798C383.779 215.6 392.58 215.053 401.607 214.157C403.796 213.945 405.737 215.545 405.962 217.746C406.188 219.946 404.586 221.905 402.397 222.119C393.167 223.04 384.163 223.6 375.632 223.798C375.61 223.798 375.565 223.798 375.542 223.798ZM997.784 255.132C997.287 255.132 996.791 255.04 996.294 254.853C994.263 254.024 993.248 251.691 994.083 249.64C997.219 241.865 999.454 233.585 1000.72 225.026C1001.03 222.839 1003.09 221.318 1005.25 221.652C1007.44 221.972 1008.95 224.012 1008.62 226.199C1007.26 235.373 1004.87 244.28 1001.51 252.625C1000.88 254.185 999.363 255.132 997.784 255.132ZM850.15 269.932C848.751 269.932 847.374 269.185 846.63 267.865C842.635 260.598 840.063 252.799 839.002 244.679C838.844 243.479 838.709 242.265 838.618 241.066C838.438 238.866 840.085 236.932 842.274 236.758C844.463 236.571 846.404 238.225 846.584 240.426C846.675 241.506 846.787 242.572 846.923 243.639C847.871 250.759 850.127 257.613 853.648 263.985C854.708 265.919 854.009 268.359 852.091 269.424C851.459 269.758 850.804 269.932 850.15 269.932ZM965.806 296.466C964.565 296.466 963.324 295.88 962.534 294.758C961.27 292.946 961.699 290.452 963.527 289.186C970.297 284.452 976.39 278.573 981.626 271.719C982.957 269.959 985.462 269.625 987.222 270.959C988.983 272.306 989.321 274.813 987.989 276.571C982.257 284.079 975.578 290.531 968.108 295.746C967.408 296.238 966.618 296.466 965.806 296.466ZM889.868 303.44C889.394 303.44 888.875 303.345 888.401 303.16C879.577 299.653 871.566 294.945 864.57 289.159C862.855 287.758 862.607 285.239 864.006 283.533C865.428 281.825 867.955 281.586 869.648 282.998C876.012 288.238 883.301 292.519 891.358 295.719C893.389 296.532 894.404 298.865 893.592 300.905C892.96 302.478 891.47 303.44 889.868 303.44ZM922.658 309.785C920.198 309.785 917.716 309.679 915.233 309.479C913.044 309.291 911.42 307.359 911.578 305.159C911.781 302.959 913.721 301.291 915.91 301.506C924.441 302.212 932.994 301.56 940.915 299.585C943.059 299.039 945.225 300.359 945.767 302.492C946.286 304.638 944.999 306.813 942.855 307.346C936.379 308.959 929.609 309.785 922.658 309.785Z" fill="#D2B646"/>
</svg>
