<svg width="216" height="94" viewBox="0 0 216 94" fill="none" xmlns="http://www.w3.org/2000/svg">
<path d="M59.173 88.3091H156.815" stroke="#D2B646" stroke-width="2" stroke-miterlimit="10"/>
<path d="M0 92.2642H215.989" stroke="#D2B646" stroke-width="2" stroke-miterlimit="10"/>
<path d="M113.73 29.7231H104.881V18.5011C104.881 16.0571 106.862 14.0771 109.305 14.0771C111.749 14.0771 113.73 16.0581 113.73 18.5011V29.7231Z" stroke="#D2B646" stroke-width="2" stroke-miterlimit="10"/>
<path d="M109.583 22.7119V29.7229" stroke="#D2B646" stroke-width="2" stroke-miterlimit="10"/>
<path d="M109.583 14.248V21.259" stroke="#D2B646" stroke-width="2" stroke-miterlimit="10"/>
<path d="M117.62 22.7983H101.546V29.7234H117.62V22.7983Z" stroke="#D2B646" stroke-width="2" stroke-miterlimit="10"/>
<path d="M118.793 38.9092H100.374V88.3092H118.793V38.9092Z" stroke="#D2B646" stroke-width="2" stroke-miterlimit="10"/>
<path d="M79.577 13.3081H25.587L21.914 30.4921H66.936" stroke="#D2B646" stroke-width="2" stroke-miterlimit="10"/>
<path d="M19.854 88.309V33.4399" stroke="#D2B646" stroke-width="2" stroke-miterlimit="10"/>
<path d="M16.798 88.3092V30.4922" stroke="#D2B646" stroke-width="2" stroke-miterlimit="10"/>
<path d="M66.241 88.3091V28.7031" stroke="#D2B646" stroke-width="2" stroke-miterlimit="10"/>
<path d="M21.914 13.3081H76.12" stroke="#D2B646" stroke-width="2" stroke-miterlimit="10"/>
<path d="M13.553 30.4922H66.241" stroke="#D2B646" stroke-width="2" stroke-miterlimit="10"/>
<path d="M11.817 28.127H62.833" stroke="#D2B646" stroke-width="2" stroke-miterlimit="10"/>
<path d="M19.854 72.9658H66.241" stroke="#D2B646" stroke-width="2" stroke-miterlimit="10"/>
<path d="M19.854 77.3149H66.241" stroke="#D2B646" stroke-width="2" stroke-miterlimit="10"/>
<path d="M19.854 81.665H66.241" stroke="#D2B646" stroke-width="2" stroke-miterlimit="10"/>
<path d="M30.902 64.032V52.812C30.902 45.651 36.761 39.792 43.922 39.792C51.083 39.792 56.942 45.651 56.942 52.812V64.032H30.902Z" stroke="#D2B646" stroke-width="2" stroke-miterlimit="10"/>
<path d="M33.365 51.9121H57.713" stroke="#D2B646" stroke-width="2" stroke-miterlimit="10"/>
<path d="M43.922 39.792V51.912" stroke="#D2B646" stroke-width="2" stroke-miterlimit="10"/>
<path d="M35.647 42.7788L43.922 51.9118" stroke="#D2B646" stroke-width="2" stroke-miterlimit="10"/>
<path d="M50.95 42.6152L43.922 51.9122" stroke="#D2B646" stroke-width="2" stroke-miterlimit="10"/>
<path d="M27.27 64.0322H60.468" stroke="#D2B646" stroke-width="2" stroke-miterlimit="10"/>
<path d="M49.789 51.9121V64.0321" stroke="#D2B646" stroke-width="2" stroke-miterlimit="10"/>
<path d="M39.342 51.9121V64.0321" stroke="#D2B646" stroke-width="2" stroke-miterlimit="10"/>
<path d="M66.241 38.302L81.554 9.604H95.499" stroke="#D2B646" stroke-width="2" stroke-miterlimit="10"/>
<path d="M66.439 45.892L84.134 12.728H98.079" stroke="#D2B646" stroke-width="2" stroke-miterlimit="10"/>
<path d="M83.691 37.6519V49.3439" stroke="#D2B646" stroke-width="2" stroke-miterlimit="10"/>
<path d="M75.836 42.561L83.691 49.3441" stroke="#D2B646" stroke-width="2" stroke-miterlimit="10"/>
<path d="M90.362 42.439L83.691 49.344" stroke="#D2B646" stroke-width="2" stroke-miterlimit="10"/>
<path d="M75.908 57.0619V45.2309C75.908 41.0629 79.318 37.6519 83.487 37.6519C87.655 37.6519 91.066 41.0619 91.066 45.2309V57.0619H75.908Z" stroke="#D2B646" stroke-width="2" stroke-miterlimit="10"/>
<path d="M72.899 45.2311C72.899 39.4071 77.664 34.6421 83.488 34.6421C89.312 34.6421 94.076 39.4071 94.076 45.2311" stroke="#D2B646" stroke-width="2" stroke-miterlimit="10"/>
<path d="M75.908 49.3442H91.066" stroke="#D2B646" stroke-width="2" stroke-miterlimit="10"/>
<path d="M71.677 57.062H95.222" stroke="#D2B646" stroke-width="2" stroke-miterlimit="10"/>
<path d="M91.066 63.7749H76.12V88.3089H91.066V63.7749Z" stroke="#D2B646" stroke-width="2" stroke-miterlimit="10"/>
<path d="M95.222 16.6771L102.173 4.95508H109.932" stroke="#D2B646" stroke-width="2" stroke-miterlimit="10"/>
<path d="M25.167 10.8159H80.87" stroke="#D2B646" stroke-width="2" stroke-miterlimit="10"/>
<path d="M139.264 13.3081H193.254L196.927 30.4921H151.905" stroke="#D2B646" stroke-width="2" stroke-miterlimit="10"/>
<path d="M198.987 88.309V33.4399" stroke="#D2B646" stroke-width="2" stroke-miterlimit="10"/>
<path d="M202.043 88.3092V30.4922" stroke="#D2B646" stroke-width="2" stroke-miterlimit="10"/>
<path d="M152.6 88.3091V28.7031" stroke="#D2B646" stroke-width="2" stroke-miterlimit="10"/>
<path d="M196.927 13.3081H142.721" stroke="#D2B646" stroke-width="2" stroke-miterlimit="10"/>
<path d="M205.288 30.4922H152.6" stroke="#D2B646" stroke-width="2" stroke-miterlimit="10"/>
<path d="M207.024 28.127H156.008" stroke="#D2B646" stroke-width="2" stroke-miterlimit="10"/>
<path d="M198.987 72.9658H152.6" stroke="#D2B646" stroke-width="2" stroke-miterlimit="10"/>
<path d="M198.987 77.3149H152.6" stroke="#D2B646" stroke-width="2" stroke-miterlimit="10"/>
<path d="M198.987 81.665H152.6" stroke="#D2B646" stroke-width="2" stroke-miterlimit="10"/>
<path d="M187.939 64.032V52.812C187.939 45.651 182.08 39.792 174.919 39.792C167.758 39.792 161.899 45.651 161.899 52.812V64.032H187.939Z" stroke="#D2B646" stroke-width="2" stroke-miterlimit="10"/>
<path d="M185.476 51.9121H161.128" stroke="#D2B646" stroke-width="2" stroke-miterlimit="10"/>
<path d="M174.919 39.792V51.912" stroke="#D2B646" stroke-width="2" stroke-miterlimit="10"/>
<path d="M183.194 42.7788L174.919 51.9118" stroke="#D2B646" stroke-width="2" stroke-miterlimit="10"/>
<path d="M167.891 42.6152L174.919 51.9122" stroke="#D2B646" stroke-width="2" stroke-miterlimit="10"/>
<path d="M191.571 64.0322H158.373" stroke="#D2B646" stroke-width="2" stroke-miterlimit="10"/>
<path d="M169.052 51.9121V64.0321" stroke="#D2B646" stroke-width="2" stroke-miterlimit="10"/>
<path d="M179.499 51.9121V64.0321" stroke="#D2B646" stroke-width="2" stroke-miterlimit="10"/>
<path d="M152.6 38.302L137.287 9.604H123.342" stroke="#D2B646" stroke-width="2" stroke-miterlimit="10"/>
<path d="M152.402 45.892L134.707 12.728H120.762" stroke="#D2B646" stroke-width="2" stroke-miterlimit="10"/>
<path d="M135.15 37.6519V49.3439" stroke="#D2B646" stroke-width="2" stroke-miterlimit="10"/>
<path d="M143.005 42.561L135.15 49.3441" stroke="#D2B646" stroke-width="2" stroke-miterlimit="10"/>
<path d="M128.479 42.439L135.15 49.344" stroke="#D2B646" stroke-width="2" stroke-miterlimit="10"/>
<path d="M142.933 57.0619V45.2309C142.933 41.0629 139.522 37.6519 135.354 37.6519C131.186 37.6519 127.775 41.0619 127.775 45.2309V57.0619H142.933Z" stroke="#D2B646" stroke-width="2" stroke-miterlimit="10"/>
<path d="M145.943 45.2311C145.943 39.4071 141.178 34.6421 135.354 34.6421C129.53 34.6421 124.766 39.4071 124.766 45.2311" stroke="#D2B646" stroke-width="2" stroke-miterlimit="10"/>
<path d="M142.933 49.3442H127.775" stroke="#D2B646" stroke-width="2" stroke-miterlimit="10"/>
<path d="M147.164 57.062H123.619" stroke="#D2B646" stroke-width="2" stroke-miterlimit="10"/>
<path d="M127.775 88.3091H142.721V63.7751H127.775V88.3091Z" stroke="#D2B646" stroke-width="2" stroke-miterlimit="10"/>
<path d="M123.619 16.6771L116.668 4.95508H108.909" stroke="#D2B646" stroke-width="2" stroke-miterlimit="10"/>
<path d="M193.674 10.8159H137.971" stroke="#D2B646" stroke-width="2" stroke-miterlimit="10"/>
<path d="M25.166 88.3091H10.574V92.2641H25.166V88.3091Z" stroke="#D2B646" stroke-width="2" stroke-miterlimit="10"/>
<path d="M208.128 88.3091H193.535V92.2641H208.128V88.3091Z" stroke="#D2B646" stroke-width="2" stroke-miterlimit="10"/>
<path d="M114.769 1H104.205V4.95502H114.769V1Z" stroke="#D2B646" stroke-width="2" stroke-miterlimit="10"/>
<path d="M104.881 59.6729V65.7888" stroke="#D2B646" stroke-width="2" stroke-miterlimit="10"/>
<path d="M27.27 16.6768H33.365" stroke="#D2B646" stroke-width="2" stroke-miterlimit="10"/>
<path d="M39.909 16.6768H46.004" stroke="#D2B646" stroke-width="2" stroke-miterlimit="10"/>
<path d="M52.547 16.6768H58.643" stroke="#D2B646" stroke-width="2" stroke-miterlimit="10"/>
<path d="M69.156 16.6768H77.594" stroke="#D2B646" stroke-width="2" stroke-miterlimit="10"/>
<path d="M35.756 16.6768H38.119" stroke="#D2B646" stroke-width="2" stroke-miterlimit="10"/>
<path d="M62.833 16.6768H65.197" stroke="#D2B646" stroke-width="2" stroke-miterlimit="10"/>
<path d="M74.836 21.2588H68.741" stroke="#D2B646" stroke-width="2" stroke-miterlimit="10"/>
<path d="M62.197 21.2588H56.102" stroke="#D2B646" stroke-width="2" stroke-miterlimit="10"/>
<path d="M52.547 21.2588H43.463" stroke="#D2B646" stroke-width="2" stroke-miterlimit="10"/>
<path d="M32.95 21.2588H24.512" stroke="#D2B646" stroke-width="2" stroke-miterlimit="10"/>
<path d="M66.35 21.2588H63.987" stroke="#D2B646" stroke-width="2" stroke-miterlimit="10"/>
<path d="M36.909 21.2588H39.272" stroke="#D2B646" stroke-width="2" stroke-miterlimit="10"/>
<path d="M72.899 25.166H63.858" stroke="#D2B646" stroke-width="2" stroke-miterlimit="10"/>
<path d="M57.314 25.166H51.219" stroke="#D2B646" stroke-width="2" stroke-miterlimit="10"/>
<path d="M47.664 25.166H38.581" stroke="#D2B646" stroke-width="2" stroke-miterlimit="10"/>
<path d="M28.067 25.166H23.052" stroke="#D2B646" stroke-width="2" stroke-miterlimit="10"/>
<path d="M61.467 25.166H59.104" stroke="#D2B646" stroke-width="2" stroke-miterlimit="10"/>
<path d="M32.026 25.166H34.39" stroke="#D2B646" stroke-width="2" stroke-miterlimit="10"/>
<path d="M191.645 16.6768H185.49" stroke="#D2B646" stroke-width="2" stroke-miterlimit="10"/>
<path d="M178.882 16.6768H172.726" stroke="#D2B646" stroke-width="2" stroke-miterlimit="10"/>
<path d="M166.118 16.6768H159.963" stroke="#D2B646" stroke-width="2" stroke-miterlimit="10"/>
<path d="M149.346 16.6768H140.825" stroke="#D2B646" stroke-width="2" stroke-miterlimit="10"/>
<path d="M183.076 16.6768H180.689" stroke="#D2B646" stroke-width="2" stroke-miterlimit="10"/>
<path d="M155.731 16.6768H153.344" stroke="#D2B646" stroke-width="2" stroke-miterlimit="10"/>
<path d="M143.61 21.2588H149.765" stroke="#D2B646" stroke-width="2" stroke-miterlimit="10"/>
<path d="M156.373 21.2588H162.529" stroke="#D2B646" stroke-width="2" stroke-miterlimit="10"/>
<path d="M166.118 21.2588H175.292" stroke="#D2B646" stroke-width="2" stroke-miterlimit="10"/>
<path d="M185.909 21.2588H194.431" stroke="#D2B646" stroke-width="2" stroke-miterlimit="10"/>
<path d="M152.179 21.2588H154.566" stroke="#D2B646" stroke-width="2" stroke-miterlimit="10"/>
<path d="M181.911 21.2588H179.524" stroke="#D2B646" stroke-width="2" stroke-miterlimit="10"/>
<path d="M145.566 25.166H154.696" stroke="#D2B646" stroke-width="2" stroke-miterlimit="10"/>
<path d="M161.304 25.166H167.46" stroke="#D2B646" stroke-width="2" stroke-miterlimit="10"/>
<path d="M171.049 25.166H180.223" stroke="#D2B646" stroke-width="2" stroke-miterlimit="10"/>
<path d="M190.84 25.166H195.905" stroke="#D2B646" stroke-width="2" stroke-miterlimit="10"/>
<path d="M157.11 25.166H159.497" stroke="#D2B646" stroke-width="2" stroke-miterlimit="10"/>
<path d="M186.842 25.166H184.455" stroke="#D2B646" stroke-width="2" stroke-miterlimit="10"/>
</svg>
