<svg width="343" height="133" viewBox="0 0 343 133" fill="none" xmlns="http://www.w3.org/2000/svg">
<path d="M208.31 31.27L201.328 23.627C200.793 23.061 199.536 22.723 198.663 23.656C195.833 26.241 191.429 26.042 188.844 23.212C186.259 20.383 186.459 15.978 189.289 13.392C189.915 12.888 190.395 11.741 189.558 10.741L183.502 4.11204C181.687 2.12504 179.207 0.963036 176.519 0.842036C173.831 0.720036 171.256 1.65304 169.269 3.46804L100.443 66.339C98.4556 68.154 97.2946 70.634 97.1726 73.322C97.0516 76.01 97.9836 78.585 99.7986 80.572L105.855 87.201C105.912 87.264 105.974 87.319 106.037 87.372L108.976 93.306C109.405 94.173 110.448 94.538 111.325 94.129C113.992 92.884 117.154 93.485 119.186 95.525C118.835 96.284 118.343 96.99 117.707 97.598C117.008 98.267 116.971 99.371 117.624 100.086L120.576 103.317C119.941 104.714 118.871 105.852 117.491 106.575C116.634 107.024 116.293 108.076 116.722 108.942L121.318 118.219C123.784 123.197 129.841 125.241 134.819 122.774L155.024 112.764C155.906 112.327 156.266 111.259 155.829 110.378C155.392 109.497 154.324 109.136 153.443 109.573L133.237 119.583C130.019 121.177 126.103 119.856 124.509 116.638L120.622 108.792C121.61 108.044 122.451 107.132 123.113 106.095L124.605 107.728C126.42 109.715 128.9 110.877 131.588 110.998C133.988 111.048 136.599 110.443 138.838 108.372L202.213 50.481C201.986 52.429 202.3 54.462 203.234 56.347C205.57 61.062 210.992 63.253 215.857 61.693L219.712 69.475C221.306 72.693 219.985 76.609 216.767 78.203L161.091 105.784C160.209 106.221 159.849 107.289 160.286 108.17C160.723 109.051 161.791 109.412 162.672 108.975L218.348 81.394C223.326 78.928 225.37 72.872 222.904 67.894L218.308 58.617C217.949 57.926 216.837 57.251 215.739 57.908C212.305 59.609 208.127 58.2 206.426 54.765C204.725 51.33 206.135 47.153 209.569 45.452C210.311 45.142 211.089 44.171 210.562 42.978L210.114 42.074C210.596 40.963 210.879 39.762 210.935 38.516C211.058 35.832 210.126 33.258 208.31 31.27ZM111.461 90.299L109.574 86.489C113.711 84.242 119.01 86.817 119.748 91.469C117.294 89.976 114.281 89.523 111.461 90.299ZM163.776 66.574L168.688 62.087L175.758 69.827L170.846 74.314L163.776 66.574ZM207.379 38.36C207.297 40.167 206.495 41.625 205.265 42.875L184.799 61.57C182.848 58.867 179.713 61.87 182.17 63.972L178.389 67.426L170.118 58.371C169.8 58.022 169.356 57.814 168.884 57.793C168.412 57.772 167.951 57.939 167.603 58.257L160.061 65.146C159.712 65.465 159.504 65.908 159.483 66.38C159.462 66.852 159.629 67.313 159.947 67.662L168.219 76.717L136.441 105.746C135.156 106.92 133.492 107.523 131.754 107.444C130.016 107.365 128.413 106.615 127.239 105.33L121.333 98.865C124.204 95.027 124.053 89.508 120.953 85.836C117.541 81.794 111.907 81.073 107.41 83.623L102.431 78.172C101.258 76.887 100.655 75.223 100.733 73.485C100.811 71.747 101.562 70.144 102.847 68.97L148.577 27.196L149.058 27.722C149.606 28.322 150.469 28.461 151.163 28.118C151.309 28.046 151.448 27.952 151.574 27.836C152.3 27.173 152.351 26.046 151.687 25.32L151.207 24.794L171.672 6.09904C172.957 4.92504 174.621 4.32204 176.359 4.40104C178.097 4.48004 179.7 5.23004 180.874 6.51504L185.804 11.912C182.588 15.882 182.667 21.73 186.215 25.614C189.763 29.498 195.577 30.107 199.824 27.26L205.681 33.672C206.854 34.957 207.457 36.622 207.379 38.36Z" fill="#D2B646"/>
<path d="M160.64 35.123L157.453 31.634C156.79 30.908 155.661 30.858 154.937 31.52C154.211 32.183 154.16 33.31 154.823 34.036L158.01 37.525C159.391 39.105 162.152 37.058 160.64 35.123Z" fill="#D2B646"/>
<path d="M169.595 44.926L166.408 41.437C165.745 40.711 164.617 40.661 163.892 41.323C163.166 41.986 163.115 43.113 163.778 43.839L166.966 47.328C168.346 48.909 171.108 46.861 169.595 44.926Z" fill="#D2B646"/>
<path d="M175.363 51.2401C174.699 50.5141 173.571 50.4641 172.847 51.1261C172.121 51.7891 172.07 52.9161 172.733 53.6421L175.92 57.1311C177.301 58.7111 180.062 56.6641 178.55 54.7291L175.363 51.2401Z" fill="#D2B646"/>
<path d="M179.894 17.595C179.915 17.123 179.748 16.662 179.43 16.314L174.571 10.995C173.908 10.269 172.78 10.218 172.055 10.881L158.291 23.453C157.565 24.116 157.514 25.243 158.177 25.969L163.036 31.288C163.355 31.637 163.798 31.845 164.27 31.866C164.574 31.88 164.873 31.816 165.141 31.683C165.289 31.61 165.428 31.515 165.551 31.402L179.315 18.829C179.665 18.511 179.873 18.067 179.894 17.595ZM164.465 27.572L162.008 24.882L173.142 14.712L175.599 17.401L164.465 27.572Z" fill="#D2B646"/>
<path d="M189.422 43.1461L196.775 36.4291C197.501 35.7661 197.552 34.6391 196.889 33.9131C196.225 33.1871 195.098 33.1371 194.373 33.7991L187.02 40.5161C186.294 41.1791 186.243 42.3061 186.906 43.0321C187.454 43.6321 188.317 43.7711 189.011 43.4271C189.157 43.3561 189.296 43.2621 189.422 43.1461Z" fill="#D2B646"/>
<path d="M198.68 38.514L191.327 45.231C190.601 45.894 190.55 47.021 191.213 47.747C191.761 48.347 192.624 48.486 193.318 48.143C193.464 48.071 193.603 47.977 193.729 47.861L201.082 41.144C201.808 40.481 201.859 39.354 201.196 38.628C200.532 37.901 199.404 37.851 198.68 38.514Z" fill="#D2B646"/>
<path d="M140.959 87.78L130.589 97.253C129.863 97.916 129.812 99.043 130.475 99.769C131.023 100.369 131.886 100.508 132.58 100.164C132.726 100.091 132.865 99.998 132.991 99.882L143.361 90.409C144.087 89.746 144.138 88.619 143.475 87.893C142.812 87.167 141.684 87.117 140.959 87.78Z" fill="#D2B646"/>
<path d="M211.969 76.294C212.851 75.857 213.211 74.789 212.774 73.908L209.713 67.73C209.276 66.849 208.208 66.488 207.327 66.925L189.707 75.654C188.825 76.091 188.465 77.159 188.902 78.04L191.963 84.218C192.4 85.099 193.468 85.46 194.349 85.023L211.969 76.294ZM192.885 78.053L207.313 70.906L208.793 73.893L194.365 81.041L192.885 78.053Z" fill="#D2B646"/>
<path d="M184.846 85.4841C185.728 85.0471 186.088 83.9791 185.651 83.0981C185.214 82.2171 184.146 81.8561 183.265 82.2931L166.301 90.6971C165.419 91.1341 165.059 92.2021 165.496 93.0831C165.933 93.9641 167.001 94.3251 167.882 93.8881L184.846 85.4841Z" fill="#D2B646"/>
<path d="M147.766 53.202C147.225 53.696 145.877 55.024 144.094 56.804L130.697 52.688C130.094 52.503 129.439 52.65 128.973 53.075L124.825 56.864C124.177 57.481 123.903 58.913 125.183 59.747L135.606 65.349C131.204 69.803 127.018 74.059 125.728 75.371L119.772 76.615C118.529 76.852 117.73 78.776 119.157 79.846L126.618 84.755C127.357 85.008 127.871 85.347 128.862 84.52L131.264 82.093C132.038 81.459 137.128 77.289 142.482 72.877L147.12 83.764C147.629 84.47 148.386 85.455 149.959 84.381L154.107 80.592C154.573 80.166 154.778 79.527 154.649 78.91L151.759 65.196C153.692 63.582 155.137 62.358 155.677 61.865C158.768 59.042 157.916 53.835 157.808 53.25C157.685 52.58 157.191 52.039 156.535 51.856C155.965 51.697 150.854 50.38 147.766 53.202ZM129.082 57.8L130.624 56.392L141.249 59.656C140.28 60.63 139.258 61.66 138.218 62.71L129.082 57.8ZM150.956 78.649L149.414 80.057L145.348 70.515C146.487 69.574 147.605 68.649 148.663 67.772L150.956 78.649ZM153.277 59.235C152.694 59.768 150.956 61.233 148.661 63.144L148.657 63.147C147.705 63.94 146.613 64.847 145.393 65.857C145.317 65.92 145.242 65.982 145.166 66.045C145.126 66.078 145.085 66.112 145.045 66.146C137.997 71.977 129.077 79.284 128.937 79.399C128.889 79.438 128.843 79.48 128.8 79.524L127.359 80.98L124.695 79.228L126.985 78.75C127.33 78.678 127.645 78.506 127.891 78.255C128.018 78.126 136.085 69.917 142.525 63.427C142.724 63.226 142.923 63.026 143.116 62.832C143.128 62.82 143.139 62.809 143.151 62.797C144.152 61.79 145.055 60.882 145.855 60.082L145.857 60.08C147.968 57.967 149.584 56.368 150.168 55.835C151.185 54.906 153.096 54.905 154.425 55.074C154.476 56.405 154.303 58.298 153.277 59.235Z" fill="#D2B646"/>
<path d="M305.986 122.516C305.023 122.516 304.039 122.496 303.036 122.457C301.842 122.411 300.913 121.406 300.96 120.212C301.006 119.02 301.976 118.11 303.205 118.136C304.168 118.173 305.107 118.175 306.037 118.192C307.93 118.192 309.792 118.114 311.573 117.959C312.745 117.866 313.811 118.737 313.914 119.927C314.018 121.116 313.137 122.164 311.948 122.268C310.027 122.434 307.982 122.525 305.986 122.516ZM294.516 121.682C294.417 121.682 294.318 121.676 294.218 121.662C291.417 121.275 288.499 120.749 285.543 120.098C284.376 119.841 283.639 118.688 283.896 117.522C284.152 116.357 285.305 115.615 286.472 115.876C289.317 116.502 292.122 117.008 294.809 117.38C295.993 117.543 296.819 118.635 296.656 119.818C296.504 120.898 295.578 121.682 294.516 121.682ZM320.275 120.861C319.311 120.861 318.433 120.211 318.182 119.235C317.886 118.078 318.583 116.901 319.74 116.604C322.518 115.892 325.089 114.939 327.38 113.77C328.441 113.227 329.748 113.65 330.288 114.712C330.831 115.775 330.409 117.078 329.345 117.621C326.771 118.935 323.901 120.003 320.812 120.793C320.633 120.838 320.452 120.861 320.275 120.861ZM277.634 118.003C277.434 118.003 277.231 117.975 277.03 117.916C274.312 117.128 271.504 116.225 268.683 115.233C267.557 114.837 266.966 113.602 267.361 112.476C267.757 111.35 268.988 110.758 270.118 111.154C272.863 112.12 275.593 112.997 278.234 113.764C279.381 114.096 280.041 115.296 279.708 116.442C279.434 117.388 278.571 118.003 277.634 118.003ZM335.381 112.87C334.825 112.87 334.268 112.656 333.845 112.229C333.005 111.381 333.01 110.012 333.859 109.172C335.821 107.227 337.243 105.087 338.084 102.808C338.498 101.688 339.746 101.12 340.861 101.529C341.981 101.943 342.554 103.186 342.14 104.306C341.079 107.182 339.315 109.852 336.901 112.244C336.481 112.661 335.931 112.87 335.381 112.87ZM261.316 112.293C261.046 112.293 260.771 112.242 260.504 112.133C257.87 111.064 255.171 109.903 252.481 108.681C251.394 108.188 250.913 106.906 251.406 105.819C251.9 104.732 253.179 104.251 254.269 104.744C256.907 105.942 259.552 107.08 262.132 108.127C263.238 108.576 263.77 109.836 263.321 110.943C262.98 111.784 262.17 112.293 261.316 112.293ZM245.568 105.156C245.244 105.156 244.915 105.083 244.605 104.929C242.079 103.671 239.476 102.32 236.868 100.914C235.816 100.348 235.424 99.0361 235.991 97.9851C236.56 96.9341 237.869 96.5421 238.92 97.1081C241.487 98.4921 244.048 99.8211 246.533 101.058C247.601 101.591 248.036 102.888 247.504 103.957C247.127 104.716 246.362 105.156 245.568 105.156ZM340.687 97.2231C339.719 97.2231 338.837 96.5681 338.591 95.5871C338.519 95.2991 338.435 95.0151 338.339 94.7341C337.949 93.6051 338.55 92.3751 339.679 91.9861C340.807 91.6001 342.04 92.1981 342.426 93.3271C342.564 93.7251 342.682 94.1271 342.785 94.5351C343.075 95.6931 342.373 96.8671 341.214 97.1591C341.038 97.2021 340.862 97.2231 340.687 97.2231ZM230.342 96.9621C229.975 96.9621 229.603 96.8681 229.264 96.6721C226.797 95.2501 224.28 93.7551 221.782 92.2301C220.763 91.6071 220.442 90.2771 221.064 89.2581C221.689 88.2381 223.018 87.9171 224.037 88.5391C226.503 90.0461 228.989 91.5221 231.424 92.9261C232.458 93.5221 232.813 94.8451 232.218 95.8791C231.815 96.5731 231.089 96.9621 230.342 96.9621Z" fill="#D2B646"/>
<path d="M54.2532 132.952C51.6412 132.952 49.0302 132.73 46.4962 132.289C45.3192 132.085 44.5312 130.966 44.7352 129.791C44.9392 128.614 46.0622 127.825 47.2352 128.03C49.9022 128.493 52.6712 128.685 55.4152 128.613C56.5862 128.545 57.6032 129.519 57.6362 130.713C57.6692 131.907 56.7282 132.902 55.5342 132.934C55.1082 132.947 54.6802 132.952 54.2532 132.952ZM64.0412 131.916C63.0382 131.916 62.1392 131.215 61.9272 130.195C61.6842 129.027 62.4332 127.881 63.6022 127.638C66.2212 127.093 68.9072 126.314 71.5862 125.322C72.7042 124.91 73.9492 125.479 74.3642 126.599C74.7792 127.718 74.2062 128.962 73.0872 129.378C70.2072 130.443 67.3122 131.282 64.4852 131.872C64.3352 131.902 64.1862 131.916 64.0412 131.916ZM38.5522 130.002C38.2912 130.002 38.0262 129.955 37.7682 129.854C35.0302 128.788 32.3152 127.43 29.6982 125.817C28.6822 125.191 28.3662 123.859 28.9922 122.842C29.6182 121.824 30.9482 121.508 31.9672 122.136C34.3622 123.612 36.8422 124.853 39.3382 125.824C40.4512 126.258 41.0012 127.511 40.5682 128.623C40.2342 129.48 39.4172 130.002 38.5522 130.002ZM80.2372 126.005C79.4542 126.005 78.6982 125.578 78.3142 124.834C77.7662 123.773 78.1822 122.469 79.2442 121.921C81.6542 120.677 84.1062 119.247 86.5302 117.671C87.5312 117.02 88.8692 117.304 89.5212 118.306C90.1712 119.307 89.8882 120.646 88.8862 121.297C86.3422 122.951 83.7652 124.453 81.2272 125.764C80.9102 125.927 80.5712 126.005 80.2372 126.005ZM23.8552 121.046C23.3602 121.046 22.8632 120.877 22.4562 120.532C20.2832 118.686 18.1262 116.606 16.0472 114.351C15.2382 113.473 15.2942 112.105 16.1722 111.296C17.0512 110.486 18.4172 110.544 19.2272 111.421C21.1872 113.548 23.2152 115.505 25.2552 117.238C26.1652 118.011 26.2762 119.375 25.5032 120.285C25.0762 120.787 24.4672 121.046 23.8552 121.046ZM94.7582 116.623C94.1132 116.623 93.4742 116.335 93.0482 115.786C92.3162 114.842 92.4882 113.484 93.4312 112.753C95.6192 111.056 97.8122 109.221 99.9512 107.297C100.838 106.499 102.204 106.57 103.004 107.459C103.803 108.347 103.73 109.713 102.842 110.512C100.627 112.505 98.3512 114.409 96.0822 116.169C95.6872 116.476 95.2212 116.623 94.7582 116.623ZM12.1182 108.396C11.4542 108.396 10.8002 108.091 10.3752 107.516C8.58022 105.078 7.00022 102.49 5.67722 99.8221C5.14722 98.7521 5.58522 97.4551 6.65522 96.9251C7.72422 96.3951 9.02022 96.8331 9.55222 97.9031C10.7622 100.345 12.2102 102.717 13.8572 104.952C14.5652 105.913 14.3592 107.267 13.3982 107.975C13.0122 108.259 12.5632 108.396 12.1182 108.396ZM107.637 105.06C107.094 105.06 106.552 104.857 106.132 104.45C105.275 103.618 105.254 102.249 106.086 101.393C109.659 97.7111 111.72 95.1211 111.741 95.0951C112.483 94.1601 113.842 94.0011 114.778 94.7441C115.713 95.4851 115.871 96.8451 115.13 97.7801C115.042 97.8911 112.927 100.551 109.19 104.404C108.764 104.841 108.2 105.06 107.637 105.06ZM4.48622 92.9771C3.54722 92.9771 2.68322 92.3611 2.41022 91.4141C1.58022 88.5401 1.00222 85.5611 0.689222 82.5601C0.566222 81.3731 1.42922 80.3101 2.61722 80.1861C3.79222 80.0611 4.86622 80.9261 4.99122 82.1141C5.27622 84.8611 5.80522 87.5871 6.56422 90.2151C6.89522 91.3621 6.23422 92.5611 5.08722 92.8911C4.88622 92.9491 4.68522 92.9771 4.48622 92.9771ZM2.68922 75.8671C2.64022 75.8671 2.59222 75.8661 2.54322 75.8621C1.35122 75.7831 0.451218 74.7521 0.530218 73.5611C0.728218 70.6031 1.17522 67.6131 1.85922 64.6741C2.12922 63.5101 3.29322 62.7851 4.45422 63.0581C5.61722 63.3291 6.34122 64.4911 6.07022 65.6541C5.43922 68.3671 5.02622 71.1241 4.84322 73.8501C4.76722 74.9921 3.81722 75.8671 2.68922 75.8671ZM6.56322 59.0901C6.29522 59.0901 6.02222 59.0401 5.75922 58.9341C4.65122 58.4901 4.11322 57.2311 4.55822 56.1231C5.65722 53.3821 6.98022 50.6751 8.48822 48.0801C9.08822 47.0481 10.4102 46.6981 11.4442 47.2971C12.4772 47.8971 12.8272 49.2201 12.2272 50.2531C10.8232 52.6681 9.59322 55.1851 8.57122 57.7331C8.23222 58.5761 7.42022 59.0901 6.56322 59.0901ZM15.2082 44.1791C14.7412 44.1791 14.2712 44.0281 13.8752 43.7181C12.9352 42.9811 12.7712 41.6221 13.5082 40.6831C15.3292 38.3621 17.3362 36.1271 19.4752 34.0431C20.3302 33.2101 21.7002 33.2261 22.5322 34.0821C23.3652 34.9371 23.3482 36.3051 22.4932 37.1391C20.4922 39.0901 18.6132 41.1801 16.9102 43.3511C16.4832 43.8961 15.8492 44.1791 15.2082 44.1791ZM27.5492 32.1341C26.8922 32.1341 26.2442 31.8361 25.8192 31.2711C25.1022 30.3161 25.2942 28.9601 26.2482 28.2431C28.6002 26.4761 31.1032 24.8281 33.6872 23.3451C34.7222 22.7501 36.0442 23.1101 36.6392 24.1441C37.2332 25.1801 36.8752 26.5011 35.8402 27.0961C33.4092 28.4901 31.0562 30.0391 28.8472 31.7001C28.4572 31.9921 28.0012 32.1341 27.5492 32.1341ZM127.022 28.9221C126.731 28.9221 126.436 28.8631 126.152 28.7381L125.557 28.4771C124.463 27.9981 123.965 26.7221 124.444 25.6291C124.923 24.5351 126.198 24.0361 127.292 24.5161L127.894 24.7801C128.986 25.2611 129.482 26.5371 129.002 27.6301C128.645 28.4401 127.853 28.9221 127.022 28.9221ZM118.417 25.4061C118.164 25.4061 117.907 25.3621 117.658 25.2671C114.972 24.2601 112.26 23.3301 109.598 22.5051C108.457 22.1521 107.82 20.9411 108.173 19.8001C108.526 18.6591 109.735 18.0181 110.878 18.3751C113.621 19.2241 116.413 20.1811 119.178 21.2181C120.296 21.6371 120.862 22.8841 120.443 24.0011C120.116 24.8711 119.292 25.4061 118.417 25.4061ZM42.5002 23.5351C41.6602 23.5351 40.8612 23.0421 40.5112 22.2201C40.0432 21.1221 40.5542 19.8521 41.6522 19.3841C44.3452 18.2361 47.1562 17.2211 50.0062 16.3681C51.1522 16.0261 52.3542 16.6761 52.6972 17.8191C53.0392 18.9631 52.3902 20.1681 51.2462 20.5101C48.5502 21.3171 45.8922 22.2771 43.3462 23.3611C43.0712 23.4791 42.7832 23.5351 42.5002 23.5351ZM101.903 20.3071C101.736 20.3071 101.565 20.2871 101.395 20.2461C98.6122 19.5751 95.8122 19.0021 93.0742 18.5441C91.8972 18.3471 91.1022 17.2321 91.2992 16.0541C91.4982 14.8771 92.6172 14.0841 93.7892 14.2791C96.6262 14.7551 99.5262 15.3481 102.409 16.0431C103.57 16.3221 104.284 17.4901 104.004 18.6511C103.764 19.6421 102.879 20.3071 101.903 20.3071ZM59.0232 18.5701C58.0032 18.5701 57.0952 17.8441 56.9002 16.8051C56.6802 15.6321 57.4542 14.5021 58.6282 14.2821C61.4832 13.7481 64.4352 13.3471 67.4022 13.0891C68.6012 12.9981 69.6392 13.8681 69.7432 15.0571C69.8462 16.2461 68.9652 17.2941 67.7752 17.3981C64.9502 17.6421 62.1402 18.0241 59.4232 18.5331C59.2882 18.5571 59.1542 18.5701 59.0232 18.5701ZM84.8592 17.4701C84.7942 17.4701 84.7292 17.4671 84.6632 17.4621C81.8262 17.2081 78.9812 17.0731 76.2102 17.0591C75.0162 17.0531 74.0532 16.0801 74.0592 14.8861C74.0652 13.6951 75.0322 12.7351 76.2212 12.7351C76.2252 12.7351 76.2282 12.7351 76.2312 12.7351C79.1242 12.7501 82.0912 12.8911 85.0492 13.1551C86.2382 13.2611 87.1162 14.3121 87.0102 15.5011C86.9092 16.6241 85.9662 17.4701 84.8592 17.4701Z" fill="#D2B646"/>
</svg>
