<svg width="507" height="293" viewBox="0 0 507 293" fill="none" xmlns="http://www.w3.org/2000/svg">
<path d="M315.74 161.669C311.799 164.335 306.647 165.132 302.084 163.78C301.572 163.63 301.016 163.41 300.783 162.927C300.432 162.205 300.992 161.39 301.094 160.593C301.384 158.305 298.127 157.318 297.089 155.26C296.678 154.447 296.646 153.503 296.577 152.596C295.944 144.546 291.751 137.293 288.218 130.031C287.963 129.503 287.703 128.929 287.81 128.349C287.917 127.772 288.58 127.273 289.095 127.558C288.711 128.926 289.551 130.522 290.895 130.981C291.509 128.639 291.842 125.562 289.744 124.358C289.03 123.948 288.175 123.875 287.351 123.835C284.111 123.674 280.854 123.856 277.654 124.377C277.118 124.463 276.533 124.551 276.069 124.275C275.656 124.031 275.444 123.561 275.154 123.178C274.368 122.126 272.273 121.555 271.16 122.473C269.926 123.492 270.868 125.708 268.504 126.017C267.163 126.191 265.878 125.502 264.703 124.834C263.445 124.12 262.16 123.383 261.243 122.267C260.918 121.867 260.631 121.419 260.197 121.146C259.36 120.62 258.284 120.905 257.297 120.894C256.31 120.886 255.105 120.167 255.371 119.218C255.454 118.923 255.669 118.687 255.838 118.429C257.08 116.524 255.436 113.812 253.271 113.123C251.104 112.434 248.765 113.12 246.594 113.804C243.343 114.831 240.089 115.859 236.835 116.883C235.606 117.272 234.319 117.664 233.05 117.433C231.964 117.234 230.823 116.591 229.831 117.073C228.485 117.728 228.702 119.734 227.889 120.992C227.111 122.194 225.453 122.58 224.651 123.768C223.723 125.144 224.275 126.982 224.179 128.639C223.989 131.834 221.363 134.259 219.053 136.477C216.743 138.693 214.399 141.582 214.992 144.728C215.174 145.694 215.63 146.606 215.698 147.585C215.752 148.398 215.537 149.2 215.322 149.983C214.646 152.459 213.97 154.935 213.291 157.411C215.563 161.427 218.076 165.308 220.813 169.023C222.162 170.855 223.595 172.677 225.464 173.972C227.331 175.27 229.716 175.994 231.915 175.41C232.899 175.147 233.82 174.635 234.833 174.53C236.247 174.383 237.636 175.048 239.053 174.986C240.708 174.916 242.146 173.883 243.476 172.896C244.806 171.909 246.252 170.887 247.907 170.839C249.565 170.791 251.348 172.229 250.997 173.846C250.919 174.2 250.748 174.552 250.799 174.911C250.906 175.681 251.904 175.946 252.671 175.842C253.441 175.737 254.262 175.453 254.959 175.794C255.908 176.261 256.016 177.599 255.702 178.611C255.275 179.982 254.358 181.138 253.749 182.436C253.14 183.737 252.888 185.384 253.754 186.527C254.202 187.12 254.883 187.485 255.438 187.978C256.364 188.796 256.916 189.952 257.364 191.103C259.29 196.028 259.716 201.519 258.646 206.693C258.171 208.978 256.717 210.843 256.259 212.954C255.744 215.336 257.643 217.997 258.756 219.936C260.454 222.889 261.46 226.24 261.674 229.638C261.757 230.993 261.733 232.412 262.353 233.619C262.82 234.523 263.603 235.215 264.25 236.001C266.723 239.019 267.034 243.206 267.238 247.104C267.759 247.799 268.834 247.791 269.62 247.423C270.406 247.053 271.039 246.417 271.803 246.007C273.721 244.977 276.065 245.513 278.227 245.269C281.95 244.848 285.218 241.774 285.861 238.083C286.041 237.058 286.043 235.983 286.486 235.044C287.149 233.628 288.742 232.667 288.956 231.117C289.039 230.503 288.886 229.864 289.02 229.258C289.444 227.345 292.37 226.745 292.622 224.8C292.745 223.866 292.174 223.005 291.812 222.136C290.736 219.555 291.643 216.296 293.894 214.641C294.736 214.021 295.721 213.619 296.579 213.023C300.715 210.153 300.624 203.927 298.881 199.203C298.2 197.36 297.325 195.499 297.451 193.538C297.534 192.245 298.052 191.019 298.655 189.874C300.171 186.993 302.271 184.421 304.79 182.361C306.432 181.02 308.317 179.813 309.254 177.911C309.828 176.75 309.989 175.427 310.437 174.212C311.253 171.996 312.959 170.253 314.289 168.305C315.622 166.358 316.609 163.863 315.74 161.669ZM291.619 209.636C291.506 210.446 290.594 211.205 289.894 210.784C289.867 208.619 289.403 206.487 288.939 204.37C288.716 203.356 288.494 202.342 288.271 201.331C288.169 200.859 288.024 200.333 287.603 200.105C287.3 199.941 286.914 199.968 286.637 199.767C286.221 199.464 286.251 198.812 285.905 198.428C285.454 197.929 284.609 198.106 284.038 197.749C283.472 197.395 283.338 196.644 283.26 195.979L282.399 188.648C282.367 188.366 282.337 188.058 282.487 187.814C282.653 187.543 282.986 187.438 283.284 187.326C284.564 186.84 285.647 185.851 286.24 184.617C286.492 184.091 286.664 183.523 287.007 183.053C288.254 181.363 289.925 181.867 290.068 183.525C290.266 185.829 289.352 185.537 288.061 186.347C287.071 186.967 285.368 188.01 284.686 189.043C283.659 190.602 284.571 191.039 285.279 192.554C285.934 193.96 285.309 195.851 286.339 197.012C287.004 197.766 288.123 197.9 288.973 198.439C290.301 199.281 290.792 200.985 290.88 202.551C290.969 204.12 290.765 205.722 291.159 207.243C291.364 208.038 291.732 208.826 291.619 209.636Z" fill="#CACACA" fill-opacity="0.1"/>
<path d="M304.495 212.979C303.652 214.522 305.375 216.311 305.236 218.064C305.093 219.86 303.081 220.988 302.671 222.742C302.502 223.464 302.625 224.221 302.793 224.944C303.114 226.329 303.596 227.676 304.228 228.949C304.431 229.359 304.656 229.769 304.99 230.081C306.021 231.045 307.801 230.721 308.802 229.727C309.803 228.733 310.189 227.282 310.399 225.886C310.609 224.49 310.692 223.05 311.248 221.752C312.056 219.865 313.85 218.272 313.748 216.222C313.697 215.198 313.161 214.266 312.925 213.268C312.688 212.27 312.889 211.002 313.824 210.582C313.925 211.237 314.027 211.891 314.128 212.546C316.785 211.716 313.527 202.937 310.642 207.379C309.467 209.188 310.63 210.406 308.297 211.341C307.038 211.846 305.254 211.592 304.495 212.979Z" fill="#CACACA" fill-opacity="0.1"/>
<path d="M506.572 56.4783C506.502 56.1813 506.266 55.9453 506.03 55.7353C504.429 54.2653 502.645 52.9973 500.73 51.9833C501.937 51.8783 503.188 51.7643 504.264 51.1873C505.34 50.6193 506.206 49.4643 506.048 48.2573C505.777 46.1933 502.855 44.9953 503.153 42.9393C503.293 42.0123 504.098 41.0763 503.66 40.2453C503.354 39.6763 502.619 39.5283 501.972 39.4403C498.596 38.9853 495.22 38.5303 491.835 38.0843C491.984 39.3703 491.625 40.8043 490.584 41.5833C489.534 42.3533 487.768 42.0993 487.269 40.9013C487.103 40.4813 487.085 39.9913 486.797 39.6333C486.193 38.8633 484.978 39.3093 484.051 39.6683C482.066 40.4383 479.791 40.4383 477.806 39.6593C477.421 39.5013 477.001 39.2923 476.844 38.9073C476.608 38.3393 477.001 37.7183 477.037 37.1053C477.089 36.0553 476.005 35.2423 474.955 35.1463C473.914 35.0583 472.9 35.4783 471.894 35.8023C468.981 36.7473 465.527 36.8693 463.13 34.9623C462.422 34.4023 461.836 33.6853 461.075 33.2043C459.999 32.5223 458.678 32.3823 457.41 32.2513C454.147 31.9193 450.894 31.5863 447.631 31.2543C447.316 31.2193 446.958 31.2013 446.695 31.3853C446.275 31.6913 446.345 32.3303 446.205 32.8283C445.943 33.7993 444.84 34.3063 443.843 34.3763C442.837 34.4463 441.823 34.2103 440.826 34.3233C440.083 34.4023 439.357 34.6823 438.613 34.6383C437.861 34.5943 437.047 34.0703 437.065 33.3263C436.129 33.9123 435.508 34.9793 435.473 36.0903C433.575 36.3003 431.187 34.9443 431.598 33.0723C431.712 32.5913 431.992 32.1623 432.035 31.6733C432.289 28.6293 424.767 27.9563 423.07 29.2683C422.606 29.6273 422.248 30.1083 421.81 30.4923C419.965 32.1013 416.658 31.4633 415.539 29.2763C412.88 28.9443 410.177 28.9613 407.51 29.3113C406.425 27.4743 403.609 28.3403 401.807 29.4863C400.005 30.6323 397.381 31.7603 396.008 30.1243C400.556 29.0923 404.868 27.0283 408.533 24.1423C408.9 23.8533 409.303 23.4603 409.215 22.9873C409.162 22.6633 408.883 22.4363 408.611 22.2443C406.923 21.0723 404.85 20.4513 402.795 20.5033C401.291 20.5383 399.506 20.8093 398.553 19.6553C397.958 18.9473 397.897 17.8533 397.171 17.2673C396.48 16.7073 395.492 16.8383 394.617 16.9873C392.684 17.3373 390.742 17.6873 388.809 18.0373C388.512 18.0893 388.179 18.1593 387.969 18.3783C387.698 18.6753 387.715 19.1303 387.689 19.5413C387.523 22.0953 384.313 23.8973 382.039 22.7073C381.33 22.3313 380.727 21.7363 379.957 21.5003C378.986 21.2113 377.945 21.5443 376.992 21.8763C372.977 23.2673 368.972 24.6573 364.966 26.0483C366.042 26.7833 367.45 27.0193 368.709 26.6863C369.085 27.3603 368.106 27.9543 367.353 28.1123C364.292 28.7503 361.239 29.3893 358.178 30.0193C359.927 31.3483 361.624 32.7573 363.251 34.2353C364.038 33.6843 364.782 35.1183 364.484 36.0373C364.195 36.9553 363.644 38.0923 364.344 38.7483C363.408 38.4333 362.603 37.7423 362.149 36.8503C362.639 36.4923 363.111 36.1243 363.601 35.7573C362.534 35.9763 361.362 35.2763 361.038 34.2353C359.087 33.8593 357.225 33.0193 355.659 31.7953C355.344 32.5303 355.773 33.4923 356.534 33.7633C355.817 33.8593 355.091 33.9473 354.374 34.0343C354.61 35.1543 355.616 36.0633 356.753 36.1943C355.319 36.5613 353.718 36.2203 352.546 35.3113C353.613 33.7023 352.047 31.1483 350.123 31.3753C351.225 31.5243 351.409 33.1073 350.928 34.1043C350.438 35.1103 349.581 36.0113 349.599 37.1223C349.617 38.4863 350.885 40.1223 349.826 40.9883C351.112 42.0643 353.508 40.1053 354.584 41.3823C354.916 41.7843 354.951 42.3353 355.091 42.8343C355.511 44.3303 357.155 45.3703 358.686 45.1083C357.803 46.5073 355.704 45.1253 354.741 43.7783C353.788 42.4313 351.636 41.0933 350.805 42.5193C350.534 42.9913 350.586 43.5603 350.586 44.0933C350.534 47.9853 345.968 51.0733 342.338 49.6653C343.72 47.9593 346.965 48.6333 348.023 46.7173C348.452 45.9303 348.338 44.9683 348.207 44.0843C347.779 41.1983 347.359 38.3113 346.93 35.4253C347.184 34.0963 347.28 32.7313 347.219 31.3843C345.697 31.9173 343.248 31.8483 343.301 30.2383C342.006 32.3813 340.712 34.5153 339.418 36.6583C338.631 37.9443 338.036 39.9733 339.383 40.6463C340.284 40.2793 341.333 41.0403 341.587 41.9843C341.849 42.9203 341.517 43.9173 341.089 44.7923C339.147 39.4223 329.325 41.8973 326.771 36.7893C325.599 37.2443 326.666 39.0463 327.847 39.4743C329.037 39.9023 330.663 40.6633 330.226 41.8443C329.894 42.7713 328.617 42.7713 327.637 42.7013C324.803 42.5003 321.908 43.1563 319.424 44.5553C319.205 43.5583 318.978 42.5693 318.759 41.5813C316.695 43.0423 314.622 44.5023 312.558 45.9723C311.552 46.6803 310.485 47.4153 309.261 47.5463C308.037 47.6693 306.628 46.9343 306.471 45.7183C306.313 44.4933 308.089 43.4263 308.876 44.3713C309.217 42.1323 306.156 40.2603 304.319 41.5903C305.535 43.6543 305.57 46.3663 304.389 48.4563C303.952 49.2343 303.278 49.9693 302.404 50.1093C301.521 50.2403 300.506 49.4793 300.69 48.6053C299.57 49.5933 298.941 51.1063 299.019 52.5933C297.2 53.1883 295.031 52.4793 293.902 50.9223C294.042 51.7883 294.182 52.6453 294.322 53.5113C293.01 54.9193 290.141 53.9053 290.01 51.9803C289.975 51.4123 290.124 50.8523 290.124 50.2833C290.124 48.3413 288.41 46.8983 286.853 45.7353C289.18 46.6183 291.524 47.5023 293.85 48.3853C295.162 48.8843 296.561 49.3913 297.935 49.1283C299.947 48.7433 301.241 46.0413 299.457 44.6413C296.247 42.1313 292.547 40.2423 288.629 39.1133C287.501 38.7893 286.294 38.5273 285.183 38.8863C284.273 39.1753 283.058 39.7523 282.568 38.9383C283.478 39.0693 284.457 38.7193 285.078 38.0283C283.18 37.6083 281.256 37.3373 279.314 37.2413C277.075 39.2273 275.553 42.0433 276.2 44.8773C277.197 49.2413 282.865 52.8973 280.792 56.8603C282.742 56.4233 284.78 55.9943 286.713 56.4843C287.754 56.7383 288.76 57.3503 289.442 58.1723C289.433 58.1283 289.442 58.0853 289.451 58.0413C290.028 57.8493 290.649 57.6473 291.244 57.8143C291.83 57.9723 292.311 58.6623 292.014 59.2053C291.813 59.5813 291.288 59.8963 291.472 60.2813C291.594 60.5263 291.918 60.5613 292.172 60.6403C292.889 60.8593 293.292 61.7863 292.959 62.4593C291.927 62.3983 290.895 62.3453 289.863 62.3013C289.513 63.0533 289.041 63.7703 288.708 64.5233C287.317 67.6633 288.332 71.2663 288.446 74.6953C288.499 76.4533 288.096 78.4123 287.222 79.9343C287.432 79.8903 287.642 79.8463 287.852 79.8113C291.744 79.1463 296.187 80.1353 298.575 83.2833C300.954 86.4323 300.158 91.8463 296.502 93.3243C295.111 93.8843 293.493 93.8663 292.225 94.6623C291.709 94.9773 291.324 95.5373 291.149 96.1233C293.511 94.7853 295.942 93.4993 298.61 93.0013C298.024 94.2603 296.861 95.2233 295.522 95.5553C295.968 95.8443 295.819 96.5963 295.373 96.8843C294.927 97.1733 294.341 97.1203 293.825 97.0153C293.3 96.9103 292.758 96.7703 292.242 96.9013C291.787 97.0153 291.428 97.3653 291.254 97.7933C291.167 97.9853 291.123 98.1953 291.123 98.4053C291.123 98.5543 291.149 98.6853 291.193 98.8253C292.549 97.6883 294.718 97.6533 296.1 98.7643C296.634 99.1933 297.053 99.7523 297.622 100.137C298.252 100.557 299.074 100.749 299.555 101.344C300.027 101.948 299.695 103.155 298.952 102.997C298.926 103.373 299.319 103.644 299.687 103.714C300.054 103.784 300.457 103.758 300.789 103.924C301.559 104.326 301.419 105.568 300.745 106.111C300.072 106.653 299.136 106.697 298.27 106.706C295.996 106.741 293.643 106.759 291.562 105.831C290.582 105.402 289.699 104.764 288.684 104.405C287.678 104.046 286.454 104.011 285.631 104.702C285.246 105.026 284.993 105.48 284.625 105.83C283.742 106.678 282.246 106.792 281.249 106.084C280.427 105.489 280.025 104.387 280.217 103.39C279.272 104.343 278.468 105.445 277.89 106.644C278.389 108.061 278.887 109.495 279.386 110.912C279.552 111.376 279.71 111.83 279.876 112.285C280.357 113.676 281.144 115.303 282.605 115.399C284.459 115.521 286.313 113.003 287.783 115.277C288.063 115.714 288.15 116.239 288.15 116.764C288.141 117.796 289.558 119.091 290.319 118.286C290.232 117.543 290.153 116.747 290.494 116.073C290.835 115.408 291.771 114.997 292.366 115.461C292.768 115.776 292.847 116.344 292.873 116.843C292.908 117.586 292.873 118.339 292.777 119.073C292.55 120.831 291.85 122.659 290.363 123.604C289.2 124.339 287.538 124.863 288.483 126.42C288.702 126.761 289.585 126.368 289.83 126.7C290.381 127.47 289.996 128.283 290.075 129.193C290.224 131.126 292.419 132.097 293.617 133.619C295.279 135.718 294.929 138.727 295.751 141.281C297.422 146.503 303.999 149.853 303.632 155.319C303.483 157.444 302.443 160.112 304.192 161.337C305.364 162.15 306.965 161.573 308.259 160.97C310.682 159.85 313.113 158.722 315.545 157.594C316.533 157.139 317.583 156.623 318.09 155.652C318.353 155.145 318.44 154.55 318.807 154.113C319.349 153.474 320.285 153.387 321.081 153.125C322.874 152.521 324.072 150.833 324.973 149.163C325.944 147.352 326.705 145.428 327.247 143.443C327.387 142.918 327.518 142.367 327.387 141.834C326.915 139.901 323.53 139.717 323.355 137.732C323.285 136.901 323.862 136.166 324.133 135.379C324.404 134.592 324.107 133.429 323.276 133.437C322.777 134.906 322.235 136.437 321.124 137.513C320.004 138.598 318.115 139.052 316.891 138.099C315.981 137.399 315.684 136.184 315.063 135.221C314.118 133.734 312.404 132.833 311.582 131.276C310.76 129.719 311.967 127.095 313.594 127.769C314.39 130.717 316.41 133.305 319.087 134.792C320.74 134.232 322.332 133.48 323.819 132.553C324.562 131.958 325.542 133.069 325.621 134.014C325.7 134.967 325.551 136.122 326.321 136.673C326.715 136.962 327.239 136.979 327.729 136.979C331.735 136.979 335.732 136.515 339.624 135.597C338.828 137.924 340.971 140.722 343.429 140.548C343.132 141.501 342.178 142.21 341.181 142.219C341.662 143.155 342.169 144.134 343.027 144.764C343.884 145.385 345.187 145.525 345.94 144.781C346.648 144.09 346.745 142.804 347.663 142.42C348.73 141.974 349.788 143.312 349.701 144.467C349.614 145.622 348.888 146.61 348.503 147.703C347.725 149.933 348.451 152.382 349.168 154.63C350.559 158.968 352.002 163.42 354.845 166.989C355.868 166.027 356.892 165.074 357.915 164.111C359.297 164.347 359.341 166.333 358.903 167.653C358.457 168.991 358.046 170.784 359.244 171.51C360.32 172.157 361.763 171.116 361.999 169.892C362.235 168.659 361.675 167.443 361.133 166.315C360.424 164.872 359.725 163.42 359.025 161.968C358.78 161.469 358.526 160.936 358.57 160.376C358.605 159.895 358.841 159.466 359.042 159.029C359.672 157.621 359.873 156.012 359.593 154.49C363.345 152.583 366.485 149.487 368.418 145.744C368.715 145.184 368.995 144.589 369.511 144.213C371.05 143.093 373.639 144.668 375.004 143.33C376.902 144.039 378.503 145.49 379.404 147.31C380.06 148.64 380.672 150.406 382.15 150.52C379.885 151.447 378.345 153.914 378.52 156.354C380.803 156.931 383.322 154.771 383.094 152.436C383.986 151.929 385.167 152.55 385.639 153.459C386.111 154.369 386.059 155.453 385.998 156.468C385.823 159.556 385.639 162.634 385.464 165.713C385.412 166.631 385.377 167.62 385.884 168.381C386.365 169.098 387.275 169.501 387.607 170.305C388.106 171.486 387.109 172.973 387.756 174.083C388.106 174.669 388.797 174.931 389.33 175.342C390.467 176.217 390.852 177.747 391.674 178.928C392.496 180.109 394.394 180.879 395.286 179.75C393.388 178.263 392.172 175.936 392.05 173.522C392.024 172.971 392.041 172.394 391.814 171.895C391.534 171.265 390.931 170.854 390.423 170.391C387.449 167.671 387.816 162.974 388.42 158.986C389.802 161.006 392.015 162.432 394.429 162.852C393.65 164.453 394.324 166.595 395.872 167.47C395.977 165.904 397.149 164.47 398.662 164.059C399.318 163.875 400.018 163.867 400.639 163.595C402.502 162.79 402.703 160.271 402.607 158.251C402.572 157.455 402.528 156.624 402.1 155.959C401.383 154.866 399.931 154.612 398.794 153.965C396.756 152.81 395.759 150.09 396.581 147.886C397.394 145.691 399.922 144.274 402.222 144.737C402.983 145.069 402.642 146.276 401.977 146.775C401.312 147.274 400.403 147.571 400.097 148.349C399.66 149.416 400.954 150.606 402.083 150.361C403.211 150.125 403.937 148.927 404.016 147.772C404.086 146.618 403.666 145.498 403.246 144.413C405.677 144.946 408.354 144.089 410.025 142.253C410.497 141.737 410.917 141.133 411.521 140.784C412.702 140.093 414.39 140.469 415.361 139.498C416.104 138.755 416.052 137.565 416.279 136.542C416.708 134.635 418.177 133.175 419.052 131.434C419.909 129.693 420.766 127.017 420.303 125.093C419.971 123.694 419.245 122.425 418.746 121.078C418.387 120.125 418.143 119.136 418.011 118.122C417.959 117.711 417.924 117.256 418.116 116.889C418.457 116.233 419.297 116.076 419.927 115.691C420.863 115.114 421.353 113.898 421.073 112.84C418.475 113.706 415.432 113.05 413.429 111.178C414.006 110.058 415.292 109.534 416.403 108.939C417.523 108.353 418.686 107.391 418.633 106.123C419.341 106.123 420.041 106.123 420.741 106.114C420.793 107.268 420.251 108.432 419.342 109.14C420.304 109.971 421.747 109.184 422.884 108.589C424.012 107.994 425.901 107.994 426.041 109.262C426.172 110.478 424.327 111.3 424.58 112.498C425.874 112.061 427.256 113.784 426.557 114.956C426.365 115.271 426.058 115.577 426.111 115.944C426.172 116.39 426.697 116.565 427.091 116.784C428.184 117.361 428.657 118.866 428.097 119.968C428.858 119.373 429.619 118.787 430.38 118.193C430.555 118.893 431.342 119.365 432.051 119.208C432.751 119.042 433.241 118.255 433.083 117.555C432.934 116.864 432.296 116.383 432.086 115.718C431.771 114.712 432.488 113.593 432.138 112.596C431.867 111.818 431.036 111.406 430.362 110.917C429.689 110.427 429.085 109.544 429.487 108.818C429.732 108.372 430.257 108.188 430.685 107.926C432.828 106.597 433.283 102.809 435.802 102.722C436.309 102.704 436.808 102.862 437.306 102.792C438.74 102.591 439.239 100.85 439.912 99.5653C441.399 96.7053 444.863 95.3143 446.428 92.4893C447.626 90.3203 447.486 87.6703 448.195 85.2823C448.711 83.5503 449.691 81.7483 449.087 80.0433C448.335 77.9183 444.897 77.4983 443.655 79.3873C443.856 78.3203 444.057 77.2533 444.267 76.1773C443.515 78.6003 438.52 76.4133 442.868 74.0433C445.772 72.4693 448.369 70.3083 450.46 67.7543C451.168 66.8883 451.842 65.9523 452.769 65.3223C456.189 63.0133 460.894 65.8733 464.9 64.8673C465.04 65.2613 465.171 65.6543 465.311 66.0483C464.235 66.4943 463.168 66.9493 462.101 67.3953C464.358 68.4533 466.789 65.9433 469.282 66.0483C470.008 66.0743 471.058 66.0833 471.101 65.3663C470.427 65.2613 469.562 64.8943 469.684 64.2293C469.728 63.9843 469.903 63.7923 470.078 63.6173C470.725 62.9263 471.381 62.2443 472.037 61.5533C473.13 60.3983 474.897 59.1743 476.148 60.1713C477.093 60.9323 476.655 62.7603 475.466 63.0143C476.244 63.7923 477.565 63.0843 478.344 62.2973C479.122 61.5193 480.128 60.5743 481.16 60.9763C481.449 60.3993 481.449 59.6903 481.177 59.1133C482.008 58.6493 483.031 58.5443 483.932 58.8243C483.381 59.2883 483.005 59.9613 482.891 60.6783C482.812 61.1423 482.847 61.6143 482.707 62.0603C482.208 63.7223 479.987 63.9143 478.421 64.6753C475.657 66.0133 474.695 69.5563 472.211 71.3493C471.599 71.7953 470.908 72.1273 470.4 72.6873C469.307 73.8943 469.447 75.7753 469.954 77.3233C470.479 78.8713 471.31 80.3583 471.406 81.9853C471.424 82.2913 471.415 82.5973 471.388 82.8953C471.274 83.9803 472.604 84.5833 473.365 83.8133C473.549 83.6213 473.732 83.4373 473.916 83.2533C474.799 82.3433 475.718 81.4073 476.164 80.2183C476.47 79.3783 476.61 78.3553 477.388 77.9183C477.956 77.5943 478.665 77.7343 479.312 77.6213C479.959 77.5163 480.65 76.8603 480.327 76.2833C479.269 75.5313 479.452 73.6333 480.624 73.0823C481.114 73.3093 481.604 73.5463 482.093 73.7823C483.256 73.2483 481.498 71.3423 482.137 70.2313C482.382 69.8023 482.968 69.5403 482.95 69.0503C482.933 68.4383 482.067 68.3333 481.463 68.4293C481.061 66.4443 482.434 64.2663 484.393 63.7763C484.358 64.1873 484.323 64.6073 484.288 65.0183C485.259 64.4063 486.23 63.7933 487.2 63.1723C487.375 63.6443 487.541 64.1173 487.707 64.5983C488.87 65.2023 489.78 62.5513 490.987 63.0413C491.25 63.1553 491.424 63.3913 491.643 63.5663C492.509 64.2753 494.066 63.7323 494.302 62.6393C495.203 58.4933 500.241 58.3013 504.465 57.9513C505.444 57.8683 506.8 57.4403 506.572 56.4783ZM320.063 107.093C319.355 107.731 318.331 107.906 317.387 107.758C317.16 107.95 317.326 108.344 317.58 108.501C317.834 108.658 318.148 108.702 318.367 108.912C318.761 109.288 318.603 109.935 318.664 110.469C318.778 111.344 319.521 112.008 319.722 112.857C320.081 114.388 318.428 115.796 316.853 115.805C313.564 115.831 311.255 113.164 310.407 110.295C309.917 108.659 308.981 104.208 311.5 103.954C310.739 102.957 311.535 101.855 311.063 100.788C310.801 100.211 310.153 99.9313 309.716 99.4673C308.841 98.5403 308.973 96.9743 309.716 95.9343C310.459 94.8933 311.649 94.2813 312.839 93.8173C314.002 93.3623 315.314 93.0123 316.46 93.4853C317.615 93.9573 318.306 95.5933 317.448 96.4943C316.521 97.4653 314.623 96.9053 313.774 97.9553C313.24 98.6023 313.424 99.6253 313.958 100.273C314.5 100.92 315.305 101.279 316.083 101.585C316.52 101.76 316.993 101.961 317.168 102.39C317.439 103.028 316.888 103.676 316.538 104.27C316.197 104.873 316.267 105.923 316.958 105.923C317.631 105.914 317.736 104.961 318.112 104.401C318.637 103.614 319.992 103.736 320.517 104.532C321.034 105.318 320.763 106.464 320.063 107.093ZM402.166 76.5073C402.017 76.7963 401.834 77.0843 401.738 77.3993C401.633 77.7493 401.633 78.1253 401.546 78.4753C401.284 79.5243 400.313 80.2073 399.438 80.8453C398.826 81.2823 398.222 81.7723 397.855 82.4283C397.706 82.6993 397.601 82.9973 397.435 83.2683C396.569 84.7293 393.971 85.0263 395.607 82.9883C396.613 81.7203 398.117 79.8573 399.368 78.7553C399.797 78.3793 400.321 78.0643 400.61 77.5743C401.082 76.7693 400.82 75.7633 400.855 74.8363C400.881 73.9093 401.59 72.7983 402.482 73.0613C402.813 74.1893 402.7 75.4493 402.166 76.5073ZM290.325 60.3613C290.334 60.4573 290.334 60.5533 290.325 60.6583C290.299 61.0173 290.22 61.3583 290.106 61.6903C290.246 61.6993 290.377 61.6993 290.482 61.6903C290.692 61.2443 290.561 60.8073 290.325 60.3613ZM283.494 82.5513C285.156 82.4293 286.398 81.3793 287.22 79.9363C285.646 80.3123 284.098 81.0813 283.494 82.5513Z" fill="#CACACA" fill-opacity="0.1"/>
<path d="M296.5 93.3267C295.109 93.8867 293.491 93.8687 292.223 94.6647C291.707 94.9797 291.322 95.5397 291.147 96.1257C290.937 96.2397 290.727 96.3616 290.517 96.4756C286.826 98.5746 288.208 93.9567 284.753 93.9827C281.386 94.0087 282.356 99.6507 280.852 99.1517C280.467 100.009 281.097 101.033 280.826 101.933C280.73 102.248 280.537 102.519 280.398 102.816C280.311 103 280.249 103.192 280.214 103.393C279.269 104.346 278.465 105.448 277.887 106.647C277.843 106.516 277.8 106.393 277.756 106.262C276.934 105.449 275.43 106.314 275.167 107.434C274.905 108.554 275.394 109.699 275.727 110.801C276.059 111.903 276.173 113.25 275.351 114.063C274.922 114.491 274.223 114.789 274.844 115.769C275.063 116.128 275.5 116.268 275.92 116.206C276.812 116.075 277.573 117.728 276.698 117.78C275.089 117.972 273.908 116.284 273.401 114.736C272.902 113.197 272.553 111.404 271.197 110.511C270.532 110.074 269.631 109.864 269.308 109.138C268.766 107.922 270.34 106.497 269.763 105.298C269.195 104.126 267.288 104.555 266.299 103.689C265.468 102.946 265.582 101.52 264.777 100.759C264.366 100.365 263.797 100.217 263.273 100.016C261.611 99.3777 260.238 98.0477 259.547 96.4117C258.594 96.5867 258.734 98.0037 259.188 98.8607C260.937 102.132 263.719 104.843 267.034 106.514C265.958 107.056 265.425 108.281 264.987 109.409C264.313 111.088 263.649 112.776 262.984 114.464C261.97 114.342 260.911 114.193 260.098 113.581C259.285 112.969 258.847 111.718 259.451 110.905C260.562 111.981 262.713 111.596 263.378 110.205C264.043 108.797 262.993 106.89 261.454 106.715C262.101 104.878 260.037 103.269 258.218 102.578C256.399 101.887 254.168 101.013 253.95 99.0797C253.119 98.3367 251.781 98.7126 250.88 99.3596C249.979 100.016 249.227 100.917 248.168 101.275C247.119 101.634 245.623 101.03 245.684 99.9187C245.142 100.391 244.599 100.855 244.057 101.327C245.29 101.677 244.59 103.654 243.453 104.24C242.316 104.817 240.768 105.185 240.488 106.435C240.374 106.934 240.523 107.458 240.514 107.983C240.505 108.77 240.138 109.514 239.779 110.222C238.887 111.963 237.741 113.904 235.817 114.263C234.689 114.473 232.966 114.595 233.123 115.724C231.496 114.307 229.222 113.651 227.088 113.992C227.219 112.995 227.35 111.998 227.473 111.009C226.738 110.895 225.995 110.79 225.26 110.685C226.397 109.111 226.808 107.02 226.353 105.131C226.099 104.073 225.793 102.586 226.817 102.21C226.266 101.72 225.864 101.064 225.662 100.347C227.193 99.6736 228.977 99.6037 230.569 100.137C231.26 100.364 231.916 100.705 232.616 100.915C234.593 101.51 236.972 100.845 238.109 99.1307C239.246 97.4077 238.774 94.7317 236.963 93.7427C236.01 93.2267 234.855 93.1827 233.919 92.6227C233.001 92.0627 232.52 90.5237 233.447 89.9727C234.208 91.1357 235.957 91.4947 237.112 90.7337C236.57 89.8067 236.333 88.7127 236.439 87.6457C237.287 87.2957 238.381 88.1007 238.276 89.0187C239.78 89.0537 241.25 88.0217 241.731 86.5957C241.906 86.1057 241.976 85.5637 242.317 85.1617C242.772 84.6287 243.559 84.5497 244.215 84.3047C245.842 83.6927 246.804 81.7067 246.27 80.0627C248.369 79.0917 250.713 78.6547 253.013 78.7857C252.2 77.2817 251.36 75.6807 251.439 73.9667C251.518 72.2607 252.908 70.4947 254.605 70.6517C254.867 71.6487 254.85 72.7157 254.57 73.7127C255.069 73.8267 255.558 73.9316 256.057 74.0446C254.981 74.9366 253.888 76.6596 255.007 77.4996C255.899 78.1646 257.176 77.3077 258.269 77.5347C258.768 77.6397 259.196 77.9716 259.686 78.0856C261.899 78.6366 264.042 74.9977 265.913 76.3017C266.543 76.7387 266.796 77.6306 267.872 77.4996C268.467 77.4206 268.983 77.0447 269.272 76.5197C269.893 75.4437 269.692 74.2016 269.814 73.0126C269.919 71.9806 270.418 70.8347 271.423 70.5637C272.525 70.2667 273.583 71.1757 274.72 71.2987C276.636 71.5177 278.14 68.8846 276.977 67.3446C275.525 68.4556 273.662 69.0066 271.834 68.8576C271.292 67.9126 272.42 66.8896 273.408 66.4436C276.81 64.9306 280.667 64.4667 284.332 65.1317C284.988 64.5197 284.043 63.5577 283.239 63.1727C282.434 62.7967 281.542 61.7646 282.233 61.2046C279.819 60.2336 277.702 63.6187 275.096 63.7407C272.428 63.8717 270.88 60.3037 271.869 57.8197C272.866 55.3447 275.341 53.8316 277.659 52.5016C276.128 50.0966 272.123 49.9037 270.373 52.1517C270.592 53.9887 269.848 55.9127 268.449 57.1197C267.006 58.3617 264.653 59.4986 265.143 61.3446C265.572 62.9626 268.152 63.7406 267.802 65.3856C267.487 66.8986 265.012 66.9167 264.426 68.3417C264.006 69.3827 264.82 70.6596 264.321 71.6656C263.814 72.6806 262.37 72.7157 261.461 73.3977C260.84 73.8617 260.49 74.5957 259.922 75.1207C259.345 75.6367 258.304 75.8377 257.884 75.1817C257.473 74.5347 258.015 73.7386 258.313 73.0296C259.223 70.9396 257.911 68.6127 256.642 66.7147C254.07 66.5047 252.741 71.3677 250.353 70.3797C249.68 70.0997 249.286 69.4177 248.945 68.7707C248 67.0217 247.047 65.2376 246.688 63.2776C246.338 61.3186 246.679 59.1316 248.053 57.6976C249.881 55.7906 252.951 55.6776 254.98 53.9976C257.254 52.1176 257.805 48.6277 260.245 46.9747C261.706 45.9867 263.945 45.4527 264.12 43.6947C262.511 43.8257 260.901 43.9567 259.292 44.0887C260.027 42.7417 261.767 42.0417 263.219 42.5057C262.616 41.2107 264.111 39.8207 265.537 39.6197C266.963 39.4277 268.458 39.8387 269.831 39.4277C270.951 39.0867 271.843 38.2557 272.919 37.7917C273.846 37.3897 274.878 37.2927 275.893 37.2407C277.03 37.1887 278.176 37.1887 279.313 37.2407C277.074 39.2267 275.552 42.0426 276.199 44.8766C277.196 49.2406 282.864 52.8966 280.791 56.8596C282.741 56.4226 284.779 55.9937 286.712 56.4837C287.753 56.7377 288.759 57.3497 289.441 58.1717C289.345 58.9327 289.966 59.6497 290.324 60.3587C290.333 60.4547 290.333 60.5507 290.324 60.6557C290.298 61.0147 290.219 61.3557 290.105 61.6877C288.426 61.6267 284.481 60.8127 286.37 63.5677C287.21 62.5707 287.603 63.2087 288.574 63.1037C288.976 63.0597 289.352 62.6397 289.204 62.2637C289.423 62.2727 289.641 62.2817 289.86 62.2987C289.51 63.0507 289.038 63.7677 288.705 64.5207C287.314 67.6607 288.329 71.2637 288.443 74.6927C288.496 76.4507 288.093 78.4097 287.219 79.9317C287.429 79.8877 287.639 79.8437 287.849 79.8087C291.741 79.1437 296.184 80.1327 298.572 83.2807C300.952 86.4347 300.156 91.8487 296.5 93.3267Z" fill="#CACACA" fill-opacity="0.1"/>
<path d="M223.805 78.3014C223.799 79.2704 224.733 80.1465 224.475 81.0805C224.22 82.0035 222.913 82.4224 222.857 83.3784C222.794 84.4464 224.281 84.8314 225.33 84.6184C227.268 84.2244 229.033 83.0444 230.14 81.4054C230.681 80.6034 230.893 79.2275 229.98 78.9085C231.231 78.4695 232.481 78.0304 233.732 77.5904C234.714 78.4284 235.77 79.8385 234.96 80.8435C234.437 81.4915 233.207 81.9394 233.578 82.6854C233.729 82.9894 234.131 83.1414 234.202 83.4744C234.277 83.8254 233.943 84.1125 233.668 84.3435C232.484 85.3375 231.787 86.8864 231.83 88.4324C233.608 86.7904 236.053 85.8944 238.471 85.9984C239.037 86.0224 239.669 86.0795 240.102 85.7145C240.534 85.3495 240.343 84.4084 239.785 84.4994C240.462 84.0134 241.139 83.5274 241.816 83.0404C241.969 82.9304 242.128 82.8124 242.203 82.6404C242.378 82.2354 241.984 81.7944 241.567 81.6524C241.149 81.5104 240.683 81.5314 240.284 81.3444C239.401 80.9304 239.253 79.7754 238.948 78.8494C238.644 77.9234 237.558 76.9844 236.81 77.6094C236.998 76.7194 237.181 75.7645 236.83 74.9255C236.479 74.0865 235.359 73.5154 234.627 74.0564C234.204 73.4294 235.184 72.8494 235.698 72.2944C236.258 71.6904 236.247 70.6404 235.664 70.0584C235.081 69.4774 234.015 69.4784 233.445 70.0724C233.523 68.3584 233.886 66.2484 235.521 65.7264C235.97 65.5824 236.459 65.5914 236.905 65.4394C237.351 65.2864 237.777 64.8785 237.704 64.4125C237.782 64.9575 238.663 64.9864 238.99 64.5434C239.317 64.1004 239.248 63.4894 239.165 62.9454C237.893 62.5804 237.343 64.7244 236.082 65.1294C235.502 65.3154 234.839 65.0944 234.277 65.3294C232.946 65.8864 233.304 68.3634 231.913 68.7484C231.584 68.8394 231.221 68.7775 230.907 68.9125C230.274 69.1845 230.204 70.0595 230.358 70.7315C230.512 71.4035 230.784 72.1264 230.493 72.7514C230.333 73.0944 230.005 73.4354 230.138 73.7894C230.313 74.2574 231.001 74.1315 231.473 74.2985C232.66 74.7195 232.012 76.1144 231.397 76.6644C230.627 77.3524 229.329 77.1725 228.421 77.0465C227.057 76.8545 223.822 75.6634 223.805 78.3014Z" fill="#CACACA" fill-opacity="0.1"/>
<path d="M253.547 106.122C253.386 105.988 253.224 105.854 253.063 105.72C253.565 105.6 253.9 105.079 253.929 104.563C253.958 104.047 253.737 103.547 253.448 103.12C253.101 102.606 252.5 102.124 251.914 102.326C251.169 102.583 251.157 103.64 251.407 104.387C251.657 105.134 252.01 106.007 251.556 106.651C251.834 106.585 252.144 106.674 252.345 106.878C251.261 107.574 251.006 109.786 252.608 109.916C254.206 110.045 254.52 107.992 252.904 107.619C252.935 107.518 253.564 106.136 253.547 106.122Z" fill="#CACACA" fill-opacity="0.1"/>
<path d="M434.862 123.443C434.951 122.58 435.041 121.575 435.77 121.104C436.004 121.702 436.442 122.218 436.994 122.545C437.492 122.258 437.763 121.708 438.053 121.212C438.343 120.716 438.739 120.206 439.306 120.113C439.873 120.02 440.511 120.653 440.213 121.144C441.694 121.729 442.678 119.571 444.052 118.766C444.777 118.342 445.657 118.31 446.471 118.102C447.285 117.894 448.144 117.375 448.259 116.543C448.326 116.057 448.12 115.574 448.104 115.084C448.07 114.037 448.872 113.181 449.388 112.269C450.289 110.677 450.33 108.632 449.495 107.005C449.042 106.123 448.347 105.346 448.123 104.38C447.899 103.414 448.459 102.154 449.45 102.168C449.724 103.011 450.092 103.956 450.92 104.271C451.748 104.586 452.858 103.533 452.258 102.88C453.189 102.624 454.167 102.538 455.128 102.63C455.534 102.032 455.437 101.146 454.912 100.65C457.951 99.5904 460.566 97.4994 462.571 94.9814C459.801 96.7024 457.032 98.4234 454.262 100.143C453.934 100.347 453.543 100.558 453.183 100.42C452.855 100.295 452.696 99.9344 452.53 99.6244C451.784 98.2244 450.216 97.3044 448.631 97.3364C448.76 98.6604 448.888 99.9844 449.017 101.308C448.074 101.136 447.218 102.023 447 102.957C446.782 103.891 447 104.863 447.079 105.818C447.357 109.177 445.768 112.631 443.035 114.604C443.024 114.061 443.013 113.519 443.002 112.976C441.558 113.187 442.219 115.881 440.92 116.543C440.554 116.73 440.121 116.694 439.713 116.737C437.677 116.951 437.71 119.044 435.509 118.21C435.291 120.882 431.895 120.411 432.14 123.101C432.345 125.375 434.487 127.109 434.862 123.443Z" fill="#CACACA" fill-opacity="0.1"/>
<path d="M452.712 81.1648C452.748 81.3578 452.783 81.5558 452.753 81.7508C452.695 82.1238 452.408 82.4218 452.303 82.7838C452.12 83.4148 452.527 84.0658 453.001 84.5198C453.474 84.9748 454.048 85.3558 454.35 85.9388C454.856 86.9138 454.496 88.2468 455.222 89.0708C454.996 89.6308 454.146 89.4608 453.655 89.1098C453.163 88.7588 452.558 88.2988 452.027 88.5868C451.402 89.4878 451.749 90.7288 452.243 91.7088C452.737 92.6878 453.378 93.6888 453.279 94.7808C453.233 95.2948 452.843 95.8888 452.341 95.7688C452.148 95.7228 451.995 95.5798 451.852 95.4418C451.176 94.7898 450.462 94.0648 450.335 93.1348C450.242 92.4578 450.48 91.7848 450.65 91.1228C451 89.7578 451.068 88.3218 450.848 86.9298C450.754 86.3328 450.607 85.7368 450.629 85.1328C450.67 84.0128 451.261 82.7678 450.608 81.8558C450.404 81.5708 450.076 81.2538 450.229 80.9398C450.508 80.3678 451.748 79.2928 452.187 78.8428C452.47 79.5698 452.567 80.3798 452.712 81.1648Z" fill="#CACACA" fill-opacity="0.1"/>
<path d="M382.052 175.858C382.967 176.532 384.107 177.015 384.642 178.018C385.055 178.792 385.055 179.8 385.691 180.404C386.032 180.727 386.506 180.879 386.852 181.197C387.661 181.942 387.482 183.25 387.871 184.278C388.423 185.735 390.122 186.6 390.444 188.125C390.554 188.646 390.491 189.209 390.717 189.691C391.149 190.611 392.389 190.806 393.082 191.549C393.423 191.915 393.612 192.396 393.905 192.802C394.732 193.949 396.45 194.338 397.691 193.659C397.25 192.983 397.001 192.183 396.983 191.376C396.972 190.9 397.039 190.418 396.948 189.951C396.728 188.821 395.65 188.027 395.352 186.915C395.858 186.544 396.52 187.089 396.898 187.59C397.276 188.091 397.908 188.655 398.435 188.316C397.474 187.06 396.377 185.908 395.169 184.888C395.264 185.345 394.65 185.682 394.212 185.523C393.774 185.363 393.51 184.927 393.281 184.52C393.109 184.214 392.931 183.884 392.963 183.535C392.99 183.243 393.161 182.982 393.213 182.694C393.322 182.089 392.887 181.514 392.391 181.15C391.895 180.787 391.309 180.541 390.876 180.104C390.014 179.232 389.868 177.719 388.789 177.135C388.274 176.856 387.644 176.859 387.122 176.593C385.498 175.764 385.186 173.361 383.33 172.62C380.695 171.565 380.139 174.448 382.052 175.858Z" fill="#CACACA" fill-opacity="0.1"/>
<path d="M398.295 194.047C397.909 194.586 397.522 195.125 397.136 195.664C397.052 195.781 396.965 195.908 396.966 196.052C396.969 196.453 397.542 196.512 397.94 196.457C399.196 196.284 400.484 196.348 401.716 196.644C403.796 197.143 405.775 198.3 407.911 198.166C408.235 198.146 408.561 198.095 408.881 198.143C409.227 198.195 409.546 198.358 409.881 198.458C410.657 198.688 411.531 198.559 412.207 198.114C411.633 197.559 410.733 197.6 409.937 197.541C409.141 197.482 408.194 197.118 408.098 196.325C408.072 196.11 408.116 195.888 408.062 195.678C407.947 195.232 407.435 195.01 406.975 194.983C406.515 194.956 406.049 195.059 405.597 194.972C404.833 194.826 404.25 194.119 403.492 194.014C402.726 193.908 402.388 194.491 401.77 194.52C400.494 194.581 399.487 192.384 398.295 194.047Z" fill="#CACACA" fill-opacity="0.1"/>
<path d="M416.36 198.573C417.03 198.587 417.686 199.115 418.314 198.883C418.473 198.824 418.618 198.719 418.787 198.704C418.996 198.686 419.187 198.81 419.377 198.898C421.217 199.747 423.33 197.323 425.217 198.06C424.777 199.85 422.41 200.415 421.479 202.006C423.084 201.771 424.596 200.953 425.672 199.739C425.965 199.409 426.233 199.044 426.605 198.808C426.819 198.672 427.059 198.584 427.271 198.446C427.768 198.122 428.068 197.519 428.026 196.927C427.478 196.914 426.928 197.049 426.448 197.314C426.093 197.51 425.766 197.78 425.37 197.871C424.71 198.022 424.056 197.641 423.386 197.546C421.971 197.346 420.61 198.819 419.321 198.575C418.816 198.479 418.552 197.907 417.906 197.744C417.384 197.613 416.553 197.837 415.962 197.753C415.302 197.659 413.942 196.99 413.444 197.693C411.978 199.766 415.997 198.566 416.36 198.573Z" fill="#CACACA" fill-opacity="0.1"/>
<path d="M416.001 200.537C416.285 200.22 416.829 200.419 417.109 200.739C417.389 201.059 417.565 201.483 417.927 201.707C418.29 201.932 418.8 201.884 419.114 201.595C419.299 201.425 419.417 201.15 419.321 200.917C419.225 200.681 418.958 200.572 418.717 200.487C418.483 200.405 418.248 200.322 418.014 200.24C417.604 200.095 417.174 199.949 416.742 200.008C416.311 200.067 415.884 200.402 415.877 200.837" fill="#CACACA" fill-opacity="0.1"/>
<path d="M404.517 188.118C403.744 188.2 402.731 188.268 402.431 187.55C402.255 187.127 402.454 186.65 402.465 186.193C402.484 185.442 402 184.787 401.654 184.12C401.047 182.953 400.829 181.589 401.041 180.292C401.095 179.963 401.183 179.623 401.412 179.382C401.558 179.228 401.749 179.127 401.936 179.029C402.656 178.651 403.375 178.273 404.095 177.895C405.038 177.4 405.982 176.904 406.867 176.312C409.075 174.835 410.882 172.765 412.046 170.376C412.449 169.948 413.195 170.35 413.464 170.873C413.733 171.396 413.801 172.038 414.215 172.455C414.851 173.095 416.24 173.237 416.134 174.133C416.092 174.487 415.792 174.743 415.546 175.002C414.685 175.909 414.329 177.267 414.634 178.48C414.94 179.693 415.898 180.72 417.086 181.11C415.997 181.215 414.595 181.64 414.591 182.734C414.589 183.422 415.2 184.149 414.823 184.725C414.43 185.325 413.378 185.044 412.913 185.59C412.539 186.028 412.772 186.686 412.851 187.256C413.048 188.682 411.943 190.161 410.52 190.376C409.92 190.467 409.219 190.304 408.916 189.778C408.757 189.502 408.732 189.169 408.602 188.878C408.079 187.708 407.297 188.412 406.527 188.401C405.992 188.392 405.236 188.042 404.517 188.118Z" fill="#CACACA" fill-opacity="0.1"/>
<path d="M425.735 179.742C425.862 179.699 425.99 179.657 426.117 179.614C425.845 179.434 425.477 179.491 425.212 179.679C424.947 179.868 424.758 180.143 424.541 180.386C423.789 181.226 422.63 181.683 421.507 181.583C420.801 181.52 420.097 181.252 419.402 181.386C418.548 181.551 417.903 182.313 417.65 183.145C417.522 183.564 417.644 184.202 418.081 184.167C418.324 183.419 419.004 182.869 419.754 182.631C420.504 182.393 421.315 182.432 422.089 182.572C422.696 182.681 423.309 182.852 423.92 182.772C424.532 182.692 425.157 182.273 425.23 181.66C425.283 181.216 425.046 180.739 425.236 180.334C425.401 179.982 425.869 179.669 425.685 179.327C425.485 179.365 425.935 179.703 425.735 179.742Z" fill="#CACACA" fill-opacity="0.1"/>
<path d="M416.335 189.625C416.616 190.89 417.208 192.212 416.749 193.424C417.258 193.655 417.868 193.224 418.04 192.693C418.212 192.162 418.077 191.586 417.946 191.043C417.814 190.5 417.689 189.92 417.877 189.394C417.92 189.273 417.996 189.144 418.122 189.116C418.184 189.102 418.249 189.116 418.31 189.134C418.999 189.331 419.471 189.987 419.688 190.67C419.905 191.353 419.92 192.081 420.018 192.791C420.079 193.234 420.202 193.717 420.573 193.966C421.185 194.376 422.056 193.828 422.286 193.128C422.516 192.428 422.33 191.671 422.232 190.941C422.095 189.928 422.02 188.706 421.123 188.216C420.754 188.014 420.239 187.923 420.12 187.52C419.977 187.037 420.551 186.663 421.035 186.52C421.475 186.391 421.926 186.297 422.381 186.241C422.924 186.174 423.628 186.02 423.683 185.476C423.74 184.91 423.025 184.628 422.465 184.533C421.79 184.418 421.104 184.304 420.425 184.391C419.746 184.479 419.064 184.801 418.705 185.384C418.629 185.507 418.558 185.649 418.425 185.704C418.237 185.781 418.026 185.641 417.915 185.471C417.804 185.301 417.748 185.097 417.62 184.939C416.155 183.129 416.226 189.133 416.335 189.625Z" fill="#CACACA" fill-opacity="0.1"/>
<path d="M428.535 188.359C427.789 188.183 426.999 188.201 426.262 188.411C426.129 188.449 425.973 188.523 425.967 188.661C425.96 188.809 426.127 188.897 426.27 188.935C426.978 189.128 427.758 189.047 428.411 188.712C428.312 188.421 427.927 188.269 427.656 188.416" fill="#CACACA" fill-opacity="0.1"/>
<path d="M431.736 187.966C431.362 187.774 430.874 187.829 430.553 188.1C430.231 188.371 430.095 188.842 430.221 189.243C430.966 189.432 431.721 188.551 432.433 188.842C432.9 189.033 433.137 189.675 433.641 189.702C434.07 189.725 434.374 189.122 434.1 188.791C433.869 188.511 433.429 188.514 433.15 188.283C432.642 187.862 432.957 187.047 433.304 186.486C432.737 186.363 432.313 187.028 432.239 187.603C432.206 187.856 432.202 188.122 432.084 188.349C431.967 188.576 431.686 188.746 431.454 188.639" fill="#CACACA" fill-opacity="0.1"/>
<path d="M428.564 184.461C428.556 184.668 428.551 184.885 428.646 185.07C428.74 185.255 428.969 185.388 429.159 185.304C429.302 185.241 429.374 185.084 429.434 184.939C429.627 184.474 429.819 183.94 429.603 183.486C429.506 183.282 429.333 183.116 429.258 182.902C429.036 182.266 429.807 181.919 430.302 181.969C430.185 181.164 429.5 181.734 429.498 180.859C429.498 180.726 431.009 180.148 429.752 179.937C428.111 179.66 428.604 183.393 428.564 184.461Z" fill="#CACACA" fill-opacity="0.1"/>
<path d="M435.366 183.459C434.608 183.517 433.777 183.496 433.182 183.022C432.62 183.489 432.989 184.462 433.607 184.85C434.226 185.239 434.998 185.307 435.64 185.656C436.282 186.006 436.764 186.892 436.298 187.454C436.812 187.587 437.326 187.721 437.839 187.854C437.958 188.337 437.41 188.685 436.995 188.959C436.58 189.233 436.243 189.909 436.675 190.156C436.875 190.585 437.515 190.515 437.931 190.289C438.347 190.062 438.792 189.736 439.244 189.874C439.538 189.964 439.737 190.229 439.953 190.449C440.862 191.374 442.247 191.597 443.412 192.167C444.577 192.737 445.629 194.119 444.999 195.252C444.76 195.681 444.33 195.964 444.006 196.332C443.682 196.7 443.468 197.268 443.747 197.672C444.771 197.742 445.817 197.415 446.619 196.774C447.443 197.657 448.417 198.481 449.598 198.738C450.779 198.994 452.191 198.509 452.652 197.393C452.743 197.172 452.805 196.921 452.99 196.768C453.25 196.555 453.633 196.626 453.956 196.717C454.949 196.997 455.919 197.357 456.854 197.793C457.033 197.876 457.223 197.975 457.307 198.153C457.429 198.411 457.28 198.707 457.24 198.989C457.092 200.036 458.385 200.64 459.427 200.824C460.838 201.074 462.271 201.203 463.704 201.21C463.752 200.491 462.976 200 462.273 199.842C461.57 199.684 460.781 199.662 460.247 199.179C459.617 198.61 459.558 197.581 458.897 197.049C458.401 196.65 457.527 196.386 457.661 195.764C457.805 195.097 458.976 195.185 459.201 194.541C459.34 194.143 458.993 193.721 458.599 193.572C458.205 193.423 457.768 193.45 457.354 193.371C456.318 193.175 455.466 192.246 455.36 191.197C455.32 190.8 455.373 190.381 455.212 190.016C454.968 189.464 454.33 189.223 453.755 189.038C450.697 188.052 447.639 187.066 444.581 186.08C444.142 185.938 443.664 185.797 443.229 185.949C442.055 186.36 442.137 188.47 440.913 188.693C440.278 188.809 439.716 188.301 439.271 187.835C438.834 187.378 438.206 186.72 438.15 186.051C438.111 185.591 438.581 185.19 438.536 184.784C438.362 183.224 436.572 183.367 435.366 183.459Z" fill="#CACACA" fill-opacity="0.1"/>
<path d="M459.147 193.105C459.233 193.24 459.398 193.298 459.552 193.341C460.826 193.692 462.23 193.548 463.406 192.944C463.785 192.75 464.155 192.506 464.578 192.461C464.855 192.432 465.136 192.491 465.413 192.461C465.69 192.432 465.989 192.274 466.041 192C466.092 191.731 465.895 191.421 466.054 191.198C466.22 190.965 466.628 191.056 466.812 190.836C467.017 190.592 466.772 190.236 466.54 190.016C465.596 189.125 464.679 188.162 463.67 187.354C463.58 188.628 464.509 190.095 463.513 191.186C462.936 191.82 458.846 192.635 459.147 193.105Z" fill="#CACACA" fill-opacity="0.1"/>
<path d="M471.677 197.079C472.141 197.232 472.632 197.302 473.085 197.484C473.539 197.666 473.972 197.994 474.107 198.464C474.105 198.443 474.103 198.421 474.1 198.4C473.94 197.148 472.667 196.366 471.538 195.776C471.39 195.699 471.233 195.613 471.154 195.465C471.105 195.372 469.595 196.39 471.677 197.079Z" fill="#CACACA" fill-opacity="0.1"/>
<path d="M484.951 221.305C484.837 220.786 484.655 220.267 484.311 219.862C483.967 219.457 483.435 219.182 482.908 219.254C482.456 220.246 483.241 221.378 484.141 221.994C484.775 222.427 485.494 222.704 486.208 222.949C485.307 223.101 485.101 221.992 484.951 221.305Z" fill="#CACACA" fill-opacity="0.1"/>
<path d="M487.913 212.251C488.331 213.267 488.633 214.331 488.81 215.415C489.313 215.128 489.454 214.362 489.086 213.915C489.446 214.235 489.45 214.781 489.533 215.256C489.749 216.5 490.736 217.576 491.957 217.897C492.145 217.532 491.99 217.073 491.727 216.757C491.464 216.441 491.108 216.218 490.81 215.935C490.249 215.401 489.906 214.644 489.876 213.871C489.849 213.174 489.976 212.29 489.365 211.953C489.259 212.255 489.154 212.556 489.048 212.858C488.873 212.84 488.758 212.667 488.69 212.505C488.267 211.494 488.695 210.046 487.74 209.312C487.593 209.759 487.307 210.225 486.814 210.285C486.806 211.009 487.629 211.559 487.913 212.251Z" fill="#CACACA" fill-opacity="0.1"/>
<path d="M475.674 197.403C476.373 197.701 477.271 197.589 477.8 198.135C478.321 198.672 478.209 199.585 478.652 200.189C478.86 200.474 479.175 200.663 479.402 200.933C479.629 201.203 479.752 201.629 479.523 201.898C479.237 202.234 478.644 202.026 478.424 201.644C478.205 201.262 478.225 200.795 478.171 200.357C478.117 199.919 477.93 199.434 477.512 199.292C477.11 199.156 476.577 199.368 476.296 199.05C476.202 198.944 476.165 198.801 476.114 198.668C475.708 197.592 474.332 197.06 474.093 195.97C474.642 196.391 474.975 197.105 475.674 197.403Z" fill="#CACACA" fill-opacity="0.1"/>
<path d="M434.743 195.604C434.041 196.201 433.405 196.876 432.851 197.613C433.272 197.82 433.825 197.71 434.136 197.359C434.447 197.008 434.488 196.446 434.232 196.053" fill="#CACACA" fill-opacity="0.1"/>
<path d="M439.393 192.674C439.806 192.985 440.179 193.426 440.193 193.943C440.207 194.46 439.697 194.989 439.206 194.826C439.302 194.085 439.397 193.344 439.493 192.604" fill="#CACACA" fill-opacity="0.1"/>
<path d="M434.938 203.917C434.574 203.155 433.503 202.838 432.783 203.28C433.411 203.804 433.471 204.873 432.905 205.464C432.616 205.766 432.216 205.934 431.885 206.189C430.793 207.033 430.745 208.908 431.794 209.806C431.287 210.069 430.78 210.332 430.272 210.596C429.916 209.262 428.896 208.123 427.61 207.622C425.858 208.72 424.554 210.51 424.045 212.513C423.842 212.548 423.638 212.584 423.435 212.619C423.341 213.211 423.248 213.804 423.155 214.396C422.704 213.794 422.522 212.999 422.666 212.261C421.609 212.471 421.013 213.596 420.722 214.634C420.432 215.672 420.258 216.821 419.494 217.581C418.934 218.138 418.147 218.388 417.392 218.62C416.233 218.975 415.074 219.331 413.916 219.686C412.96 219.979 411.92 220.336 411.404 221.192C410.986 221.886 410.718 222.995 409.914 222.898C409.575 222.857 409.31 222.578 408.979 222.494C408.296 222.322 407.685 223.075 407.656 223.779C407.626 224.483 407.959 225.144 408.142 225.825C408.325 226.506 408.309 227.345 407.755 227.781C408.398 227.82 409.061 228.071 409.441 228.592C409.821 229.113 409.82 229.927 409.33 230.346C408.841 230.765 407.913 230.526 407.801 229.891C409.211 233.733 410.207 237.726 410.767 241.78C410.996 243.437 411.13 245.222 410.326 246.689C411.722 247.741 413.76 247.851 415.262 246.956C416.104 246.454 416.769 245.68 417.65 245.25C419.184 244.501 421.045 244.935 422.679 244.44C424.176 243.987 425.394 242.781 426.934 242.51C428.096 242.305 429.39 242.642 430.408 242.045C430.889 241.763 431.241 241.303 431.704 240.993C432.222 240.646 432.853 240.505 433.475 240.469C435.946 240.328 438.477 242.029 439.034 244.44C439.173 245.043 439.199 245.677 439.436 246.249C439.673 246.821 440.212 247.336 440.829 247.281C440.984 245.392 442.779 243.79 444.673 243.849C444.764 244.457 444.328 245.015 443.865 245.419C443.402 245.824 442.863 246.191 442.622 246.757C442.381 247.323 442.651 248.153 443.264 248.197C443.575 247.61 444.003 247.085 444.517 246.664C445.481 247.522 445.027 249.412 443.778 249.738C444.976 249.383 446.673 249.264 447.074 250.447C447.187 250.782 447.151 251.146 447.185 251.498C447.361 253.326 449.273 254.395 450.948 255.148C451.288 255.301 451.653 255.458 452.021 255.396C452.654 255.29 452.992 254.619 453.361 254.093C453.729 253.567 454.484 253.108 454.967 253.531C455.385 253.897 455.212 254.62 455.543 255.066C455.991 255.67 456.991 255.347 457.482 254.777C457.973 254.207 458.264 253.443 458.9 253.041C460.084 252.294 462.231 252.877 462.581 251.522C462.771 250.785 462.151 250.106 461.949 249.373C461.633 248.226 462.374 247.055 463.225 246.224C464.076 245.392 465.101 244.675 465.606 243.598C466.449 241.798 465.564 239.656 465.904 237.697C466.244 235.731 467.802 233.776 466.986 231.954C466.666 231.239 466.016 230.702 465.747 229.967C465.487 229.257 465.595 228.395 465.112 227.814C464.806 227.446 464.327 227.277 463.938 226.997C462.648 226.067 462.613 224.209 462.12 222.697C461.222 219.943 458.638 218.151 456.851 215.871C456.521 215.45 456.211 214.997 456.069 214.481C455.904 213.881 455.979 213.245 455.93 212.625C455.811 211.115 454.902 209.69 453.583 208.946C453.295 208.784 452.979 208.643 452.777 208.381C452.49 208.009 452.506 207.497 452.491 207.028C452.435 205.261 451.734 203.521 450.549 202.209C449.765 206.088 448.981 209.966 448.197 213.845C447.743 214.191 447.189 214.406 446.62 214.457C446.394 213.466 446.167 212.475 445.941 211.485C444.823 211.542 443.649 211.589 442.644 211.094C441.64 210.6 440.904 209.367 441.354 208.342C441.599 207.782 442.154 207.159 441.789 206.669C442.79 207.045 443.664 205.42 442.931 204.642C441.777 203.417 440.515 205.193 439.325 205.129C437.846 205.05 436.525 202.984 434.938 203.917Z" fill="#CACACA" fill-opacity="0.1"/>
<path d="M456.189 264.399C456.18 264.686 456.172 265.036 456.418 265.183C456.517 265.242 456.637 265.252 456.752 265.26C457.595 265.317 458.658 265.205 458.946 264.411C459.177 263.773 458.739 263.035 458.975 262.399C459.053 262.189 459.197 262.013 459.32 261.826C459.627 261.36 459.807 260.775 459.658 260.237C459.509 259.699 458.957 259.259 458.408 259.364C458.108 259.422 457.854 259.623 457.558 259.701C456.609 259.95 453.886 257.919 454.121 260.196C454.195 260.91 455.18 261.471 455.544 262.053C455.98 262.751 456.214 263.576 456.189 264.399Z" fill="#CACACA" fill-opacity="0.1"/>
<path d="M487.605 268.388C486.973 268.597 486.279 268.688 485.751 269.092C485.222 269.496 484.985 270.387 485.501 270.807C485.898 271.129 486.489 270.998 486.976 271.154C488.067 271.503 488.166 272.987 488.054 274.127C488.819 274.454 489.649 273.785 490.072 273.069C490.495 272.353 490.785 271.493 491.492 271.055C491.953 270.77 492.557 270.692 492.898 270.271C493.378 269.678 493.062 268.79 493.239 268.048C493.686 266.187 496.366 266.025 497.082 264.209C497.579 262.947 498.489 260.477 496.996 260.217C493.271 259.565 490.833 267.32 487.605 268.388Z" fill="#CACACA" fill-opacity="0.1"/>
<path d="M499.332 261.514C499.331 261.613 499.332 261.719 499.384 261.802C499.516 262.009 499.843 261.926 500.033 261.771C501.126 260.875 500.464 258.962 501.304 257.824C501.581 257.448 501.994 257.201 502.36 256.911C503.534 255.979 504.257 254.503 504.273 253.004C503.732 253.298 503.177 253.596 502.567 253.681C501.958 253.766 501.273 253.595 500.908 253.099C500.46 252.489 500.61 251.593 500.186 250.966C499.697 250.244 498.641 250.14 498.053 249.496C497.514 248.905 497.501 248.027 497.379 247.237C497.257 246.447 496.849 245.546 496.057 245.438C494.49 247.235 497.568 249.488 497.968 251.022C498.351 252.493 497.593 252.906 497.004 254.141C496.391 255.426 495.982 256.44 497.201 257.439C497.985 258.081 498.632 257.101 499.314 258.29C499.707 258.974 499.34 260.754 499.332 261.514Z" fill="#CACACA" fill-opacity="0.1"/>
<path d="M417.347 153.85C417.261 154.101 417.173 154.358 417.178 154.624C417.194 155.534 418.244 156.152 418.321 157.059C418.352 157.42 418.22 157.777 418.222 158.139C418.224 158.501 418.445 158.92 418.807 158.924C419.12 158.927 419.338 158.631 419.561 158.412C419.785 158.193 420.2 158.053 420.375 158.312C420.453 158.427 420.445 158.577 420.432 158.715C420.336 159.686 420.071 160.639 419.654 161.521C420.177 161.729 420.789 161.39 421.079 160.908C421.369 160.426 421.417 159.841 421.457 159.28C421.477 159.001 421.495 158.709 421.383 158.452C421.213 158.065 420.795 157.859 420.52 157.539C420.008 156.944 420.062 156.036 420.348 155.305C420.634 154.574 421.115 153.931 421.405 153.202C421.48 153.012 421.543 152.808 421.514 152.606C421.483 152.396 421.357 152.216 421.264 152.025C421.035 151.553 421.01 151.011 420.91 150.496C420.033 145.99 417.619 153.059 417.347 153.85Z" fill="#CACACA" fill-opacity="0.1"/>
<path d="M425.963 160.867C426.059 161.702 425.708 162.575 425.061 163.112C424.915 163.233 424.751 163.343 424.661 163.509C424.353 164.079 425.071 164.622 425.587 165.013C427.21 166.241 427.407 168.943 425.98 170.393C425.846 170.53 425.697 170.66 425.613 170.832C425.531 171.001 425.519 171.196 425.517 171.384C425.507 172.236 425.659 173.09 425.963 173.887C425.118 174.31 424.063 173.612 423.741 172.724C423.419 171.836 423.604 170.855 423.759 169.923C423.817 169.577 423.862 169.192 423.665 168.901C423.347 168.43 422.575 168.526 422.177 168.931C421.779 169.336 421.644 169.922 421.486 170.467C421.327 171.012 421.092 171.592 420.595 171.867C420.217 169.971 421.771 167.924 423.699 167.78C424.121 167.748 424.568 167.79 424.945 167.599C425.322 167.407 425.547 166.846 425.235 166.56C424.867 166.572 424.721 166.082 424.754 165.716C424.787 165.35 424.848 164.903 424.551 164.686C424.247 164.464 423.801 164.694 423.599 165.012C423.398 165.33 423.334 165.719 423.137 166.04C422.84 166.522 422.234 166.792 421.677 166.69C421.646 165.851 422.145 165.015 422.898 164.643C422.229 164.407 421.539 164.026 421.279 163.366C421.018 162.706 421.476 161.774 422.183 161.831C422.435 162.48 422.687 163.128 422.94 163.776C423.488 164.119 424.262 163.774 424.582 163.211C424.901 162.648 424.876 161.957 424.786 161.316C425.501 161.682 426.321 160.675 426.028 159.928C425.86 159.499 425.464 159.203 425.067 159.146C425.518 159.603 425.888 160.22 425.963 160.867Z" fill="#CACACA" fill-opacity="0.1"/>
<path d="M318.746 36.7897C319.233 36.4427 318.863 35.6007 318.296 35.4107C317.729 35.2207 317.113 35.4067 316.515 35.4247C315.917 35.4427 315.196 35.1597 315.132 34.5657C315.113 34.3897 315.157 34.2127 315.226 34.0497C315.643 33.0587 316.82 32.6637 317.588 31.9117C318.784 30.7417 318.889 28.8167 319.938 27.5127C321.39 25.7097 324.133 25.6317 325.993 24.2517C326.577 23.8187 327.065 23.2617 327.672 22.8597C329.245 21.8187 331.285 21.9917 333.17 21.9417C335.64 21.8757 338.097 21.3527 340.38 20.4077C339.896 22.6967 337.156 23.5537 334.888 24.1257C333.362 24.5107 331.851 24.9567 330.36 25.4607C328.463 26.1017 326.564 26.8577 325.012 28.1217C323.46 29.3867 322.282 31.2407 322.253 33.2427C322.238 34.2937 323.495 36.5647 322.798 37.3787C321.98 38.3357 319.642 37.1897 318.746 36.7897Z" fill="#CACACA" fill-opacity="0.1"/>
<path d="M376.505 10.0617C375.933 10.2447 375.362 10.4277 374.79 10.6107C375.317 11.4227 376.408 11.8197 377.334 11.5357C378.303 11.2387 379.247 10.2897 380.157 10.7367C380.393 11.1737 379.856 11.6077 379.42 11.8457C378.985 12.0837 378.521 12.6487 378.875 12.9967C378.961 13.0807 379.078 13.1237 379.192 13.1607C381.187 13.8007 383.463 13.2567 385.372 14.1217C385.973 14.3937 386.556 14.8087 387.215 14.7797C387.874 14.7507 388.491 13.9177 388.036 13.4397C387.739 13.1277 387.134 13.1227 387.015 12.7097C386.798 11.9507 388.587 11.6447 388.237 10.9367C386.943 10.9767 385.65 11.0167 384.356 11.0567C383.916 11.0707 383.378 11.0277 383.188 10.6317C383.08 10.4077 383.122 10.1227 382.973 9.92269C382.791 9.67869 382.43 9.68469 382.127 9.71569C381.444 9.78469 380.76 9.85369 380.076 9.92269C381.573 9.77169 383.532 8.97569 385.033 8.61169C383.041 6.35769 377.284 6.62969 376.505 10.0617Z" fill="#CACACA" fill-opacity="0.1"/>
<path d="M394.58 13.3474C394.548 12.5064 393.386 12.1374 392.626 12.4984C391.866 12.8594 391.408 13.6314 390.892 14.2964C390.274 15.0934 389.524 15.7774 388.778 16.4574C390.738 16.2044 392.697 15.9514 394.657 15.6994C395.414 15.6014 396.322 15.3844 396.549 14.6554C395.788 14.1374 394.9 13.8104 393.985 13.7094" fill="#CACACA" fill-opacity="0.1"/>
<path d="M445.971 25.2324C446.221 25.0824 446.449 24.8854 446.728 24.8044C447.845 24.4804 448.801 26.1284 449.933 25.8604C450.411 25.7474 450.749 25.3134 451.208 25.1384C452.283 24.7294 453.481 25.8534 454.5 25.1604C455.829 24.2574 455.257 23.4834 454.211 23.0754C453.251 22.7004 451.764 23.0954 450.683 22.7854C449.882 22.5554 449.189 22.1124 448.43 21.7884C446.647 21.0264 443.823 19.7504 442.61 22.0504C441.52 24.1164 443.938 26.4524 445.971 25.2324Z" fill="#CACACA" fill-opacity="0.1"/>
<path d="M461.797 24.6706C461.005 24.0226 460.086 23.5296 459.108 23.2306C458.969 23.1876 458.826 23.1486 458.68 23.1556C458.159 23.1786 457.83 23.8266 457.998 24.3216C458.165 24.8166 458.675 25.1266 459.188 25.2256C459.701 25.3236 460.228 25.2516 460.749 25.2166C461.844 25.1416 462.95 25.2296 464.02 25.4776C464.221 24.7926 463.546 24.1026 462.839 24.0076C462.131 23.9126 461.439 24.2246 460.793 24.5296" fill="#CACACA" fill-opacity="0.1"/>
<path d="M451.728 28.6523C451.12 28.3613 450.47 28.1603 449.805 28.0563C449.452 28.0013 448.931 28.1453 449.018 28.4923C449.055 28.6413 449.201 28.7323 449.336 28.8053C450.248 29.3003 451.218 29.6893 452.22 29.9613C452.683 30.0873 453.325 30.0993 453.481 29.6463C453.59 29.3283 453.359 28.9943 453.099 28.7813C452.466 28.2623 451.573 28.0803 450.788 28.3093" fill="#CACACA" fill-opacity="0.1"/>
<path d="M256.944 14.3066C257.796 14.8076 258.831 14.9016 259.71 15.3526C260.74 15.8796 261.499 16.9076 261.7 18.0466C261.823 18.7446 261.762 19.5116 262.15 20.1046C262.713 20.9656 264.064 21.0266 264.885 20.4056C265.705 19.7846 266.046 18.6926 266.042 17.6636C266.038 16.8556 265.897 15.9176 266.477 15.3536C266.726 15.1116 267.065 14.9926 267.394 14.8826C268.037 14.6676 268.715 14.4576 269.384 14.5726C270.053 14.6866 270.699 15.2336 270.685 15.9126C270.668 16.7306 269.752 17.4896 270.114 18.2236C271.408 18.2056 272.703 18.1876 273.997 18.1696C274.445 17.7166 274.13 16.9016 273.601 16.5466C273.072 16.1916 272.409 16.1116 271.826 15.8536C271.244 15.5956 270.696 15.0076 270.859 14.3916C271.104 13.4636 272.423 13.5806 273.382 13.6146C275.938 13.7066 278.299 11.2966 278.152 8.74156C275.881 8.39456 274.759 10.8786 272.875 11.5276C271.318 12.0636 270.465 11.1576 269.039 11.2916C267.52 11.4346 267.159 12.4046 265.985 12.6856C264.161 13.1216 262.848 12.2186 260.96 11.9676C259.487 11.7706 253.085 12.0366 256.944 14.3066Z" fill="#CACACA" fill-opacity="0.1"/>
<path d="M234.054 3.46154C232.61 5.96454 230.163 7.86954 227.382 8.65554C226.071 9.02654 224.613 9.19853 223.624 10.1345C223.011 10.7145 222.665 11.5135 222.336 12.2905C221.687 13.8185 221.027 15.3925 220.992 17.0515C220.956 18.7115 221.692 20.4975 223.186 21.2215C221.104 22.2515 220.9 25.6945 222.846 26.9635C222.052 28.9455 218.726 27.8385 217.156 29.2855C215.937 30.4105 216.409 32.4255 217.144 33.9135C217.879 35.4005 218.811 37.0645 218.219 38.6145C215.987 37.7445 213.754 36.8735 211.522 36.0035C210.679 37.8235 213.102 40.0795 214.857 39.1095C213.168 42.1485 208.662 41.5495 205.497 42.9875C202.118 44.5225 200.3 48.4705 196.884 49.9215C195.203 50.6355 193.291 50.6665 191.616 51.3955C189.941 52.1245 188.494 54.0575 189.282 55.7055C189.438 56.0315 189.678 56.3525 189.636 56.7105C189.591 57.0875 189.253 57.3485 188.964 57.5945C186.22 59.9335 186.189 64.0865 186.381 67.6865C185.403 68.4185 184.022 67.4245 183.484 66.3275C182.945 65.2315 182.667 63.8855 181.635 63.2325C180.607 62.5815 179.228 62.8925 178.103 62.4295C177.077 62.0065 176.42 61.0135 175.826 60.0755C174.713 58.3175 173.601 56.5585 172.488 54.8005C171.551 53.3195 170.592 51.7825 170.331 50.0505C170.069 48.3175 170.694 46.3235 172.25 45.5165C173.349 44.9465 175.135 44.0845 174.339 43.1375C174.161 42.9255 173.888 42.8245 173.627 42.7315C171.61 42.0145 169.593 41.2975 167.575 40.5805C168.36 38.1495 171.177 36.5775 173.658 37.1865C174.572 35.7275 172.459 34.1255 170.738 34.1535C169.016 34.1815 167.097 34.8075 165.7 33.8005C167 31.9885 166.932 29.4225 165.885 27.4535C164.838 25.4845 162.952 24.0675 160.911 23.1675C160.001 22.7665 159.034 22.4535 158.04 22.4385C156.469 22.4155 154.964 23.1365 153.393 23.1465C151.169 23.1605 149.139 21.7185 147.864 19.8965C146.589 18.0745 145.936 15.9005 145.303 13.7685C147.094 14.7585 149.456 14.8145 151.122 13.6245C152.788 12.4355 153.473 9.93154 152.385 8.19754C154.649 7.69054 156.914 7.18353 159.178 6.67653C159.751 6.54853 160.336 6.41453 160.832 6.10153C161.466 5.70053 161.892 5.04553 162.466 4.56453C163.567 3.64253 165.086 3.44653 166.513 3.28753C170.334 2.86253 174.156 2.43754 177.977 2.01254C178.711 1.93054 179.466 1.85054 180.18 2.04054C182.058 2.54054 183.761 4.81654 185.447 3.84854C185.514 3.10854 185.293 2.34553 184.839 1.75753C186.988 0.769533 189.471 1.07253 191.836 1.10653C196.602 1.17653 201.318 0.0735352 206.083 0.00353522C210.759 -0.0654648 215.447 0.876531 219.733 2.74653C218.299 3.73753 216.662 4.43254 214.953 4.77554C216.069 4.70554 217.2 4.89854 218.23 5.33254C217.409 4.98654 213.696 7.91654 213.105 8.44454C215.125 10.0145 219.564 6.76553 221.652 5.76953C225.605 3.88653 229.642 2.80954 234.054 3.46154Z" fill="#CACACA" fill-opacity="0.1"/>
<path d="M226.887 54.4033C225.817 54.8413 224.817 55.4483 223.934 56.1943C223.116 56.8863 222.202 57.7593 221.151 57.5493C220.085 57.3353 219.582 56.1483 219.114 55.1663C218.646 54.1843 217.697 53.1263 216.668 53.4803C217.227 52.8073 217.787 52.1333 218.346 51.4603C217.013 51.2663 215.681 51.0723 214.348 50.8773C214.022 50.8293 213.667 50.7663 213.453 50.5163C212.953 49.9323 213.699 49.0673 214.436 48.8493C216.095 48.3593 217.922 49.1043 219.168 50.3043C219.689 50.8063 220.352 51.4413 221.019 51.1593C221.46 50.9723 221.648 50.4633 221.943 50.0863C222.65 49.1823 223.971 49.0633 225.112 49.1963C227.038 49.4213 230.883 48.0093 231.635 50.3143C232.478 52.8993 228.435 53.7693 226.887 54.4033Z" fill="#CACACA" fill-opacity="0.1"/>
<path d="M60.94 36.6574C55.901 38.7544 50.674 40.8434 45.217 40.7764C42.851 40.7474 40.511 40.3114 38.185 39.8764C33.128 38.9314 28.018 37.9704 23.313 35.8894C22.056 35.3334 20.793 34.6894 19.421 34.6054C17.888 34.5114 16.407 35.1314 15.031 35.8134C10.861 37.8824 7.04096 40.6564 3.78296 43.9824C7.17196 44.5154 10.322 46.4324 12.353 49.1974C10.752 49.9744 8.59296 49.2604 7.77196 47.6804C5.62196 47.0564 3.11696 48.7564 2.90396 50.9854C2.69096 53.2144 4.82896 55.3584 7.05796 55.1524C7.84896 54.1034 9.07196 53.3904 10.375 53.2204C10.989 54.2534 11.602 55.2874 12.216 56.3204C11.145 57.6134 9.26196 57.7474 7.62496 58.1174C5.98796 58.4884 4.14396 59.6424 4.33296 61.3104C4.64796 64.0894 9.98396 64.3244 9.74996 67.1104C9.82896 66.1644 20.86 65.4274 15.525 71.7604C14.689 72.7524 13.432 73.4704 12.14 73.3564C12.499 74.3724 12.418 75.6364 11.618 76.3594C10.818 77.0824 9.24996 76.8214 8.99896 75.7744C8.14396 77.6014 5.78796 78.0344 3.78096 78.2324C3.54296 79.0394 3.30496 79.8474 3.06796 80.6544C2.90596 79.6474 1.57496 79.0514 0.705955 79.5854C-0.163045 80.1194 -0.24504 81.5534 0.54496 82.1984C1.27996 82.7984 2.34996 82.6534 3.28196 82.4764C3.62996 82.4104 4.02696 82.3074 4.17696 81.9874C4.26896 81.7904 4.24096 81.5624 4.24796 81.3444C4.28296 80.2844 5.21096 79.4444 6.20196 79.0674C7.19396 78.6914 8.27796 78.6494 9.31096 78.4084C11.018 78.0104 12.558 77.0744 13.924 75.9754C15.411 74.7784 16.749 73.3614 18.434 72.4664C19.08 72.1234 19.769 71.8614 20.391 71.4764C24.965 68.6404 22.048 63.7304 28.815 62.8864C28.911 63.8254 28.266 64.7864 27.361 65.0544C29.529 66.6564 31.901 61.6124 34.441 62.5164C35.157 62.7714 35.62 63.4524 36.235 63.8974C37.376 64.7224 38.901 64.6644 40.303 64.7834C45.889 65.2584 50.984 69.4004 52.59 74.7714C55.033 74.0504 57.067 76.6604 58.283 78.8984C60.291 82.5934 62.298 86.2894 64.306 89.9844C65.581 92.3304 66.867 94.7073 67.53 97.2943C68.477 100.994 68.096 104.929 68.981 108.644C69.866 112.359 72.727 116.139 76.545 116.038C77.164 121.859 78.868 127.563 81.545 132.769C80.24 134.093 82.34 136.056 84.125 136.575C85.91 137.094 88.261 138.417 87.481 140.105C89.587 137.762 86.906 134.228 84.341 132.397C81.777 130.566 78.767 127.534 80.372 124.822C81.247 123.94 82.779 124.969 83.191 126.141C83.603 127.313 83.566 128.701 84.393 129.627C85.118 130.438 86.291 130.643 87.227 131.198C90.619 133.212 89.907 138.934 93.19 141.121C94.389 141.92 95.966 142.106 97.005 143.103C97.752 143.82 98.099 144.844 98.587 145.756C100.311 148.979 103.779 150.804 107.048 152.441C108.001 152.918 108.954 153.395 109.908 153.873C115.367 156.606 120.826 159.339 126.285 162.072C126.81 162.335 127.416 162.603 127.962 162.387C130.206 161.499 125.623 157.508 127.529 156.029C124.848 154.736 122.167 153.444 119.486 152.151C121.159 150.657 121.381 147.811 119.959 146.076C120.947 145.842 121.767 145.005 121.979 144.012C120.798 142.784 118.637 143.8 117.72 145.235C116.803 146.671 116.434 148.476 115.198 149.648C112.4 152.301 107.449 149.486 106.367 145.785C105.285 142.084 106.523 138.161 106.936 134.327C107.103 132.778 107.234 131.013 108.46 130.052C111.264 127.856 115.393 132.487 118.646 131.039C119.892 130.485 120.626 129.159 121.799 128.465C123.822 127.269 126.573 128.378 127.974 130.265C129.375 132.152 129.768 134.579 130.12 136.903C130.782 137.989 132.622 136.789 132.519 135.521C132.416 134.253 131.371 133.304 130.682 132.235C128.922 129.506 129.72 125.446 132.382 123.586C134.748 121.932 138.646 121.285 138.799 118.403C138.898 116.54 137.128 115.013 137.055 113.148C136.991 111.507 138.233 110.141 139.392 108.978C142.668 105.689 145.943 102.4 149.219 99.1114C149.988 98.3394 150.918 97.5063 152.001 97.6283C153.084 97.7503 153.687 99.5404 152.657 99.8954C156.519 100.044 161.694 99.1124 162.004 95.2604C160.444 96.6284 158.593 97.6624 156.61 98.2734C156.404 96.4394 156.942 94.5314 158.077 93.0754C156.639 90.5964 153.197 89.9144 150.461 90.7674C147.725 91.6204 145.532 93.6374 143.438 95.5944C146.583 91.8834 150.792 88.7744 155.624 88.2094C157.444 87.9964 159.395 88.1234 160.978 87.2004C163.181 85.9164 165.13 82.6814 167.35 83.9354C165.729 86.7794 164.108 89.6234 162.488 92.4674C164.236 92.3374 165.984 92.2074 167.731 92.0774C168.441 93.2894 168.787 94.7104 168.715 96.1124C170.853 95.9634 173.795 94.5544 172.84 92.6354C172.355 91.6604 171.088 91.4153 170.246 90.7253C167.932 88.8293 169.734 84.9334 168.575 82.1754C167.995 80.7964 166.73 79.8534 165.572 78.9044C160.654 74.8734 156.799 69.5584 154.496 63.6314C153.934 65.0384 153.317 66.5184 152.101 67.4224C150.885 68.3264 148.877 68.3404 148.076 67.0544C147.637 66.3484 147.662 65.4594 147.434 64.6604C146.916 62.8504 145.187 61.7044 143.583 60.7184C141.637 59.5214 139.344 58.2794 137.185 59.0254C135.026 59.7714 134.525 63.6584 136.782 64.0164C134.68 64.0924 134.749 67.3584 135.947 69.0874C137.146 70.8164 138.831 72.9694 137.682 74.7314C136.663 76.2934 134.081 76.1404 133.055 77.6974C132.066 79.1984 133.141 81.1324 133.893 82.7654C134.645 84.3984 134.625 86.9664 132.862 87.3154C131.356 87.6134 130.264 85.8684 129.982 84.3594C129.539 81.9834 129.852 79.4074 128.742 77.2614C127.632 75.1144 124.067 74.1034 122.95 76.2464C122.337 74.0624 120.567 72.2404 118.402 71.5644C116.642 71.0144 114.683 71.1814 113.011 70.4014C110.511 69.2354 109.389 66.3594 108.496 63.7494C111.76 61.8834 115.238 59.7824 116.692 56.3164C117.083 55.3834 117.339 54.3384 118.078 53.6474C118.743 53.0254 119.689 52.8034 120.429 52.2724C121.169 51.7414 121.641 50.5734 120.976 49.9514C121.935 49.3654 123.107 49.1394 124.215 49.3254C126.11 51.8964 120.299 56.2764 123.035 57.9234C124.51 58.8114 126.104 56.9874 126.866 55.4444C128.058 55.9254 129.25 56.4054 130.442 56.8864C131.979 55.6374 130.174 53.2494 128.413 52.3424C126.652 51.4354 124.422 49.8024 125.305 48.0294C126.881 48.0014 128.457 47.9724 130.033 47.9444C130.132 46.4394 129.133 44.9284 127.709 44.4294C128.52 43.1784 129.332 41.9264 130.143 40.6754C129.406 39.8634 128.21 39.4994 127.145 39.7614C130.336 39.2914 133.452 38.3164 136.341 36.8824C138.706 39.5814 140.931 42.4034 143.005 45.3314C143.338 45.8014 143.68 46.3174 143.668 46.8924C143.641 48.1494 142.122 48.6864 141.024 49.3004C139.926 49.9134 139.263 51.8614 140.482 52.1724C140.315 53.1024 138.919 53.0934 138.134 52.5694C137.349 52.0444 136.627 51.2204 135.684 51.2744C133.901 51.3774 134.194 54.5214 135.9 55.0524C137.606 55.5834 139.349 54.4824 140.797 53.4364C144.13 56.4434 148.103 58.7364 152.374 60.1174C150.651 59.7584 149.395 57.8894 149.714 56.1584C151.714 56.7344 153.619 57.6384 155.33 58.8234C156.783 57.0554 154.921 54.4874 153.017 53.2194C151.112 51.9514 148.727 50.3814 149.027 48.1124C151.526 48.0504 154.005 49.4764 155.209 51.6664C156.156 50.3204 157.104 48.9734 158.051 47.6264C156.979 44.0844 150.147 45.1694 149.435 41.5374C149.298 40.8364 149.436 40.0324 148.997 39.4694C148.314 38.5934 146.949 39.0224 145.839 38.9884C141.955 38.8674 139.604 32.3624 136.019 33.8634C137.517 31.0574 133.256 27.5054 130.765 29.4834C132.134 29.9914 133.622 30.6984 134.12 32.0704C134.619 33.4424 133.165 35.3184 131.891 34.6034C130.604 33.8804 131.218 31.8414 130.508 30.5474C129.644 28.9714 127.04 29.2854 125.993 30.7464C124.946 32.2074 125.077 34.1984 125.496 35.9464C124.631 35.9254 123.766 35.9034 122.902 35.8824C122.712 33.4364 123.188 30.9424 124.265 28.7374C123.251 27.2254 120.948 28.6774 119.833 30.1164C118.661 31.6284 117.453 33.2154 117.088 35.0924C116.722 36.9704 117.489 39.2174 119.278 39.8934C120.426 40.3274 121.752 40.0504 122.894 40.5004C125.506 41.5294 124.477 46.4044 121.671 46.2904C120.804 44.8654 120.297 43.2244 120.209 41.5584C118.857 41.9544 117.597 42.6584 116.55 43.6014C115.179 40.2164 113.271 37.0494 110.92 34.2554C111.479 33.1744 112.038 32.0934 112.597 31.0124C114.847 31.9974 117.731 29.5874 117.163 27.1974C115.293 26.6734 113.328 26.1454 111.434 26.5734C109.539 27.0004 107.787 28.7324 108.051 30.6564C108.21 31.8104 109.029 32.7684 109.331 33.8934C109.634 35.0184 108.958 36.5904 107.808 36.4014C107.208 39.1354 113.001 39.2004 113.26 41.9884C113.442 43.9434 110.789 44.7124 108.826 44.6854C109.4 46.5694 109.311 48.6484 108.579 50.4764C107.106 47.7124 107.912 43.9404 110.385 42.0184C108.9 39.7364 105.467 39.0174 103.191 40.5114C104.042 41.8124 105.39 42.7794 106.894 43.1684C106.1 44.0894 105.306 45.0094 104.512 45.9304C102.792 44.6934 100.436 45.6644 98.321 45.7854C96.206 45.9064 93.635 43.5704 95.129 42.0684C93.857 41.2984 92.132 41.0364 90.923 41.9024C89.715 42.7684 89.614 44.9684 90.962 45.5954C88.152 46.3174 83.494 41.1494 81.461 45.1094C80.188 41.0814 78.141 39.8804 74.108 39.6734C71.432 39.5364 63.495 37.5544 62.129 39.8044C62.008 39.5184 60.887 36.6804 60.94 36.6574Z" fill="#CACACA" fill-opacity="0.1"/>
<path d="M68.377 26.0905C66.854 26.2535 66.005 27.9615 65.81 29.4805C65.615 30.9995 65.763 32.6315 65.015 33.9685C64.83 34.2985 64.59 34.6125 64.531 34.9855C64.361 36.0535 65.747 36.7365 66.815 36.5665C69.927 36.0695 71.881 31.8165 74.988 32.3455C75.019 33.1795 75.05 34.0135 75.08 34.8475C77.126 34.8655 79.175 34.5685 81.132 33.9725C81.728 34.3585 81.394 35.3715 80.758 35.6865C80.122 36.0015 79.369 35.8955 78.663 35.9605C77.956 36.0255 77.151 36.4085 77.075 37.1145C78.441 36.7185 79.87 36.3185 81.267 36.5855C82.664 36.8525 84.001 38.0145 83.955 39.4355C81.974 39.3465 79.985 39.4185 78.016 39.6515C79.1 40.9385 81.067 40.7865 82.741 40.9675C84.414 41.1485 86.401 42.4895 85.81 44.0655C88.077 41.6765 91.859 40.8755 94.9 42.1395C95.66 42.4555 96.381 42.8885 97.188 43.0505C97.995 43.2125 98.949 43.0265 99.4 42.3385C99.851 41.6505 99.402 40.4815 98.58 40.5085C99.646 40.3615 100.581 39.5135 100.83 38.4665C98.996 39.0625 96.789 38.0465 96.049 36.2665C95.378 34.6515 95.776 32.5755 94.573 31.3065C95.622 31.6225 96.667 30.3735 96.413 29.3075C96.159 28.2415 95.011 27.5745 93.915 27.5475C93.193 27.5295 92.421 27.7695 91.995 28.3525C91.569 28.9355 91.648 29.8915 92.273 30.2515C91.428 29.8405 90.584 29.4285 89.739 29.0175C89.403 31.0855 93.467 32.3195 92.514 34.1855C91.906 35.3745 89.838 34.6245 89.593 33.3115C89.432 32.4475 89.631 31.2975 88.84 30.9155C87.331 30.1865 86.23 33.8875 84.788 33.0345C84.879 32.2045 84.97 31.3745 85.06 30.5445C83.201 30.3965 81.291 31.0675 79.934 32.3465C80.103 31.5425 80.271 30.7385 80.44 29.9335C78.424 28.8145 76.424 32.7785 74.246 32.0255C76.342 32.7505 81.032 28.6565 77.343 26.9235C76.459 26.5075 74.613 27.1565 73.631 27.0875C71.905 26.9635 70.11 25.9055 68.377 26.0905Z" fill="#CACACA" fill-opacity="0.1"/>
<path d="M77.541 17.5096C76.11 16.7946 74.369 17.5706 73.156 18.6126C71.942 19.6546 70.933 20.9906 69.483 21.6666C68.797 21.9866 67.986 22.1836 67.561 22.8106C69.969 22.7776 72.375 22.6146 74.766 22.3226C74.631 23.1356 74.224 23.8996 73.624 24.4646C74.744 24.8736 75.677 23.4636 75.83 22.2816C75.878 21.9136 75.922 21.4976 76.215 21.2706C76.45 21.0876 76.773 21.0866 77.067 21.0386C78.081 20.8756 78.973 19.9136 78.849 18.8936C78.725 17.8736 77.386 17.1566 76.559 17.7656" fill="#CACACA" fill-opacity="0.1"/>
<path d="M85.061 24.2144C85.356 24.0564 85.518 23.6844 85.432 23.3604C83.936 23.4094 82.511 22.1664 82.356 20.6784C81.504 20.1344 80.202 20.5574 79.833 21.4984C79.464 22.4394 80.131 23.6344 81.125 23.8154C79.675 24.4354 78.225 25.0554 76.775 25.6754C79.544 27.1684 82.831 23.9174 85.909 24.5694C85.908 24.9414 85.906 25.3134 85.905 25.6854C84.577 25.7014 83.268 26.3144 82.404 27.3234C84.696 27.5274 87.049 26.9544 88.99 25.7194C89.539 25.3704 90.084 24.9584 90.728 24.8674C91.294 24.7874 91.859 24.9664 92.425 25.0464C93.763 25.2354 95.46 24.4774 95.412 23.1264C94.509 22.8244 93.545 22.7064 92.596 22.7824C92.305 21.0274 90.112 19.8884 88.509 20.6614C88.536 21.8704 89.099 23.0584 90.02 23.8424C89.11 24.6384 87.688 24.7824 86.637 24.1834C86.138 23.8994 85.679 23.4544 85.105 23.4514C84.489 23.4484 83.688 23.8934 83.375 23.3624" fill="#CACACA" fill-opacity="0.1"/>
<path d="M86.786 15.4517C84.528 15.1827 82.196 15.5707 80.147 16.5557C81.254 17.0557 82.362 17.5547 83.469 18.0547C83.721 18.1687 83.983 18.2847 84.26 18.2797C84.504 18.2757 84.736 18.1777 84.961 18.0807C86.028 17.6217 87.096 17.1637 88.163 16.7047C87.978 16.4337 87.793 16.1637 87.608 15.8927C88.084 16.2157 88.803 15.7457 88.834 15.1717C88.865 14.5967 88.381 14.0927 87.831 13.9217C87.281 13.7517 86.686 13.8447 86.126 13.9777C85.475 14.1327 84.836 14.3407 84.218 14.5977C84.543 15.2797 85.185 15.8017 85.918 15.9807C85.93 16.2497 85.942 16.5187 85.953 16.7887" fill="#CACACA" fill-opacity="0.1"/>
<path d="M102.571 15.7893C102.08 15.8143 101.788 15.2313 101.766 14.7403C101.744 14.2493 101.85 13.7203 101.608 13.2923C101.012 12.2403 99.398 13.0193 98.204 12.8273C97.494 12.7133 96.9099 12.2173 96.2359 11.9673C95.5619 11.7163 94.606 11.8573 94.412 12.5493C94.195 13.3243 95.1429 13.9463 95.9469 13.9623C96.7509 13.9783 97.58 13.6923 98.344 13.9463C98.487 13.9943 98.629 14.0643 98.719 14.1843C99.286 14.9423 97.2459 15.4963 97.4339 16.4243C97.5269 16.8803 98.098 17.0233 98.56 17.0723C99.247 17.1463 99.934 17.2193 100.621 17.2933C101.336 17.3703 102.128 17.4263 102.703 16.9953C103.278 16.5633 103.292 15.4463 102.594 15.2723" fill="#CACACA" fill-opacity="0.1"/>
<path d="M106.206 23.0405C106.607 22.5725 106.362 21.7925 105.86 21.4335C105.358 21.0745 104.703 21.0295 104.087 21.0255C102.288 21.0135 100.487 21.2455 98.7499 21.7115C98.2119 21.8565 97.653 22.0245 97.108 21.9085C96.563 21.7925 96.0579 21.2725 96.1799 20.7295C95.4349 21.5665 96.3309 22.9575 97.4129 23.2465C98.4949 23.5355 99.641 23.2015 100.759 23.2615C101.877 23.3215 103.159 24.0905 103.041 25.2045C103.013 25.4705 102.907 25.7495 103.016 25.9935C103.147 26.2845 103.52 26.3725 103.839 26.3575C105.328 26.2875 106.467 24.5325 105.925 23.1445C105.567 23.2005 105.185 22.9925 105.036 22.6625C105.689 22.4055 106.2 21.8135 106.358 21.1295C105.143 20.6705 103.727 20.7805 102.597 21.4215" fill="#CACACA" fill-opacity="0.1"/>
<path d="M105.574 29.2014C106.193 28.7514 105.784 27.6454 105.05 27.4284C104.316 27.2114 103.541 27.6004 102.935 28.0674C102.897 28.6964 102.858 29.3254 102.82 29.9554C102.094 29.8014 101.308 29.9544 100.692 30.3694C101.765 30.6564 102.646 31.5704 102.891 32.6544C101.87 33.3544 100.252 32.8634 99.7929 31.7134C99.5799 31.1784 99.5029 30.4594 98.9559 30.2824C98.1819 30.0314 97.7299 31.2574 98.0869 31.9884C99.0319 33.9214 101.909 33.7954 103.515 35.2274C104.092 35.7424 104.968 36.4774 105.458 35.8784C105.847 35.4024 105.341 34.7284 104.87 34.3324C105.439 34.4044 106.044 34.4564 106.56 34.2074C107.076 33.9584 107.434 33.2934 107.154 32.7934C107.009 32.5334 106.735 32.3784 106.503 32.1914C105.652 31.5054 105.343 30.2254 105.788 29.2264C105.481 29.0974 105.175 28.9674 104.868 28.8384" fill="#CACACA" fill-opacity="0.1"/>
<path d="M133.754 24.0746C131.81 22.9066 129.398 22.5466 127.198 23.0956C125.608 23.4926 124.122 24.3406 122.487 24.4556C120.097 24.6226 117.811 23.1236 116.508 21.1136C118.319 19.8726 120.968 22.3066 122.876 21.2216C123.426 20.9086 123.808 20.3406 124.386 20.0846C124.976 19.8226 125.657 19.9316 126.292 20.0456C129.348 20.5926 132.405 21.1406 135.461 21.6876C135.821 20.3806 134.704 18.8866 133.348 18.8616C134.949 18.2166 136.551 17.5716 138.152 16.9266C138.96 16.6016 139.825 16.2276 140.265 15.4756C140.705 14.7236 140.393 13.5046 139.529 13.3956C143.216 12.1126 146.788 10.5006 150.19 8.58362C149.848 7.99162 149.505 7.39962 149.163 6.80762C151.528 7.05162 153.979 6.32762 155.833 4.83862C153.178 4.61962 150.485 4.87162 147.917 5.57862C152.334 6.13562 156.907 5.39262 160.921 3.46662C159.479 2.20962 156.854 3.84562 155.434 2.56462C155.008 2.18062 154.797 1.60062 154.363 1.22562C153.829 0.76462 153.07 0.700616 152.366 0.662616C145.158 0.276616 137.919 0.480617 130.744 1.27262C129.56 1.40362 128.067 1.86062 127.999 3.04962C126.281 2.97862 124.563 2.90762 122.845 2.83662C121.609 4.50162 119.175 5.14762 117.276 4.31562C116.847 4.99662 116.417 5.67762 115.988 6.35962C117.188 7.18662 118.688 7.56662 120.137 7.41262C121.023 9.23762 123.893 9.63762 125.245 8.12362C125.846 10.1916 128.938 9.80362 130.773 8.67562C132.607 7.54762 134.963 6.10762 136.681 7.40562C134.399 9.17162 131.474 10.0866 128.593 9.93662C129.315 10.8056 130.036 11.6736 130.758 12.5426C128.988 12.6526 127.418 11.5266 125.869 10.6616C124.321 9.79662 122.291 9.18862 120.86 10.2366C122.154 11.2916 123.447 12.3476 124.741 13.4026C121.176 11.5256 117.612 9.64762 114.047 7.76962C113.002 7.21962 111.794 6.65462 110.687 7.06562C109.58 7.47662 109.247 9.41062 110.386 9.72162C109.503 9.88362 108.742 10.5876 108.514 11.4566C110.626 11.6266 112.703 12.2136 114.591 13.1746C113.702 13.4596 112.814 13.7456 111.925 14.0306C113.955 14.6916 115.985 15.3526 118.015 16.0146C118.429 16.1496 118.901 16.2796 119.282 16.0696C119.665 15.8576 119.803 15.3886 120.017 15.0056C120.655 13.8626 122.293 13.4226 123.417 14.0926C123.159 14.7056 122.902 15.3186 122.644 15.9306C123.603 15.9366 124.562 15.9416 125.521 15.9476C125.537 16.4736 125.553 17.0006 125.569 17.5266C126.96 17.7416 128.39 17.7016 129.767 17.4096C129.263 19.2746 126.556 19.4386 124.868 18.4996C123.18 17.5606 121.849 15.9516 119.99 15.4256C120.583 16.8126 121.533 18.0456 122.724 18.9726C120.244 18.5736 117.663 18.8196 115.303 19.6816C115.072 19.1846 114.842 18.6866 114.611 18.1896C112.67 18.9946 112.963 21.8036 113.595 23.8066C113.781 24.3946 113.975 24.9986 114.365 25.4766C115.249 26.5596 116.828 26.6846 118.226 26.7256C120.329 26.7856 122.432 26.8466 124.535 26.9066C127.461 26.9876 133.867 28.3636 133.754 24.0746Z" fill="#CACACA" fill-opacity="0.1"/>
<path d="M110.686 21.8137C111.262 21.4157 112.305 21.7517 112.571 21.1047C112.771 20.6167 112.25 20.1527 111.791 19.8937C111.331 19.6357 110.784 19.2347 110.91 18.7227C110.5 18.7807 110.071 18.6917 109.718 18.4767C110.597 18.2457 111.476 18.0137 112.355 17.7827C112.69 17.6947 113.115 17.3917 112.917 17.1077C112.849 17.0107 112.727 16.9687 112.612 16.9397C112.067 16.7997 111.474 16.7817 110.996 16.4857C110.518 16.1897 110.25 15.4467 110.667 15.0687C110.366 15.0417 110.064 15.0147 109.763 14.9877C109.75 14.7477 109.737 14.5087 109.724 14.2697C108.166 14.2277 106.609 14.1007 105.065 13.8887C104.839 14.9307 105.842 16.0417 106.902 15.9237C107.073 15.9047 107.263 15.8637 107.405 15.9617C107.531 16.0487 107.569 16.2147 107.635 16.3527C107.834 16.7657 108.385 16.9647 108.802 16.7737C108.68 17.0747 108.473 17.3397 108.212 17.5327C108.715 17.7997 109.268 17.9737 109.834 18.0407C109.388 18.3947 108.86 18.6447 108.304 18.7657C108.533 18.9517 108.763 19.1377 108.992 19.3237C108.404 19.3357 107.816 19.3467 107.228 19.3587C107.049 19.9117 107.588 20.4427 108.128 20.6577C108.726 20.8947 111.635 22.7477 109.89 23.5737C108.899 24.0427 108.484 22.4077 108.834 21.7827C109.388 23.0637 109.219 24.8497 110.19 25.9707C110.898 26.7877 111.976 26.9397 112.664 25.8617C113.856 23.9967 110.975 23.4367 110.686 21.8137Z" fill="#CACACA" fill-opacity="0.1"/>
<path d="M128.104 166.076C127.413 167.928 129.641 170.091 131.472 169.344C132 169.129 132.46 168.737 133.022 168.639C134.595 168.364 135.499 170.343 135.832 171.905C136.213 173.692 136.585 175.601 135.919 177.302C135.121 179.341 132.937 180.765 132.681 182.939C132.472 184.716 133.644 186.55 133.043 188.235C132.77 188.999 132.162 189.606 131.876 190.366C131.363 191.727 131.975 193.229 132.578 194.553C134.582 198.954 136.586 203.355 138.59 207.755C139.041 208.745 139.524 209.776 140.389 210.436C141.077 210.961 141.942 211.198 142.671 211.663C143.863 212.423 144.591 213.713 145.272 214.951C146.531 217.241 147.806 219.573 148.344 222.13C149.078 225.618 148.387 229.23 147.696 232.727C146.686 237.84 145.675 242.953 144.665 248.067C143.553 253.692 142.442 259.318 141.33 264.943C142.519 264.222 143.402 263.013 143.726 261.661C144.293 265.319 143.572 269.163 141.717 272.366C141.556 270.985 141.395 269.604 141.234 268.223C139.874 271.158 139.172 274.396 139.193 277.631C139.197 278.213 139.247 278.851 139.651 279.27C140.035 279.668 140.63 279.756 141.12 280.012C142.184 280.569 142.64 282.049 142.074 283.108C142.637 283.238 143.2 283.368 143.762 283.498C144.634 284.188 142.576 285.155 142.585 286.267C142.588 286.719 142.955 287.074 143.294 287.373C144.886 288.776 146.478 290.179 148.07 291.581C149.179 291.909 150.332 292.24 151.475 292.062C152.617 291.884 153.744 291.041 153.85 289.89C153.995 288.309 152.351 287.253 151.288 286.074C149.638 284.244 149.236 281.552 149.652 279.123C150.068 276.694 151.199 274.456 152.316 272.26C151.594 271.988 150.872 271.716 150.15 271.445C150.203 269.823 151.858 268.817 152.904 267.576C154.805 265.321 154.596 261.588 152.455 259.559C153.247 259.001 154.039 258.443 154.831 257.885C155.481 258.923 156.131 259.962 156.781 261C158.406 259.696 159.014 257.271 158.198 255.355C161.88 256.299 166.04 253.282 166.287 249.49C165.376 249.459 164.656 248.412 164.953 247.55C165.25 246.688 166.462 246.307 167.199 246.844C166.793 247.897 167.995 249.046 169.115 248.908C170.235 248.77 171.073 247.764 171.45 246.7C171.827 245.636 171.859 244.486 172.069 243.377C172.404 241.598 173.21 239.91 174.381 238.529C175.355 237.381 176.601 236.403 177.169 235.009C177.585 233.988 177.588 232.855 177.764 231.767C178.34 228.217 180.957 225.073 184.344 223.862C184.484 225.449 186.99 225.121 188.165 224.046C189.921 222.439 191.106 220.22 191.465 217.867C191.78 215.802 191.501 213.574 192.478 211.729C192.892 210.948 193.518 210.267 193.755 209.416C193.958 208.686 193.851 207.911 193.891 207.155C194.105 203.094 198.456 199.888 197.949 195.854C197.62 193.234 195.341 191.358 193.235 189.765C190.018 187.333 186.598 184.816 182.596 184.317C180.055 184 177.32 184.502 175.036 183.345C176.052 183.283 176.773 182.222 176.824 181.206C176.875 180.189 176.436 179.219 176.005 178.297C175.714 177.674 175.424 177.05 175.133 176.427C173.953 173.896 172.018 170.925 169.254 171.322C168.431 171.44 167.53 171.853 166.829 171.406C166.187 170.996 166.116 170.104 165.768 169.427C164.404 166.775 159.239 167.857 158.456 164.979C158.252 164.229 158.422 163.321 157.883 162.761C157.446 162.307 156.735 162.299 156.105 162.323C153.248 162.428 150.39 162.533 147.533 162.639C147.437 163.76 146.705 164.805 145.684 165.277C145.833 165.935 145.982 166.592 146.131 167.25C145.897 168.419 143.933 168.276 143.419 167.2C142.905 166.125 143.401 164.849 144.005 163.821C144.609 162.794 145.349 161.747 145.333 160.555C144.036 159.936 142.724 161.284 141.788 162.374C140.852 163.464 139.018 164.41 138.16 163.257C138.27 164.443 138.381 165.63 138.491 166.816C136.649 168.424 133.33 167.721 132.298 165.504C131.586 166.384 130.803 167.312 129.713 167.619C128.623 167.926 127.197 167.242 127.201 166.11C127.758 168.558 130.179 170.443 132.689 170.383" fill="#CACACA" fill-opacity="0.1"/>
<path d="M125.508 142.619C126.381 143.498 127.73 142.175 128.959 142.022C130.146 141.874 131.12 142.872 132.01 143.67C132.9 144.469 134.29 145.14 135.216 144.383C135.66 146.234 138.233 147.158 139.753 146.012C139.615 146.665 140.475 147.112 141.133 146.997C141.791 146.882 142.378 146.467 143.043 146.419C144.005 146.349 144.934 147.202 144.947 148.167C144.968 148.52 144.473 148.65 144.131 148.561C143.789 148.472 143.409 148.295 143.107 148.48C142.895 148.61 142.813 148.873 142.665 149.073C142.129 149.803 141.002 149.525 140.146 149.229C139.29 148.933 138.072 148.849 137.746 149.693C140.434 150.224 143.233 150.183 145.904 149.572C145.684 149.782 145.846 150.188 146.124 150.312C146.402 150.435 146.723 150.366 147.018 150.295C148.158 150.021 149.298 149.747 150.439 149.472C151.125 149.888 152.042 149.891 152.731 149.479C152.684 149.792 152.636 150.106 152.589 150.419C153.928 150.999 155.656 150.444 156.407 149.193C154.51 148.879 152.613 148.565 150.717 148.251C149.356 148.026 147.96 147.788 146.772 147.088C145.6 146.398 144.669 145.281 143.375 144.861C141.569 144.275 139.495 145.194 137.739 144.472C136.039 143.772 134.969 141.656 133.131 141.622C132.534 141.611 131.903 141.832 131.36 141.583C129.984 140.951 130.165 139.646 128.382 140.326C128.046 140.455 125.808 142.921 125.508 142.619Z" fill="#CACACA" fill-opacity="0.1"/>
</svg>
